ply
format ascii 1.0
comment Created by Blender 2.93.5 - www.blender.org
element vertex 44
property float x
property float y
property float z
property float nx
property float ny
property float nz
property float s
property float t
element face 22
property list uchar uint vertex_indices
end_header
24.082628 -13.555513 7.445929 0.310953 0.000000 0.950407 0.000000 1.000000
22.941351 -13.417329 7.819324 0.310953 0.000000 0.950407 0.000000 1.000000
22.941351 -13.636443 7.819324 0.310953 0.000000 0.950407 0.000000 1.000000
24.082628 -13.295892 7.445929 0.310923 0.000000 0.950407 0.000000 1.000000
22.941351 -13.117064 7.819323 0.310953 0.000000 0.950407 0.000000 1.000000
22.941351 -13.344293 7.819324 0.310953 0.000000 0.950407 0.000000 1.000000
24.082628 -13.029055 7.445928 0.310953 0.000000 0.950407 0.000000 1.000000
22.941351 -12.824912 7.819323 0.310923 0.000000 0.950407 0.000000 1.000000
22.941351 -13.044025 7.819323 0.310923 0.000000 0.950407 0.000000 1.000000
23.168875 -11.370516 7.770830 0.310892 0.000000 0.950438 0.000000 1.000000
22.923277 -12.218603 7.851171 0.310892 0.000000 0.950438 0.000000 1.000000
23.168875 -12.235116 7.770830 0.310892 0.000000 0.950438 0.000000 1.000000
21.253262 -11.181005 9.100738 0.310923 0.000000 0.950407 0.000000 1.000000
22.130848 -11.502387 8.813616 0.310953 0.000000 0.950407 0.000000 1.000000
22.130848 -11.305819 8.813616 0.310953 0.000000 0.950407 0.000000 1.000000
21.253262 -11.463495 9.100738 0.310923 0.000000 0.950407 0.000000 1.000000
22.130848 -11.771763 8.813616 0.310923 0.000000 0.950407 0.000000 1.000000
22.130848 -11.567913 8.813616 0.310923 0.000000 0.950407 0.000000 1.000000
21.253262 -11.753833 9.100738 0.310953 0.000000 0.950407 0.000000 1.000000
22.130848 -12.033855 8.813616 0.310923 0.000000 0.950407 0.000000 1.000000
22.130848 -11.837285 8.813616 0.310923 0.000000 0.950407 0.000000 1.000000
24.082628 -13.360796 7.445929 0.310953 0.000000 0.950407 0.000000 1.000000
24.082628 -13.093962 7.445928 0.310923 0.000000 0.950407 0.000000 1.000000
24.082628 -12.834339 7.445928 0.310953 0.000000 0.950407 0.000000 1.000000
22.923277 -11.332834 7.851171 0.310892 0.000000 0.950438 0.000000 1.000000
21.253262 -11.392872 9.100738 0.310923 0.000000 0.950407 0.000000 1.000000
21.253262 -11.683211 9.100738 0.310923 0.000000 0.950407 0.000000 1.000000
21.253262 -11.965702 9.100738 0.310953 0.000000 0.950407 0.000000 1.000000
33.978088 -13.456127 -27.720783 0.949370 0.000000 0.314066 0.000000 1.000000
33.622547 -13.244610 -26.646114 0.949370 0.000000 0.314066 0.000000 1.000000
33.622547 -13.456127 -26.646114 0.949370 0.000000 0.314066 0.000000 1.000000
33.978088 -13.174108 -27.720783 0.949370 0.000000 0.314066 0.000000 1.000000
33.622547 -12.954758 -26.646114 0.949370 0.000000 0.314097 0.000000 1.000000
33.622547 -13.174108 -26.646114 0.949370 0.000000 0.314097 0.000000 1.000000
33.978088 -12.884254 -27.720783 0.949370 0.000000 0.314066 0.000000 1.000000
33.622547 -12.672738 -26.646114 0.949370 0.000000 0.314066 0.000000 1.000000
33.622547 -12.884254 -26.646114 0.949370 0.000000 0.314066 0.000000 1.000000
33.978088 -13.244613 -27.720783 0.949370 0.000000 0.314066 0.000000 1.000000
33.978088 -12.954758 -27.720783 0.949370 0.000000 0.314066 0.000000 1.000000
33.978088 -12.672740 -27.720783 0.949370 0.000000 0.314066 0.000000 1.000000
33.951195 -11.886463 -27.796284 -0.055483 -0.998291 0.018128 0.000000 1.000000
33.413158 -11.886464 -29.440828 -0.055483 -0.998291 0.018128 0.000000 1.000000
35.228077 -11.998131 -30.034626 -0.055483 -0.998291 0.018128 0.000000 1.000000
35.766132 -11.998131 -28.390072 -0.055483 -0.998291 0.018128 0.000000 1.000000
3 0 1 2
3 3 4 5
3 6 7 8
3 9 10 11
3 12 13 14
3 15 16 17
3 18 19 20
3 0 21 1
3 3 22 4
3 6 23 7
3 9 24 10
3 12 25 13
3 15 26 16
3 18 27 19
3 28 29 30
3 31 32 33
3 34 35 36
3 28 37 29
3 31 38 32
3 34 39 35
3 40 41 42
3 42 43 40
