ply
format ascii 1.0
comment Created by Blender 2.93.5 - www.blender.org
element vertex 100
property float x
property float y
property float z
property float nx
property float ny
property float nz
property float s
property float t
element face 96
property list uchar uint vertex_indices
end_header
-14.726410 -18.063696 -75.071404 0.000000 0.000000 1.000000 0.000000 1.000000
-14.654693 -18.608526 -75.071404 0.000000 0.000000 0.999969 0.000000 1.000000
-14.654693 -17.518866 -75.071404 0.000000 0.000000 0.999969 0.000000 1.000000
-14.444379 -17.011162 -75.071404 0.000000 0.000000 1.000000 0.000000 1.000000
-14.444379 -19.116230 -75.071404 0.000000 0.000000 1.000000 0.000000 1.000000
-14.109856 -16.575190 -75.071404 0.000000 0.000000 1.000000 0.000000 1.000000
-14.109856 -19.552202 -75.071404 0.000000 0.000000 1.000000 0.000000 1.000000
-13.673876 -16.240656 -75.071404 0.000000 0.000000 1.000000 0.000000 1.000000
-13.673876 -19.886736 -75.071404 0.000000 0.000000 1.000000 0.000000 1.000000
-13.166178 -16.030355 -75.071404 0.000000 0.000000 1.000000 0.000000 1.000000
-13.166178 -20.097036 -75.071404 0.000000 0.000000 1.000000 0.000000 1.000000
-12.621342 -15.958631 -75.071404 0.000000 0.000000 0.999969 0.000000 1.000000
-12.621342 -18.063696 -75.071404 0.000000 0.000000 0.999969 0.000000 1.000000
-12.621342 -20.168762 -75.071404 0.000000 0.000000 1.000000 0.000000 1.000000
-12.076507 -16.030355 -75.071404 0.000000 0.000000 1.000000 0.000000 1.000000
-12.076507 -20.097036 -75.071404 0.000000 0.000000 0.999969 0.000000 1.000000
-11.568807 -16.240656 -75.071404 0.000000 0.000000 1.000000 0.000000 1.000000
-11.568807 -19.886740 -75.071404 0.000000 0.000000 1.000000 0.000000 1.000000
-11.132827 -16.575190 -75.071404 0.000000 0.000000 1.000000 0.000000 1.000000
-11.132827 -19.552202 -75.071404 0.000000 0.000000 1.000000 0.000000 1.000000
-10.798305 -17.011162 -75.071404 0.000000 0.000000 1.000000 0.000000 1.000000
-10.798305 -19.116230 -75.071404 0.000000 0.000000 1.000000 0.000000 1.000000
-10.587992 -17.518864 -75.071404 0.000000 0.000000 1.000000 0.000000 1.000000
-10.587992 -18.608526 -75.071404 0.000000 0.000000 1.000000 0.000000 1.000000
-10.516273 -18.063696 -75.071404 0.000000 0.000000 1.000000 0.000000 1.000000
-14.752556 -8.781788 -75.228271 0.000000 0.000000 1.000000 0.000000 1.000000
-14.680839 -9.326618 -75.228271 0.000000 0.000000 1.000000 0.000000 1.000000
-14.680839 -8.236958 -75.228271 -0.000061 0.000000 0.999969 0.000000 1.000000
-14.470525 -7.729253 -75.228271 0.000031 0.000000 1.000000 0.000000 1.000000
-14.470525 -9.834323 -75.228271 0.000000 0.000000 1.000000 0.000000 1.000000
-14.136002 -7.293282 -75.228271 0.000000 0.000000 1.000000 0.000000 1.000000
-14.136002 -10.270294 -75.228271 0.000000 0.000000 0.999969 0.000000 1.000000
-13.700022 -6.958746 -75.228271 0.000000 0.000000 1.000000 0.000000 1.000000
-13.700022 -10.604829 -75.228271 0.000000 0.000000 1.000000 0.000000 1.000000
-13.192324 -6.748447 -75.228271 0.000000 0.000000 1.000000 0.000000 1.000000
-13.192324 -10.815127 -75.228271 0.000000 0.000000 1.000000 0.000000 1.000000
-12.647488 -6.676721 -75.228271 0.000000 0.000000 1.000000 0.000000 1.000000
-12.647488 -8.781788 -75.228271 0.000000 0.000000 1.000000 0.000000 1.000000
-12.647488 -10.886854 -75.228271 0.000000 0.000000 0.999969 0.000000 1.000000
-12.102653 -6.748447 -75.228271 0.000000 0.000000 1.000000 0.000000 1.000000
-12.102653 -10.815127 -75.228271 0.000000 0.000000 1.000000 0.000000 1.000000
-11.594953 -6.958746 -75.228271 0.000000 0.000000 1.000000 0.000000 1.000000
-11.594953 -10.604831 -75.228271 0.000000 0.000000 1.000000 0.000000 1.000000
-11.158973 -7.293282 -75.228271 0.000000 0.000000 1.000000 0.000000 1.000000
-11.158973 -10.270294 -75.228271 0.000000 0.000000 1.000000 0.000000 1.000000
-10.824450 -7.729253 -75.228271 0.000000 0.000000 1.000000 0.000000 1.000000
-10.824450 -9.834323 -75.228271 0.000000 0.000000 1.000000 0.000000 1.000000
-10.614138 -8.236957 -75.228271 0.000000 0.000000 1.000000 0.000000 1.000000
-10.614138 -9.326618 -75.228271 0.000000 0.000000 1.000000 0.000000 1.000000
-10.542418 -8.781788 -75.228271 0.000000 0.000000 1.000000 0.000000 1.000000
10.556988 -8.781788 -75.228271 0.000000 0.000000 1.000000 0.000000 1.000000
10.628707 -9.326618 -75.228271 0.000000 0.000000 1.000000 0.000000 1.000000
10.628707 -8.236958 -75.228271 -0.000061 0.000000 1.000000 0.000000 1.000000
10.839020 -7.729253 -75.228271 0.000000 0.000000 1.000000 0.000000 1.000000
10.839019 -9.834323 -75.228271 0.000000 0.000000 1.000000 0.000000 1.000000
11.173542 -10.270294 -75.228271 0.000000 0.000000 1.000000 0.000000 1.000000
11.173542 -7.293282 -75.228271 0.000000 0.000000 1.000000 0.000000 1.000000
11.609523 -6.958746 -75.228271 0.000000 0.000000 1.000000 0.000000 1.000000
11.609523 -10.604829 -75.228271 0.000000 0.000000 1.000000 0.000000 1.000000
12.117221 -6.748447 -75.228271 0.000000 0.000000 1.000000 0.000000 1.000000
12.117221 -10.815127 -75.228271 0.000000 0.000000 1.000000 0.000000 1.000000
12.662057 -6.676721 -75.228271 0.000000 0.000000 1.000000 0.000000 1.000000
12.662057 -8.781788 -75.228271 0.000000 0.000000 1.000000 0.000000 1.000000
12.662057 -10.886854 -75.228271 0.000000 0.000000 0.999969 0.000000 1.000000
13.206893 -6.748447 -75.228271 0.000000 0.000000 1.000000 0.000000 1.000000
13.206893 -10.815127 -75.228271 0.000000 0.000000 0.999969 0.000000 1.000000
13.714592 -6.958746 -75.228271 0.000000 0.000000 1.000000 0.000000 1.000000
13.714592 -10.604831 -75.228271 0.000000 0.000000 1.000000 0.000000 1.000000
14.150573 -7.293282 -75.228271 0.000000 0.000000 1.000000 0.000000 1.000000
14.150573 -10.270294 -75.228271 0.000000 0.000000 1.000000 0.000000 1.000000
14.485094 -7.729253 -75.228271 0.000000 0.000000 0.999969 0.000000 1.000000
14.485094 -9.834323 -75.228271 0.000000 0.000000 1.000000 0.000000 1.000000
14.695407 -8.236957 -75.228271 0.000000 0.000000 1.000000 0.000000 1.000000
14.695407 -9.326618 -75.228271 0.000000 0.000000 1.000000 0.000000 1.000000
14.767127 -8.781788 -75.228271 0.000000 0.000000 1.000000 0.000000 1.000000
10.556988 -18.063696 -75.149834 0.000000 0.000000 1.000000 0.000000 1.000000
10.628707 -18.608526 -75.149834 0.000000 0.000000 1.000000 0.000000 1.000000
10.628707 -17.518866 -75.149834 -0.000061 0.000000 1.000000 0.000000 1.000000
10.839020 -17.011164 -75.149834 0.000000 0.000000 1.000000 0.000000 1.000000
10.839019 -19.116232 -75.149834 0.000000 0.000000 0.999969 0.000000 1.000000
11.173542 -19.552202 -75.149834 0.000000 0.000000 1.000000 0.000000 1.000000
11.173542 -16.575190 -75.149834 0.000000 0.000000 1.000000 0.000000 1.000000
11.609523 -16.240656 -75.149834 0.000000 0.000000 1.000000 0.000000 1.000000
11.609523 -19.886736 -75.149834 0.000000 0.000000 1.000000 0.000000 1.000000
12.117221 -16.030355 -75.149834 0.000000 0.000000 1.000000 0.000000 1.000000
12.117221 -20.097036 -75.149834 0.000000 0.000000 1.000000 0.000000 1.000000
12.662057 -15.958631 -75.149834 0.000000 0.000000 0.999969 0.000000 1.000000
12.662057 -18.063696 -75.149834 0.000000 0.000000 0.999969 0.000000 1.000000
12.662057 -20.168762 -75.149834 0.000000 0.000000 1.000000 0.000000 1.000000
13.206893 -16.030355 -75.149834 0.000000 0.000000 1.000000 0.000000 1.000000
13.206893 -20.097036 -75.149834 0.000000 0.000000 1.000000 0.000000 1.000000
13.714592 -16.240656 -75.149834 0.000000 0.000000 1.000000 0.000000 1.000000
13.714592 -19.886740 -75.149834 0.000000 0.000000 1.000000 0.000000 1.000000
14.150573 -16.575190 -75.149834 0.000000 0.000000 1.000000 0.000000 1.000000
14.150573 -19.552202 -75.149834 0.000000 0.000000 1.000000 0.000000 1.000000
14.485094 -17.011164 -75.149834 0.000000 0.000000 1.000000 0.000000 1.000000
14.485094 -19.116232 -75.149834 0.000000 0.000000 1.000000 0.000000 1.000000
14.695407 -17.518866 -75.149834 0.000031 0.000000 1.000000 0.000000 1.000000
14.695407 -18.608526 -75.149834 0.000000 0.000000 0.999969 0.000000 1.000000
14.767127 -18.063696 -75.149834 0.000000 0.000000 1.000000 0.000000 1.000000
3 0 1 2
3 2 1 3
3 1 4 3
3 3 4 5
3 4 6 5
3 5 6 7
3 6 8 7
3 7 8 9
3 8 10 9
3 9 10 11
3 12 10 13
3 10 12 11
3 11 12 14
3 15 12 13
3 12 15 14
3 14 15 16
3 15 17 16
3 16 17 18
3 17 19 18
3 18 19 20
3 19 21 20
3 20 21 22
3 23 22 21
3 24 22 23
3 25 26 27
3 27 26 28
3 26 29 28
3 28 29 30
3 29 31 30
3 30 31 32
3 31 33 32
3 32 33 34
3 33 35 34
3 34 35 36
3 37 35 38
3 35 37 36
3 36 37 39
3 40 37 38
3 37 40 39
3 39 40 41
3 40 42 41
3 41 42 43
3 42 44 43
3 43 44 45
3 44 46 45
3 45 46 47
3 48 47 46
3 49 47 48
3 50 51 52
3 52 51 53
3 51 54 53
3 55 53 54
3 53 55 56
3 56 55 57
3 55 58 57
3 57 58 59
3 58 60 59
3 59 60 61
3 62 60 63
3 60 62 61
3 61 62 64
3 65 62 63
3 62 65 64
3 64 65 66
3 65 67 66
3 66 67 68
3 67 69 68
3 68 69 70
3 69 71 70
3 70 71 72
3 73 72 71
3 74 72 73
3 75 76 77
3 77 76 78
3 76 79 78
3 80 78 79
3 78 80 81
3 81 80 82
3 80 83 82
3 82 83 84
3 83 85 84
3 84 85 86
3 87 85 88
3 85 87 86
3 86 87 89
3 90 87 88
3 87 90 89
3 89 90 91
3 90 92 91
3 91 92 93
3 92 94 93
3 93 94 95
3 94 96 95
3 95 96 97
3 98 97 96
3 99 97 98
