ply
format ascii 1.0
comment Created by Blender 2.93.5 - www.blender.org
element vertex 66
property float x
property float y
property float z
property float nx
property float ny
property float nz
property float s
property float t
element face 64
property list uchar uint vertex_indices
end_header
5.173508 -17.093067 6.333557 0.632435 0.632435 -0.447188 13.433776 -28.249435
6.809026 -17.145826 6.333557 -0.297098 0.717277 -0.630238 17.522570 -28.249435
5.226266 -17.145826 6.333557 0.297098 0.717277 -0.630238 13.565672 -28.249435
6.861784 -17.093067 6.333557 -0.632435 0.632435 -0.447218 17.654467 -28.249435
1.585921 -17.093071 6.333557 0.632435 0.632435 -0.447188 4.464809 -28.249435
1.638680 -17.145830 6.333557 0.297098 0.717277 -0.630238 4.596705 -28.249435
1.585941 -17.093073 4.457886 0.707083 0.707083 0.000000 4.464858 -23.560257
3.221439 -17.145830 6.333557 -0.297098 0.717277 -0.630238 8.553603 -28.249435
3.274197 -17.093071 6.333557 -0.632435 0.632435 -0.447218 8.685499 -28.249435
3.221458 -17.145832 4.457886 -0.382672 0.923856 0.000000 8.553651 -23.560257
3.274217 -17.093073 4.457886 -0.707083 0.707083 0.000000 8.685548 -23.560257
1.638699 -17.145832 4.457886 0.382672 0.923856 0.000000 4.596754 -23.560257
1.638675 -17.145830 -17.465981 0.297098 0.717277 0.630238 4.596693 31.249405
3.221433 -17.145830 -17.465981 -0.297098 0.717277 0.630238 8.553589 31.249405
1.585916 -17.093071 -17.465981 0.632435 0.632435 0.447188 4.464796 31.249405
3.274192 -17.093071 -17.465981 -0.632435 0.632435 0.447188 8.685486 31.249405
5.226263 -17.145830 -17.465981 0.297098 0.717277 0.630238 13.565662 31.249405
6.809021 -17.145830 -17.465981 -0.297098 0.717277 0.630238 17.522558 31.249405
5.173504 -17.093071 -17.465981 0.632435 0.632435 0.447188 13.433765 31.249405
6.861780 -17.093071 -17.465981 -0.632435 0.632435 0.447188 17.654455 31.249405
-5.173512 -17.093071 6.333551 -0.632435 0.632435 -0.447188 -12.433773 -28.249420
-5.226270 -17.145830 6.333551 -0.297098 0.717277 -0.630238 -12.565670 -28.249420
-6.809030 -17.145830 6.333551 0.297098 0.717277 -0.630238 -16.522568 -28.249420
-6.861787 -17.093071 6.333551 0.632466 0.632405 -0.447218 -16.654463 -28.249420
-1.585925 -17.093071 6.333551 -0.632435 0.632435 -0.447188 -3.464806 -28.249420
-1.585945 -17.093073 4.457880 -0.707083 0.707083 0.000000 -3.464857 -23.560242
-1.638683 -17.145830 6.333551 -0.297098 0.717277 -0.630238 -3.596702 -28.249420
-3.221442 -17.145830 6.333551 0.297098 0.717277 -0.630238 -7.553598 -28.249420
-3.221463 -17.145832 4.457880 0.382672 0.923856 0.000000 -7.553651 -23.560242
-3.274200 -17.093071 6.333551 0.632435 0.632435 -0.447218 -7.685495 -28.249420
-3.274221 -17.093073 4.457880 0.707083 0.707083 0.000000 -7.685547 -23.560242
-1.638704 -17.145832 4.457880 -0.382672 0.923856 0.000000 -3.596754 -23.560242
-1.638685 -17.145830 -17.465986 -0.297098 0.717277 0.630238 -3.596706 31.249420
-1.585926 -17.093071 -17.465986 -0.632435 0.632435 0.447188 -3.464809 31.249420
-3.221444 -17.145830 -17.465986 0.297098 0.717277 0.630238 -7.553603 31.249420
-3.274202 -17.093071 -17.465986 0.632435 0.632435 0.447218 -7.685499 31.249420
-5.226270 -17.145830 -17.465986 -0.297098 0.717277 0.630238 -12.565670 31.249420
-5.173512 -17.093071 -17.465986 -0.632435 0.632435 0.447188 -12.433773 31.249420
-6.809029 -17.145830 -17.465986 0.297098 0.717277 0.630238 -16.522566 31.249420
-6.861787 -17.093071 -17.465986 0.632435 0.632435 0.447218 -16.654463 31.249420
5.226286 -17.145828 4.457886 0.382672 0.923856 0.000000 13.565721 -23.560257
5.173528 -17.093069 4.457886 0.707114 0.707083 0.000000 13.433825 -23.560257
6.861804 -17.093069 4.457886 -0.707083 0.707083 0.000000 17.654514 -23.560257
6.809045 -17.145828 4.457886 -0.382672 0.923856 0.000000 17.522617 -23.560257
1.585916 -17.093071 -15.461109 0.706961 0.707236 0.000000 4.464796 26.237228
1.638695 -17.145830 -15.590308 0.467055 0.884213 0.000000 4.596744 26.560226
3.221454 -17.145830 -15.590308 -0.707083 0.707083 0.000000 8.553640 26.560226
3.274213 -17.093071 -15.590308 -0.707083 0.707083 0.000000 8.685537 26.560226
3.221433 -17.145830 -15.461109 0.000000 1.000000 0.000000 8.553589 26.237228
5.173524 -17.093071 -15.590308 0.707083 0.707083 0.000000 13.433817 26.560226
5.226284 -17.145830 -15.590308 0.382672 0.923856 0.000000 13.565714 26.560226
6.809042 -17.145830 -15.590308 -0.382672 0.923856 0.000000 17.522610 26.560226
6.861801 -17.093071 -15.590308 -0.707083 0.707083 0.000000 17.654507 26.560226
-5.173532 -17.093073 4.457880 -0.707083 0.707083 0.000000 -12.433825 -23.560242
-5.226291 -17.145832 4.457880 -0.382672 0.923856 0.000000 -12.565721 -23.560242
-6.809049 -17.145832 4.457880 0.382672 0.923856 0.000000 -16.522617 -23.560242
-6.861807 -17.093073 4.457880 0.707083 0.707083 0.000000 -16.654512 -23.560242
-1.638705 -17.145834 -15.590314 -0.467055 0.884182 0.000000 -3.596757 26.560242
-1.585926 -17.093071 -15.461115 -0.706992 0.707205 0.000000 -3.464809 26.237244
-3.274223 -17.093075 -15.590314 0.707083 0.707083 0.000000 -7.685552 26.560242
-3.221464 -17.145834 -15.590314 0.707083 0.707083 0.000000 -7.553655 26.560242
-3.221444 -17.145830 -15.461115 0.000000 1.000000 0.000000 -7.553603 26.237244
-5.226291 -17.145834 -15.590290 -0.382672 0.923856 0.000000 -12.565721 26.560181
-5.173532 -17.093075 -15.590296 -0.707083 0.707083 0.000000 -12.433824 26.560196
-6.861808 -17.093075 -15.590290 0.707083 0.707083 0.000000 -16.654514 26.560181
-6.809049 -17.145834 -15.590290 0.382672 0.923856 0.000000 -16.522617 26.560181
3 0 1 2
3 1 0 3
3 4 5 6
3 7 8 9
3 10 9 8
3 9 5 7
3 6 5 11
3 5 9 11
3 4 7 5
3 7 4 8
3 12 13 14
3 15 14 13
3 16 17 18
3 19 18 17
3 20 21 22
3 22 23 20
3 24 25 26
3 27 28 29
3 30 29 28
3 28 27 26
3 25 31 26
3 26 31 28
3 24 26 27
3 27 29 24
3 32 33 34
3 35 34 33
3 36 37 38
3 39 38 37
3 0 2 40
3 40 41 0
3 1 3 42
3 42 43 1
3 1 43 40
3 40 2 1
3 14 44 45
3 45 12 14
3 13 46 47
3 47 15 13
3 12 45 48
3 48 13 12
3 18 49 50
3 50 16 18
3 17 51 52
3 52 19 17
3 17 16 50
3 50 51 17
3 20 53 54
3 54 21 20
3 22 55 56
3 56 23 22
3 22 21 54
3 54 55 22
3 57 58 33
3 33 32 57
3 34 35 59
3 59 60 34
3 32 34 61
3 61 57 32
3 37 36 62
3 62 63 37
3 38 39 64
3 64 65 38
3 38 65 62
3 62 36 38
