ply
format ascii 1.0
comment Created by Blender 2.93.5 - www.blender.org
element vertex 32
property float x
property float y
property float z
property float nx
property float ny
property float nz
property float s
property float t
element face 44
property list uchar uint vertex_indices
end_header
5.861724 -23.216318 -73.043190 -0.661794 -0.687094 0.299844 2.662277 4.421796
19.799627 -19.312185 -69.415337 0.766686 -0.480056 0.426252 3.591470 4.276682
8.204227 -15.091499 -66.336540 -0.494369 0.391247 0.776177 2.818444 4.153530
18.159864 -15.091499 -66.533867 0.471999 0.437178 0.765526 3.482153 4.161423
18.159885 -15.091494 -73.181450 0.446852 0.691000 -0.568133 3.482154 4.427326
19.799627 -19.312181 -73.636024 0.752922 -0.326243 -0.571490 3.591470 4.445509
8.204227 -15.091493 -72.984093 -0.479812 0.755913 -0.445326 2.818444 4.419432
5.861723 -23.216312 -77.263893 -0.503006 -0.460646 -0.731254 2.662277 4.590624
33.356781 -13.403219 -66.707413 -0.517411 0.668966 0.533586 4.495281 4.168365
43.463749 -14.036326 -65.870293 0.102939 -0.570757 0.814631 5.169079 4.134880
44.042179 -12.875636 -65.799194 -0.084231 0.861263 0.501083 5.207641 4.132036
30.975452 -17.940462 -66.938797 -0.739555 -0.515854 0.432295 4.336525 4.177620
45.879517 -14.036323 -73.579506 0.229652 -0.487350 -0.842433 5.330130 4.443249
33.115414 -17.940456 -74.802063 -0.519456 -0.559587 -0.645741 4.479189 4.492151
35.429085 -13.403217 -74.517784 -0.323710 0.669271 -0.668752 4.633434 4.480780
46.457943 -12.875632 -73.508438 0.018616 0.787835 -0.615558 5.368691 4.440406
35.315929 -12.348039 -74.509804 -0.300516 -0.684347 -0.664327 4.625890 4.480460
45.755852 -11.503900 -73.574455 0.199225 0.502853 -0.841090 5.321886 4.443047
46.334259 -12.664595 -73.503380 0.033509 -0.784936 -0.618641 5.360446 4.440204
33.119396 -8.549417 -74.796379 -0.554186 0.515580 -0.653432 4.479455 4.491923
43.342678 -11.503908 -65.859673 0.070894 0.594378 0.801019 5.161007 4.134455
30.979416 -8.549421 -66.933105 -0.770165 0.474715 0.425947 4.336790 4.177392
33.243626 -12.348042 -66.699402 -0.492416 -0.681967 0.540757 4.487737 4.168044
43.921089 -12.664598 -65.788612 -0.069033 -0.856380 0.511673 5.199568 4.131613
19.799622 -7.388735 -69.520851 0.757195 0.501419 0.418561 3.591470 4.280902
5.861723 -4.434246 -73.148735 -0.697806 0.658498 0.281747 2.662277 4.426018
8.204225 -11.609424 -66.442055 -0.496689 -0.373730 0.783319 2.818444 4.157751
18.159859 -11.609426 -66.639381 0.471999 -0.437178 0.765526 3.482152 4.165644
19.799622 -7.388731 -73.741539 0.741417 0.353130 -0.570574 3.591470 4.449730
18.159859 -11.609422 -73.286980 0.446852 -0.691000 -0.568133 3.482152 4.431547
8.204226 -11.609420 -73.089638 -0.464919 -0.773766 -0.430189 2.818444 4.423654
5.861723 -4.434247 -77.369400 -0.519242 0.420576 -0.743950 2.662277 4.594844
3 0 1 2
3 3 2 1
3 4 5 6
3 7 6 5
3 8 9 10
3 9 8 11
3 12 9 13
3 13 9 11
3 14 8 10
3 15 14 10
3 13 14 12
3 12 14 15
3 11 14 13
3 11 8 14
3 16 17 18
3 17 16 19
3 20 17 21
3 21 17 19
3 22 16 18
3 23 22 18
3 21 22 20
3 20 22 23
3 19 22 21
3 19 16 22
3 24 25 26
3 26 27 24
3 28 29 30
3 30 31 28
3 3 4 6
3 6 2 3
3 1 5 4
3 4 3 1
3 0 7 5
3 5 1 0
3 2 6 7
3 7 0 2
3 27 26 30
3 30 29 27
3 24 27 29
3 29 28 24
3 25 24 28
3 28 31 25
3 26 25 31
3 31 30 26
