ply
format ascii 1.0
comment Created by Blender 2.93.5 - www.blender.org
element vertex 122
property float x
property float y
property float z
property float nx
property float ny
property float nz
property float s
property float t
element face 196
property list uchar uint vertex_indices
end_header
8.789545 -15.553058 -1.450984 0.577349 0.577349 -0.577349 0.000000 1.000000
8.789545 -15.553058 0.659363 0.577349 0.577349 0.577349 0.000000 1.000000
8.789545 -15.869609 -0.395813 0.730216 -0.683187 -0.002899 0.000000 1.000000
8.789545 -15.900373 -0.101105 0.737083 -0.657613 -0.155644 0.000000 1.000000
8.789545 -15.900373 -0.716919 0.735771 -0.661122 0.146733 0.000000 1.000000
8.789545 -15.986508 -0.959381 0.742393 -0.590594 0.316233 0.000000 1.000000
8.789545 -15.986508 0.127154 0.741386 -0.586657 -0.325816 0.000000 1.000000
8.789545 -16.118790 0.300043 0.738395 -0.476058 -0.477584 0.000000 1.000000
8.789545 -16.118790 -1.136353 0.741661 -0.472518 0.476058 0.000000 1.000000
8.789545 -16.287987 -1.260870 0.733360 -0.338633 0.589435 0.000000 1.000000
8.789545 -16.287987 0.428644 0.730125 -0.357402 -0.582324 0.000000 1.000000
8.789545 -16.484871 0.523999 0.721213 -0.262947 -0.640828 0.000000 1.000000
8.789545 -16.484871 -1.346088 0.723289 -0.228919 0.651448 0.000000 1.000000
8.789545 -16.700212 -1.405090 0.714591 -0.162542 0.680380 0.000000 1.000000
8.789545 -16.700212 0.597223 0.713645 -0.206244 -0.669424 0.000000 1.000000
8.789545 -16.924782 0.659363 0.538194 -0.835139 0.113407 0.000000 1.000000
8.789545 -16.924782 -1.450983 0.537675 -0.838862 -0.084811 0.000000 1.000000
8.736787 -16.700212 -1.405090 -0.714591 -0.162542 0.680380 0.000000 1.000000
8.736787 -15.553058 -1.450984 -0.577349 0.577349 -0.577349 0.000000 1.000000
8.736787 -16.924782 -1.450983 -0.537675 -0.838862 -0.084811 0.000000 1.000000
8.736787 -16.484871 -1.346088 -0.723289 -0.228919 0.651448 0.000000 1.000000
8.736787 -16.287987 -1.260870 -0.733360 -0.338633 0.589435 0.000000 1.000000
8.736787 -16.118790 -1.136353 -0.741661 -0.472518 0.476058 0.000000 1.000000
8.736787 -15.986508 -0.959381 -0.742393 -0.590594 0.316233 0.000000 1.000000
8.736787 -15.900373 -0.716919 -0.735771 -0.661122 0.146733 0.000000 1.000000
8.736787 -15.553058 0.659363 -0.577349 0.577349 0.577349 0.000000 1.000000
8.736787 -15.869609 -0.395813 -0.730216 -0.683187 -0.002899 0.000000 1.000000
8.736787 -15.900373 -0.101105 -0.737083 -0.657582 -0.155644 0.000000 1.000000
8.736787 -15.986508 0.127154 -0.741386 -0.586657 -0.325816 0.000000 1.000000
8.736787 -16.118790 0.300043 -0.738395 -0.476058 -0.477584 0.000000 1.000000
8.736787 -16.287987 0.428644 -0.730125 -0.357402 -0.582324 0.000000 1.000000
8.736787 -16.484871 0.523999 -0.721213 -0.262947 -0.640828 0.000000 1.000000
8.736787 -16.700212 0.597223 -0.713645 -0.206244 -0.669424 0.000000 1.000000
8.736787 -16.924782 0.659363 -0.538194 -0.835139 0.113407 0.000000 1.000000
8.789546 -15.553061 -16.249783 0.577349 0.577349 -0.577349 0.000000 1.000000
8.789546 -15.553061 -16.197023 0.577319 0.577319 0.577349 0.000000 1.000000
8.789546 -19.689337 -16.197021 0.577349 -0.577349 0.577349 0.000000 1.000000
8.789546 -19.689337 -16.249781 0.577349 -0.577349 -0.577349 0.000000 1.000000
8.770545 -19.689337 -16.197021 -0.564196 -0.588000 0.579547 0.000000 1.000000
8.599616 -15.553061 -16.197023 -0.590228 0.566332 0.575182 0.000000 1.000000
8.599616 -15.553061 -16.249783 -0.590228 0.566332 -0.575213 0.000000 1.000000
8.770545 -19.689337 -16.249781 -0.564196 -0.588000 -0.579547 0.000000 1.000000
8.789546 -15.553057 -14.139435 0.577349 0.577349 -0.577349 0.000000 1.000000
8.789546 -15.553057 -14.086677 0.577349 0.577349 0.577349 0.000000 1.000000
8.789546 -19.525536 -14.086677 0.577349 -0.577349 0.577349 0.000000 1.000000
8.789546 -19.525536 -14.139435 0.577349 -0.577349 -0.577349 0.000000 1.000000
8.770545 -19.525536 -14.086677 -0.563677 -0.588427 0.579638 0.000000 1.000000
8.599616 -15.553057 -14.086677 -0.590747 0.565874 0.575121 0.000000 1.000000
8.599616 -15.553057 -14.139435 -0.590747 0.565874 -0.575121 0.000000 1.000000
8.770545 -19.525536 -14.139435 -0.563677 -0.588427 -0.579638 0.000000 1.000000
8.789546 -15.553059 -12.029090 0.577349 0.577349 -0.577349 0.000000 1.000000
8.789546 -15.553059 -11.976331 0.577349 0.577349 0.577349 0.000000 1.000000
8.789546 -19.368229 -11.976331 0.577349 -0.577349 0.577349 0.000000 1.000000
8.789546 -19.368229 -12.029090 0.577349 -0.577349 -0.577349 0.000000 1.000000
8.770545 -19.368229 -11.976331 -0.563097 -0.588885 0.579730 0.000000 1.000000
8.599616 -15.553059 -11.976331 -0.591296 0.565386 0.575030 0.000000 1.000000
8.599616 -15.553059 -12.029090 -0.591296 0.565386 -0.575030 0.000000 1.000000
8.770545 -19.368229 -12.029090 -0.563097 -0.588885 -0.579730 0.000000 1.000000
8.789546 -15.553060 -9.918756 0.577349 0.577349 -0.577349 0.000000 1.000000
8.789546 -15.553060 -9.865997 0.577319 0.577319 0.577349 0.000000 1.000000
8.789546 -19.217148 -9.865997 0.577349 -0.577349 0.577349 0.000000 1.000000
8.789546 -19.217148 -9.918756 0.577349 -0.577349 -0.577349 0.000000 1.000000
8.770545 -19.217148 -9.865997 -0.562517 -0.589343 0.579821 0.000000 1.000000
8.599616 -15.553060 -9.865997 -0.591876 0.564898 0.574938 0.000000 1.000000
8.599616 -15.553060 -9.918756 -0.591876 0.564898 -0.574938 0.000000 1.000000
8.770545 -19.217148 -9.918756 -0.562517 -0.589343 -0.579821 0.000000 1.000000
8.789546 -15.553059 -7.808400 0.577349 0.577349 -0.577349 0.000000 1.000000
8.789546 -15.553059 -7.755641 0.577349 0.577349 0.577349 0.000000 1.000000
8.789546 -19.072050 -7.755640 0.577349 -0.577349 0.577349 0.000000 1.000000
8.789546 -19.072050 -7.808399 0.577349 -0.577349 -0.577349 0.000000 1.000000
8.770545 -19.072050 -7.755640 -0.561876 -0.589831 0.579943 0.000000 1.000000
8.599616 -15.553059 -7.755641 -0.592456 0.564379 0.574816 0.000000 1.000000
8.599616 -15.553059 -7.808400 -0.592456 0.564379 -0.574816 0.000000 1.000000
8.770545 -19.072050 -7.808399 -0.561876 -0.589831 -0.579943 0.000000 1.000000
8.789546 -15.553061 -5.698054 0.577349 0.577349 -0.577349 0.000000 1.000000
8.789546 -15.553061 -5.645296 0.577349 0.577349 0.577319 0.000000 1.000000
8.789546 -18.890486 -5.645295 0.577349 -0.577349 0.577349 0.000000 1.000000
8.789546 -18.890486 -5.698053 0.577349 -0.577349 -0.577349 0.000000 1.000000
8.770545 -18.890486 -5.645295 -0.561052 -0.590503 0.580065 0.000000 1.000000
8.599616 -15.553061 -5.645296 -0.593280 0.563646 0.574694 0.000000 1.000000
8.599616 -15.553061 -5.698054 -0.593280 0.563646 -0.574694 0.000000 1.000000
8.770545 -18.890486 -5.698053 -0.561022 -0.590503 -0.580065 0.000000 1.000000
8.789546 -15.553061 -3.587708 0.577349 0.577349 -0.577349 0.000000 1.000000
8.789546 -15.553061 -3.534949 0.577349 0.577349 0.577349 0.000000 1.000000
8.789546 -18.735554 -3.534949 0.577349 -0.577349 0.577349 0.000000 1.000000
8.789546 -18.735554 -3.587708 0.577349 -0.577349 -0.577349 0.000000 1.000000
8.770545 -18.735554 -3.534949 -0.560228 -0.591144 0.580218 0.000000 1.000000
8.599616 -15.553061 -3.534949 -0.594043 0.562975 0.574572 0.000000 1.000000
8.599616 -15.553061 -3.587708 -0.594043 0.562975 -0.574572 0.000000 1.000000
8.770545 -18.735554 -3.587708 -0.560228 -0.591144 -0.580218 0.000000 1.000000
8.789546 -15.553058 -1.477363 0.577349 0.577349 -0.577349 0.000000 1.000000
8.789546 -15.553058 -1.424603 0.577349 0.577349 0.577349 0.000000 1.000000
8.789546 -18.570084 -1.424603 0.577349 -0.577349 0.577349 0.000000 1.000000
8.789546 -18.570084 -1.477362 0.577349 -0.577349 -0.577349 0.000000 1.000000
8.770545 -18.570084 -1.424603 -0.559282 -0.591876 0.580370 0.000000 1.000000
8.599616 -15.553058 -1.424603 -0.594928 0.562181 0.574419 0.000000 1.000000
8.599616 -15.553058 -1.477363 -0.594928 0.562181 -0.574419 0.000000 1.000000
8.770545 -18.570084 -1.477362 -0.559282 -0.591876 -0.580370 0.000000 1.000000
8.789546 -15.553061 0.632983 0.577349 0.577349 -0.577349 0.000000 1.000000
8.789546 -15.553061 0.685742 0.577319 0.577319 0.577349 0.000000 1.000000
8.789546 -18.420263 0.685742 0.577349 -0.577349 0.577349 0.000000 1.000000
8.789546 -18.420263 0.632983 0.577349 -0.577349 -0.577349 0.000000 1.000000
8.770545 -18.420263 0.685742 -0.558336 -0.592608 0.580523 0.000000 1.000000
8.599616 -15.553061 0.685742 -0.595843 0.561388 0.574267 0.000000 1.000000
8.599616 -15.553061 0.632983 -0.595843 0.561357 -0.574267 0.000000 1.000000
8.770545 -18.420263 0.632983 -0.558336 -0.592608 -0.580523 0.000000 1.000000
8.789546 -15.553058 2.743329 0.577349 0.577349 -0.577349 0.000000 1.000000
8.789546 -15.553058 2.796088 0.577349 0.577349 0.577349 0.000000 1.000000
8.789546 -18.248945 2.796088 0.577349 -0.577349 0.577349 0.000000 1.000000
8.789546 -18.248945 2.743329 0.577349 -0.577349 -0.577349 0.000000 1.000000
8.770545 -18.248945 2.796088 -0.557115 -0.593554 0.580737 0.000000 1.000000
8.599616 -15.553058 2.796088 -0.597003 0.560350 0.574084 0.000000 1.000000
8.599616 -15.553058 2.743329 -0.597003 0.560350 -0.574084 0.000000 1.000000
8.770545 -18.248945 2.743329 -0.557115 -0.593554 -0.580737 0.000000 1.000000
8.789546 -15.553057 3.798499 0.577349 0.577349 -0.577349 0.000000 1.000000
8.789546 -15.553057 3.851257 0.577349 0.577349 0.577319 0.000000 1.000000
8.789546 -18.170338 3.851257 0.577349 -0.577349 0.577349 0.000000 1.000000
8.789546 -18.170338 3.798499 0.577349 -0.577349 -0.577349 0.000000 1.000000
8.770545 -18.170338 3.851257 -0.556505 -0.594043 0.580828 0.000000 1.000000
8.599616 -15.553057 3.851257 -0.597583 0.559832 0.573992 0.000000 1.000000
8.599616 -15.553057 3.798499 -0.597583 0.559832 -0.573992 0.000000 1.000000
8.770545 -18.170338 3.798499 -0.556505 -0.594043 -0.580828 0.000000 1.000000
3 0 1 2
3 2 1 3
3 4 0 2
3 5 0 4
3 3 1 6
3 6 1 7
3 8 0 5
3 9 0 8
3 7 1 10
3 10 1 11
3 12 0 9
3 13 0 12
3 11 1 14
3 15 14 1
3 0 13 16
3 17 18 19
3 20 18 17
3 21 18 20
3 22 18 21
3 23 18 22
3 24 18 23
3 18 24 25
3 24 26 25
3 26 27 25
3 27 28 25
3 28 29 25
3 29 30 25
3 30 31 25
3 31 32 25
3 32 33 25
3 34 35 36
3 36 37 34
3 38 39 40
3 40 41 38
3 36 38 41
3 41 37 36
3 35 39 38
3 38 36 35
3 34 40 39
3 39 35 34
3 37 41 40
3 40 34 37
3 42 43 44
3 44 45 42
3 46 47 48
3 48 49 46
3 44 46 49
3 49 45 44
3 43 47 46
3 46 44 43
3 42 48 47
3 47 43 42
3 45 49 48
3 48 42 45
3 50 51 52
3 52 53 50
3 54 55 56
3 56 57 54
3 52 54 57
3 57 53 52
3 51 55 54
3 54 52 51
3 50 56 55
3 55 51 50
3 53 57 56
3 56 50 53
3 58 59 60
3 60 61 58
3 62 63 64
3 64 65 62
3 60 62 65
3 65 61 60
3 59 63 62
3 62 60 59
3 58 64 63
3 63 59 58
3 61 65 64
3 64 58 61
3 66 67 68
3 68 69 66
3 70 71 72
3 72 73 70
3 68 70 73
3 73 69 68
3 67 71 70
3 70 68 67
3 66 72 71
3 71 67 66
3 69 73 72
3 72 66 69
3 74 75 76
3 76 77 74
3 78 79 80
3 80 81 78
3 76 78 81
3 81 77 76
3 75 79 78
3 78 76 75
3 74 80 79
3 79 75 74
3 77 81 80
3 80 74 77
3 82 83 84
3 84 85 82
3 86 87 88
3 88 89 86
3 84 86 89
3 89 85 84
3 83 87 86
3 86 84 83
3 82 88 87
3 87 83 82
3 85 89 88
3 88 82 85
3 90 91 92
3 92 93 90
3 94 95 96
3 96 97 94
3 92 94 97
3 97 93 92
3 91 95 94
3 94 92 91
3 90 96 95
3 95 91 90
3 93 97 96
3 96 90 93
3 98 99 100
3 100 101 98
3 102 103 104
3 104 105 102
3 100 102 105
3 105 101 100
3 99 103 102
3 102 100 99
3 98 104 103
3 103 99 98
3 101 105 104
3 104 98 101
3 106 107 108
3 108 109 106
3 110 111 112
3 112 113 110
3 108 110 113
3 113 109 108
3 107 111 110
3 110 108 107
3 106 112 111
3 111 107 106
3 109 113 112
3 112 106 109
3 114 115 116
3 116 117 114
3 118 119 120
3 120 121 118
3 116 118 121
3 121 117 116
3 115 119 118
3 118 116 115
3 114 120 119
3 119 115 114
3 117 121 120
3 120 114 117
3 13 17 19
3 19 16 13
3 12 20 17
3 17 13 12
3 9 21 20
3 20 12 9
3 8 22 21
3 21 9 8
3 5 23 22
3 22 8 5
3 4 24 23
3 23 5 4
3 2 26 24
3 24 4 2
3 3 27 26
3 26 2 3
3 6 28 27
3 27 3 6
3 7 29 28
3 28 6 7
3 10 30 29
3 29 7 10
3 11 31 30
3 30 10 11
3 14 32 31
3 31 11 14
3 15 33 32
3 32 14 15
3 1 25 33
3 33 15 1
3 0 18 25
3 25 1 0
3 16 19 18
3 18 0 16
