ply
format ascii 1.0
comment Created by Blender 2.93.5 - www.blender.org
element vertex 8
property float x
property float y
property float z
property float nx
property float ny
property float nz
property float s
property float t
element face 4
property list uchar uint vertex_indices
end_header
-0.000022 -7.658598 -10.245413 -0.241279 -0.008332 0.970397 0.499999 -0.652330
-0.000022 0.167094 -10.240878 -0.237159 -0.000549 0.971465 0.499999 0.325882
-9.664949 -2.215967 -12.601932 -0.614032 0.029786 0.788690 -0.710741 0.027999
-10.227962 -7.568435 -12.887178 -0.697897 0.035279 0.715293 -0.781271 -0.641059
-10.227962 -7.568435 -12.887178 -0.697897 0.035279 0.715293 -6.221705 -0.641059
-9.664949 -2.215967 -12.601932 -0.614032 0.029786 0.788690 -6.257361 0.027999
-15.013518 -7.382020 -26.587898 -0.940794 0.087252 0.327525 -4.509116 -0.617757
-14.450503 -3.034384 -26.152536 -0.940825 0.089084 0.326884 -4.563536 -0.074303
3 0 1 2
3 2 3 0
3 4 5 6
3 6 5 7
