ply
format ascii 1.0
comment Created by Blender 2.93.5 - www.blender.org
element vertex 8
property float x
property float y
property float z
property float nx
property float ny
property float nz
property float s
property float t
element face 4
property list uchar uint vertex_indices
end_header
10.321755 4.408456 -26.918125 0.742332 0.030915 0.669301 1.793024 0.856052
-0.000018 6.411153 -24.649437 0.219001 0.023804 0.975402 0.500000 1.106389
-0.000018 0.585460 -24.507090 0.223853 0.010193 0.974548 0.500000 0.378178
10.603272 0.970655 -27.141891 0.794458 0.025544 0.606739 1.828290 0.426327
10.603251 1.614896 -36.627037 0.996673 0.081240 0.005493 -3.254224 0.506857
10.321755 4.408456 -26.918125 0.742332 0.030915 0.669301 -4.467837 0.856052
10.603272 0.970655 -27.141891 0.794458 0.025544 0.606739 -4.439867 0.426327
10.321755 5.052322 -36.403255 0.996673 0.081240 0.005493 -3.282196 0.936536
3 0 1 2
3 2 3 0
3 4 5 6
3 7 5 4
