ply
format ascii 1.0
comment Created by Blender 2.93.5 - www.blender.org
element vertex 304
property float x
property float y
property float z
property float nx
property float ny
property float nz
property float s
property float t
element face 380
property list uchar uint vertex_indices
end_header
-8.968976 -15.658608 3.666516 -0.577349 -0.577349 -0.577349 0.000000 1.000000
-0.000009 -15.658608 4.194103 0.000000 -0.707083 0.707083 0.000000 1.000000
-8.968976 -15.658608 4.194098 -0.577349 -0.577349 0.577349 0.000000 1.000000
-0.000009 -15.658608 3.666516 0.000000 -0.707083 -0.707083 0.000000 1.000000
-0.000009 -15.447573 4.194103 0.000000 0.707083 0.707083 0.000000 1.000000
-8.968976 -15.447573 4.194098 -0.577349 0.577349 0.577349 0.000000 1.000000
-0.000009 -15.447573 3.666516 0.000000 0.707083 -0.707083 0.000000 1.000000
-8.968976 -15.447573 3.666516 -0.577349 0.577349 -0.577349 0.000000 1.000000
-8.968975 -15.658607 2.611340 -0.577349 -0.577349 -0.577349 0.000000 1.000000
-0.000009 -15.658606 3.138928 0.000000 -0.707083 0.707083 0.000000 1.000000
-8.968975 -15.658606 3.138928 -0.577349 -0.577349 0.577349 0.000000 1.000000
-0.000009 -15.658607 2.611340 0.000000 -0.707083 -0.707083 0.000000 1.000000
-0.000009 -15.447570 3.138928 0.000000 0.707083 0.707083 0.000000 1.000000
-8.968975 -15.447570 3.138928 -0.577349 0.577349 0.577349 0.000000 1.000000
-0.000009 -15.447571 2.611340 0.000000 0.707083 -0.707083 0.000000 1.000000
-8.968975 -15.447571 2.611340 -0.577349 0.577349 -0.577349 0.000000 1.000000
-8.968975 -15.658607 1.556170 -0.577349 -0.577349 -0.577349 0.000000 1.000000
-0.000009 -15.658607 2.083758 0.000000 -0.707083 0.707083 0.000000 1.000000
-8.968975 -15.658607 2.083753 -0.577349 -0.577349 0.577349 0.000000 1.000000
-0.000009 -15.658607 1.556170 0.000000 -0.707083 -0.707083 0.000000 1.000000
-0.000009 -15.447571 2.083758 0.000000 0.707083 0.707083 0.000000 1.000000
-8.968975 -15.447571 2.083753 -0.577349 0.577349 0.577349 0.000000 1.000000
-0.000009 -15.447571 1.556170 0.000000 0.707083 -0.707083 0.000000 1.000000
-8.968975 -15.447571 1.556170 -0.577349 0.577349 -0.577349 0.000000 1.000000
-8.968976 -15.658609 0.500995 -0.577349 -0.577349 -0.577319 0.000000 1.000000
-0.000009 -15.658609 1.028582 0.000000 -0.707083 0.707083 0.000000 1.000000
-8.968975 -15.658609 1.028582 -0.577349 -0.577349 0.577349 0.000000 1.000000
-0.000009 -15.658609 0.500995 0.000000 -0.707083 -0.707083 0.000000 1.000000
-0.000009 -15.447574 1.028582 0.000000 0.707083 0.707083 0.000000 1.000000
-8.968975 -15.447574 1.028582 -0.577349 0.577349 0.577349 0.000000 1.000000
-0.000009 -15.447574 0.500995 0.000000 0.707083 -0.707083 0.000000 1.000000
-8.968975 -15.447574 0.500995 -0.577349 0.577349 -0.577349 0.000000 1.000000
-8.968976 -15.658609 -0.554175 -0.577349 -0.577349 -0.577349 0.000000 1.000000
-0.000009 -15.658609 -0.026587 0.000000 -0.707083 0.707083 0.000000 1.000000
-8.968976 -15.658609 -0.026587 -0.577349 -0.577349 0.577349 0.000000 1.000000
-0.000009 -15.658609 -0.554175 0.000000 -0.707083 -0.707083 0.000000 1.000000
-0.000009 -15.447574 -0.026587 0.000000 0.707083 0.707083 0.000000 1.000000
-8.968976 -15.447574 -0.026587 -0.577349 0.577349 0.577349 0.000000 1.000000
-0.000009 -15.447574 -0.554175 0.000000 0.707083 -0.707083 0.000000 1.000000
-8.968976 -15.447574 -0.554175 -0.577349 0.577349 -0.577349 0.000000 1.000000
-8.968976 -15.658607 -1.609352 -0.577349 -0.577349 -0.577349 0.000000 1.000000
-0.000009 -15.658607 -1.081764 0.000000 -0.707083 0.707083 0.000000 1.000000
-8.968976 -15.658607 -1.081764 -0.577349 -0.577349 0.577349 0.000000 1.000000
-0.000009 -15.658607 -1.609352 0.000000 -0.707083 -0.707083 0.000000 1.000000
-0.000009 -15.447571 -1.081764 0.000000 0.707083 0.707083 0.000000 1.000000
-8.968976 -15.447571 -1.081764 -0.577349 0.577349 0.577349 0.000000 1.000000
-0.000009 -15.447571 -1.609352 0.000000 0.707083 -0.707083 0.000000 1.000000
-8.968976 -15.447571 -1.609352 -0.577349 0.577349 -0.577349 0.000000 1.000000
-8.968976 -15.658607 -2.664520 -0.577349 -0.577349 -0.577349 0.000000 1.000000
-0.000009 -15.658607 -2.136932 0.000000 -0.707083 0.707083 0.000000 1.000000
-8.968976 -15.658607 -2.136932 -0.577349 -0.577349 0.577349 0.000000 1.000000
-0.000009 -15.658607 -2.664520 0.000000 -0.707083 -0.707083 0.000000 1.000000
-0.000009 -15.447571 -2.136932 0.000000 0.707083 0.707083 0.000000 1.000000
-8.968976 -15.447571 -2.136932 -0.577349 0.577349 0.577349 0.000000 1.000000
-0.000009 -15.447571 -2.664520 0.000000 0.707083 -0.707083 0.000000 1.000000
-8.968976 -15.447571 -2.664520 -0.577349 0.577349 -0.577349 0.000000 1.000000
-8.968976 -15.658607 -3.719690 -0.577349 -0.577349 -0.577349 0.000000 1.000000
-0.000009 -15.658607 -3.192108 0.000000 -0.707083 0.707083 0.000000 1.000000
-8.968976 -15.658607 -3.192108 -0.577349 -0.577349 0.577349 0.000000 1.000000
-0.000009 -15.658607 -3.719690 0.000000 -0.707083 -0.707083 0.000000 1.000000
-0.000009 -15.447572 -3.192108 0.000000 0.707083 0.707083 0.000000 1.000000
-8.968976 -15.447572 -3.192108 -0.577349 0.577349 0.577349 0.000000 1.000000
-0.000009 -15.447572 -3.719690 0.000000 0.707083 -0.707083 0.000000 1.000000
-8.968976 -15.447572 -3.719690 -0.577349 0.577349 -0.577349 0.000000 1.000000
-8.968976 -15.658607 -4.774867 -0.577349 -0.577349 -0.577349 0.000000 1.000000
-0.000009 -15.658607 -4.247279 0.000000 -0.707083 0.707083 0.000000 1.000000
-8.968976 -15.658607 -4.247279 -0.577349 -0.577349 0.577349 0.000000 1.000000
-0.000009 -15.658607 -4.774867 0.000000 -0.707083 -0.707083 0.000000 1.000000
-0.000009 -15.447572 -4.247279 0.000000 0.707083 0.707083 0.000000 1.000000
-8.968976 -15.447572 -4.247279 -0.577349 0.577349 0.577349 0.000000 1.000000
-0.000009 -15.447572 -4.774867 0.000000 0.707083 -0.707083 0.000000 1.000000
-8.968976 -15.447572 -4.774867 -0.577349 0.577349 -0.577349 0.000000 1.000000
-8.968976 -15.658607 -5.830037 -0.577349 -0.577349 -0.577349 0.000000 1.000000
-0.000009 -15.658607 -5.302449 0.000000 -0.707083 0.707083 0.000000 1.000000
-8.968976 -15.658607 -5.302454 -0.577349 -0.577349 0.577349 0.000000 1.000000
-0.000009 -15.658607 -5.830037 0.000000 -0.707083 -0.707083 0.000000 1.000000
-0.000009 -15.447572 -5.302449 0.000000 0.707083 0.707083 0.000000 1.000000
-8.968976 -15.447572 -5.302454 -0.577349 0.577349 0.577349 0.000000 1.000000
-0.000009 -15.447572 -5.830037 0.000000 0.707083 -0.707083 0.000000 1.000000
-8.968976 -15.447572 -5.830037 -0.577349 0.577349 -0.577349 0.000000 1.000000
-8.968976 -15.658607 -6.885211 -0.577349 -0.577349 -0.577349 0.000000 1.000000
-0.000010 -15.658607 -6.357624 0.000000 -0.707083 0.707083 0.000000 1.000000
-8.968976 -15.658607 -6.357624 -0.577349 -0.577349 0.577349 0.000000 1.000000
-0.000010 -15.658607 -6.885211 0.000000 -0.707083 -0.707083 0.000000 1.000000
-0.000010 -15.447574 -6.357624 0.000000 0.707083 0.707083 0.000000 1.000000
-8.968976 -15.447572 -6.357624 -0.577349 0.577349 0.577349 0.000000 1.000000
-0.000010 -15.447572 -6.885211 0.000000 0.707083 -0.707083 0.000000 1.000000
-8.968976 -15.447572 -6.885211 -0.577349 0.577349 -0.577349 0.000000 1.000000
-8.968976 -15.658607 -7.940382 -0.577349 -0.577349 -0.577349 0.000000 1.000000
-0.000010 -15.658607 -7.412794 0.000000 -0.707083 0.707083 0.000000 1.000000
-8.968976 -15.658607 -7.412794 -0.577319 -0.577349 0.577349 0.000000 1.000000
-0.000010 -15.658607 -7.940382 0.000000 -0.707083 -0.707083 0.000000 1.000000
-0.000010 -15.447574 -7.412794 0.000000 0.707083 0.707083 0.000000 1.000000
-8.968977 -15.447572 -7.412794 -0.577349 0.577319 0.577349 0.000000 1.000000
-0.000010 -15.447572 -7.940382 0.000000 0.707083 -0.707083 0.000000 1.000000
-8.968976 -15.447572 -7.940382 -0.577349 0.577349 -0.577349 0.000000 1.000000
-8.968976 -15.658608 -8.995551 -0.577349 -0.577349 -0.577349 0.000000 1.000000
-0.000010 -15.658607 -8.467969 0.000000 -0.707083 0.707083 0.000000 1.000000
-8.968976 -15.658607 -8.467969 -0.577319 -0.577349 0.577319 0.000000 1.000000
-0.000010 -15.658608 -8.995551 0.000000 -0.707083 -0.707083 0.000000 1.000000
-0.000010 -15.447574 -8.467969 0.000000 0.707083 0.707083 0.000000 1.000000
-8.968977 -15.447572 -8.467969 -0.577349 0.577319 0.577349 0.000000 1.000000
-0.000010 -15.447573 -8.995551 0.000000 0.707083 -0.707083 0.000000 1.000000
-8.968976 -15.447573 -8.995551 -0.577349 0.577319 -0.577349 0.000000 1.000000
-8.968975 -15.658608 -10.050727 -0.577349 -0.577349 -0.577349 0.000000 1.000000
-0.000009 -15.658608 -9.523139 0.000000 -0.707083 0.707083 0.000000 1.000000
-8.968975 -15.658608 -9.523139 -0.577349 -0.577349 0.577349 0.000000 1.000000
-0.000010 -15.658608 -10.050727 0.000000 -0.707083 -0.707083 0.000000 1.000000
-0.000009 -15.447575 -9.523139 0.000000 0.707083 0.707083 0.000000 1.000000
-8.968976 -15.447573 -9.523139 -0.577349 0.577349 0.577319 0.000000 1.000000
-0.000009 -15.447573 -10.050727 0.000000 0.707083 -0.707083 0.000000 1.000000
-8.968975 -15.447573 -10.050727 -0.577349 0.577349 -0.577349 0.000000 1.000000
-8.968975 -15.658608 -11.105896 -0.577349 -0.577349 -0.577349 0.000000 1.000000
-0.000010 -15.658608 -10.578315 0.000000 -0.707083 0.707083 0.000000 1.000000
-8.968975 -15.658608 -10.578315 -0.577349 -0.577349 0.577349 0.000000 1.000000
-0.000010 -15.658608 -11.105896 0.000000 -0.707083 -0.707083 0.000000 1.000000
-0.000010 -15.447575 -10.578315 0.000000 0.707083 0.707083 0.000000 1.000000
-8.968976 -15.447573 -10.578315 -0.577349 0.577349 0.577319 0.000000 1.000000
-0.000010 -15.447575 -11.105896 0.000000 0.707083 -0.707083 0.000000 1.000000
-8.968975 -15.447573 -11.105896 -0.577349 0.577349 -0.577349 0.000000 1.000000
-8.968976 -15.658608 -12.161072 -0.577349 -0.577349 -0.577349 0.000000 1.000000
-0.000010 -15.658608 -11.633484 0.000000 -0.707083 0.707083 0.000000 1.000000
-8.968976 -15.658608 -11.633484 -0.577349 -0.577349 0.577349 0.000000 1.000000
-0.000010 -15.658608 -12.161072 0.000000 -0.707083 -0.707083 0.000000 1.000000
-0.000010 -15.447575 -11.633484 0.000000 0.707083 0.707083 0.000000 1.000000
-8.968976 -15.447573 -11.633484 -0.577349 0.577349 0.577349 0.000000 1.000000
-0.000010 -15.447575 -12.161072 0.000000 0.707083 -0.707083 0.000000 1.000000
-8.968976 -15.447573 -12.161072 -0.577349 0.577349 -0.577349 0.000000 1.000000
-8.968976 -15.658608 -13.216242 -0.577349 -0.577349 -0.577349 0.000000 1.000000
-0.000010 -15.658608 -12.688654 0.000000 -0.707083 0.707083 0.000000 1.000000
-8.968976 -15.658608 -12.688654 -0.577319 -0.577349 0.577349 0.000000 1.000000
-0.000010 -15.658608 -13.216242 0.000000 -0.707083 -0.707083 0.000000 1.000000
-0.000010 -15.447575 -12.688654 0.000000 0.707083 0.707083 0.000000 1.000000
-8.968977 -15.447573 -12.688654 -0.577349 0.577319 0.577349 0.000000 1.000000
-0.000010 -15.447575 -13.216242 0.000000 0.707083 -0.707083 0.000000 1.000000
-8.968976 -15.447573 -13.216242 -0.577349 0.577349 -0.577349 0.000000 1.000000
-8.968976 -15.658608 -14.271417 -0.577349 -0.577349 -0.577349 0.000000 1.000000
-0.000010 -15.658608 -13.743830 0.000000 -0.707083 0.707083 0.000000 1.000000
-8.968976 -15.658608 -13.743830 -0.577319 -0.577349 0.577349 0.000000 1.000000
-0.000010 -15.658608 -14.271412 0.000000 -0.707083 -0.707083 0.000000 1.000000
-0.000010 -15.447575 -13.743830 0.000000 0.707083 0.707083 0.000000 1.000000
-8.968977 -15.447573 -13.743830 -0.577349 0.577319 0.577349 0.000000 1.000000
-0.000010 -15.447575 -14.271412 0.000000 0.707083 -0.707083 0.000000 1.000000
-8.968976 -15.447573 -14.271417 -0.577349 0.577349 -0.577349 0.000000 1.000000
-8.968976 -15.658609 -15.326588 -0.577349 -0.577349 -0.577349 0.000000 1.000000
-0.000010 -15.658609 -14.799000 0.000000 -0.707083 0.707083 0.000000 1.000000
-8.968976 -15.658609 -14.799000 -0.577319 -0.577349 0.577349 0.000000 1.000000
-0.000010 -15.658609 -15.326588 0.000000 -0.707083 -0.707083 0.000000 1.000000
-0.000010 -15.447576 -14.799000 0.000000 0.707083 0.707083 0.000000 1.000000
-8.968977 -15.447574 -14.799000 -0.577349 0.577319 0.577349 0.000000 1.000000
-0.000010 -15.447576 -15.326588 0.000000 0.707083 -0.707083 0.000000 1.000000
-8.968976 -15.447574 -15.326588 -0.577349 0.577349 -0.577349 0.000000 1.000000
8.968958 -15.658601 3.666534 0.577349 -0.577349 -0.577349 0.000000 1.000000
8.968958 -15.658601 4.194121 0.577349 -0.577349 0.577349 0.000000 1.000000
-0.000009 -15.658602 4.194121 0.000000 -0.707083 0.707083 0.000000 1.000000
-0.000009 -15.658602 3.666534 0.000000 -0.707083 -0.707083 0.000000 1.000000
8.968958 -15.447567 4.194121 0.577349 0.577349 0.577349 0.000000 1.000000
-0.000009 -15.447567 4.194121 0.000000 0.707083 0.707083 0.000000 1.000000
8.968958 -15.447567 3.666534 0.577349 0.577349 -0.577349 0.000000 1.000000
-0.000009 -15.447567 3.666534 0.000000 0.707083 -0.707083 0.000000 1.000000
8.968958 -15.658602 2.611359 0.577349 -0.577349 -0.577349 0.000000 1.000000
8.968958 -15.658601 3.138946 0.577349 -0.577349 0.577349 0.000000 1.000000
-0.000009 -15.658602 3.138946 0.000000 -0.707083 0.707083 0.000000 1.000000
-0.000009 -15.658603 2.611359 0.000000 -0.707083 -0.707083 0.000000 1.000000
8.968958 -15.447567 3.138946 0.577349 0.577349 0.577319 0.000000 1.000000
-0.000009 -15.447567 3.138946 0.000000 0.707083 0.707083 0.000000 1.000000
8.968958 -15.447568 2.611359 0.577349 0.577319 -0.577349 0.000000 1.000000
-0.000009 -15.447568 2.611359 0.000000 0.707083 -0.707083 0.000000 1.000000
8.968958 -15.658602 1.556188 0.577349 -0.577349 -0.577349 0.000000 1.000000
8.968958 -15.658602 2.083777 0.577349 -0.577349 0.577349 0.000000 1.000000
-0.000010 -15.658603 2.083777 0.000000 -0.707083 0.707083 0.000000 1.000000
-0.000010 -15.658603 1.556188 0.000000 -0.707083 -0.707083 0.000000 1.000000
8.968958 -15.447568 2.083777 0.577349 0.577349 0.577349 0.000000 1.000000
-0.000009 -15.447568 2.083777 0.000000 0.707083 0.707083 0.000000 1.000000
8.968958 -15.447568 1.556188 0.577349 0.577349 -0.577349 0.000000 1.000000
-0.000010 -15.447568 1.556188 0.000000 0.707083 -0.707083 0.000000 1.000000
8.968958 -15.658602 0.501013 0.577349 -0.577349 -0.577349 0.000000 1.000000
8.968958 -15.658602 1.028600 0.577349 -0.577349 0.577349 0.000000 1.000000
-0.000009 -15.658603 1.028600 0.000000 -0.707083 0.707083 0.000000 1.000000
-0.000009 -15.658603 0.501013 0.000000 -0.707083 -0.707083 0.000000 1.000000
8.968958 -15.447568 1.028600 0.577349 0.577349 0.577349 0.000000 1.000000
-0.000009 -15.447568 1.028600 0.000000 0.707083 0.707083 0.000000 1.000000
8.968958 -15.447568 0.501013 0.577349 0.577349 -0.577349 0.000000 1.000000
-0.000009 -15.447568 0.501013 0.000000 0.707083 -0.707083 0.000000 1.000000
8.968958 -15.658602 -0.554157 0.577349 -0.577349 -0.577349 0.000000 1.000000
8.968958 -15.658602 -0.026569 0.577349 -0.577349 0.577349 0.000000 1.000000
-0.000009 -15.658603 -0.026569 0.000000 -0.707083 0.707083 0.000000 1.000000
-0.000009 -15.658603 -0.554157 0.000000 -0.707083 -0.707083 0.000000 1.000000
8.968958 -15.447568 -0.026569 0.577349 0.577349 0.577349 0.000000 1.000000
-0.000009 -15.447568 -0.026569 0.000000 0.707083 0.707083 0.000000 1.000000
8.968958 -15.447568 -0.554157 0.577349 0.577349 -0.577349 0.000000 1.000000
-0.000009 -15.447568 -0.554157 0.000000 0.707083 -0.707083 0.000000 1.000000
8.968958 -15.658603 -1.609326 0.577349 -0.577349 -0.577349 0.000000 1.000000
8.968958 -15.658603 -1.081745 0.577349 -0.577349 0.577349 0.000000 1.000000
-0.000009 -15.658603 -1.081745 0.000000 -0.707083 0.707083 0.000000 1.000000
-0.000009 -15.658603 -1.609326 0.000000 -0.707083 -0.707083 0.000000 1.000000
8.968958 -15.447568 -1.081745 0.577349 0.577349 0.577349 0.000000 1.000000
-0.000009 -15.447568 -1.081745 0.000000 0.707083 0.707083 0.000000 1.000000
8.968958 -15.447568 -1.609326 0.577349 0.577349 -0.577349 0.000000 1.000000
-0.000009 -15.447568 -1.609326 0.000000 0.707083 -0.707083 0.000000 1.000000
8.968917 -15.658603 -2.664502 0.577349 -0.577349 -0.577349 0.000000 1.000000
8.968917 -15.658603 -2.136914 0.577349 -0.577349 0.577349 0.000000 1.000000
-0.000050 -15.658603 -2.136914 0.000000 -0.707083 0.707083 0.000000 1.000000
-0.000050 -15.658603 -2.664502 0.000000 -0.707083 -0.707083 0.000000 1.000000
8.968917 -15.447568 -2.136914 0.577349 0.577349 0.577349 0.000000 1.000000
-0.000050 -15.447568 -2.136914 0.000000 0.707083 0.707083 0.000000 1.000000
8.968917 -15.447568 -2.664502 0.577349 0.577349 -0.577349 0.000000 1.000000
-0.000050 -15.447568 -2.664502 0.000000 0.707083 -0.707083 0.000000 1.000000
8.968917 -15.658604 -3.719672 0.577349 -0.577349 -0.577349 0.000000 1.000000
8.968917 -15.658604 -3.192090 0.577349 -0.577349 0.577349 0.000000 1.000000
-0.000050 -15.658604 -3.192084 0.000000 -0.707083 0.707083 0.000000 1.000000
-0.000050 -15.658604 -3.719672 0.000000 -0.707083 -0.707083 0.000000 1.000000
8.968917 -15.447569 -3.192090 0.577349 0.577349 0.577349 0.000000 1.000000
-0.000050 -15.447569 -3.192084 0.000000 0.707083 0.707083 0.000000 1.000000
8.968917 -15.447569 -3.719672 0.577349 0.577349 -0.577349 0.000000 1.000000
-0.000050 -15.447569 -3.719672 0.000000 0.707083 -0.707083 0.000000 1.000000
8.968917 -15.658604 -4.774848 0.577349 -0.577349 -0.577349 0.000000 1.000000
8.968917 -15.658604 -4.247260 0.577349 -0.577349 0.577349 0.000000 1.000000
-0.000050 -15.658604 -4.247260 0.000000 -0.707083 0.707083 0.000000 1.000000
-0.000050 -15.658604 -4.774843 0.000000 -0.707083 -0.707083 0.000000 1.000000
8.968917 -15.447569 -4.247260 0.577349 0.577349 0.577349 0.000000 1.000000
-0.000050 -15.447569 -4.247260 0.000000 0.707083 0.707083 0.000000 1.000000
8.968917 -15.447569 -4.774848 0.577349 0.577349 -0.577349 0.000000 1.000000
-0.000050 -15.447569 -4.774843 0.000000 0.707083 -0.707083 0.000000 1.000000
8.968917 -15.658604 -5.830018 0.577349 -0.577349 -0.577349 0.000000 1.000000
8.968917 -15.658604 -5.302431 0.577349 -0.577349 0.577349 0.000000 1.000000
-0.000051 -15.658604 -5.302431 0.000000 -0.707083 0.707083 0.000000 1.000000
-0.000051 -15.658604 -5.830018 0.000000 -0.707083 -0.707083 0.000000 1.000000
8.968917 -15.447569 -5.302431 0.577349 0.577349 0.577349 0.000000 1.000000
-0.000051 -15.447569 -5.302431 0.000000 0.707083 0.707083 0.000000 1.000000
8.968917 -15.447569 -5.830018 0.577349 0.577349 -0.577349 0.000000 1.000000
-0.000051 -15.447569 -5.830018 0.000000 0.707083 -0.707083 0.000000 1.000000
8.968917 -15.658604 -6.885194 0.577349 -0.577349 -0.577349 0.000000 1.000000
8.968917 -15.658604 -6.357605 0.577349 -0.577349 0.577349 0.000000 1.000000
-0.000050 -15.658604 -6.357605 0.000000 -0.707083 0.707083 0.000000 1.000000
-0.000050 -15.658604 -6.885188 0.000000 -0.707083 -0.707083 0.000000 1.000000
8.968917 -15.447569 -6.357605 0.577349 0.577349 0.577349 0.000000 1.000000
-0.000050 -15.447569 -6.357605 0.000000 0.707083 0.707083 0.000000 1.000000
8.968917 -15.447569 -6.885194 0.577349 0.577349 -0.577349 0.000000 1.000000
-0.000050 -15.447569 -6.885188 0.000000 0.707083 -0.707083 0.000000 1.000000
8.968917 -15.658604 -7.940363 0.577349 -0.577349 -0.577349 0.000000 1.000000
8.968917 -15.658604 -7.412776 0.577349 -0.577349 0.577349 0.000000 1.000000
-0.000050 -15.658604 -7.412776 0.000000 -0.707083 0.707083 0.000000 1.000000
-0.000050 -15.658604 -7.940363 0.000000 -0.707083 -0.707083 0.000000 1.000000
8.968917 -15.447569 -7.412776 0.577349 0.577349 0.577349 0.000000 1.000000
-0.000050 -15.447569 -7.412776 0.000000 0.707083 0.707083 0.000000 1.000000
8.968917 -15.447569 -7.940363 0.577349 0.577349 -0.577349 0.000000 1.000000
-0.000050 -15.447569 -7.940363 0.000000 0.707083 -0.707083 0.000000 1.000000
8.968917 -15.658605 -8.995533 0.577349 -0.577349 -0.577349 0.000000 1.000000
8.968917 -15.658604 -8.467951 0.577349 -0.577349 0.577349 0.000000 1.000000
-0.000050 -15.658604 -8.467945 0.000000 -0.707083 0.707083 0.000000 1.000000
-0.000050 -15.658605 -8.995533 0.000000 -0.707083 -0.707083 0.000000 1.000000
8.968917 -15.447569 -8.467951 0.577349 0.577349 0.577319 0.000000 1.000000
-0.000050 -15.447569 -8.467945 0.000000 0.707083 0.707083 0.000000 1.000000
8.968917 -15.447570 -8.995533 0.577349 0.577319 -0.577349 0.000000 1.000000
-0.000050 -15.447570 -8.995533 0.000000 0.707083 -0.707083 0.000000 1.000000
8.968917 -15.658605 -10.050709 0.577349 -0.577349 -0.577349 0.000000 1.000000
8.968917 -15.658605 -9.523121 0.577349 -0.577349 0.577349 0.000000 1.000000
-0.000049 -15.658605 -9.523121 0.000000 -0.707083 0.707083 0.000000 1.000000
-0.000049 -15.658605 -10.050709 0.000000 -0.707083 -0.707083 0.000000 1.000000
8.968917 -15.447570 -9.523121 0.577349 0.577349 0.577349 0.000000 1.000000
-0.000049 -15.447570 -9.523121 0.000000 0.707083 0.707083 0.000000 1.000000
8.968917 -15.447570 -10.050709 0.577349 0.577349 -0.577349 0.000000 1.000000
-0.000049 -15.447570 -10.050709 0.000000 0.707083 -0.707083 0.000000 1.000000
8.968917 -15.658605 -11.105878 0.577349 -0.577349 -0.577349 0.000000 1.000000
8.968917 -15.658605 -10.578290 0.577349 -0.577349 0.577349 0.000000 1.000000
-0.000049 -15.658605 -10.578290 0.000000 -0.707083 0.707083 0.000000 1.000000
-0.000049 -15.658605 -11.105878 0.000000 -0.707083 -0.707083 0.000000 1.000000
8.968917 -15.447570 -10.578290 0.577349 0.577349 0.577349 0.000000 1.000000
-0.000049 -15.447570 -10.578290 0.000000 0.707083 0.707083 0.000000 1.000000
8.968917 -15.447570 -11.105878 0.577349 0.577349 -0.577349 0.000000 1.000000
-0.000049 -15.447570 -11.105878 0.000000 0.707083 -0.707083 0.000000 1.000000
8.968917 -15.658605 -12.161055 0.577349 -0.577349 -0.577349 0.000000 1.000000
8.968917 -15.658605 -11.633466 0.577349 -0.577349 0.577349 0.000000 1.000000
-0.000049 -15.658605 -11.633466 0.000000 -0.707083 0.707083 0.000000 1.000000
-0.000049 -15.658605 -12.161048 0.000000 -0.707083 -0.707083 0.000000 1.000000
8.968917 -15.447570 -11.633466 0.577349 0.577349 0.577349 0.000000 1.000000
-0.000049 -15.447570 -11.633466 0.000000 0.707083 0.707083 0.000000 1.000000
8.968917 -15.447570 -12.161055 0.577349 0.577349 -0.577349 0.000000 1.000000
-0.000049 -15.447570 -12.161048 0.000000 0.707083 -0.707083 0.000000 1.000000
8.968917 -15.658605 -13.216224 0.577349 -0.577349 -0.577349 0.000000 1.000000
8.968917 -15.658605 -12.688636 0.577349 -0.577349 0.577349 0.000000 1.000000
-0.000050 -15.658605 -12.688636 0.000000 -0.707083 0.707083 0.000000 1.000000
-0.000050 -15.658605 -13.216224 0.000000 -0.707083 -0.707083 0.000000 1.000000
8.968917 -15.447570 -12.688636 0.577349 0.577349 0.577349 0.000000 1.000000
-0.000049 -15.447570 -12.688636 0.000000 0.707083 0.707083 0.000000 1.000000
8.968917 -15.447570 -13.216224 0.577349 0.577349 -0.577349 0.000000 1.000000
-0.000050 -15.447570 -13.216224 0.000000 0.707083 -0.707083 0.000000 1.000000
8.968917 -15.658605 -14.271393 0.577349 -0.577349 -0.577349 0.000000 1.000000
8.968917 -15.658605 -13.743812 0.577349 -0.577349 0.577349 0.000000 1.000000
-0.000050 -15.658605 -13.743812 0.000000 -0.707083 0.707083 0.000000 1.000000
-0.000050 -15.658605 -14.271393 0.000000 -0.707083 -0.707083 0.000000 1.000000
8.968917 -15.447570 -13.743812 0.577349 0.577349 0.577349 0.000000 1.000000
-0.000050 -15.447570 -13.743812 0.000000 0.707083 0.707083 0.000000 1.000000
8.968917 -15.447570 -14.271393 0.577349 0.577349 -0.577349 0.000000 1.000000
-0.000050 -15.447570 -14.271393 0.000000 0.707083 -0.707083 0.000000 1.000000
8.968917 -15.658603 -15.326569 0.577349 -0.577349 -0.577349 0.000000 1.000000
8.968917 -15.658603 -14.798981 0.577349 -0.577349 0.577349 0.000000 1.000000
-0.000050 -15.658603 -14.798981 0.000000 -0.707083 0.707083 0.000000 1.000000
-0.000050 -15.658603 -15.326569 0.000000 -0.707083 -0.707083 0.000000 1.000000
8.968917 -15.447568 -14.798981 0.577349 0.577349 0.577349 0.000000 1.000000
-0.000050 -15.447568 -14.798981 0.000000 0.707083 0.707083 0.000000 1.000000
8.968917 -15.447568 -15.326569 0.577349 0.577349 -0.577349 0.000000 1.000000
-0.000050 -15.447568 -15.326569 0.000000 0.707083 -0.707083 0.000000 1.000000
3 0 1 2
3 1 0 3
3 2 4 5
3 4 2 1
3 5 6 7
3 6 5 4
3 7 3 0
3 3 7 6
3 8 9 10
3 9 8 11
3 10 12 13
3 12 10 9
3 13 14 15
3 14 13 12
3 15 11 8
3 11 15 14
3 16 17 18
3 17 16 19
3 18 20 21
3 20 18 17
3 21 22 23
3 22 21 20
3 23 19 16
3 19 23 22
3 24 25 26
3 25 24 27
3 26 28 29
3 28 26 25
3 29 30 31
3 30 29 28
3 31 27 24
3 27 31 30
3 32 33 34
3 33 32 35
3 34 36 37
3 36 34 33
3 37 38 39
3 38 37 36
3 39 35 32
3 35 39 38
3 40 41 42
3 41 40 43
3 42 44 45
3 44 42 41
3 45 46 47
3 46 45 44
3 47 43 40
3 43 47 46
3 48 49 50
3 49 48 51
3 50 52 53
3 52 50 49
3 53 54 55
3 54 53 52
3 55 51 48
3 51 55 54
3 56 57 58
3 57 56 59
3 58 60 61
3 60 58 57
3 61 62 63
3 62 61 60
3 63 59 56
3 59 63 62
3 64 65 66
3 65 64 67
3 66 68 69
3 68 66 65
3 69 70 71
3 70 69 68
3 71 67 64
3 67 71 70
3 72 73 74
3 73 72 75
3 74 76 77
3 76 74 73
3 77 78 79
3 78 77 76
3 79 75 72
3 75 79 78
3 80 81 82
3 81 80 83
3 82 84 85
3 84 82 81
3 85 86 87
3 86 85 84
3 87 83 80
3 83 87 86
3 88 89 90
3 89 88 91
3 90 92 93
3 92 90 89
3 93 94 95
3 94 93 92
3 95 91 88
3 91 95 94
3 96 97 98
3 97 96 99
3 98 100 101
3 100 98 97
3 101 102 103
3 102 101 100
3 103 99 96
3 99 103 102
3 104 105 106
3 105 104 107
3 106 108 109
3 108 106 105
3 109 110 111
3 110 109 108
3 111 107 104
3 107 111 110
3 112 113 114
3 113 112 115
3 114 116 117
3 116 114 113
3 117 118 119
3 118 117 116
3 119 115 112
3 115 119 118
3 120 121 122
3 121 120 123
3 122 124 125
3 124 122 121
3 125 126 127
3 126 125 124
3 127 123 120
3 123 127 126
3 128 129 130
3 129 128 131
3 130 132 133
3 132 130 129
3 133 134 135
3 134 133 132
3 135 131 128
3 131 135 134
3 136 137 138
3 137 136 139
3 138 140 141
3 140 138 137
3 141 142 143
3 142 141 140
3 143 139 136
3 139 143 142
3 144 145 146
3 145 144 147
3 146 148 149
3 148 146 145
3 149 150 151
3 150 149 148
3 151 147 144
3 147 151 150
3 152 153 154
3 154 155 152
3 153 156 157
3 157 154 153
3 156 158 159
3 159 157 156
3 158 152 155
3 155 159 158
3 160 161 162
3 162 163 160
3 161 164 165
3 165 162 161
3 164 166 167
3 167 165 164
3 166 160 163
3 163 167 166
3 168 169 170
3 170 171 168
3 169 172 173
3 173 170 169
3 172 174 175
3 175 173 172
3 174 168 171
3 171 175 174
3 176 177 178
3 178 179 176
3 177 180 181
3 181 178 177
3 180 182 183
3 183 181 180
3 182 176 179
3 179 183 182
3 184 185 186
3 186 187 184
3 185 188 189
3 189 186 185
3 188 190 191
3 191 189 188
3 190 184 187
3 187 191 190
3 192 193 194
3 194 195 192
3 193 196 197
3 197 194 193
3 196 198 199
3 199 197 196
3 198 192 195
3 195 199 198
3 200 201 202
3 202 203 200
3 201 204 205
3 205 202 201
3 204 206 207
3 207 205 204
3 206 200 203
3 203 207 206
3 208 209 210
3 210 211 208
3 209 212 213
3 213 210 209
3 212 214 215
3 215 213 212
3 214 208 211
3 211 215 214
3 216 217 218
3 218 219 216
3 217 220 221
3 221 218 217
3 220 222 223
3 223 221 220
3 222 216 219
3 219 223 222
3 224 225 226
3 226 227 224
3 225 228 229
3 229 226 225
3 228 230 231
3 231 229 228
3 230 224 227
3 227 231 230
3 232 233 234
3 234 235 232
3 233 236 237
3 237 234 233
3 236 238 239
3 239 237 236
3 238 232 235
3 235 239 238
3 240 241 242
3 242 243 240
3 241 244 245
3 245 242 241
3 244 246 247
3 247 245 244
3 246 240 243
3 243 247 246
3 248 249 250
3 250 251 248
3 249 252 253
3 253 250 249
3 252 254 255
3 255 253 252
3 254 248 251
3 251 255 254
3 256 257 258
3 258 259 256
3 257 260 261
3 261 258 257
3 260 262 263
3 263 261 260
3 262 256 259
3 259 263 262
3 264 265 266
3 266 267 264
3 265 268 269
3 269 266 265
3 268 270 271
3 271 269 268
3 270 264 267
3 267 271 270
3 272 273 274
3 274 275 272
3 273 276 277
3 277 274 273
3 276 278 279
3 279 277 276
3 278 272 275
3 275 279 278
3 280 281 282
3 282 283 280
3 281 284 285
3 285 282 281
3 284 286 287
3 287 285 284
3 286 280 283
3 283 287 286
3 288 289 290
3 290 291 288
3 289 292 293
3 293 290 289
3 292 294 295
3 295 293 292
3 294 288 291
3 291 295 294
3 296 297 298
3 298 299 296
3 297 300 301
3 301 298 297
3 300 302 303
3 303 301 300
3 302 296 299
3 299 303 302
3 7 0 2
3 2 5 7
3 15 8 10
3 10 13 15
3 23 16 18
3 18 21 23
3 31 24 26
3 26 29 31
3 39 32 34
3 34 37 39
3 47 40 42
3 42 45 47
3 55 48 50
3 50 53 55
3 63 56 58
3 58 61 63
3 71 64 66
3 66 69 71
3 79 72 74
3 74 77 79
3 87 80 82
3 82 85 87
3 95 88 90
3 90 93 95
3 103 96 98
3 98 101 103
3 111 104 106
3 106 109 111
3 119 112 114
3 114 117 119
3 127 120 122
3 122 125 127
3 135 128 130
3 130 133 135
3 143 136 138
3 138 141 143
3 151 144 146
3 146 149 151
3 158 156 153
3 153 152 158
3 166 164 161
3 161 160 166
3 174 172 169
3 169 168 174
3 182 180 177
3 177 176 182
3 190 188 185
3 185 184 190
3 198 196 193
3 193 192 198
3 206 204 201
3 201 200 206
3 214 212 209
3 209 208 214
3 222 220 217
3 217 216 222
3 230 228 225
3 225 224 230
3 238 236 233
3 233 232 238
3 246 244 241
3 241 240 246
3 254 252 249
3 249 248 254
3 262 260 257
3 257 256 262
3 270 268 265
3 265 264 270
3 278 276 273
3 273 272 278
3 286 284 281
3 281 280 286
3 294 292 289
3 289 288 294
3 302 300 297
3 297 296 302
