ply
format ascii 1.0
comment Created by Blender 2.93.5 - www.blender.org
element vertex 250
property float x
property float y
property float z
property float nx
property float ny
property float nz
property float s
property float t
element face 299
property list uchar uint vertex_indices
end_header
0.544721 -16.348625 33.940361 -0.084475 0.000000 -0.996399 0.000000 1.000000
0.544721 -16.419849 33.940357 -0.301431 0.301523 -0.904538 0.000000 1.000000
0.544721 -16.419849 33.949905 -0.675130 0.737693 0.000000 0.000000 1.000000
1.104066 -16.419849 33.940357 0.000000 0.000000 -0.999969 0.000000 1.000000
1.104066 -16.574772 33.940357 0.000000 -0.707083 -0.707083 0.000000 1.000000
0.690261 -16.574772 33.940357 0.000000 -0.707083 -0.707083 0.000000 1.000000
0.276435 -16.574772 33.940357 0.000000 -0.707083 -0.707083 0.000000 1.000000
0.276435 -16.419849 33.940357 0.000000 0.707083 -0.707083 0.000000 1.000000
0.854368 -16.348625 33.940361 -0.000031 0.000031 -1.000000 0.000000 1.000000
0.854368 -16.419849 33.940357 -0.000031 0.000000 -1.000000 0.000000 1.000000
1.162841 -17.309311 30.784384 0.707083 -0.707083 0.000000 0.000000 1.000000
1.162841 -17.309311 30.795782 0.577349 -0.577349 0.577319 0.000000 1.000000
0.949725 -17.309311 30.795782 0.000000 -0.707083 0.707083 0.000000 1.000000
1.162841 -17.201996 30.795784 0.577349 0.577319 0.577349 0.000000 1.000000
1.162841 -17.166229 30.784386 0.707083 -0.707083 0.000000 0.000000 1.000000
1.162841 -17.166229 30.795778 0.577349 -0.577349 0.577319 0.000000 1.000000
0.949725 -17.166229 30.795778 -0.577349 -0.577349 0.577319 0.000000 1.000000
1.162841 -17.054941 30.795782 0.577319 0.577319 0.577349 0.000000 1.000000
1.162841 -17.019173 30.784384 0.707083 -0.707083 0.000000 0.000000 1.000000
1.162841 -17.019173 30.795782 0.577319 -0.577319 0.577349 0.000000 1.000000
0.949725 -17.019173 30.795782 -0.577319 -0.577319 0.577349 0.000000 1.000000
1.162841 -16.911860 30.795778 0.577288 0.577258 0.577441 0.000000 1.000000
0.949725 -17.309311 30.784384 0.000000 -1.000000 0.000000 0.000000 1.000000
0.949725 -17.201996 30.795784 0.000000 0.707083 0.707083 0.000000 1.000000
0.949725 -17.166229 30.784386 -0.707083 -0.707083 0.000000 0.000000 1.000000
0.949725 -17.054941 30.795782 -0.577319 0.577319 0.577349 0.000000 1.000000
0.949725 -17.019173 30.784384 -0.707083 -0.707083 0.000000 0.000000 1.000000
0.949725 -16.911860 30.795778 -0.577380 0.577319 0.577319 0.000000 1.000000
-0.949812 -17.309313 30.795782 0.000000 -0.707083 0.707114 0.000000 1.000000
-1.162928 -17.309315 30.795782 -0.577319 -0.577319 0.577349 0.000000 1.000000
-1.162928 -17.309315 30.784384 -0.707083 -0.707114 0.000000 0.000000 1.000000
-1.162928 -17.202002 30.795776 -0.577288 0.577258 0.577441 0.000000 1.000000
-0.949812 -17.166231 30.795778 0.577349 -0.577349 0.577319 0.000000 1.000000
-1.162928 -17.166231 30.795778 -0.577349 -0.577349 0.577319 0.000000 1.000000
-1.162928 -17.166231 30.784386 -0.707083 -0.707083 0.000000 0.000000 1.000000
-1.162928 -17.054945 30.795782 -0.577319 0.577319 0.577349 0.000000 1.000000
-0.949812 -17.019175 30.795782 0.577319 -0.577319 0.577349 0.000000 1.000000
-1.162928 -17.019175 30.795782 -0.577319 -0.577319 0.577349 0.000000 1.000000
-1.162928 -17.019175 30.784384 -0.707083 -0.707083 0.000000 0.000000 1.000000
-1.162928 -16.911863 30.795778 -0.577349 0.577288 0.577380 0.000000 1.000000
-0.949812 -17.309315 30.784384 0.000000 -1.000000 0.000000 0.000000 1.000000
-0.949812 -17.202002 30.795776 0.000000 0.707114 0.707083 0.000000 1.000000
-0.949812 -17.166231 30.784386 0.707083 -0.707083 0.000000 0.000000 1.000000
-0.949812 -17.054945 30.795782 0.577319 0.577319 0.577349 0.000000 1.000000
-0.949812 -17.019175 30.784384 0.707083 -0.707083 0.000000 0.000000 1.000000
-0.949812 -16.911863 30.795778 0.577380 0.577319 0.577319 0.000000 1.000000
-0.690346 -16.574776 33.940353 0.000000 -0.707083 -0.707083 0.000000 1.000000
-1.104152 -16.574776 33.940353 0.000000 -0.707083 -0.707083 0.000000 1.000000
-1.104152 -16.419853 33.940353 0.000000 0.000000 -1.000000 0.000000 1.000000
-0.276521 -16.419853 33.940353 0.000000 0.000000 -1.000000 0.000000 1.000000
-0.276521 -16.574776 33.940353 0.000000 -0.707083 -0.707083 0.000000 1.000000
-0.544807 -16.419853 33.940353 0.000000 0.000000 -1.000000 0.000000 1.000000
-0.544807 -16.348629 33.940350 0.000000 0.000000 -1.000000 0.000000 1.000000
-0.854455 -16.348629 33.940350 0.000000 -0.000031 -0.999969 0.000000 1.000000
-0.854455 -16.419853 33.940353 0.000000 0.000000 -1.000000 0.000000 1.000000
0.375193 -15.600529 32.719234 -0.577349 -0.577349 0.577288 0.000000 1.000000
0.468097 -15.600529 32.719234 0.577349 -0.577349 0.577288 0.000000 1.000000
0.468097 -15.565690 32.719238 0.707053 -0.000061 0.707114 0.000000 1.000000
0.375193 -15.565690 32.719238 -0.707053 -0.000061 0.707114 0.000000 1.000000
0.468097 -15.600529 32.645466 0.577349 -0.577349 -0.577349 0.000000 1.000000
0.468097 -15.565690 32.645466 0.707083 0.000000 -0.707083 0.000000 1.000000
0.375193 -15.600529 32.645466 -0.577349 -0.577349 -0.577349 0.000000 1.000000
0.375193 -15.565690 32.645466 -0.707083 0.000000 -0.707083 0.000000 1.000000
0.499072 -15.600529 32.719234 -0.577349 -0.577349 0.577288 0.000000 1.000000
0.595439 -15.600529 32.719234 0.577319 -0.577380 0.577288 0.000000 1.000000
0.595440 -15.565690 32.719238 0.707083 -0.000092 0.707114 0.000000 1.000000
0.499072 -15.565690 32.719238 -0.707053 -0.000061 0.707114 0.000000 1.000000
0.595439 -15.600529 32.645466 0.577319 -0.577349 -0.577349 0.000000 1.000000
0.595440 -15.565690 32.645466 0.707083 0.000000 -0.707083 0.000000 1.000000
0.499072 -15.600529 32.645466 -0.577349 -0.577349 -0.577349 0.000000 1.000000
0.499072 -15.565690 32.645466 -0.707083 0.000000 -0.707083 0.000000 1.000000
0.626394 -15.600529 32.719234 -0.577349 -0.577349 0.577288 0.000000 1.000000
0.719319 -15.600529 32.719234 0.577349 -0.577349 0.577288 0.000000 1.000000
0.719319 -15.565690 32.719238 0.707053 -0.000061 0.707114 0.000000 1.000000
0.626394 -15.565690 32.719238 -0.707053 -0.000061 0.707114 0.000000 1.000000
0.719319 -15.600529 32.645466 0.577349 -0.577349 -0.577349 0.000000 1.000000
0.719319 -15.565690 32.645466 0.707083 0.000000 -0.707083 0.000000 1.000000
0.626394 -15.600529 32.645466 -0.577349 -0.577349 -0.577349 0.000000 1.000000
0.626394 -15.565690 32.645466 -0.707083 0.000000 -0.707083 0.000000 1.000000
0.032941 -15.653749 33.633354 -0.577319 -0.577319 0.577349 0.000000 1.000000
0.081908 -15.653749 33.633354 0.577319 -0.577319 0.577349 0.000000 1.000000
0.081908 -15.565688 33.633350 0.707114 0.000031 0.707083 0.000000 1.000000
0.032941 -15.565688 33.633350 -0.707114 0.000031 0.707083 0.000000 1.000000
0.081908 -15.653747 33.546398 0.577349 -0.577349 -0.577319 0.000000 1.000000
0.081908 -15.565688 33.546394 0.707083 -0.000031 -0.707114 0.000000 1.000000
0.032941 -15.653747 33.546398 -0.577349 -0.577349 -0.577319 0.000000 1.000000
0.032941 -15.565688 33.546394 -0.707083 -0.000031 -0.707114 0.000000 1.000000
0.092789 -15.653749 33.633354 -0.577319 -0.577349 0.577349 0.000000 1.000000
0.141777 -15.653747 33.633354 0.577349 -0.577319 0.577349 0.000000 1.000000
0.141777 -15.565688 33.633350 0.707114 0.000000 0.707083 0.000000 1.000000
0.092789 -15.565688 33.633350 -0.707114 0.000031 0.707083 0.000000 1.000000
0.141777 -15.653747 33.546398 0.577349 -0.577349 -0.577319 0.000000 1.000000
0.141777 -15.565688 33.546394 0.707083 -0.000031 -0.707114 0.000000 1.000000
0.092789 -15.653747 33.546398 -0.577349 -0.577349 -0.577319 0.000000 1.000000
0.092789 -15.565688 33.546394 -0.707083 -0.000031 -0.707114 0.000000 1.000000
0.897338 -15.619831 32.456650 0.000000 -0.707083 0.707083 0.000000 1.000000
0.967202 -15.619831 32.456650 0.577349 -0.577349 0.577349 0.000000 1.000000
0.967202 -15.565690 32.456650 0.707083 0.000000 0.707083 0.000000 1.000000
0.897338 -15.565690 32.456650 0.000000 0.000000 1.000000 0.000000 1.000000
0.967202 -15.619831 32.416317 0.577349 -0.577349 -0.577349 0.000000 1.000000
0.967202 -15.565690 32.416317 0.707083 0.000000 -0.707083 0.000000 1.000000
0.897338 -15.619831 32.416317 0.000000 -0.707083 -0.707083 0.000000 1.000000
0.897338 -15.565690 32.416317 0.000000 0.000000 -1.000000 0.000000 1.000000
0.990490 -15.619831 32.456650 -0.577349 -0.577349 0.577349 0.000000 1.000000
1.062951 -15.619831 32.456650 0.577349 -0.577349 0.577349 0.000000 1.000000
1.062951 -15.565690 32.456650 0.707083 0.000000 0.707083 0.000000 1.000000
0.990490 -15.565690 32.456650 -0.707083 0.000000 0.707083 0.000000 1.000000
1.062951 -15.619831 32.416317 0.577349 -0.577349 -0.577349 0.000000 1.000000
1.062951 -15.565690 32.416317 0.707083 0.000000 -0.707083 0.000000 1.000000
0.990490 -15.619831 32.416317 -0.577349 -0.577349 -0.577349 0.000000 1.000000
0.990490 -15.565690 32.416317 -0.707083 0.000000 -0.707083 0.000000 1.000000
1.086260 -15.619831 32.456650 -0.577349 -0.577349 0.577349 0.000000 1.000000
1.156124 -15.619831 32.456650 0.577349 -0.577349 0.577349 0.000000 1.000000
1.156124 -15.565690 32.456650 0.707083 0.000000 0.707083 0.000000 1.000000
1.086260 -15.565690 32.456650 -0.707083 0.000000 0.707083 0.000000 1.000000
1.156124 -15.619831 32.416317 0.577349 -0.577349 -0.577349 0.000000 1.000000
1.156124 -15.565690 32.416317 0.707083 0.000000 -0.707083 0.000000 1.000000
1.086260 -15.619831 32.416317 -0.577349 -0.577349 -0.577349 0.000000 1.000000
1.086260 -15.565690 32.416317 -0.707083 0.000000 -0.707083 0.000000 1.000000
1.031027 -15.638867 33.840359 -0.577349 -0.577349 0.577349 0.000000 1.000000
1.063775 -15.638867 33.840359 0.577349 -0.577349 0.577349 0.000000 1.000000
1.063775 -15.565686 33.840359 0.707083 0.000000 0.707083 0.000000 1.000000
1.031027 -15.565686 33.840359 -0.707083 0.000000 0.707083 0.000000 1.000000
1.063775 -15.638867 33.665726 0.577349 -0.577349 -0.577349 0.000000 1.000000
1.063775 -15.565686 33.665726 0.707083 0.000000 -0.707083 0.000000 1.000000
1.031027 -15.638867 33.665726 -0.577349 -0.577349 -0.577349 0.000000 1.000000
1.031027 -15.565686 33.665726 -0.707083 0.000000 -0.707083 0.000000 1.000000
1.074697 -15.638867 33.840359 -0.577349 -0.577349 0.577349 0.000000 1.000000
1.108641 -15.638867 33.840359 0.577349 -0.577349 0.577349 0.000000 1.000000
1.108641 -15.565686 33.840359 0.707083 0.000000 0.707083 0.000000 1.000000
1.074697 -15.565686 33.840359 -0.707083 0.000000 0.707083 0.000000 1.000000
1.108641 -15.638867 33.665726 0.577349 -0.577349 -0.577349 0.000000 1.000000
1.108641 -15.565686 33.665726 0.707083 0.000000 -0.707083 0.000000 1.000000
1.074697 -15.638867 33.665726 -0.577349 -0.577349 -0.577349 0.000000 1.000000
1.074697 -15.565686 33.665726 -0.707083 0.000000 -0.707083 0.000000 1.000000
1.119563 -15.638867 33.840359 -0.577349 -0.577349 0.577349 0.000000 1.000000
1.152311 -15.638867 33.840359 0.577349 -0.577349 0.577349 0.000000 1.000000
1.152311 -15.565686 33.840359 0.707083 0.000000 0.707083 0.000000 1.000000
1.119563 -15.565686 33.840359 -0.707083 0.000000 0.707083 0.000000 1.000000
1.152311 -15.638867 33.665726 0.577349 -0.577349 -0.577349 0.000000 1.000000
1.152311 -15.565686 33.665726 0.707083 0.000000 -0.707083 0.000000 1.000000
1.119563 -15.638867 33.665726 -0.577349 -0.577349 -0.577349 0.000000 1.000000
1.119563 -15.565686 33.665726 -0.707083 0.000000 -0.707083 0.000000 1.000000
1.104066 -16.574772 33.949905 0.000000 -1.000000 0.000000 0.000000 1.000000
0.690261 -16.574772 33.949905 0.000000 -1.000000 0.000000 0.000000 1.000000
0.276435 -16.574772 33.949905 0.000000 -1.000000 0.000000 0.000000 1.000000
0.276435 -16.419849 33.949905 0.000000 1.000000 0.000000 0.000000 1.000000
1.162841 -17.201996 30.784384 0.707083 0.707083 0.000000 0.000000 1.000000
0.949725 -17.201996 30.784384 0.000000 1.000000 0.000000 0.000000 1.000000
0.949725 -17.054941 30.784384 -0.707083 0.707083 0.000000 0.000000 1.000000
1.162841 -17.054941 30.784384 0.707083 0.707083 0.000000 0.000000 1.000000
0.949725 -16.911858 30.784386 -0.707053 0.707114 0.000000 0.000000 1.000000
1.162841 -16.911858 30.784386 0.707053 0.707114 0.000244 0.000000 1.000000
-0.949812 -17.202000 30.784386 0.000000 1.000000 0.000000 0.000000 1.000000
-1.162928 -17.202000 30.784386 -0.707053 0.707114 0.000244 0.000000 1.000000
-0.949812 -17.054945 30.784384 0.707083 0.707083 0.000000 0.000000 1.000000
-1.162928 -17.054945 30.784384 -0.707083 0.707083 0.000000 0.000000 1.000000
-0.949812 -16.911861 30.784386 0.707053 0.707114 0.000000 0.000000 1.000000
-1.162928 -16.911861 30.784386 -0.707053 0.707114 0.000122 0.000000 1.000000
-0.690346 -16.574776 33.949890 0.000000 -1.000000 0.000000 0.000000 1.000000
-1.104152 -16.574776 33.949890 0.000000 -1.000000 0.000000 0.000000 1.000000
-0.276521 -16.574776 33.949890 0.000000 -1.000000 0.000000 0.000000 1.000000
-0.375278 -15.600532 32.719234 0.577349 -0.577380 0.577288 0.000000 1.000000
-0.375278 -15.565693 32.719238 0.707053 -0.000061 0.707114 0.000000 1.000000
-0.468183 -15.565693 32.719238 -0.707053 -0.000061 0.707114 0.000000 1.000000
-0.468183 -15.600532 32.719234 -0.577349 -0.577380 0.577288 0.000000 1.000000
-0.468183 -15.565693 32.645466 -0.707083 0.000000 -0.707083 0.000000 1.000000
-0.468183 -15.600530 32.645466 -0.577349 -0.577319 -0.577349 0.000000 1.000000
-0.375278 -15.565693 32.645466 0.707083 0.000000 -0.707083 0.000000 1.000000
-0.375278 -15.600530 32.645466 0.577349 -0.577319 -0.577349 0.000000 1.000000
-0.499158 -15.600532 32.719234 0.577349 -0.577380 0.577288 0.000000 1.000000
-0.499158 -15.565693 32.719238 0.707053 -0.000061 0.707114 0.000000 1.000000
-0.595525 -15.565693 32.719238 -0.707053 -0.000061 0.707114 0.000000 1.000000
-0.595525 -15.600532 32.719234 -0.577349 -0.577380 0.577288 0.000000 1.000000
-0.595525 -15.565693 32.645466 -0.707083 0.000000 -0.707083 0.000000 1.000000
-0.595525 -15.600530 32.645466 -0.577349 -0.577319 -0.577349 0.000000 1.000000
-0.499158 -15.565693 32.645466 0.707083 0.000000 -0.707083 0.000000 1.000000
-0.499158 -15.600530 32.645466 0.577349 -0.577319 -0.577349 0.000000 1.000000
-0.626479 -15.600532 32.719234 0.577349 -0.577380 0.577288 0.000000 1.000000
-0.626479 -15.565693 32.719238 0.707053 -0.000061 0.707114 0.000000 1.000000
-0.719405 -15.565693 32.719238 -0.707053 -0.000061 0.707114 0.000000 1.000000
-0.719405 -15.600532 32.719234 -0.577349 -0.577380 0.577288 0.000000 1.000000
-0.719405 -15.565693 32.645466 -0.707083 0.000000 -0.707083 0.000000 1.000000
-0.719405 -15.600530 32.645466 -0.577349 -0.577319 -0.577349 0.000000 1.000000
-0.626479 -15.565693 32.645466 0.707083 0.000000 -0.707083 0.000000 1.000000
-0.626479 -15.600530 32.645466 0.577349 -0.577319 -0.577349 0.000000 1.000000
-0.033028 -15.653749 33.633354 0.577319 -0.577319 0.577349 0.000000 1.000000
-0.033028 -15.565690 33.633350 0.707114 0.000031 0.707083 0.000000 1.000000
-0.081994 -15.565690 33.633350 -0.707114 0.000031 0.707083 0.000000 1.000000
-0.081994 -15.653749 33.633354 -0.577319 -0.577319 0.577349 0.000000 1.000000
-0.081994 -15.565690 33.546394 -0.707114 0.000061 -0.707083 0.000000 1.000000
-0.081994 -15.653749 33.546387 -0.577319 -0.577319 -0.577349 0.000000 1.000000
-0.033028 -15.565690 33.546394 0.707114 0.000061 -0.707083 0.000000 1.000000
-0.033028 -15.653749 33.546387 0.577319 -0.577319 -0.577349 0.000000 1.000000
-0.092876 -15.653749 33.633354 0.577319 -0.577319 0.577349 0.000000 1.000000
-0.092876 -15.565690 33.633350 0.707114 0.000031 0.707083 0.000000 1.000000
-0.141863 -15.565690 33.633350 -0.707114 0.000000 0.707083 0.000000 1.000000
-0.141862 -15.653749 33.633354 -0.577319 -0.577319 0.577349 0.000000 1.000000
-0.141863 -15.565690 33.546394 -0.707083 -0.000031 -0.707114 0.000000 1.000000
-0.141862 -15.653749 33.546398 -0.577319 -0.577349 -0.577319 0.000000 1.000000
-0.092876 -15.565690 33.546394 0.707083 -0.000031 -0.707114 0.000000 1.000000
-0.092876 -15.653749 33.546398 0.577349 -0.577349 -0.577319 0.000000 1.000000
-0.897424 -15.619834 32.456650 0.577349 -0.577349 0.577349 0.000000 1.000000
-0.897424 -15.565694 32.456650 0.707083 0.000000 0.707083 0.000000 1.000000
-0.967288 -15.565694 32.456650 -0.707083 0.000000 0.707083 0.000000 1.000000
-0.967288 -15.619834 32.456650 -0.577349 -0.577349 0.577349 0.000000 1.000000
-0.967288 -15.565694 32.416317 -0.707083 0.000000 -0.707083 0.000000 1.000000
-0.967288 -15.619834 32.416317 -0.577349 -0.577349 -0.577349 0.000000 1.000000
-0.897424 -15.565694 32.416317 0.707083 0.000000 -0.707083 0.000000 1.000000
-0.897424 -15.619834 32.416317 0.577349 -0.577349 -0.577349 0.000000 1.000000
-0.990576 -15.619834 32.456650 0.577349 -0.577349 0.577349 0.000000 1.000000
-0.990576 -15.565694 32.456650 0.707083 0.000000 0.707083 0.000000 1.000000
-1.063037 -15.565694 32.456650 -0.707083 0.000000 0.707083 0.000000 1.000000
-1.063037 -15.619834 32.456650 -0.577349 -0.577349 0.577349 0.000000 1.000000
-1.063037 -15.565694 32.416317 -0.707083 0.000000 -0.707083 0.000000 1.000000
-1.063037 -15.619834 32.416317 -0.577349 -0.577349 -0.577349 0.000000 1.000000
-0.990576 -15.565694 32.416317 0.707083 0.000000 -0.707083 0.000000 1.000000
-0.990576 -15.619834 32.416317 0.577349 -0.577349 -0.577349 0.000000 1.000000
-1.086345 -15.619834 32.456650 0.577349 -0.577349 0.577349 0.000000 1.000000
-1.086345 -15.565694 32.456650 0.707083 0.000000 0.707083 0.000000 1.000000
-1.156209 -15.565694 32.456650 -0.707083 0.000000 0.707083 0.000000 1.000000
-1.156209 -15.619834 32.456650 -0.577349 -0.577349 0.577349 0.000000 1.000000
-1.156209 -15.565694 32.416317 -0.707083 0.000000 -0.707083 0.000000 1.000000
-1.156209 -15.619834 32.416317 -0.577349 -0.577349 -0.577349 0.000000 1.000000
-1.086345 -15.565694 32.416317 0.707083 0.000000 -0.707083 0.000000 1.000000
-1.086345 -15.619834 32.416317 0.577349 -0.577349 -0.577349 0.000000 1.000000
-1.031114 -15.638871 33.840359 0.577349 -0.577349 0.577319 0.000000 1.000000
-1.031114 -15.565690 33.840363 0.707083 -0.000031 0.707114 0.000000 1.000000
-1.063861 -15.565690 33.840363 -0.707083 -0.000031 0.707114 0.000000 1.000000
-1.063861 -15.638871 33.840359 -0.577349 -0.577349 0.577319 0.000000 1.000000
-1.063861 -15.565691 33.665726 -0.707083 0.000000 -0.707083 0.000000 1.000000
-1.063861 -15.638871 33.665726 -0.577349 -0.577349 -0.577349 0.000000 1.000000
-1.031114 -15.565691 33.665726 0.707083 0.000000 -0.707083 0.000000 1.000000
-1.031114 -15.638871 33.665726 0.577349 -0.577349 -0.577349 0.000000 1.000000
-1.074763 -15.638871 33.840359 0.577349 -0.577349 0.577319 0.000000 1.000000
-1.074763 -15.565690 33.840363 0.707083 -0.000031 0.707114 0.000000 1.000000
-1.108726 -15.565690 33.840363 -0.707083 -0.000031 0.707114 0.000000 1.000000
-1.108726 -15.638871 33.840359 -0.577349 -0.577349 0.577319 0.000000 1.000000
-1.108726 -15.565691 33.665726 -0.707083 0.000000 -0.707083 0.000000 1.000000
-1.108726 -15.638871 33.665726 -0.577349 -0.577349 -0.577349 0.000000 1.000000
-1.074763 -15.565691 33.665726 0.707083 0.000000 -0.707083 0.000000 1.000000
-1.074763 -15.638871 33.665726 0.577349 -0.577349 -0.577349 0.000000 1.000000
-1.119649 -15.638871 33.840359 0.577349 -0.577349 0.577319 0.000000 1.000000
-1.119650 -15.565690 33.840363 0.707083 -0.000031 0.707114 0.000000 1.000000
-1.152396 -15.565690 33.840363 -0.707083 -0.000031 0.707114 0.000000 1.000000
-1.152396 -15.638871 33.840359 -0.577349 -0.577349 0.577319 0.000000 1.000000
-1.152396 -15.565691 33.665726 -0.707083 0.000000 -0.707083 0.000000 1.000000
-1.152396 -15.638871 33.665726 -0.577349 -0.577349 -0.577349 0.000000 1.000000
-1.119649 -15.565691 33.665726 0.707083 0.000000 -0.707083 0.000000 1.000000
-1.119649 -15.638871 33.665726 0.577349 -0.577349 -0.577349 0.000000 1.000000
3 0 1 2
3 3 4 5
3 6 7 5
3 7 1 5
3 1 0 5
3 0 8 5
3 8 9 5
3 9 3 5
3 10 11 12
3 12 11 13
3 14 15 16
3 16 15 17
3 18 19 20
3 20 19 21
3 10 12 22
3 12 13 23
3 14 16 24
3 16 17 25
3 18 20 26
3 20 21 27
3 28 29 30
3 31 29 28
3 32 33 34
3 35 33 32
3 36 37 38
3 39 37 36
3 40 28 30
3 41 31 28
3 42 32 34
3 43 35 32
3 44 36 38
3 45 39 36
3 46 47 48
3 46 49 50
3 46 51 49
3 46 52 51
3 46 53 52
3 46 54 53
3 46 48 54
3 55 56 57
3 57 58 55
3 56 59 60
3 60 57 56
3 59 61 62
3 62 60 59
3 61 55 58
3 58 62 61
3 61 59 56
3 56 55 61
3 63 64 65
3 65 66 63
3 64 67 68
3 68 65 64
3 67 69 70
3 70 68 67
3 69 63 66
3 66 70 69
3 69 67 64
3 64 63 69
3 71 72 73
3 73 74 71
3 72 75 76
3 76 73 72
3 75 77 78
3 78 76 75
3 77 71 74
3 74 78 77
3 77 75 72
3 72 71 77
3 79 80 81
3 81 82 79
3 80 83 84
3 84 81 80
3 83 85 86
3 86 84 83
3 85 79 82
3 82 86 85
3 85 83 80
3 80 79 85
3 87 88 89
3 89 90 87
3 88 91 92
3 92 89 88
3 91 93 94
3 94 92 91
3 93 87 90
3 90 94 93
3 93 91 88
3 88 87 93
3 95 96 97
3 97 98 95
3 96 99 100
3 100 97 96
3 99 101 102
3 102 100 99
3 101 99 96
3 96 95 101
3 103 104 105
3 105 106 103
3 104 107 108
3 108 105 104
3 107 109 110
3 110 108 107
3 109 103 106
3 106 110 109
3 109 107 104
3 104 103 109
3 111 112 113
3 113 114 111
3 112 115 116
3 116 113 112
3 115 117 118
3 118 116 115
3 117 111 114
3 114 118 117
3 117 115 112
3 112 111 117
3 119 120 121
3 121 122 119
3 120 123 124
3 124 121 120
3 123 125 126
3 126 124 123
3 125 119 122
3 122 126 125
3 125 123 120
3 120 119 125
3 127 128 129
3 129 130 127
3 128 131 132
3 132 129 128
3 131 133 134
3 134 132 131
3 133 127 130
3 130 134 133
3 133 131 128
3 128 127 133
3 135 136 137
3 137 138 135
3 136 139 140
3 140 137 136
3 139 141 142
3 142 140 139
3 141 135 138
3 138 142 141
3 141 139 136
3 136 135 141
3 4 143 144
3 144 5 4
3 5 144 145
3 145 6 5
3 7 146 2
3 2 1 7
3 23 13 147
3 147 148 23
3 13 11 10
3 10 147 13
3 16 25 149
3 149 24 16
3 25 17 150
3 150 149 25
3 17 15 14
3 14 150 17
3 20 27 151
3 151 26 20
3 27 21 152
3 152 151 27
3 21 19 18
3 18 152 21
3 41 153 154
3 154 31 41
3 31 154 30
3 30 29 31
3 32 42 155
3 155 43 32
3 43 155 156
3 156 35 43
3 35 156 34
3 34 33 35
3 36 44 157
3 157 45 36
3 45 157 158
3 158 39 45
3 39 158 38
3 38 37 39
3 47 46 159
3 159 160 47
3 46 50 161
3 161 159 46
3 162 163 164
3 164 165 162
3 165 164 166
3 166 167 165
3 167 166 168
3 168 169 167
3 169 168 163
3 163 162 169
3 169 162 165
3 165 167 169
3 170 171 172
3 172 173 170
3 173 172 174
3 174 175 173
3 175 174 176
3 176 177 175
3 177 176 171
3 171 170 177
3 177 170 173
3 173 175 177
3 178 179 180
3 180 181 178
3 181 180 182
3 182 183 181
3 183 182 184
3 184 185 183
3 185 184 179
3 179 178 185
3 185 178 181
3 181 183 185
3 186 187 188
3 188 189 186
3 189 188 190
3 190 191 189
3 191 190 192
3 192 193 191
3 193 192 187
3 187 186 193
3 193 186 189
3 189 191 193
3 194 195 196
3 196 197 194
3 197 196 198
3 198 199 197
3 199 198 200
3 200 201 199
3 201 200 195
3 195 194 201
3 201 194 197
3 197 199 201
3 202 203 204
3 204 205 202
3 205 204 206
3 206 207 205
3 207 206 208
3 208 209 207
3 209 208 203
3 203 202 209
3 209 202 205
3 205 207 209
3 210 211 212
3 212 213 210
3 213 212 214
3 214 215 213
3 215 214 216
3 216 217 215
3 217 216 211
3 211 210 217
3 217 210 213
3 213 215 217
3 218 219 220
3 220 221 218
3 221 220 222
3 222 223 221
3 223 222 224
3 224 225 223
3 225 224 219
3 219 218 225
3 225 218 221
3 221 223 225
3 226 227 228
3 228 229 226
3 229 228 230
3 230 231 229
3 231 230 232
3 232 233 231
3 233 232 227
3 227 226 233
3 233 226 229
3 229 231 233
3 234 235 236
3 236 237 234
3 237 236 238
3 238 239 237
3 239 238 240
3 240 241 239
3 241 240 235
3 235 234 241
3 241 234 237
3 237 239 241
3 242 243 244
3 244 245 242
3 245 244 246
3 246 247 245
3 247 246 248
3 248 249 247
3 249 248 243
3 243 242 249
3 249 242 245
3 245 247 249
