ply
format ascii 1.0
comment Created by Blender 2.93.5 - www.blender.org
element vertex 51
property float x
property float y
property float z
property float nx
property float ny
property float nz
property float s
property float t
element face 26
property list uchar uint vertex_indices
end_header
-36.191616 -11.815624 -28.978207 -0.310923 0.000000 0.950407 0.000000 1.000000
-36.191616 -12.518520 -28.978207 -0.310953 0.000000 0.950407 0.000000 1.000000
-35.228771 -12.506812 -28.663191 -0.310923 0.000000 0.950407 0.000000 1.000000
-34.858719 -11.942271 -28.093159 -0.310923 0.000031 0.950407 0.000000 1.000000
-33.951229 -11.886436 -27.796272 -0.310923 0.000000 0.950407 0.000000 1.000000
-33.951229 -11.681701 -27.796272 -0.310923 0.000000 0.950407 0.000000 1.000000
-35.228771 -11.735180 -28.663191 -0.310923 0.000000 0.950407 0.000000 1.000000
-35.766171 -11.823777 -28.390059 -0.310953 0.000000 0.950407 0.000000 1.000000
-35.766171 -11.998103 -28.390059 -0.310953 0.000000 0.950407 0.000000 1.000000
-35.131538 -11.774097 -28.182430 -0.310923 0.000061 0.950407 0.000000 1.000000
-34.521641 -11.726353 -27.982882 -0.310923 0.000000 0.950407 0.000000 1.000000
-24.082691 -13.555517 7.445940 -0.310923 0.000000 0.950407 0.000000 1.000000
-22.941414 -13.636443 7.819329 -0.310923 0.000000 0.950407 0.000000 1.000000
-22.941414 -13.417329 7.819329 -0.310923 0.000000 0.950407 0.000000 1.000000
-24.082691 -13.295895 7.445940 -0.310923 0.000000 0.950407 0.000000 1.000000
-22.941414 -13.344293 7.819329 -0.310923 0.000000 0.950407 0.000000 1.000000
-22.941414 -13.117064 7.819329 -0.310923 0.000000 0.950407 0.000000 1.000000
-24.082691 -13.029059 7.445940 -0.310923 0.000000 0.950407 0.000000 1.000000
-22.941414 -13.044028 7.819329 -0.310923 0.000000 0.950407 0.000000 1.000000
-22.941414 -12.824915 7.819329 -0.310923 0.000000 0.950407 0.000000 1.000000
-23.168936 -11.370516 7.770836 -0.310892 0.000000 0.950438 0.000000 1.000000
-23.168936 -12.235117 7.770836 -0.310892 0.000000 0.950438 0.000000 1.000000
-22.923321 -12.218603 7.851183 -0.310892 0.000000 0.950438 0.000000 1.000000
-21.253304 -11.181006 9.100756 -0.310923 0.000000 0.950407 0.000000 1.000000
-22.130911 -11.305821 8.813628 -0.310953 0.000000 0.950407 0.000000 1.000000
-22.130911 -11.502391 8.813628 -0.310923 0.000000 0.950407 0.000000 1.000000
-21.253304 -11.463499 9.100750 -0.310923 0.000000 0.950407 0.000000 1.000000
-22.130911 -11.567914 8.813628 -0.310923 0.000000 0.950407 0.000000 1.000000
-22.130911 -11.771767 8.813628 -0.310923 0.000000 0.950407 0.000000 1.000000
-21.253304 -11.753837 9.100750 -0.310923 0.000000 0.950407 0.000000 1.000000
-22.130911 -11.837290 8.813628 -0.310923 0.000000 0.950407 0.000000 1.000000
-22.130911 -12.033860 8.813628 -0.310923 0.000000 0.950407 0.000000 1.000000
-24.082691 -13.360796 7.445940 -0.310923 0.000000 0.950407 0.000000 1.000000
-24.082691 -13.093963 7.445940 -0.310923 0.000000 0.950407 0.000000 1.000000
-24.082691 -12.834342 7.445940 -0.310923 0.000000 0.950407 0.000000 1.000000
-22.923321 -11.332835 7.851183 -0.310892 0.000000 0.950438 0.000000 1.000000
-21.253304 -11.392876 9.100750 -0.310923 0.000000 0.950407 0.000000 1.000000
-21.253304 -11.683213 9.100750 -0.310923 0.000000 0.950407 0.000000 1.000000
-21.253304 -11.965707 9.100750 -0.310923 0.000000 0.950407 0.000000 1.000000
-33.978146 -13.456102 -27.720783 -0.949370 0.000000 0.314066 0.000000 1.000000
-33.622601 -13.456102 -26.646101 -0.949370 0.000000 0.314066 0.000000 1.000000
-33.622601 -13.244588 -26.646101 -0.949370 0.000000 0.314066 0.000000 1.000000
-33.978146 -13.174082 -27.720783 -0.949370 0.000000 0.314097 0.000000 1.000000
-33.622601 -13.174082 -26.646101 -0.949370 0.000000 0.314066 0.000000 1.000000
-33.622601 -12.954735 -26.646101 -0.949370 0.000000 0.314066 0.000000 1.000000
-33.978146 -12.884229 -27.720783 -0.949370 0.000000 0.314066 0.000000 1.000000
-33.622601 -12.884229 -26.646101 -0.949370 0.000000 0.314066 0.000000 1.000000
-33.622601 -12.672714 -26.646101 -0.949370 0.000000 0.314066 0.000000 1.000000
-33.978146 -13.244585 -27.720783 -0.949370 0.000000 0.314066 0.000000 1.000000
-33.978146 -12.954732 -27.720783 -0.949370 0.000000 0.314097 0.000000 1.000000
-33.978146 -12.672714 -27.720783 -0.949370 0.000000 0.314066 0.000000 1.000000
3 0 1 2
3 3 4 5
3 0 2 6
3 3 7 8
3 3 9 7
3 3 5 10
3 11 12 13
3 14 15 16
3 17 18 19
3 20 21 22
3 23 24 25
3 26 27 28
3 29 30 31
3 11 13 32
3 14 16 33
3 17 19 34
3 20 22 35
3 23 25 36
3 26 28 37
3 29 31 38
3 39 40 41
3 42 43 44
3 45 46 47
3 39 41 48
3 42 44 49
3 45 47 50
