ply
format ascii 1.0
comment Created by Blender 2.93.5 - www.blender.org
element vertex 32
property float x
property float y
property float z
property float nx
property float ny
property float nz
property float s
property float t
element face 47
property list uchar uint vertex_indices
end_header
-19.799688 -19.312185 -69.415321 -0.766686 -0.480056 0.426252 0.951516 4.276681
-5.861785 -23.216318 -73.043175 0.661794 -0.687094 0.299844 1.880710 4.421795
-8.204288 -15.091501 -66.336525 0.494369 0.391247 0.776177 1.724543 4.153529
-18.159925 -15.091501 -66.533852 -0.471999 0.437178 0.765526 1.060834 4.161422
-19.799688 -19.312181 -73.636009 -0.752922 -0.326243 -0.571490 0.951516 4.445509
-18.159946 -15.091498 -73.181435 -0.446852 0.691000 -0.568133 1.060832 4.427326
-8.204288 -15.091497 -72.984085 0.479812 0.755913 -0.445326 1.724543 4.419432
-5.861785 -23.216316 -77.263893 0.503006 -0.460646 -0.731254 1.880710 4.590624
-43.463776 -14.036328 -65.870293 -0.390118 -0.589068 0.707633 -0.626090 4.134880
-33.356804 -13.403225 -66.707413 0.517411 0.668966 0.533586 0.047709 4.168365
-44.042202 -12.875639 -65.799210 -0.567705 0.473861 0.673147 -0.664652 4.132037
-30.975492 -17.940462 -66.938782 0.739555 -0.515854 0.432295 0.206463 4.177620
-46.457951 -12.875632 -73.508423 -0.799493 0.436842 -0.412244 -0.825701 4.440405
-45.879528 -14.036323 -73.579506 -0.602710 -0.599994 -0.526017 -0.787140 4.443249
-33.115456 -17.940456 -74.802063 0.519456 -0.559587 -0.645741 0.063798 4.492151
-35.429127 -13.403217 -74.517776 0.323710 0.669271 -0.668752 -0.090446 4.480780
-45.755901 -11.503910 -73.574455 -0.249641 0.524064 -0.814234 -0.778898 4.443047
-35.315952 -12.348045 -74.509827 0.300516 -0.684347 -0.664327 -0.082901 4.480461
-46.334316 -12.664600 -73.503395 -0.033509 -0.784936 -0.618641 -0.817459 4.440204
-33.119431 -8.549423 -74.796387 0.554186 0.515580 -0.653432 0.063533 4.491924
-43.921158 -12.664602 -65.788628 -0.526749 -0.514756 0.676412 -0.656582 4.131613
-43.342709 -11.503914 -65.859695 -0.372936 0.610034 0.699057 -0.618018 4.134456
-30.979465 -8.549425 -66.933121 0.770165 0.474715 0.425947 0.206198 4.177393
-33.243656 -12.348047 -66.699425 0.492416 -0.681967 0.540757 0.055252 4.168046
-5.861766 -4.434252 -73.148720 0.697806 0.658498 0.281747 1.880711 4.426017
-19.799669 -7.388741 -69.520851 -0.757195 0.501419 0.418561 0.951517 4.280902
-8.204269 -11.609430 -66.442055 0.496689 -0.373730 0.783319 1.724544 4.157751
-18.159906 -11.609432 -66.639381 -0.471999 -0.437178 0.765526 1.060835 4.165644
-18.159906 -11.609426 -73.286964 -0.446852 -0.691000 -0.568133 1.060835 4.431547
-19.799669 -7.388734 -73.741539 -0.741417 0.353130 -0.570574 0.951517 4.449730
-8.204270 -11.609426 -73.089638 0.464919 -0.773766 -0.430189 1.724544 4.423654
-5.861765 -4.434248 -77.369400 0.519242 0.420576 -0.743950 1.880711 4.594844
3 0 1 2
3 2 3 0
3 4 5 6
3 6 7 4
3 8 9 10
3 9 8 11
3 12 8 10
3 12 13 8
3 8 13 14
3 8 14 11
3 9 15 10
3 15 12 10
3 15 14 13
3 15 13 12
3 15 11 14
3 9 11 15
3 16 17 18
3 17 16 19
3 20 21 16
3 16 21 22
3 16 22 19
3 17 23 18
3 23 20 18
3 23 22 21
3 23 21 20
3 23 19 22
3 17 19 23
3 24 25 26
3 27 26 25
3 28 29 30
3 31 30 29
3 3 2 6
3 6 5 3
3 0 3 5
3 5 4 0
3 1 0 4
3 4 7 1
3 2 1 7
3 7 6 2
3 27 28 30
3 30 26 27
3 25 29 28
3 28 27 25
3 24 31 29
3 29 25 24
3 26 30 31
3 31 24 26
