ply
format ascii 1.0
comment Created by Blender 2.93.5 - www.blender.org
element vertex 12
property float x
property float y
property float z
property float nx
property float ny
property float nz
property float s
property float t
element face 6
property list uchar uint vertex_indices
end_header
-0.000027 1.144380 -32.922497 -0.182501 -0.005463 0.983184 0.499998 0.448043
-0.000027 8.549362 -32.959946 -0.178533 0.004975 0.983917 0.499998 1.373666
-12.761493 6.130136 -35.263584 -0.721274 0.040223 0.691458 -1.098650 1.071262
-13.230674 1.597500 -35.557274 -0.782342 0.040712 0.621479 -1.157425 0.504683
-13.230674 1.597500 -35.557274 -0.782342 0.040712 0.621479 -3.387944 0.504683
-12.761493 6.130136 -35.263584 -0.721274 0.040223 0.691458 -3.424655 1.071262
-13.230666 3.828721 -68.228348 -0.798486 0.129704 -0.587848 0.695940 0.783586
-12.761485 8.359183 -67.934654 -0.742454 0.119602 -0.659078 0.659229 1.349894
-13.230666 3.828721 -68.228348 -0.798486 0.129704 -0.587848 -1.157424 0.783586
-12.761485 8.359183 -67.934654 -0.742454 0.119602 -0.659078 -1.098649 1.349894
-0.000018 11.069338 -70.900551 -0.260781 0.123142 -0.957488 0.500000 1.688663
-0.000018 3.734352 -71.916992 -0.265297 0.132328 -0.955016 0.500000 0.771790
3 0 1 2
3 2 3 0
3 4 5 6
3 6 5 7
3 8 9 10
3 8 10 11
