ply
format ascii 1.0
comment Created by Blender 2.93.5 - www.blender.org
element vertex 12
property float x
property float y
property float z
property float nx
property float ny
property float nz
property float s
property float t
element face 6
property list uchar uint vertex_indices
end_header
12.761456 6.130140 -35.263634 0.721274 0.040223 0.691458 2.098649 1.071263
-0.000013 8.549367 -32.959995 0.178533 0.004975 0.983917 0.500000 1.373666
-0.000013 1.144385 -32.922543 0.182501 -0.005463 0.983184 0.500000 0.448043
13.230637 1.597505 -35.557323 0.782342 0.040712 0.621479 2.157424 0.504684
13.230616 3.828727 -68.228394 0.798486 0.129704 -0.587848 0.695946 0.783587
12.761456 6.130140 -35.263634 0.721274 0.040223 0.691458 -3.424649 1.071263
13.230637 1.597505 -35.557323 0.782342 0.040712 0.621479 -3.387938 0.504684
12.761456 8.359187 -67.934708 0.742454 0.119602 -0.659078 0.659235 1.349895
-0.000013 11.069344 -70.900597 0.260781 0.123142 -0.957488 0.500000 1.688664
12.761456 8.359187 -67.934708 0.742454 0.119602 -0.659078 2.098649 1.349895
13.230616 3.828727 -68.228394 0.798486 0.129704 -0.587848 2.157421 0.783587
-0.000013 3.734358 -71.917053 0.265297 0.132328 -0.955016 0.500000 0.771791
3 0 1 2
3 2 3 0
3 4 5 6
3 7 5 4
3 8 9 10
3 11 8 10
