ply
format ascii 1.0
comment Created by Blender 2.93.5 - www.blender.org
element vertex 174
property float x
property float y
property float z
property float nx
property float ny
property float nz
property float s
property float t
element face 308
property list uchar uint vertex_indices
end_header
3.378922 -25.031918 -42.819305 0.478133 0.303201 0.824244 0.704739 1.589268
2.591212 -25.419024 -42.219807 0.478378 0.303110 0.824152 0.672422 1.544764
2.591066 -25.444002 -42.236153 0.471145 -0.880612 0.050264 0.671228 1.546318
3.378777 -25.056896 -42.835625 0.471297 -0.880490 0.050752 0.703657 1.590459
2.571034 -25.431820 -42.254597 -0.478256 -0.303110 -0.824213 0.671293 1.548644
3.358726 -25.044714 -42.854095 -0.478317 -0.303079 -0.824213 0.703925 1.592552
2.571180 -25.406837 -42.238274 -0.471175 0.880581 -0.050508 0.672498 1.547094
3.358890 -25.019732 -42.837761 -0.471084 0.880642 -0.050172 0.705015 1.591360
4.807650 -22.863628 -39.102592 0.812952 -0.403546 0.419782 -0.211759 1.341127
5.210760 -22.904659 -40.147686 0.862514 -0.431989 0.263466 -0.215807 1.404248
5.252678 -22.248865 -39.573505 0.878353 -0.322550 0.352733 -0.197668 1.378476
5.601213 -22.244898 -40.699898 0.919706 -0.343608 0.189764 -0.200609 1.441000
5.416208 -22.963079 -41.255280 0.885952 -0.450728 0.108951 -0.218712 1.468515
5.718994 -22.297380 -41.870869 0.933073 -0.358745 0.024873 -0.202895 1.503566
5.416208 -23.041662 -42.382820 0.885647 -0.462081 -0.045412 -0.220937 1.533309
5.601213 -22.407951 -43.037788 0.919187 -0.367870 -0.140507 -0.204841 1.566285
5.210740 -23.136953 -43.487530 0.861538 -0.466109 -0.201086 -0.222632 1.598019
5.252678 -22.566542 -44.152946 0.877163 -0.370891 -0.304971 -0.206435 1.629309
4.807650 -23.239378 -44.528046 0.811212 -0.460860 -0.359874 -0.223674 1.662088
4.199380 -23.465704 -38.724251 0.696341 -0.562578 0.445601 -0.228291 1.300183
4.604282 -23.577478 -39.676361 0.740806 -0.596484 0.308817 -0.233988 1.362967
4.852867 -23.674479 -40.700935 0.766259 -0.618030 0.175604 -0.237957 1.429135
4.936662 -23.756742 -41.762703 0.774285 -0.631275 0.043947 -0.240798 1.497355
4.852867 -23.822374 -42.825371 0.765465 -0.637349 -0.088260 -0.242784 1.565909
4.604282 -23.867744 -43.853107 0.739158 -0.635395 -0.223273 -0.243959 1.633081
4.199380 -23.887381 -44.811504 0.693838 -0.621632 -0.363475 -0.244120 1.697557
4.071873 -23.498884 -45.524055 0.701498 -0.490646 -0.516861 -0.228892 1.734053
3.202242 -23.813803 -46.208454 0.561083 -0.548326 -0.620045 -0.238657 1.799280
3.806123 -23.101370 -46.110588 0.660176 -0.421918 -0.621357 -0.211458 1.764724
2.845277 -23.373266 -46.771049 0.504685 -0.463698 -0.728141 -0.213281 1.830464
2.211162 -24.045778 -46.730206 0.395001 -0.589129 -0.704886 0.749785 1.865439
1.767249 -23.564917 -47.232319 0.319498 -0.490036 -0.811029 -0.208083 1.896211
1.136186 -24.171638 -47.070793 0.206732 -0.607471 -0.766930 0.732104 1.931664
0.616389 -23.652065 -47.476704 0.113376 -0.494491 -0.861751 -0.160665 1.959041
0.018115 -24.176769 -47.218208 0.004608 -0.598529 -0.801050 0.527186 1.992008
-0.559840 -23.621990 -47.494854 -0.099124 -0.475326 -0.874172 0.146732 1.961244
-1.100636 -24.056561 -47.167156 -0.200354 -0.560381 -0.803613 0.252002 1.935852
3.413792 -24.239386 -45.466911 0.568407 -0.691641 -0.445540 0.740857 1.760714
2.512279 -24.506268 -46.001495 0.423078 -0.745598 -0.514817 0.721020 1.825704
1.525486 -24.668606 -46.398323 0.260323 -0.778283 -0.571368 0.688222 1.890038
0.486883 -24.713249 -46.644768 0.084170 -0.784906 -0.613819 0.600736 1.945851
-0.568248 -24.633715 -46.732903 -0.099429 -0.761864 -0.640034 0.378817 1.947755
-1.604069 -24.430809 -46.659771 -0.282632 -0.707846 -0.647328 0.287888 1.896003
-2.291147 -23.914351 -46.790081 -0.413038 -0.541093 -0.732505 0.241069 1.862971
-3.231714 -23.806936 -46.187580 -0.567797 -0.547075 -0.615009 0.238388 1.797621
-2.900426 -23.328768 -46.753853 -0.518357 -0.444075 -0.730796 0.211520 1.827405
-3.842786 -23.123894 -46.062691 -0.666250 -0.438093 -0.603412 0.212598 1.762121
-4.049699 -23.626303 -45.422810 -0.692557 -0.533006 -0.486068 0.233670 1.731502
-4.626850 -22.874910 -45.199627 -0.782678 -0.418287 -0.460860 0.210609 1.697021
-4.714066 -23.396420 -44.523285 -0.789056 -0.504929 -0.349834 0.228290 1.665417
-5.220323 -22.615423 -44.198479 -0.867763 -0.388440 -0.309976 0.207483 1.632706
-5.199610 -23.142729 -43.521721 -0.859371 -0.467025 -0.208106 0.222695 1.600268
-5.598742 -22.377459 -43.098907 -0.922910 -0.352519 -0.154698 0.203948 1.569506
-5.487928 -22.889616 -42.454926 -0.904996 -0.421064 -0.060152 0.217008 1.536825
-2.494494 -24.431923 -46.121407 -0.424726 -0.725181 -0.541917 0.274679 1.831846
-3.300238 -24.344662 -45.440449 -0.545427 -0.717856 -0.432630 0.264540 1.765002
-3.993932 -24.182821 -44.639008 -0.645100 -0.693564 -0.320566 0.255585 1.696595
-4.551999 -23.962563 -43.743145 -0.725089 -0.657247 -0.205512 0.247193 1.628307
-4.955539 -23.701612 -42.782280 -0.786431 -0.611560 -0.086367 0.239049 1.561969
-5.190811 -23.418486 -41.788155 -0.829310 -0.557421 0.038789 0.230932 1.499045
-5.487928 -22.802559 -41.206219 -0.905332 -0.407971 0.117893 0.214596 1.466288
-5.199610 -22.905670 -40.112984 -0.860378 -0.431867 0.270577 0.215702 1.402005
-5.598742 -22.206253 -40.643879 -0.923460 -0.326304 0.201697 0.199511 1.438080
-5.220302 -22.291052 -39.521259 -0.869045 -0.339122 0.360118 0.198427 1.374816
-4.714066 -23.019587 -39.083820 -0.790948 -0.448714 0.415937 0.215948 1.336433
-4.626850 -22.413452 -38.492878 -0.784936 -0.346660 0.513504 0.196059 1.310869
-4.049678 -23.125553 -38.158955 -0.695334 -0.456710 0.554857 0.214508 1.270499
-3.842786 -22.547222 -37.602680 -0.669362 -0.345439 0.657704 0.190860 1.246853
-3.231714 -23.202967 -37.374870 -0.571184 -0.451918 0.685171 0.209476 1.205407
-2.900426 -22.662884 -36.889080 -0.521653 -0.332682 0.785577 0.179219 1.184050
-2.291147 -23.231665 -36.762787 -0.416211 -0.428724 0.801813 0.195738 1.142762
-4.955539 -23.560955 -40.761810 -0.787164 -0.592792 0.170171 0.234559 1.434266
-4.551999 -23.686386 -39.770832 -0.726676 -0.620716 0.294320 0.237551 1.366531
-3.993932 -23.781086 -38.849701 -0.647572 -0.640156 0.413282 0.239574 1.297422
-3.300238 -23.831823 -38.030720 -0.548570 -0.648335 0.527909 0.239825 1.228835
-2.494515 -23.826513 -37.342815 -0.428022 -0.640278 0.637806 0.236209 1.162533
-1.604069 -23.754725 -36.810394 -0.285440 -0.608020 0.740806 0.221635 1.100135
-1.100636 -23.324198 -36.368111 -0.202246 -0.437727 0.876034 0.157614 1.075291
0.018115 -23.435368 -36.298759 0.004639 -0.476547 0.879116 -0.006053 1.035005
-0.559840 -22.862665 -36.112801 -0.099979 -0.343028 0.933958 0.069947 1.071700
0.616389 -22.893871 -36.125996 0.114536 -0.364147 0.924253 -0.078908 1.071975
1.136186 -23.448544 -36.445160 0.208747 -0.490463 0.846065 -0.173593 1.075007
1.767249 -22.836960 -36.380562 0.322245 -0.367016 0.872585 -0.154914 1.119814
2.211162 -23.368015 -36.801422 0.398236 -0.480972 0.781060 -0.202961 1.138049
2.845277 -22.704325 -36.865253 0.508042 -0.352672 0.785791 -0.180127 1.180678
3.202242 -23.207016 -37.353168 0.564470 -0.452467 0.690359 -0.209429 1.203748
3.806123 -22.519053 -37.558807 0.663137 -0.326579 0.673452 -0.189467 1.244641
4.071873 -22.986399 -38.078144 0.704184 -0.410077 0.579577 -0.209648 1.269459
-0.568248 -23.944290 -36.705620 -0.100558 -0.663320 0.741508 0.222450 1.035552
0.486883 -24.033854 -36.779999 0.085025 -0.690054 0.718741 -0.247114 1.031072
1.525486 -24.022507 -37.031025 0.262795 -0.689230 0.675161 -0.247892 1.098782
2.512279 -23.915640 -37.449715 0.426374 -0.664418 0.613758 -0.241969 1.167030
3.413792 -23.724445 -38.021004 0.571612 -0.620411 0.536943 -0.235223 1.234607
4.634784 -22.838884 -45.208210 0.787927 -0.396313 -0.471236 -0.209595 1.696573
-1.770382 -23.532366 -47.244343 -0.320444 -0.466964 -0.824152 0.205206 1.896312
-5.728990 -22.258739 -41.873699 -0.941404 -0.336436 0.023347 0.201914 1.503709
-1.770382 -22.803904 -36.373749 -0.323008 -0.342357 0.882290 0.152612 1.120344
4.634784 -22.376760 -38.489799 0.790002 -0.323344 0.520829 -0.195134 1.311608
-0.329083 -25.879299 -42.604378 -0.042390 -0.998810 -0.023591 0.472201 1.629070
0.861408 -25.839708 -42.219879 0.112369 -0.993591 0.010743 0.571504 1.565448
-0.000041 -25.862402 -41.589619 0.000000 -0.997559 0.069796 0.500434 1.462700
-0.646953 -25.787771 -43.593731 -0.087497 -0.988617 -0.122349 0.443895 1.743945
0.535500 -25.832781 -43.246002 0.072237 -0.993561 -0.086947 0.546672 1.709125
1.693613 -25.683907 -42.840412 0.229652 -0.971923 -0.051180 0.627739 1.631642
-0.942875 -25.589922 -44.523994 -0.135105 -0.963622 -0.230567 0.413266 1.813176
0.220637 -25.709236 -44.253521 0.031404 -0.980224 -0.195318 0.521419 1.808507
1.374526 -25.643612 -43.883526 0.192572 -0.968322 -0.158849 0.613203 1.747454
2.468321 -25.397814 -43.429657 0.350932 -0.928800 -0.118961 0.670232 1.666463
-1.206771 -25.291145 -45.363495 -0.185186 -0.917173 -0.352794 0.378026 1.855797
-0.073450 -25.466215 -45.200459 -0.010193 -0.947264 -0.320231 0.492352 1.873551
1.062879 -25.471010 -44.904694 0.157384 -0.945921 -0.283578 0.602181 1.833871
2.155436 -25.308983 -44.488117 0.318613 -0.916318 -0.242470 0.665628 1.761047
3.159211 -24.990057 -43.966938 0.473251 -0.859340 -0.193609 0.703705 1.684560
-1.429697 -24.900478 -46.083626 -0.235878 -0.837916 -0.492141 0.336247 1.882033
-0.338521 -25.105108 -46.042095 -0.053499 -0.881985 -0.468184 0.451584 1.918223
0.765494 -25.160168 -45.846527 0.122471 -0.892636 -0.433790 0.596078 1.896896
1.840452 -25.067120 -45.504204 0.290139 -0.873501 -0.390820 0.669353 1.834999
2.845607 -24.834425 -45.027424 0.446547 -0.828059 -0.338908 0.706887 1.763642
3.742834 -24.477736 -44.433113 0.590258 -0.758812 -0.275246 0.731611 1.693731
-1.064859 -25.788256 -41.596382 -0.139958 -0.987732 0.069094 0.413149 1.467774
-2.093508 -25.566673 -41.616192 -0.284494 -0.956328 0.066866 0.350324 1.476939
-1.402123 -25.754646 -42.621635 -0.189215 -0.981506 -0.028352 0.391058 1.612834
-3.051097 -25.201824 -41.647675 -0.432081 -0.899625 0.062838 0.307866 1.484761
-2.444807 -25.469393 -42.654488 -0.341380 -0.939146 -0.037477 0.334211 1.593060
-1.731679 -25.601727 -43.627144 -0.243324 -0.960723 -0.133305 0.366882 1.711603
-3.905087 -24.705084 -41.688667 -0.577258 -0.814570 0.056795 0.276772 1.490736
-3.414287 -25.021498 -42.698090 -0.497665 -0.865841 -0.050935 0.294493 1.578614
-2.782833 -25.233370 -43.672600 -0.406262 -0.901028 -0.151921 0.314445 1.676279
-2.036752 -25.326454 -44.573128 -0.303201 -0.919187 -0.251198 0.339681 1.772485
-4.626479 -24.098965 -41.736481 -0.711997 -0.700461 0.048769 0.251935 1.495362
-4.265926 -24.421698 -42.744354 -0.649495 -0.757286 -0.067904 0.264116 1.568889
-3.743554 -24.679726 -43.717400 -0.571215 -0.801477 -0.176977 0.276858 1.648747
-3.079187 -24.854824 -44.619720 -0.477065 -0.832179 -0.282510 0.291102 1.730712
-2.298031 -24.932272 -45.418232 -0.366253 -0.846248 -0.386883 0.308894 1.809809
-0.329083 -25.738016 -40.583916 -0.042543 -0.985748 0.162694 0.469937 1.304150
-0.646953 -25.510080 -39.621391 -0.088046 -0.961699 0.259499 0.434362 1.201518
-1.402123 -25.612545 -40.589252 -0.189825 -0.967834 0.164922 0.384251 1.333186
-0.942875 -25.185665 -38.734673 -0.136204 -0.921537 0.363598 0.390631 1.142893
-1.731679 -25.321793 -39.621052 -0.244697 -0.932310 0.266243 0.351469 1.247503
-2.444807 -25.326288 -40.606682 -0.342296 -0.924467 0.167882 0.327077 1.369596
-1.206771 -24.775188 -37.953766 -0.186834 -0.858119 0.478225 0.337111 1.111553
-2.036752 -24.918972 -38.731037 -0.305307 -0.874294 0.377331 0.314801 1.198648
-2.782833 -24.951832 -39.638813 -0.408063 -0.870235 0.275918 0.300336 1.297063
-3.414287 -24.877768 -40.638775 -0.498672 -0.849788 0.170721 0.288227 1.397989
-1.429697 -24.292517 -37.305046 -0.238044 -0.759819 0.604938 0.277618 1.099019
-2.298031 -24.414082 -37.958916 -0.368938 -0.782617 0.501328 0.275550 1.172990
-3.079187 -24.447208 -38.762653 -0.479598 -0.783258 0.395489 0.270818 1.253084
-3.743554 -24.398823 -39.684711 -0.573046 -0.767815 0.286416 0.265112 1.336473
-4.265926 -24.278479 -40.689034 -0.650410 -0.739769 0.172216 0.258795 1.418665
0.861408 -25.752390 -40.971172 0.112613 -0.985351 0.127812 0.574653 1.369545
1.693613 -25.512278 -40.385384 0.230506 -0.955046 0.186224 0.636490 1.320702
0.535500 -25.602859 -39.957561 0.072634 -0.971648 0.224952 0.553080 1.232252
2.468321 -25.147913 -39.851677 0.352519 -0.902524 0.247291 0.683122 1.301238
1.374526 -25.327518 -39.359833 0.193823 -0.936308 0.292795 0.630660 1.209133
0.220637 -25.340897 -38.981819 0.031648 -0.943083 0.330973 0.527390 1.139043
3.159211 -24.670816 -39.387470 0.475356 -0.822871 0.311258 0.718816 1.295363
2.155436 -24.913494 -38.818207 0.320780 -0.872646 0.368175 0.689025 1.210891
1.062879 -25.015701 -38.377922 0.158727 -0.896451 0.413678 0.632400 1.127023
-0.073450 -24.970144 -38.085651 -0.010315 -0.892727 0.450453 0.488274 1.078007
3.742834 -24.100597 -39.007660 0.592639 -0.711417 0.377636 0.747545 1.295986
2.845607 -24.371078 -38.361992 0.449355 -0.771203 0.450850 0.731751 1.221210
1.840452 -24.535198 -37.851631 0.292550 -0.809290 0.509354 0.708499 1.143297
0.765494 -24.580139 -37.497101 0.123661 -0.822474 0.555162 0.653075 1.068358
-0.338521 -24.499414 -37.312531 -0.054079 -0.807123 0.587848 0.399600 1.039866
1.733018 -25.662447 -41.607697 0.234199 -0.969787 0.067843 0.630607 1.473781
2.581113 -25.425421 -42.237213 0.360881 -0.932585 0.005127 0.671859 1.546704
2.581113 -25.340841 -41.026924 0.361461 -0.923978 0.124699 0.675962 1.416506
3.368824 -25.038313 -42.836700 0.492447 -0.867977 -0.063540 0.704333 1.590909
3.439676 -24.999411 -41.664619 0.498550 -0.864742 0.060366 0.706887 1.487612
3.368824 -24.875143 -40.498821 0.493576 -0.850093 0.183569 0.711503 1.385648
4.056664 -24.509977 -43.382820 0.622028 -0.770440 -0.139409 0.731773 1.617317
4.216609 -24.485699 -42.273029 0.637104 -0.770684 -0.010132 0.733363 1.535043
4.216609 -24.407097 -41.145500 0.637623 -0.761406 0.116916 0.736299 1.450938
4.056664 -24.277349 -40.042988 0.623493 -0.742454 0.244850 0.740818 1.369982
3 0 1 2
3 2 3 0
3 3 2 4
3 4 5 3
3 5 4 6
3 6 7 5
3 8 9 10
3 9 11 10
3 9 12 11
3 12 13 11
3 12 14 13
3 14 15 13
3 14 16 15
3 16 17 15
3 16 18 17
3 19 20 8
3 20 9 8
3 20 21 9
3 21 12 9
3 21 22 12
3 22 14 12
3 22 23 14
3 23 16 14
3 23 24 16
3 24 18 16
3 24 25 18
3 26 27 28
3 27 29 28
3 27 30 29
3 30 31 29
3 30 32 31
3 32 33 31
3 32 34 33
3 34 35 33
3 34 36 35
3 25 37 26
3 37 27 26
3 37 38 27
3 38 30 27
3 38 39 30
3 39 32 30
3 39 40 32
3 40 34 32
3 40 41 34
3 41 36 34
3 41 42 36
3 43 44 45
3 44 46 45
3 44 47 46
3 47 48 46
3 47 49 48
3 49 50 48
3 49 51 50
3 51 52 50
3 51 53 52
3 42 54 43
3 54 44 43
3 54 55 44
3 55 47 44
3 55 56 47
3 56 49 47
3 56 57 49
3 57 51 49
3 57 58 51
3 58 53 51
3 58 59 53
3 60 61 62
3 61 63 62
3 61 64 63
3 64 65 63
3 64 66 65
3 66 67 65
3 66 68 67
3 68 69 67
3 68 70 69
3 59 71 60
3 71 61 60
3 71 72 61
3 72 64 61
3 72 73 64
3 73 66 64
3 73 74 66
3 74 68 66
3 74 75 68
3 75 70 68
3 75 76 70
3 77 78 79
3 78 80 79
3 78 81 80
3 81 82 80
3 81 83 82
3 83 84 82
3 83 85 84
3 85 86 84
3 85 87 86
3 76 88 77
3 88 78 77
3 88 89 78
3 89 81 78
3 89 90 81
3 90 83 81
3 90 91 83
3 91 85 83
3 91 92 85
3 92 87 85
3 92 19 87
3 26 18 25
3 28 93 26
3 93 18 26
3 93 17 18
3 43 36 42
3 45 94 43
3 94 36 43
3 94 35 36
3 60 53 59
3 62 95 60
3 95 53 60
3 95 52 53
3 77 70 76
3 79 96 77
3 96 70 77
3 96 69 70
3 8 87 19
3 10 97 8
3 97 87 8
3 97 86 87
3 98 99 100
3 101 102 98
3 102 99 98
3 102 103 99
3 104 105 101
3 105 102 101
3 105 106 102
3 106 103 102
3 106 107 103
3 108 109 104
3 109 105 104
3 109 110 105
3 110 106 105
3 110 111 106
3 111 107 106
3 111 112 107
3 113 114 108
3 114 109 108
3 114 115 109
3 115 110 109
3 115 116 110
3 116 111 110
3 116 117 111
3 117 112 111
3 117 118 112
3 42 41 113
3 41 114 113
3 41 40 114
3 40 115 114
3 40 39 115
3 39 116 115
3 39 38 116
3 38 117 116
3 38 37 117
3 37 118 117
3 37 25 118
3 119 98 100
3 120 121 119
3 121 98 119
3 121 101 98
3 122 123 120
3 123 121 120
3 123 124 121
3 124 101 121
3 124 104 101
3 125 126 122
3 126 123 122
3 126 127 123
3 127 124 123
3 127 128 124
3 128 104 124
3 128 108 104
3 129 130 125
3 130 126 125
3 130 131 126
3 131 127 126
3 131 132 127
3 132 128 127
3 132 133 128
3 133 108 128
3 133 113 108
3 59 58 129
3 58 130 129
3 58 57 130
3 57 131 130
3 57 56 131
3 56 132 131
3 56 55 132
3 55 133 132
3 55 54 133
3 54 113 133
3 54 42 113
3 134 119 100
3 135 136 134
3 136 119 134
3 136 120 119
3 137 138 135
3 138 136 135
3 138 139 136
3 139 120 136
3 139 122 120
3 140 141 137
3 141 138 137
3 141 142 138
3 142 139 138
3 142 143 139
3 143 122 139
3 143 125 122
3 144 145 140
3 145 141 140
3 145 146 141
3 146 142 141
3 146 147 142
3 147 143 142
3 147 148 143
3 148 125 143
3 148 129 125
3 76 75 144
3 75 145 144
3 75 74 145
3 74 146 145
3 74 73 146
3 73 147 146
3 73 72 147
3 72 148 147
3 72 71 148
3 71 129 148
3 71 59 129
3 149 134 100
3 150 151 149
3 151 134 149
3 151 135 134
3 152 153 150
3 153 151 150
3 153 154 151
3 154 135 151
3 154 137 135
3 155 156 152
3 156 153 152
3 156 157 153
3 157 154 153
3 157 158 154
3 158 137 154
3 158 140 137
3 159 160 155
3 160 156 155
3 160 161 156
3 161 157 156
3 161 162 157
3 162 158 157
3 162 163 158
3 163 140 158
3 163 144 140
3 19 92 159
3 92 160 159
3 92 91 160
3 91 161 160
3 91 90 161
3 90 162 161
3 90 89 162
3 89 163 162
3 89 88 163
3 88 144 163
3 88 76 144
3 99 149 100
3 103 164 99
3 164 149 99
3 164 150 149
3 107 165 103
3 165 164 103
3 165 166 164
3 166 150 164
3 166 152 150
3 112 167 107
3 167 165 107
3 167 168 165
3 168 166 165
3 168 169 166
3 169 152 166
3 169 155 152
3 118 170 112
3 170 167 112
3 170 171 167
3 171 168 167
3 171 172 168
3 172 169 168
3 172 173 169
3 173 155 169
3 173 159 155
3 25 24 118
3 24 170 118
3 24 23 170
3 23 171 170
3 23 22 171
3 22 172 171
3 22 21 172
3 21 173 172
3 21 20 173
3 20 159 173
3 20 19 159
3 1 0 7
3 7 6 1
