ply
format ascii 1.0
comment Created by Blender 2.93.5 - www.blender.org
element vertex 111
property float x
property float y
property float z
property float nx
property float ny
property float nz
property float s
property float t
element face 115
property list uchar uint vertex_indices
end_header
0.595311 -21.656378 -15.590386 0.000000 0.000000 1.000000 0.472329 1.067894
0.005424 -21.445190 -15.590386 0.000000 0.000000 1.000000 0.383437 1.099718
0.005424 -21.656225 -15.590386 0.000000 0.000000 0.999969 0.383437 1.067917
8.789886 -17.981203 4.457923 0.000000 -0.000061 -1.000000 1.707205 1.621721
8.789886 -18.192236 4.457947 -0.672933 0.001282 -0.739677 1.707205 1.589920
1.712192 -19.700155 4.457886 0.000000 0.000000 -1.000000 0.640637 1.362685
1.585941 -17.093073 4.457886 0.000000 0.000000 -1.000000 0.621612 1.755557
0.005450 -15.566405 4.457885 0.000000 0.000000 -0.999969 0.383441 1.985618
1.585941 -16.723761 4.457886 0.000000 0.000000 -0.999969 0.621612 1.811211
1.638700 -16.671003 4.457886 0.000000 0.000000 -1.000000 0.629562 1.819161
3.221458 -16.671003 4.457886 0.000000 0.000000 -0.999969 0.868075 1.819161
8.796088 -15.566408 4.457819 -0.707785 0.001617 -0.706381 1.708140 1.985617
3.274217 -16.723763 4.457886 0.000000 0.000000 -1.000000 0.876025 1.811210
6.861804 -17.093069 4.457886 0.000061 0.000122 -1.000000 1.416654 1.755558
6.809045 -17.145828 4.457862 0.000031 0.000031 -1.000000 1.408704 1.747607
6.861804 -16.723761 4.457886 0.000000 0.000000 -1.000000 1.416654 1.811211
6.809045 -16.671001 4.457886 0.000000 -0.000031 -1.000000 1.408704 1.819161
5.226286 -16.671003 4.457886 0.000000 -0.000031 -1.000000 1.170191 1.819161
3.274217 -17.093073 4.457886 0.000000 0.000000 -1.000000 0.876025 1.755557
3.221458 -17.145832 4.457886 0.000000 0.000000 -0.999969 0.868075 1.747607
5.226286 -17.145828 4.457862 0.000000 0.000000 -1.000000 1.170191 1.747607
0.005427 -15.566427 -15.590387 0.000000 0.000000 1.000000 0.383437 1.985615
1.447548 -21.277237 -15.590392 0.000000 0.000000 1.000000 0.600757 1.125028
1.554281 -17.124731 -15.590308 -0.000061 0.000000 1.000000 0.616841 1.750787
1.554281 -16.692108 -15.590308 -0.000031 0.000000 1.000000 0.616841 1.815981
1.607040 -16.639349 -15.590308 0.000000 0.000031 1.000000 0.624791 1.823932
3.253109 -16.639349 -15.590308 0.000000 0.000122 1.000000 0.872845 1.823932
5.194628 -16.639349 -15.590308 0.000000 0.000061 1.000000 1.165420 1.823932
8.789882 -15.566394 -15.590393 -0.707083 0.000153 0.707114 1.707205 1.985620
6.840698 -16.639349 -15.590308 0.000000 0.000061 0.999969 1.413474 1.823932
6.893456 -16.692108 -15.590308 0.000031 0.000000 0.999969 1.421424 1.815981
6.893456 -17.124727 -15.590308 0.000092 0.000031 1.000000 1.421424 1.750787
8.789882 -19.495361 -15.590393 0.000000 0.000000 0.999969 1.707205 1.393546
5.194628 -17.177490 -15.590308 0.000000 0.000000 1.000000 1.165420 1.742837
6.840698 -17.177486 -15.590290 0.000061 0.000031 1.000000 1.413474 1.742837
5.141870 -16.692108 -15.590308 0.000000 0.000000 1.000000 1.157470 1.815981
3.305868 -16.692108 -15.590290 0.000000 0.000183 0.999969 0.880795 1.815981
5.141870 -17.124727 -15.590308 0.000000 0.000000 1.000000 1.157470 1.750787
3.305868 -17.124731 -15.590290 0.000000 0.000000 1.000000 0.880795 1.750787
8.673793 -19.522179 -15.590393 0.000000 0.000000 1.000000 1.689711 1.389505
8.789882 -19.706396 -15.590393 -0.635182 0.000000 0.772332 1.707205 1.361745
8.673793 -19.733215 -15.590393 -0.000122 0.000000 1.000000 1.689711 1.357703
6.854753 -20.174999 -15.590393 0.000000 0.000000 1.000000 1.415592 1.291129
-8.789889 -17.981203 4.457923 0.000000 -0.000031 -0.999969 -0.941967 1.621721
-1.712195 -19.700159 4.457880 0.000000 0.000000 -1.000000 0.124601 1.362684
-8.789889 -18.192240 4.457941 0.672933 0.001312 -0.739677 -0.941967 1.589919
-1.585945 -17.093073 4.457880 0.000000 0.000000 -1.000000 0.143626 1.755557
-1.585945 -16.723763 4.457880 0.000000 0.000000 -1.000000 0.143626 1.811210
-0.005453 -15.566408 4.457880 0.000000 0.000000 -1.000000 0.381798 1.985617
-1.638704 -16.671003 4.457880 0.000000 0.000000 -0.999969 0.135676 1.819161
-3.221463 -16.671003 4.457880 0.000000 0.000000 -1.000000 -0.102837 1.819161
-3.274221 -16.723763 4.457880 0.000000 0.000000 -0.999969 -0.110787 1.811210
-8.796092 -15.566410 4.457819 0.707785 0.001617 -0.706381 -0.942902 1.985617
-6.861807 -17.093073 4.457880 -0.000092 0.000153 -0.999969 -0.651416 1.755557
-6.809049 -17.145832 4.457855 -0.000031 0.000031 -1.000000 -0.643466 1.747607
-6.861808 -16.723761 4.457880 0.000000 0.000000 -1.000000 -0.651416 1.811211
-6.809049 -16.671003 4.457880 0.000000 -0.000031 -1.000000 -0.643466 1.819161
-5.226291 -16.671003 4.457880 0.000000 -0.000031 -1.000000 -0.404953 1.819161
-3.274221 -17.093073 4.457880 0.000000 0.000000 -0.999969 -0.110787 1.755557
-3.221463 -17.145832 4.457880 0.000000 0.000000 -1.000000 -0.102837 1.747607
-5.226291 -17.145832 4.457855 0.000275 -0.001312 -0.999969 -0.404953 1.747607
-0.005431 -15.566427 -15.590393 0.000031 0.000000 1.000000 0.381801 1.985615
-1.554292 -17.124731 -15.590296 0.000061 0.000000 1.000000 0.148396 1.750787
-1.447559 -21.277237 -15.590392 0.000000 0.000000 1.000000 0.164481 1.125028
-1.554292 -16.692110 -15.590290 0.000000 0.000122 1.000000 0.148396 1.815981
-1.607050 -16.639351 -15.590314 -0.000031 0.000122 1.000000 0.140446 1.823931
-3.253119 -16.639351 -15.590296 0.000000 0.000061 0.999969 -0.107607 1.823931
-5.194636 -16.639351 -15.590314 0.000000 0.000031 1.000000 -0.400183 1.823931
-8.789888 -15.566396 -15.590393 0.707083 0.000153 0.707114 -0.941967 1.985620
-6.840704 -16.639349 -15.590296 0.000000 0.000061 1.000000 -0.648236 1.823932
-5.194636 -16.639349 -15.590314 0.000000 0.000244 0.999969 -0.400183 1.823932
-6.893463 -16.692108 -15.590296 -0.000031 0.000000 1.000000 -0.656186 1.815981
-6.893463 -17.124727 -15.590290 -0.000031 0.000000 1.000000 -0.656186 1.750787
-8.789889 -19.495363 -15.590400 0.000000 0.000000 1.000000 -0.941967 1.393546
-5.194636 -17.177490 -15.590290 0.000000 0.000000 1.000000 -0.400183 1.742837
-6.840704 -17.177486 -15.590290 0.000000 -0.000031 1.000000 -0.648236 1.742837
-5.141877 -16.692108 -15.590296 0.000000 0.000183 1.000000 -0.392232 1.815981
-5.141877 -17.124731 -15.590290 0.000000 0.000000 1.000000 -0.392232 1.750787
-3.305878 -16.692110 -15.590296 0.000000 0.000000 1.000000 -0.115558 1.815981
-3.305878 -17.124731 -15.590296 0.000000 0.000000 1.000000 -0.115558 1.750787
-8.789889 -19.706398 -15.590400 0.635182 0.000000 0.772332 -0.941967 1.361744
-8.673800 -19.522182 -15.590400 0.000000 0.000000 1.000000 -0.924473 1.389505
-8.673800 -19.733215 -15.590400 0.000000 -0.000031 1.000000 -0.924473 1.357703
-6.854760 -20.175003 -15.590393 0.000000 0.000061 0.999969 -0.650354 1.291128
8.789882 -19.706396 -15.590393 -0.635182 0.000000 0.772332 2.010587 1.361745
8.789882 -19.635536 -14.824091 -1.000000 0.000000 0.000000 1.895110 1.372423
8.789882 -15.566394 -15.590393 -0.707083 0.000153 0.707114 2.010587 1.985620
8.789886 -18.192236 4.457947 -0.672933 0.001282 -0.739677 -1.010584 1.589920
8.796088 -15.566408 4.457819 -0.707785 0.001617 -0.706381 -1.010564 1.985617
0.005470 -20.131033 4.457886 0.000000 0.000000 1.000000 0.383444 1.297754
0.281937 -19.919996 4.457886 0.000000 0.000000 1.000000 0.425106 1.329556
0.596676 -20.131231 4.457886 0.000000 0.000000 -1.000000 0.472535 1.297724
1.712191 -19.911190 4.457886 0.000000 0.000000 -1.000000 0.640637 1.330883
1.638699 -17.145832 4.457886 0.000000 0.000000 -0.999969 0.629562 1.747607
5.173528 -16.723761 4.457886 0.000000 0.000000 -1.000000 1.162241 1.811211
5.173528 -17.093069 4.457886 0.000000 0.000244 -1.000000 1.162241 1.755558
-8.789889 -18.192240 4.457941 0.672933 0.001312 -0.739677 -1.010583 1.589919
-8.789888 -15.566396 -15.590393 0.707083 0.000153 0.707114 2.010587 1.985620
-8.796092 -15.566410 4.457819 0.707785 0.001617 -0.706381 -1.010564 1.985617
-8.789889 -19.635536 -14.824097 1.000000 0.000000 0.000000 1.895111 1.372423
-8.789889 -19.706398 -15.590400 0.635182 0.000000 0.772332 2.010588 1.361744
-0.281942 -19.920002 4.457880 0.000000 0.000000 1.000000 0.340132 1.329556
-0.005495 -20.131035 4.457880 0.000000 0.000000 1.000000 0.381791 1.297754
-0.596680 -20.131235 4.457880 0.000000 0.000000 -1.000000 0.292703 1.297724
-1.712195 -19.911192 4.457880 0.000000 0.000000 -1.000000 0.124601 1.330883
-1.638704 -17.145832 4.457880 0.000000 0.000000 -0.999969 0.135676 1.747607
-5.173532 -17.093073 4.457880 -0.000061 0.000366 -0.999969 -0.397003 1.755557
-5.173532 -16.723763 4.457880 0.000000 0.000000 -1.000000 -0.397003 1.811210
0.595311 -21.445343 -15.590386 0.000000 0.000031 1.000000 0.472329 1.099696
-0.005435 -21.445190 -15.590392 0.000000 0.000000 1.000000 0.381800 1.099718
-0.595321 -21.445345 -15.590392 0.000000 0.000000 1.000000 0.292908 1.099695
3 0 1 2
3 3 4 5
3 6 7 8
3 8 7 9
3 9 7 10
3 10 11 12
3 10 7 11
3 13 3 14
3 15 3 13
3 11 3 15
3 16 11 15
3 17 11 16
3 18 3 19
3 14 3 20
3 21 22 23
3 24 21 23
3 25 21 24
3 26 21 25
3 27 28 26
3 28 21 26
3 29 28 27
3 30 28 29
3 31 32 30
3 30 32 28
3 33 22 34
3 35 36 37
3 38 37 36
3 27 26 35
3 26 36 35
3 37 38 33
3 32 39 40
3 41 22 42
3 43 44 45
3 46 47 48
3 47 49 48
3 49 50 48
3 50 51 52
3 50 52 48
3 53 54 43
3 55 53 43
3 52 55 43
3 56 55 52
3 57 56 52
3 58 59 43
3 54 60 43
3 61 62 63
3 64 62 61
3 65 64 61
3 66 65 61
3 67 66 68
3 68 66 61
3 69 70 68
3 71 69 68
3 72 71 73
3 71 68 73
3 74 75 63
3 76 77 78
3 79 78 77
3 70 76 66
3 66 76 78
3 77 74 79
3 73 80 81
3 82 83 63
3 84 85 86
3 85 87 86
3 87 88 86
3 89 90 7
3 7 90 91
3 90 89 91
3 92 5 4
3 7 5 91
3 5 92 91
3 7 6 5
3 6 93 5
3 93 19 5
3 3 5 19
3 11 17 12
3 17 94 12
3 95 12 94
3 12 95 18
3 20 18 95
3 3 18 20
3 39 34 22
3 31 34 32
3 34 39 32
3 96 97 98
3 99 97 96
3 97 99 100
3 48 101 102
3 103 101 48
3 103 102 101
3 45 44 104
3 48 104 44
3 104 48 103
3 44 46 48
3 44 105 46
3 44 59 105
3 43 59 44
3 106 51 60
3 107 51 106
3 57 51 107
3 43 51 58
3 43 60 51
3 51 57 52
3 73 81 72
3 81 75 72
3 63 75 81
3 1 108 22
3 22 21 1
3 40 39 22
3 22 41 40
3 109 61 63
3 63 110 109
3 80 82 63
3 63 81 80
