ply
format ascii 1.0
comment Created by Blender 2.93.5 - www.blender.org
element vertex 12
property float x
property float y
property float z
property float nx
property float ny
property float nz
property float s
property float t
element face 6
property list uchar uint vertex_indices
end_header
-0.000029 -7.346445 -22.905281 -0.141850 -0.028535 0.989471 0.499998 -0.613310
-0.000029 3.638246 -22.704966 -0.136937 -0.018036 0.990387 0.499998 0.759776
-16.514860 0.615198 -25.043552 -0.717063 -0.000458 0.696982 -1.568840 0.381895
-16.890209 -7.122572 -25.540035 -0.766015 -0.004059 0.642781 -1.615860 -0.585326
-16.890209 -7.122572 -25.540035 -0.766015 -0.004059 0.642781 -4.640099 -0.585326
-16.514860 0.615198 -25.043552 -0.717063 -0.000458 0.696982 -4.702159 0.381895
-16.890196 -4.004158 -70.857994 -0.777429 0.078341 -0.624043 1.024646 -0.195524
-16.514870 3.731205 -70.361511 -0.732383 0.078921 -0.676290 0.962585 0.771397
-16.890196 -4.004158 -70.857994 -0.777429 0.078341 -0.624043 -1.615859 -0.195524
-16.514870 3.731205 -70.361511 -0.732383 0.078921 -0.676290 -1.568841 0.771397
-0.000017 6.998210 -73.292435 -0.189184 0.073794 -0.979156 0.500000 1.179772
-0.000017 -3.944481 -74.125084 -0.189611 0.074496 -0.979003 0.500000 -0.188064
3 0 1 2
3 2 3 0
3 4 5 6
3 6 5 7
3 8 9 10
3 8 10 11
