ply
format ascii 1.0
comment Created by Blender 2.93.5 - www.blender.org
element vertex 8
property float x
property float y
property float z
property float nx
property float ny
property float nz
property float s
property float t
element face 4
property list uchar uint vertex_indices
end_header
-0.000029 0.585461 -24.507101 -0.223853 0.010193 0.974548 0.499998 0.378178
-0.000029 6.411153 -24.649450 -0.219001 0.023804 0.975402 0.499998 1.106389
-10.321801 4.408458 -26.918137 -0.742332 0.030915 0.669301 -0.793026 0.856052
-10.603317 0.970656 -27.141905 -0.794458 0.025544 0.606739 -0.828292 0.426327
-10.603317 0.970656 -27.141905 -0.794458 0.025544 0.606739 -4.439865 0.426327
-10.321801 4.408458 -26.918137 -0.742332 0.030915 0.669301 -4.467836 0.856052
-10.603315 1.614896 -36.627048 -0.996673 0.081240 0.005493 -3.254222 0.506858
-10.321798 5.052322 -36.403271 -0.996673 0.081240 0.005493 -3.282195 0.936536
3 0 1 2
3 2 3 0
3 4 5 6
3 6 5 7
