ply
format ascii 1.0
comment Created by Blender 2.93.5 - www.blender.org
element vertex 384
property float x
property float y
property float z
property float nx
property float ny
property float nz
property float s
property float t
element face 384
property list uchar uint vertex_indices
end_header
6.332353 -16.080647 -0.021417 0.256996 0.000000 0.966399 0.000000 1.000000
6.332353 -16.713749 -0.021417 0.256996 0.000000 0.966399 0.000000 1.000000
6.333631 -16.080647 -0.021930 0.496261 0.000000 0.868160 0.000000 1.000000
6.329633 -16.713749 -0.021417 -0.256783 0.000000 0.966460 0.000000 1.000000
6.330993 -16.713749 -0.021228 0.000000 0.000000 0.999969 0.000000 1.000000
6.330993 -16.080647 -0.021228 0.000000 0.000000 0.999969 0.000000 1.000000
6.329633 -16.080647 -0.021417 -0.256813 0.000000 0.966460 0.000000 1.000000
6.328354 -16.080647 -0.021930 -0.496078 0.000000 0.868252 0.000000 1.000000
6.328354 -16.713749 -0.021930 -0.496078 0.000000 0.868252 0.000000 1.000000
6.327262 -16.080647 -0.022772 -0.706656 0.000000 0.707541 0.000000 1.000000
6.327262 -16.713749 -0.022772 -0.706656 0.000000 0.707541 0.000000 1.000000
6.326417 -16.713749 -0.023865 -0.867794 0.000000 0.496902 0.000000 1.000000
6.325902 -16.713749 -0.025147 -0.966735 0.000000 0.255654 0.000000 1.000000
6.326417 -16.080647 -0.023865 -0.867794 0.000000 0.496902 0.000000 1.000000
6.325902 -16.713749 -0.027863 -0.966643 0.000000 -0.256081 0.000000 1.000000
6.325717 -16.713749 -0.026508 -0.999969 0.000000 -0.000275 0.000000 1.000000
6.325717 -16.080647 -0.026508 -0.999969 0.000000 -0.000275 0.000000 1.000000
6.325902 -16.080647 -0.027863 -0.966643 0.000000 -0.256081 0.000000 1.000000
6.326417 -16.713749 -0.029144 -0.867733 0.000000 -0.497024 0.000000 1.000000
6.326417 -16.080647 -0.029144 -0.867733 0.000000 -0.497024 0.000000 1.000000
6.327262 -16.713749 -0.030237 -0.706656 0.000000 -0.707541 0.000000 1.000000
6.330993 -16.713749 -0.031781 0.000000 0.000000 -1.000000 0.000000 1.000000
6.329633 -16.713749 -0.031598 -0.256661 0.000000 -0.966491 0.000000 1.000000
6.329633 -16.080647 -0.031598 -0.256661 0.000000 -0.966491 0.000000 1.000000
6.330993 -16.080647 -0.031781 0.000000 0.000000 -1.000000 0.000000 1.000000
6.332353 -16.713749 -0.031598 0.256844 0.000000 -0.966430 0.000000 1.000000
6.332353 -16.080647 -0.031598 0.256844 0.000000 -0.966430 0.000000 1.000000
6.334723 -16.713749 -0.030237 0.706656 0.000000 -0.707541 0.000000 1.000000
6.333631 -16.713749 -0.031079 0.498001 0.000000 -0.867153 0.000000 1.000000
6.333631 -16.080647 -0.031079 0.498001 0.000000 -0.867153 0.000000 1.000000
6.335568 -16.080647 -0.029144 0.867733 0.000000 -0.497024 0.000000 1.000000
6.335568 -16.713749 -0.029144 0.867733 0.000000 -0.497024 0.000000 1.000000
6.334723 -16.080647 -0.030237 0.706656 0.000000 -0.707541 0.000000 1.000000
6.336083 -16.080647 -0.027863 0.966643 0.000000 -0.256081 0.000000 1.000000
6.336083 -16.713749 -0.027863 0.966643 0.000000 -0.256081 0.000000 1.000000
5.808497 -16.713749 -0.025147 0.966735 0.000000 0.255654 0.000000 1.000000
5.808682 -16.713749 -0.026508 0.999969 0.000000 -0.000275 0.000000 1.000000
5.808682 -16.080647 -0.026508 0.999969 0.000000 -0.000275 0.000000 1.000000
5.808497 -16.080647 -0.025147 0.966735 0.000000 0.255654 0.000000 1.000000
5.807982 -16.713749 -0.023865 0.867794 0.000000 0.496902 0.000000 1.000000
5.807982 -16.080647 -0.023865 0.867794 0.000000 0.496902 0.000000 1.000000
5.807137 -16.713749 -0.022772 0.706656 0.000000 0.707541 0.000000 1.000000
5.807137 -16.080647 -0.022772 0.706656 0.000000 0.707541 0.000000 1.000000
5.806045 -16.713749 -0.021930 0.496261 0.000000 0.868160 0.000000 1.000000
5.806045 -16.080647 -0.021930 0.496261 0.000000 0.868160 0.000000 1.000000
5.804767 -16.713749 -0.021417 0.256996 0.000000 0.966399 0.000000 1.000000
5.804767 -16.080647 -0.021417 0.256996 0.000000 0.966399 0.000000 1.000000
5.803407 -16.713749 -0.021228 0.000000 0.000000 1.000000 0.000000 1.000000
5.803407 -16.080647 -0.021228 0.000000 0.000000 0.999969 0.000000 1.000000
5.802047 -16.713749 -0.021417 -0.256844 0.000000 0.966430 0.000000 1.000000
5.802047 -16.080647 -0.021417 -0.256844 0.000000 0.966430 0.000000 1.000000
5.800768 -16.713749 -0.021930 -0.496139 0.000000 0.868221 0.000000 1.000000
5.800768 -16.080647 -0.021930 -0.496139 0.000000 0.868221 0.000000 1.000000
5.799676 -16.713749 -0.022772 -0.706656 0.000000 0.707541 0.000000 1.000000
5.799676 -16.080647 -0.022772 -0.706656 0.000000 0.707541 0.000000 1.000000
5.798831 -16.713749 -0.023865 -0.867794 0.000000 0.496902 0.000000 1.000000
5.798831 -16.080647 -0.023865 -0.867794 0.000000 0.496902 0.000000 1.000000
5.798316 -16.713749 -0.025147 -0.966735 0.000000 0.255654 0.000000 1.000000
5.798316 -16.080647 -0.025147 -0.966735 0.000000 0.255654 0.000000 1.000000
5.798131 -16.713749 -0.026508 -0.999969 0.000000 -0.000275 0.000000 1.000000
5.798131 -16.080647 -0.026508 -0.999969 0.000000 -0.000275 0.000000 1.000000
5.798316 -16.713749 -0.027863 -0.966643 0.000000 -0.256081 0.000000 1.000000
5.798316 -16.080647 -0.027863 -0.966643 0.000000 -0.256081 0.000000 1.000000
5.798831 -16.713749 -0.029144 -0.867733 0.000000 -0.497024 0.000000 1.000000
5.798831 -16.080647 -0.029144 -0.867733 0.000000 -0.497024 0.000000 1.000000
5.799676 -16.713749 -0.030237 -0.706656 0.000000 -0.707541 0.000000 1.000000
5.799676 -16.080647 -0.030237 -0.706656 0.000000 -0.707541 0.000000 1.000000
5.800768 -16.713749 -0.031079 -0.497909 0.000000 -0.867214 0.000000 1.000000
5.800768 -16.080647 -0.031079 -0.497909 0.000000 -0.867214 0.000000 1.000000
5.802047 -16.713749 -0.031598 -0.256691 0.000000 -0.966460 0.000000 1.000000
5.802047 -16.080647 -0.031598 -0.256691 0.000000 -0.966460 0.000000 1.000000
5.803407 -16.713749 -0.031781 0.000000 0.000000 -1.000000 0.000000 1.000000
5.803407 -16.080647 -0.031781 0.000000 0.000000 -1.000000 0.000000 1.000000
5.804767 -16.713749 -0.031598 0.256844 0.000000 -0.966430 0.000000 1.000000
5.804767 -16.080647 -0.031598 0.256844 0.000000 -0.966430 0.000000 1.000000
5.806045 -16.713749 -0.031079 0.498001 0.000000 -0.867153 0.000000 1.000000
5.806045 -16.080647 -0.031079 0.498001 0.000000 -0.867153 0.000000 1.000000
5.807137 -16.713749 -0.030237 0.706656 0.000000 -0.707541 0.000000 1.000000
5.807137 -16.080647 -0.030237 0.706656 0.000000 -0.707541 0.000000 1.000000
5.807982 -16.713749 -0.029144 0.867733 0.000000 -0.497024 0.000000 1.000000
5.807982 -16.080647 -0.029144 0.867733 0.000000 -0.497024 0.000000 1.000000
5.808497 -16.713749 -0.027863 0.966643 0.000000 -0.256081 0.000000 1.000000
5.808497 -16.080647 -0.027863 0.966643 0.000000 -0.256081 0.000000 1.000000
6.336083 -16.713749 -0.025147 0.966735 0.000000 0.255654 0.000000 1.000000
6.336268 -16.713749 -0.026508 0.999969 0.000000 -0.000275 0.000000 1.000000
6.336268 -16.080647 -0.026508 0.999969 0.000000 -0.000275 0.000000 1.000000
6.336083 -16.080647 -0.025147 0.966735 0.000000 0.255654 0.000000 1.000000
6.335568 -16.713749 -0.023865 0.867794 0.000000 0.496902 0.000000 1.000000
6.335568 -16.080647 -0.023865 0.867794 0.000000 0.496902 0.000000 1.000000
6.334723 -16.713749 -0.022772 0.706656 0.000000 0.707541 0.000000 1.000000
6.334723 -16.080647 -0.022772 0.706656 0.000000 0.707541 0.000000 1.000000
6.333631 -16.713749 -0.021930 0.496261 0.000000 0.868160 0.000000 1.000000
6.325902 -16.080647 -0.025147 -0.966735 0.000000 0.255654 0.000000 1.000000
6.327262 -16.080647 -0.030237 -0.706656 0.000000 -0.707541 0.000000 1.000000
6.328354 -16.713749 -0.031079 -0.497848 0.000000 -0.867244 0.000000 1.000000
6.328354 -16.080647 -0.031079 -0.497848 0.000000 -0.867244 0.000000 1.000000
2.696253 -16.713749 0.030414 0.966582 0.000000 0.256264 0.000000 1.000000
2.696439 -16.713749 0.029059 1.000000 0.000000 0.000275 0.000000 1.000000
2.696439 -16.080647 0.029059 0.999969 0.000000 0.000275 0.000000 1.000000
2.695738 -16.080647 0.031696 0.867641 0.000000 0.497147 0.000000 1.000000
2.695738 -16.713749 0.031696 0.867641 0.000000 0.497147 0.000000 1.000000
2.696253 -16.080647 0.030414 0.966582 0.000000 0.256264 0.000000 1.000000
2.694893 -16.713749 0.032788 0.706442 0.000000 0.707724 0.000000 1.000000
2.693801 -16.713749 0.033630 0.498001 0.000000 0.867153 0.000000 1.000000
2.694893 -16.080647 0.032788 0.706442 0.000000 0.707724 0.000000 1.000000
2.693801 -16.080647 0.033630 0.498001 0.000000 0.867153 0.000000 1.000000
2.692523 -16.080647 0.034149 0.256844 0.000000 0.966430 0.000000 1.000000
2.692523 -16.713749 0.034149 0.256844 0.000000 0.966430 0.000000 1.000000
2.689803 -16.080647 0.034149 -0.256691 0.000000 0.966460 0.000000 1.000000
2.689803 -16.713749 0.034149 -0.256722 0.000000 0.966460 0.000000 1.000000
2.691163 -16.080647 0.034332 0.000000 0.000000 1.000000 0.000000 1.000000
2.688524 -16.713749 0.033630 -0.497909 0.000000 0.867214 0.000000 1.000000
2.688524 -16.080647 0.033630 -0.497909 0.000000 0.867214 0.000000 1.000000
2.687432 -16.713749 0.032788 -0.706504 0.000000 0.707694 0.000000 1.000000
2.687432 -16.080647 0.032788 -0.706504 0.000000 0.707694 0.000000 1.000000
2.686587 -16.713749 0.031696 -0.867824 0.000000 0.496811 0.000000 1.000000
2.686073 -16.713749 0.030414 -0.966674 0.000000 0.255959 0.000000 1.000000
2.686587 -16.080647 0.031696 -0.867824 0.000000 0.496811 0.000000 1.000000
2.686073 -16.080647 0.030414 -0.966674 0.000000 0.255959 0.000000 1.000000
2.685887 -16.080647 0.029059 -0.999969 0.000000 0.000275 0.000000 1.000000
2.685887 -16.713749 0.029059 -0.999969 0.000000 0.000275 0.000000 1.000000
2.686073 -16.713749 0.027698 -0.966735 0.000000 -0.255684 0.000000 1.000000
2.686073 -16.080647 0.027698 -0.966735 0.000000 -0.255684 0.000000 1.000000
2.686587 -16.713749 0.026416 -0.867946 0.000000 -0.496628 0.000000 1.000000
2.686587 -16.080647 0.026416 -0.867946 0.000000 -0.496628 0.000000 1.000000
2.687432 -16.713749 0.025323 -0.706656 0.000000 -0.707541 0.000000 1.000000
2.687432 -16.080647 0.025323 -0.706656 0.000000 -0.707541 0.000000 1.000000
2.688524 -16.713749 0.024481 -0.496139 0.000000 -0.868221 0.000000 1.000000
2.689803 -16.713749 0.023968 -0.256844 0.000000 -0.966430 0.000000 1.000000
2.688524 -16.080647 0.024481 -0.496139 0.000000 -0.868221 0.000000 1.000000
2.689803 -16.080647 0.023968 -0.256844 0.000000 -0.966430 0.000000 1.000000
2.691163 -16.713749 0.023779 0.000000 0.000000 -0.999969 0.000000 1.000000
2.691163 -16.080647 0.023779 0.000000 0.000000 -1.000000 0.000000 1.000000
2.692523 -16.713749 0.023968 0.256996 0.000000 -0.966399 0.000000 1.000000
2.694893 -16.080647 0.025323 0.706595 0.000000 -0.707572 0.000000 1.000000
2.694893 -16.713749 0.025323 0.706595 0.000000 -0.707572 0.000000 1.000000
2.693801 -16.080647 0.024481 0.496261 0.000000 -0.868160 0.000000 1.000000
2.696253 -16.080647 0.027698 0.966674 0.000000 -0.255989 0.000000 1.000000
2.696253 -16.713749 0.027698 0.966674 0.000000 -0.255989 0.000000 1.000000
2.695738 -16.080647 0.026416 0.867763 0.000000 -0.496963 0.000000 1.000000
2.168667 -16.713749 0.030414 0.966674 0.000000 0.255928 0.000000 1.000000
2.168852 -16.713749 0.029059 1.000000 0.000000 0.000275 0.000000 1.000000
2.168852 -16.080647 0.029059 0.999969 0.000000 0.000275 0.000000 1.000000
2.168667 -16.080647 0.030414 0.966674 0.000000 0.255928 0.000000 1.000000
2.168152 -16.713749 0.031696 0.867641 0.000000 0.497147 0.000000 1.000000
2.168152 -16.080647 0.031696 0.867641 0.000000 0.497147 0.000000 1.000000
2.167307 -16.713749 0.032788 0.706442 0.000000 0.707724 0.000000 1.000000
2.167307 -16.080647 0.032788 0.706442 0.000000 0.707724 0.000000 1.000000
2.166215 -16.713749 0.033630 0.498001 0.000000 0.867153 0.000000 1.000000
2.166215 -16.080647 0.033630 0.498001 0.000000 0.867153 0.000000 1.000000
2.164937 -16.713749 0.034149 0.256844 0.000000 0.966430 0.000000 1.000000
2.164937 -16.080647 0.034149 0.256844 0.000000 0.966430 0.000000 1.000000
2.163577 -16.713749 0.034332 0.000000 0.000000 1.000000 0.000000 1.000000
2.163577 -16.080647 0.034332 0.000000 0.000000 1.000000 0.000000 1.000000
2.162217 -16.713749 0.034149 -0.256722 0.000000 0.966460 0.000000 1.000000
2.162217 -16.080647 0.034149 -0.256691 0.000000 0.966460 0.000000 1.000000
2.160938 -16.713749 0.033630 -0.497909 0.000000 0.867214 0.000000 1.000000
2.160938 -16.080647 0.033630 -0.497909 0.000000 0.867214 0.000000 1.000000
2.159846 -16.713749 0.032788 -0.706504 0.000000 0.707694 0.000000 1.000000
2.159846 -16.080647 0.032788 -0.706504 0.000000 0.707694 0.000000 1.000000
2.159001 -16.713749 0.031696 -0.867641 0.000000 0.497147 0.000000 1.000000
2.159001 -16.080647 0.031696 -0.867641 0.000000 0.497147 0.000000 1.000000
2.158486 -16.713749 0.030414 -0.966674 0.000000 0.255928 0.000000 1.000000
2.158486 -16.080647 0.030414 -0.966674 0.000000 0.255928 0.000000 1.000000
2.158301 -16.713749 0.029059 -1.000000 0.000000 0.000275 0.000000 1.000000
2.158301 -16.080647 0.029059 -0.999969 0.000000 0.000275 0.000000 1.000000
2.158486 -16.713749 0.027698 -0.966735 0.000000 -0.255654 0.000000 1.000000
2.158486 -16.080647 0.027698 -0.966735 0.000000 -0.255654 0.000000 1.000000
2.159001 -16.713749 0.026416 -0.867733 0.000000 -0.496963 0.000000 1.000000
2.159001 -16.080647 0.026416 -0.867733 0.000000 -0.496963 0.000000 1.000000
2.159846 -16.713749 0.025323 -0.706656 0.000000 -0.707541 0.000000 1.000000
2.159846 -16.080647 0.025323 -0.706656 0.000000 -0.707541 0.000000 1.000000
2.160938 -16.713749 0.024481 -0.496139 0.000000 -0.868221 0.000000 1.000000
2.160938 -16.080647 0.024481 -0.496139 0.000000 -0.868221 0.000000 1.000000
2.162217 -16.713749 0.023968 -0.256844 0.000000 -0.966430 0.000000 1.000000
2.162217 -16.080647 0.023968 -0.256844 0.000000 -0.966430 0.000000 1.000000
2.163577 -16.713749 0.023779 0.000000 0.000000 -0.999969 0.000000 1.000000
2.163577 -16.080647 0.023779 0.000000 0.000000 -1.000000 0.000000 1.000000
2.164937 -16.713749 0.023968 0.256996 0.000000 -0.966399 0.000000 1.000000
2.164937 -16.080647 0.023968 0.256996 0.000000 -0.966399 0.000000 1.000000
2.166215 -16.713749 0.024481 0.496261 0.000000 -0.868160 0.000000 1.000000
2.166215 -16.080647 0.024481 0.496261 0.000000 -0.868160 0.000000 1.000000
2.167307 -16.713749 0.025323 0.706595 0.000000 -0.707572 0.000000 1.000000
2.167307 -16.080647 0.025323 0.706595 0.000000 -0.707572 0.000000 1.000000
2.168152 -16.713749 0.026416 0.867763 0.000000 -0.496963 0.000000 1.000000
2.168152 -16.080647 0.026416 0.867763 0.000000 -0.496963 0.000000 1.000000
2.168667 -16.713749 0.027698 0.966735 0.000000 -0.255654 0.000000 1.000000
2.168667 -16.080647 0.027698 0.966735 0.000000 -0.255654 0.000000 1.000000
2.691163 -16.713749 0.034332 0.000000 0.000000 1.000000 0.000000 1.000000
2.692523 -16.080647 0.023968 0.256996 0.000000 -0.966399 0.000000 1.000000
2.693801 -16.713749 0.024481 0.496261 0.000000 -0.868160 0.000000 1.000000
2.695738 -16.713749 0.026416 0.867763 0.000000 -0.496963 0.000000 1.000000
-6.336355 -16.713749 -0.026508 -0.999969 0.000000 -0.000275 0.000000 1.000000
-6.336169 -16.713749 -0.025147 -0.966613 0.000000 0.256142 0.000000 1.000000
-6.336355 -16.080647 -0.026508 -1.000000 0.000000 -0.000275 0.000000 1.000000
-6.334809 -16.713749 -0.022772 -0.706656 0.000000 0.707541 0.000000 1.000000
-6.333717 -16.713749 -0.021930 -0.496261 0.000000 0.868160 0.000000 1.000000
-6.334809 -16.080647 -0.022772 -0.706656 0.000000 0.707541 0.000000 1.000000
-6.332439 -16.713749 -0.021417 -0.256996 0.000000 0.966399 0.000000 1.000000
-6.333717 -16.080647 -0.021930 -0.496261 0.000000 0.868160 0.000000 1.000000
-6.331079 -16.713749 -0.021228 0.000000 0.000000 1.000000 0.000000 1.000000
-6.332439 -16.080647 -0.021417 -0.256996 0.000000 0.966399 0.000000 1.000000
-6.331079 -16.080647 -0.021228 0.000000 0.000000 0.999969 0.000000 1.000000
-6.329719 -16.713749 -0.021417 0.256996 0.000000 0.966399 0.000000 1.000000
-6.329719 -16.080647 -0.021417 0.256996 0.000000 0.966399 0.000000 1.000000
-6.327349 -16.713749 -0.022772 0.706351 0.000000 0.707816 0.000000 1.000000
-6.327349 -16.080647 -0.022772 0.706351 0.000000 0.707816 0.000000 1.000000
-6.328441 -16.080647 -0.021930 0.496261 0.000000 0.868160 0.000000 1.000000
-6.326503 -16.713749 -0.023865 0.867580 0.000000 0.497238 0.000000 1.000000
-6.326503 -16.080647 -0.023865 0.867580 0.000000 0.497238 0.000000 1.000000
-6.325988 -16.713749 -0.025147 0.966735 0.000000 0.255654 0.000000 1.000000
-6.325988 -16.080647 -0.025147 0.966735 0.000000 0.255654 0.000000 1.000000
-6.325803 -16.713749 -0.026508 0.999969 0.000000 -0.000275 0.000000 1.000000
-6.325803 -16.080647 -0.026508 0.999969 0.000000 -0.000275 0.000000 1.000000
-6.325988 -16.713749 -0.027863 0.966643 0.000000 -0.256081 0.000000 1.000000
-6.326503 -16.713749 -0.029144 0.867519 0.000000 -0.497360 0.000000 1.000000
-6.327349 -16.713749 -0.030237 0.706351 0.000000 -0.707816 0.000000 1.000000
-6.326503 -16.080647 -0.029144 0.867519 0.000000 -0.497360 0.000000 1.000000
-6.327349 -16.080647 -0.030237 0.706381 0.000000 -0.707816 0.000000 1.000000
-6.328441 -16.713749 -0.031079 0.498001 0.000000 -0.867153 0.000000 1.000000
-6.328441 -16.080647 -0.031079 0.498001 0.000000 -0.867153 0.000000 1.000000
-6.329719 -16.713749 -0.031598 0.256844 0.000000 -0.966430 0.000000 1.000000
-6.331079 -16.713749 -0.031781 0.000000 0.000000 -1.000000 0.000000 1.000000
-6.329719 -16.080647 -0.031598 0.256844 0.000000 -0.966430 0.000000 1.000000
-6.331079 -16.080647 -0.031781 0.000000 0.000000 -1.000000 0.000000 1.000000
-6.332439 -16.713749 -0.031598 -0.256844 0.000000 -0.966430 0.000000 1.000000
-6.332439 -16.080647 -0.031598 -0.256844 0.000000 -0.966430 0.000000 1.000000
-6.333717 -16.713749 -0.031079 -0.498001 0.000000 -0.867153 0.000000 1.000000
-6.334809 -16.713749 -0.030237 -0.706656 0.000000 -0.707541 0.000000 1.000000
-6.333717 -16.080647 -0.031079 -0.498001 0.000000 -0.867153 0.000000 1.000000
-6.335654 -16.713749 -0.029144 -0.867733 0.000000 -0.497024 0.000000 1.000000
-6.334809 -16.080647 -0.030237 -0.706656 0.000000 -0.707541 0.000000 1.000000
-6.335654 -16.080647 -0.029144 -0.867733 0.000000 -0.497024 0.000000 1.000000
-6.336169 -16.713749 -0.027863 -0.966491 0.000000 -0.256569 0.000000 1.000000
-6.336169 -16.080647 -0.027863 -0.966491 0.000000 -0.256569 0.000000 1.000000
-5.808768 -16.713749 -0.026508 -0.999969 0.000000 -0.000275 0.000000 1.000000
-5.808583 -16.713749 -0.025147 -0.966735 0.000000 0.255654 0.000000 1.000000
-5.808768 -16.080647 -0.026508 -0.999969 0.000000 -0.000275 0.000000 1.000000
-5.808583 -16.080647 -0.025147 -0.966735 0.000000 0.255654 0.000000 1.000000
-5.808068 -16.713749 -0.023865 -0.867641 0.000000 0.497147 0.000000 1.000000
-5.808068 -16.080647 -0.023865 -0.867641 0.000000 0.497147 0.000000 1.000000
-5.807222 -16.713749 -0.022772 -0.706473 0.000000 0.707724 0.000000 1.000000
-5.807222 -16.080647 -0.022772 -0.706473 0.000000 0.707724 0.000000 1.000000
-5.806130 -16.713749 -0.021930 -0.496261 0.000000 0.868160 0.000000 1.000000
-5.806130 -16.080647 -0.021930 -0.496261 0.000000 0.868160 0.000000 1.000000
-5.804852 -16.713749 -0.021417 -0.257027 0.000000 0.966369 0.000000 1.000000
-5.804852 -16.080647 -0.021417 -0.257027 0.000000 0.966369 0.000000 1.000000
-5.803493 -16.713749 -0.021228 -0.000092 0.000000 0.999969 0.000000 1.000000
-5.803493 -16.080647 -0.021228 -0.000092 0.000000 1.000000 0.000000 1.000000
-5.802132 -16.713749 -0.021417 0.257057 0.000000 0.966369 0.000000 1.000000
-5.802132 -16.080647 -0.021417 0.257057 0.000000 0.966369 0.000000 1.000000
-5.800855 -16.713749 -0.021930 0.496109 0.000000 0.868252 0.000000 1.000000
-5.800855 -16.080647 -0.021930 0.496109 0.000000 0.868252 0.000000 1.000000
-5.799762 -16.713749 -0.022772 0.706442 0.000000 0.707755 0.000000 1.000000
-5.799762 -16.080647 -0.022772 0.706442 0.000000 0.707755 0.000000 1.000000
-5.798917 -16.713749 -0.023865 0.867794 0.000000 0.496902 0.000000 1.000000
-5.798917 -16.080647 -0.023865 0.867794 0.000000 0.496902 0.000000 1.000000
-5.798402 -16.713749 -0.025147 0.966735 0.000000 0.255654 0.000000 1.000000
-5.798402 -16.080647 -0.025147 0.966735 0.000000 0.255654 0.000000 1.000000
-5.798217 -16.713749 -0.026508 0.999969 0.000000 -0.000275 0.000000 1.000000
-5.798217 -16.080647 -0.026508 0.999969 0.000000 -0.000275 0.000000 1.000000
-5.798402 -16.713749 -0.027863 0.966643 0.000000 -0.256081 0.000000 1.000000
-5.798402 -16.080647 -0.027863 0.966643 0.000000 -0.256081 0.000000 1.000000
-5.798917 -16.713749 -0.029144 0.867733 0.000000 -0.497024 0.000000 1.000000
-5.798917 -16.080647 -0.029144 0.867733 0.000000 -0.497024 0.000000 1.000000
-5.799762 -16.713749 -0.030237 0.706442 0.000000 -0.707755 0.000000 1.000000
-5.799762 -16.080647 -0.030237 0.706442 0.000000 -0.707755 0.000000 1.000000
-5.800855 -16.713749 -0.031079 0.497848 0.000000 -0.867244 0.000000 1.000000
-5.800855 -16.080647 -0.031079 0.497848 0.000000 -0.867244 0.000000 1.000000
-5.802132 -16.713749 -0.031598 0.256935 0.000000 -0.966399 0.000000 1.000000
-5.802132 -16.080647 -0.031598 0.256935 0.000000 -0.966399 0.000000 1.000000
-5.803493 -16.713749 -0.031781 -0.000061 0.000000 -1.000000 0.000000 1.000000
-5.803493 -16.080647 -0.031781 -0.000092 0.000000 -1.000000 0.000000 1.000000
-5.804852 -16.713749 -0.031598 -0.256874 0.000000 -0.966430 0.000000 1.000000
-5.804852 -16.080647 -0.031598 -0.256905 0.000000 -0.966430 0.000000 1.000000
-5.806130 -16.713749 -0.031079 -0.498001 0.000000 -0.867153 0.000000 1.000000
-5.806130 -16.080647 -0.031079 -0.498001 0.000000 -0.867153 0.000000 1.000000
-5.807222 -16.713749 -0.030237 -0.706473 0.000000 -0.707724 0.000000 1.000000
-5.807222 -16.080647 -0.030237 -0.706473 0.000000 -0.707724 0.000000 1.000000
-5.808068 -16.713749 -0.029144 -0.867580 0.000000 -0.497238 0.000000 1.000000
-5.808068 -16.080647 -0.029144 -0.867580 0.000000 -0.497238 0.000000 1.000000
-5.808583 -16.713749 -0.027863 -0.966643 0.000000 -0.256081 0.000000 1.000000
-5.808583 -16.080647 -0.027863 -0.966643 0.000000 -0.256081 0.000000 1.000000
-6.336169 -16.080647 -0.025147 -0.966613 0.000000 0.256142 0.000000 1.000000
-6.335654 -16.713749 -0.023865 -0.867794 0.000000 0.496902 0.000000 1.000000
-6.335654 -16.080647 -0.023865 -0.867794 0.000000 0.496902 0.000000 1.000000
-6.328441 -16.713749 -0.021930 0.496261 0.000000 0.868160 0.000000 1.000000
-6.325988 -16.080647 -0.027863 0.966643 0.000000 -0.256081 0.000000 1.000000
-2.695823 -16.713749 0.031671 -0.867519 0.000000 0.497360 0.000000 1.000000
-2.695823 -16.080647 0.031671 -0.867519 0.000000 0.497360 0.000000 1.000000
-2.696338 -16.080647 0.030395 -0.966460 0.000000 0.256783 0.000000 1.000000
-2.694979 -16.713749 0.032764 -0.707907 0.000000 0.706259 0.000000 1.000000
-2.694979 -16.080647 0.032764 -0.707907 0.000000 0.706259 0.000000 1.000000
-2.691248 -16.713749 0.034314 0.000031 0.000000 0.999969 0.000000 1.000000
-2.691248 -16.080647 0.034314 0.000061 0.000000 1.000000 0.000000 1.000000
-2.692609 -16.080647 0.034125 -0.257057 0.000000 0.966369 0.000000 1.000000
-2.689888 -16.713749 0.034125 0.256996 0.000000 0.966399 0.000000 1.000000
-2.688610 -16.713749 0.033612 0.497696 0.000000 0.867336 0.000000 1.000000
-2.688610 -16.080647 0.033612 0.497696 0.000000 0.867336 0.000000 1.000000
-2.689888 -16.080647 0.034125 0.256996 0.000000 0.966399 0.000000 1.000000
-2.687518 -16.713749 0.032764 0.707816 0.000000 0.706351 0.000000 1.000000
-2.686673 -16.713749 0.031671 0.867367 0.000000 0.497604 0.000000 1.000000
-2.687518 -16.080647 0.032764 0.707846 0.000000 0.706351 0.000000 1.000000
-2.686673 -16.080647 0.031671 0.867397 0.000000 0.497604 0.000000 1.000000
-2.686158 -16.713749 0.030395 0.966460 0.000000 0.256783 0.000000 1.000000
-2.686158 -16.080647 0.030395 0.966460 0.000000 0.256783 0.000000 1.000000
-2.685972 -16.713749 0.029034 1.000000 0.000000 0.000000 0.000000 1.000000
-2.685972 -16.080647 0.029034 1.000000 0.000000 0.000000 0.000000 1.000000
-2.686158 -16.713749 0.027673 0.966430 0.000000 -0.256905 0.000000 1.000000
-2.686158 -16.080647 0.027673 0.966430 0.000000 -0.256905 0.000000 1.000000
-2.686673 -16.713749 0.026398 0.867306 0.000000 -0.497726 0.000000 1.000000
-2.687518 -16.713749 0.025305 0.706626 0.000000 -0.707572 0.000000 1.000000
-2.686673 -16.080647 0.026398 0.867306 0.000000 -0.497726 0.000000 1.000000
-2.687518 -16.080647 0.025305 0.706626 0.000000 -0.707572 0.000000 1.000000
-2.689888 -16.713749 0.023944 0.256844 0.000000 -0.966430 0.000000 1.000000
-2.689888 -16.080647 0.023944 0.256844 0.000000 -0.966430 0.000000 1.000000
-2.688610 -16.080647 0.024463 0.497971 0.000000 -0.867183 0.000000 1.000000
-2.691248 -16.713749 0.023761 0.000031 0.000000 -1.000000 0.000000 1.000000
-2.691248 -16.080647 0.023761 0.000031 0.000000 -1.000000 0.000000 1.000000
-2.692609 -16.713749 0.023944 -0.256905 0.000000 -0.966430 0.000000 1.000000
-2.692609 -16.080647 0.023944 -0.256905 0.000000 -0.966430 0.000000 1.000000
-2.693886 -16.713749 0.024463 -0.497940 0.000000 -0.867183 0.000000 1.000000
-2.694979 -16.713749 0.025305 -0.706687 0.000000 -0.707480 0.000000 1.000000
-2.694979 -16.080647 0.025305 -0.706687 0.000000 -0.707480 0.000000 1.000000
-2.693886 -16.080647 0.024463 -0.497940 0.000000 -0.867183 0.000000 1.000000
-2.695823 -16.713749 0.026398 -0.867458 0.000000 -0.497482 0.000000 1.000000
-2.695823 -16.080647 0.026398 -0.867458 0.000000 -0.497482 0.000000 1.000000
-2.696338 -16.713749 0.027673 -0.966430 0.000000 -0.256905 0.000000 1.000000
-2.168938 -16.713749 0.029034 -1.000000 0.000000 0.000000 0.000000 1.000000
-2.168752 -16.713749 0.030395 -0.966460 0.000000 0.256783 0.000000 1.000000
-2.168938 -16.080647 0.029034 -1.000000 0.000000 0.000000 0.000000 1.000000
-2.168752 -16.080647 0.030395 -0.966460 0.000000 0.256783 0.000000 1.000000
-2.168237 -16.713749 0.031671 -0.867367 0.000000 0.497604 0.000000 1.000000
-2.168237 -16.080647 0.031671 -0.867397 0.000000 0.497604 0.000000 1.000000
-2.167392 -16.713749 0.032764 -0.707877 0.000000 0.706320 0.000000 1.000000
-2.167392 -16.080647 0.032764 -0.707877 0.000000 0.706320 0.000000 1.000000
-2.166300 -16.713749 0.033612 -0.497879 0.000000 0.867244 0.000000 1.000000
-2.166300 -16.080647 0.033612 -0.497848 0.000000 0.867244 0.000000 1.000000
-2.165023 -16.713749 0.034125 -0.257057 0.000000 0.966369 0.000000 1.000000
-2.165023 -16.080647 0.034125 -0.257057 0.000000 0.966369 0.000000 1.000000
-2.163662 -16.713749 0.034314 0.000031 0.000000 0.999969 0.000000 1.000000
-2.163662 -16.080647 0.034314 0.000061 0.000000 1.000000 0.000000 1.000000
-2.162302 -16.713749 0.034125 0.256996 0.000000 0.966399 0.000000 1.000000
-2.162302 -16.080647 0.034125 0.256996 0.000000 0.966399 0.000000 1.000000
-2.161024 -16.713749 0.033612 0.497696 0.000000 0.867336 0.000000 1.000000
-2.161024 -16.080647 0.033612 0.497696 0.000000 0.867336 0.000000 1.000000
-2.159932 -16.713749 0.032764 0.707816 0.000000 0.706351 0.000000 1.000000
-2.159932 -16.080647 0.032764 0.707846 0.000000 0.706351 0.000000 1.000000
-2.159087 -16.713749 0.031671 0.867367 0.000000 0.497604 0.000000 1.000000
-2.159087 -16.080647 0.031671 0.867397 0.000000 0.497604 0.000000 1.000000
-2.158572 -16.713749 0.030395 0.966460 0.000000 0.256783 0.000000 1.000000
-2.158572 -16.080647 0.030395 0.966460 0.000000 0.256783 0.000000 1.000000
-2.158386 -16.713749 0.029034 1.000000 0.000000 0.000000 0.000000 1.000000
-2.158386 -16.080647 0.029034 1.000000 0.000000 0.000000 0.000000 1.000000
-2.158572 -16.713749 0.027673 0.966430 0.000000 -0.256905 0.000000 1.000000
-2.158572 -16.080647 0.027673 0.966430 0.000000 -0.256905 0.000000 1.000000
-2.159087 -16.713749 0.026398 0.867306 0.000000 -0.497726 0.000000 1.000000
-2.159087 -16.080647 0.026398 0.867306 0.000000 -0.497726 0.000000 1.000000
-2.159932 -16.713749 0.025305 0.706626 0.000000 -0.707572 0.000000 1.000000
-2.159932 -16.080647 0.025305 0.706626 0.000000 -0.707572 0.000000 1.000000
-2.161024 -16.713749 0.024463 0.497971 0.000000 -0.867183 0.000000 1.000000
-2.161024 -16.080647 0.024463 0.497971 0.000000 -0.867183 0.000000 1.000000
-2.162302 -16.713749 0.023944 0.256844 0.000000 -0.966430 0.000000 1.000000
-2.162302 -16.080647 0.023944 0.256844 0.000000 -0.966430 0.000000 1.000000
-2.163662 -16.713749 0.023761 0.000031 0.000000 -1.000000 0.000000 1.000000
-2.163662 -16.080647 0.023761 0.000031 0.000000 -1.000000 0.000000 1.000000
-2.165023 -16.713749 0.023944 -0.256905 0.000000 -0.966430 0.000000 1.000000
-2.165023 -16.080647 0.023944 -0.256905 0.000000 -0.966430 0.000000 1.000000
-2.166300 -16.713749 0.024463 -0.498123 0.000000 -0.867092 0.000000 1.000000
-2.166300 -16.080647 0.024463 -0.498123 0.000000 -0.867092 0.000000 1.000000
-2.167392 -16.713749 0.025305 -0.706656 0.000000 -0.707541 0.000000 1.000000
-2.167392 -16.080647 0.025305 -0.706656 0.000000 -0.707541 0.000000 1.000000
-2.168237 -16.713749 0.026398 -0.867306 0.000000 -0.497726 0.000000 1.000000
-2.168237 -16.080647 0.026398 -0.867306 0.000000 -0.497726 0.000000 1.000000
-2.168752 -16.713749 0.027673 -0.966430 0.000000 -0.256905 0.000000 1.000000
-2.168752 -16.080647 0.027673 -0.966430 0.000000 -0.256905 0.000000 1.000000
-2.696524 -16.713749 0.029034 -1.000000 0.000000 0.000000 0.000000 1.000000
-2.696338 -16.713749 0.030395 -0.966460 0.000000 0.256783 0.000000 1.000000
-2.696524 -16.080647 0.029034 -1.000000 0.000000 0.000000 0.000000 1.000000
-2.693886 -16.713749 0.033612 -0.497696 0.000000 0.867336 0.000000 1.000000
-2.693886 -16.080647 0.033612 -0.497665 0.000000 0.867336 0.000000 1.000000
-2.692609 -16.713749 0.034125 -0.257057 0.000000 0.966369 0.000000 1.000000
-2.688610 -16.713749 0.024463 0.497971 0.000000 -0.867183 0.000000 1.000000
-2.696338 -16.080647 0.027673 -0.966430 0.000000 -0.256905 0.000000 1.000000
3 0 1 2
3 3 4 5
3 6 3 5
3 7 8 6
3 9 10 7
3 11 10 9
3 12 11 13
3 14 15 16
3 17 14 16
3 18 14 17
3 19 18 17
3 20 18 19
3 21 22 23
3 24 21 23
3 25 21 24
3 26 25 24
3 27 28 29
3 30 31 32
3 33 34 30
3 35 36 37
3 38 35 37
3 39 35 38
3 40 39 38
3 41 39 40
3 42 41 40
3 43 41 42
3 44 43 42
3 45 43 44
3 46 45 44
3 47 45 46
3 48 47 46
3 49 47 48
3 50 49 48
3 51 49 50
3 52 51 50
3 53 51 52
3 54 53 52
3 55 53 54
3 56 55 54
3 57 55 56
3 58 57 56
3 59 57 58
3 60 59 58
3 61 59 60
3 62 61 60
3 63 61 62
3 64 63 62
3 65 63 64
3 66 65 64
3 67 65 66
3 68 67 66
3 69 67 68
3 70 69 68
3 71 69 70
3 72 71 70
3 73 71 72
3 74 73 72
3 75 73 74
3 76 75 74
3 77 75 76
3 78 77 76
3 79 77 78
3 80 79 78
3 81 79 80
3 82 81 80
3 36 81 82
3 37 36 82
3 83 84 85
3 86 83 85
3 87 83 86
3 88 87 86
3 89 87 88
3 90 89 88
3 91 89 90
3 2 91 90
3 1 91 2
3 4 1 0
3 5 4 0
3 8 3 6
3 10 8 7
3 13 11 9
3 92 12 13
3 15 12 92
3 16 15 92
3 93 20 19
3 94 20 93
3 95 94 93
3 22 94 95
3 23 22 95
3 28 25 26
3 29 28 26
3 32 27 29
3 31 27 32
3 34 31 30
3 84 34 33
3 85 84 33
3 96 97 98
3 99 100 101
3 102 100 99
3 103 102 104
3 105 103 104
3 106 107 105
3 108 109 110
3 111 109 108
3 112 111 108
3 113 111 112
3 114 113 112
3 115 113 114
3 116 115 117
3 118 116 117
3 119 120 118
3 121 120 119
3 122 121 119
3 123 121 122
3 124 123 122
3 125 123 124
3 126 125 124
3 127 125 126
3 128 127 129
3 130 128 129
3 131 128 130
3 132 131 130
3 133 131 132
3 134 135 136
3 137 138 139
3 140 141 142
3 143 140 142
3 144 140 143
3 145 144 143
3 146 144 145
3 147 146 145
3 148 146 147
3 149 148 147
3 150 148 149
3 151 150 149
3 152 150 151
3 153 152 151
3 154 152 153
3 155 154 153
3 156 154 155
3 157 156 155
3 158 156 157
3 159 158 157
3 160 158 159
3 161 160 159
3 162 160 161
3 163 162 161
3 164 162 163
3 165 164 163
3 166 164 165
3 167 166 165
3 168 166 167
3 169 168 167
3 170 168 169
3 171 170 169
3 172 170 171
3 173 172 171
3 174 172 173
3 175 174 173
3 176 174 175
3 177 176 175
3 178 176 177
3 179 178 177
3 180 178 179
3 181 180 179
3 182 180 181
3 183 182 181
3 184 182 183
3 185 184 183
3 186 184 185
3 187 186 185
3 141 186 187
3 142 141 187
3 101 96 98
3 100 96 101
3 104 102 99
3 107 103 105
3 188 107 106
3 110 188 106
3 109 188 110
3 117 115 114
3 120 116 118
3 129 127 126
3 189 133 132
3 190 133 189
3 136 190 189
3 135 190 136
3 191 135 134
3 139 191 134
3 138 191 139
3 97 138 137
3 98 97 137
3 192 193 194
3 195 196 197
3 196 198 199
3 198 200 201
3 200 202 201
3 200 203 202
3 203 204 202
3 205 206 207
3 205 208 206
3 208 209 206
3 208 210 209
3 210 211 209
3 210 212 211
3 212 213 211
3 212 214 213
3 215 216 217
3 216 218 217
3 216 219 218
3 219 220 218
3 221 222 223
3 222 224 223
3 222 225 224
3 225 226 224
3 225 227 226
3 227 228 229
3 228 230 231
3 230 232 231
3 233 234 232
3 233 192 234
3 192 194 234
3 235 236 237
3 236 238 237
3 236 239 238
3 239 240 238
3 239 241 240
3 241 242 240
3 241 243 242
3 243 244 242
3 243 245 244
3 245 246 244
3 245 247 246
3 247 248 246
3 247 249 248
3 249 250 248
3 249 251 250
3 251 252 250
3 251 253 252
3 253 254 252
3 253 255 254
3 255 256 254
3 255 257 256
3 257 258 256
3 257 259 258
3 259 260 258
3 259 261 260
3 261 262 260
3 261 263 262
3 263 264 262
3 263 265 264
3 265 266 264
3 265 267 266
3 267 268 266
3 267 269 268
3 269 270 268
3 269 271 270
3 271 272 270
3 271 273 272
3 273 274 272
3 273 275 274
3 275 276 274
3 275 277 276
3 277 278 276
3 277 279 278
3 279 280 278
3 279 281 280
3 281 282 280
3 281 235 282
3 235 237 282
3 193 283 194
3 193 284 283
3 284 285 283
3 284 195 285
3 195 197 285
3 196 199 197
3 198 201 199
3 203 286 204
3 286 207 204
3 286 205 207
3 214 287 213
3 214 215 287
3 215 217 287
3 219 221 220
3 221 223 220
3 227 229 226
3 228 231 229
3 230 233 232
3 288 289 290
3 288 291 289
3 291 292 289
3 293 294 295
3 293 296 294
3 297 298 299
3 300 301 302
3 301 303 302
3 301 304 303
3 304 305 303
3 306 307 305
3 306 308 307
3 308 309 307
3 310 311 312
3 311 313 312
3 314 315 316
3 314 317 315
3 317 318 315
3 317 319 318
3 319 320 318
3 319 321 320
3 322 323 324
3 325 326 323
3 325 327 326
3 328 329 330
3 329 331 330
3 329 332 331
3 332 333 331
3 332 334 333
3 334 335 333
3 334 336 335
3 336 337 335
3 336 338 337
3 338 339 337
3 338 340 339
3 340 341 339
3 340 342 341
3 342 343 341
3 342 344 343
3 344 345 343
3 344 346 345
3 346 347 345
3 346 348 347
3 348 349 347
3 348 350 349
3 350 351 349
3 350 352 351
3 352 353 351
3 352 354 353
3 354 355 353
3 354 356 355
3 356 357 355
3 356 358 357
3 358 359 357
3 358 360 359
3 360 361 359
3 360 362 361
3 362 363 361
3 362 364 363
3 364 365 363
3 364 366 365
3 366 367 365
3 366 368 367
3 368 369 367
3 368 370 369
3 370 371 369
3 370 372 371
3 372 373 371
3 372 374 373
3 374 375 373
3 374 328 375
3 328 330 375
3 376 377 378
3 377 290 378
3 377 288 290
3 291 379 292
3 379 380 292
3 379 381 380
3 381 295 380
3 381 293 295
3 296 299 294
3 296 297 299
3 297 300 298
3 300 302 298
3 304 306 305
3 308 310 309
3 310 312 309
3 311 382 313
3 382 316 313
3 382 314 316
3 321 324 320
3 321 322 324
3 322 325 323
3 327 383 326
3 327 376 383
3 376 378 383
