ply
format ascii 1.0
comment Created by Blender 2.93.5 - www.blender.org
element vertex 306
property float x
property float y
property float z
property float nx
property float ny
property float nz
property float s
property float t
element face 418
property list uchar uint vertex_indices
end_header
-2.322295 -12.170981 -69.813255 -0.713248 0.151585 0.684317 0.000000 1.000000
-2.374167 -12.664592 -69.813255 -0.729179 0.000000 0.684317 0.000000 1.000000
-0.000029 -12.664592 -69.813255 0.000000 0.000000 1.000000 0.000000 1.000000
-2.168924 -11.698944 -69.813255 -0.666128 0.296579 0.684317 0.000000 1.000000
-1.920752 -11.269108 -69.813255 -0.589892 0.428602 0.684317 0.000000 1.000000
-1.588641 -10.900264 -69.813255 -0.487899 0.541887 0.684317 0.000000 1.000000
-1.187098 -10.608527 -69.813255 -0.364574 0.631489 0.684317 0.000000 1.000000
-0.733683 -10.406651 -69.813255 -0.225318 0.693472 0.684317 0.000000 1.000000
-0.248200 -10.303460 -69.813255 -0.076205 0.725181 0.684317 0.000000 1.000000
0.248122 -10.303460 -69.813255 0.076205 0.725181 0.684317 0.000000 1.000000
0.692861 -10.532092 -69.918777 0.000000 0.000000 -1.000000 0.000000 1.000000
0.234335 -10.434633 -69.918777 0.000000 0.000000 -1.000000 0.000000 1.000000
0.261910 -10.172285 -69.918777 0.000000 0.000000 -1.000000 0.000000 1.000000
-0.000029 -12.664592 -69.918777 0.000000 0.000000 -1.000000 0.000000 1.000000
0.733605 -10.406651 -69.813255 0.225288 0.693503 0.684317 0.000000 1.000000
0.733605 -10.406651 -69.918777 0.308969 0.951048 0.000000 0.000000 1.000000
0.248122 -10.303460 -69.918777 0.104526 0.994507 0.000000 0.000000 1.000000
1.187042 -10.608527 -69.813255 0.364574 0.631489 0.684286 0.000000 1.000000
1.588562 -10.900264 -69.813255 0.487899 0.541856 0.684317 0.000000 1.000000
1.920674 -11.269108 -69.813255 0.589892 0.428602 0.684317 0.000000 1.000000
2.168846 -11.698944 -69.813255 0.666128 0.296548 0.684317 0.000000 1.000000
2.322217 -12.170981 -69.813255 0.713218 0.151585 0.684317 0.000000 1.000000
2.374110 -12.664592 -69.813255 0.729179 0.000000 0.684286 0.000000 1.000000
2.193205 -13.130779 -69.918777 -0.000031 0.000000 -1.000000 0.000000 1.000000
2.242213 -12.664592 -69.918777 0.000000 0.000000 -0.999969 0.000000 1.000000
2.322217 -13.158202 -69.813255 0.713218 -0.151585 0.684317 0.000000 1.000000
2.048346 -13.576595 -69.918777 0.000000 0.000000 -1.000000 0.000000 1.000000
2.168846 -13.630239 -69.813255 0.666128 -0.296579 0.684317 0.000000 1.000000
1.813982 -13.982548 -69.918777 0.000000 0.000000 -1.000000 0.000000 1.000000
1.920674 -14.060077 -69.813255 0.589892 -0.428602 0.684317 0.000000 1.000000
1.500315 -14.330901 -69.918777 0.000000 0.000000 -1.000000 0.000000 1.000000
1.588562 -14.428921 -69.813255 0.487899 -0.541856 0.684317 0.000000 1.000000
1.121092 -14.606429 -69.918777 0.000000 0.000000 -1.000000 0.000000 1.000000
1.187040 -14.720656 -69.813255 0.364574 -0.631489 0.684286 0.000000 1.000000
0.692861 -14.797088 -69.918777 0.000000 0.000000 -1.000000 0.000000 1.000000
0.733605 -14.922532 -69.813255 0.225318 -0.693472 0.684317 0.000000 1.000000
0.234335 -14.894550 -69.918777 0.000000 0.000000 -1.000000 0.000000 1.000000
0.248122 -15.025723 -69.813255 0.076205 -0.725181 0.684317 0.000000 1.000000
-0.234413 -14.894550 -69.918777 0.000000 0.000000 -1.000000 0.000000 1.000000
-0.248200 -15.025723 -69.813255 -0.076174 -0.725181 0.684317 0.000000 1.000000
-0.692939 -14.797088 -69.918777 0.000000 0.000000 -1.000000 0.000000 1.000000
-0.733683 -14.922532 -69.813255 -0.225288 -0.693472 0.684317 0.000000 1.000000
-1.121150 -14.606433 -69.918777 0.000000 0.000000 -1.000000 0.000000 1.000000
-1.187098 -14.720656 -69.813255 -0.364574 -0.631489 0.684317 0.000000 1.000000
-1.500394 -14.330901 -69.918777 0.000000 0.000000 -1.000000 0.000000 1.000000
-1.588641 -14.428921 -69.813255 -0.487930 -0.541856 0.684286 0.000000 1.000000
-1.814060 -13.982548 -69.918777 0.000000 0.000000 -1.000000 0.000000 1.000000
-1.920752 -14.060077 -69.813255 -0.589892 -0.428602 0.684317 0.000000 1.000000
-2.048424 -13.576595 -69.918777 0.000000 0.000000 -1.000000 0.000000 1.000000
-2.168924 -13.630239 -69.813255 -0.666128 -0.296579 0.684317 0.000000 1.000000
-2.193283 -13.130779 -69.918777 0.000000 0.000000 -0.999969 0.000000 1.000000
-2.322295 -13.158206 -69.813255 -0.713248 -0.151585 0.684317 0.000000 1.000000
23.001848 -12.170980 -69.813271 0.000000 0.000000 1.000000 0.000000 1.000000
22.949976 -12.664591 -69.813271 0.000000 0.000000 1.000000 0.000000 1.000000
25.324114 -12.664592 -69.813271 0.000000 0.000000 1.000000 0.000000 1.000000
23.155218 -11.698943 -69.813271 0.000000 0.000000 1.000000 0.000000 1.000000
23.403391 -11.269107 -69.813271 0.000000 0.000000 1.000000 0.000000 1.000000
23.735502 -10.900264 -69.813271 0.000000 0.000000 1.000000 0.000000 1.000000
24.137045 -10.608527 -69.813271 0.000000 0.000000 1.000000 0.000000 1.000000
24.590460 -10.406651 -69.813271 0.000000 0.000000 1.000000 0.000000 1.000000
25.075943 -10.303460 -69.813271 0.000000 0.000000 1.000000 0.000000 1.000000
25.572266 -10.303460 -69.813271 0.000000 0.000000 1.000000 0.000000 1.000000
26.017004 -10.532092 -69.918785 0.000000 0.000000 -1.000000 0.000000 1.000000
25.558477 -10.434632 -69.918785 0.000000 0.000000 -1.000000 0.000000 1.000000
25.586052 -10.172285 -69.918785 0.000000 0.000000 -1.000000 0.000000 1.000000
25.324114 -12.664592 -69.918785 0.000000 0.000000 -1.000000 0.000000 1.000000
26.057749 -10.406651 -69.813271 0.000000 0.000000 1.000000 0.000000 1.000000
26.511183 -10.608527 -69.813271 0.000000 0.000000 1.000000 0.000000 1.000000
26.912704 -10.900264 -69.813271 0.000000 0.000000 0.999969 0.000000 1.000000
27.244818 -11.269108 -69.813271 0.000000 0.000000 1.000000 0.000000 1.000000
27.492987 -11.698943 -69.813271 0.000000 0.000000 1.000000 0.000000 1.000000
27.646360 -12.170981 -69.813271 0.000000 0.000000 0.999969 0.000000 1.000000
27.698252 -12.664592 -69.813271 0.000000 0.000000 1.000000 0.000000 1.000000
27.646360 -13.158202 -69.813271 0.000000 0.000000 1.000000 0.000000 1.000000
27.492987 -13.630239 -69.813271 0.000000 0.000000 0.999969 0.000000 1.000000
27.244816 -14.060077 -69.813271 0.000000 0.000000 0.999969 0.000000 1.000000
26.912704 -14.428920 -69.813271 0.000000 0.000000 0.999969 0.000000 1.000000
26.511183 -14.720655 -69.813271 0.000000 0.000000 1.000000 0.000000 1.000000
26.057749 -14.922532 -69.813271 0.000000 0.000000 1.000000 0.000000 1.000000
25.572264 -15.025723 -69.813271 0.000000 0.000000 1.000000 0.000000 1.000000
25.075941 -15.025723 -69.813271 0.000000 0.000000 1.000000 0.000000 1.000000
24.590460 -14.922530 -69.813271 0.000000 0.000000 1.000000 0.000000 1.000000
24.137045 -14.720654 -69.813271 0.000000 0.000000 1.000000 0.000000 1.000000
23.735502 -14.428920 -69.813271 0.000000 0.000000 1.000000 0.000000 1.000000
23.403391 -14.060075 -69.813271 0.000000 0.000000 1.000000 0.000000 1.000000
23.155218 -13.630239 -69.813271 0.000000 0.000000 1.000000 0.000000 1.000000
23.001848 -13.158204 -69.813271 0.000000 0.000000 1.000000 0.000000 1.000000
-25.324163 -12.664596 -69.918785 0.000000 0.000000 -1.000000 0.000000 1.000000
-23.130928 -12.198408 -69.918785 -0.000031 0.000000 -1.000000 0.000000 1.000000
-23.081921 -12.664596 -69.918785 0.000000 0.000000 -1.000000 0.000000 1.000000
-22.950026 -12.664596 -69.813271 0.000000 0.000000 1.000000 0.000000 1.000000
-23.001917 -12.170985 -69.813271 0.000000 0.000000 0.999969 0.000000 1.000000
-25.324163 -12.664596 -69.813271 0.000000 0.000000 1.000000 0.000000 1.000000
-23.275768 -11.752596 -69.918785 -0.000031 0.000000 -1.000000 0.000000 1.000000
-23.155287 -11.698948 -69.813271 0.000000 0.000000 1.000000 0.000000 1.000000
-23.510172 -11.346640 -69.918785 0.000000 0.000000 -1.000000 0.000000 1.000000
-23.403460 -11.269111 -69.813271 0.000000 0.000000 0.999969 0.000000 1.000000
-23.823839 -10.998285 -69.918785 0.000000 0.000000 -1.000000 0.000000 1.000000
-23.735550 -10.900268 -69.813271 0.000000 0.000000 1.000000 0.000000 1.000000
-24.203041 -10.722755 -69.918785 0.000000 0.000000 -1.000000 0.000000 1.000000
-24.137093 -10.608531 -69.813271 0.000000 0.000000 1.000000 0.000000 1.000000
-24.631292 -10.532096 -69.918785 0.000000 0.000000 -1.000000 0.000000 1.000000
-24.590528 -10.406654 -69.813271 0.000000 0.000000 1.000000 0.000000 1.000000
-25.089798 -10.434636 -69.918785 0.000000 0.000000 -0.999969 0.000000 1.000000
-25.075991 -10.303463 -69.813271 0.000000 0.000000 1.000000 0.000000 1.000000
-25.558569 -10.434636 -69.918785 0.000000 0.000000 -1.000000 0.000000 1.000000
-25.572334 -10.303463 -69.813271 0.000000 0.000000 1.000000 0.000000 1.000000
-26.017073 -10.532096 -69.918785 0.000000 0.000000 -1.000000 0.000000 1.000000
-25.586142 -10.172287 -69.918785 0.000000 0.000000 -1.000000 0.000000 1.000000
-26.057837 -10.406654 -69.813271 0.000000 0.000000 1.000000 0.000000 1.000000
-26.445282 -10.722756 -69.918785 0.000000 0.000000 -1.000000 0.000000 1.000000
-26.511230 -10.608531 -69.813271 0.000000 0.000000 1.000000 0.000000 1.000000
-26.824528 -10.998286 -69.918785 0.000000 0.000000 -1.000000 0.000000 1.000000
-26.912775 -10.900268 -69.813271 0.000000 0.000000 1.000000 0.000000 1.000000
-27.138193 -11.346641 -69.918785 0.000000 0.000000 -1.000000 0.000000 1.000000
-27.244907 -11.269111 -69.813271 0.000000 0.000000 1.000000 0.000000 1.000000
-27.372559 -11.752593 -69.918785 0.000000 0.000000 -1.000000 0.000000 1.000000
-27.493036 -11.698946 -69.813271 0.000000 0.000000 0.999969 0.000000 1.000000
-27.517395 -12.198408 -69.918785 0.000000 0.000000 -0.999969 0.000000 1.000000
-27.646448 -12.170983 -69.813271 0.000000 0.000000 1.000000 0.000000 1.000000
-27.698301 -12.664596 -69.813271 0.000000 0.000000 1.000000 0.000000 1.000000
-27.646448 -13.158206 -69.813271 0.000000 0.000000 1.000000 0.000000 1.000000
-27.493036 -13.630242 -69.813271 0.000000 0.000000 1.000000 0.000000 1.000000
-27.244907 -14.060080 -69.813271 0.000000 0.000000 1.000000 0.000000 1.000000
-26.912775 -14.428924 -69.813271 0.000000 0.000000 1.000000 0.000000 1.000000
-26.511230 -14.720660 -69.813271 0.000000 0.000000 1.000000 0.000000 1.000000
-26.057837 -14.922537 -69.813271 0.000000 0.000000 0.999969 0.000000 1.000000
-25.572334 -15.025727 -69.813271 0.000000 0.000000 0.999969 0.000000 1.000000
-25.075991 -15.025727 -69.813271 0.000000 0.000000 0.999969 0.000000 1.000000
-24.590528 -14.922537 -69.813271 0.000000 0.000000 1.000000 0.000000 1.000000
-24.137093 -14.720660 -69.813271 0.000000 0.000000 1.000000 0.000000 1.000000
-23.735550 -14.428924 -69.813271 0.000000 0.000000 1.000000 0.000000 1.000000
-23.510172 -13.982553 -69.918785 0.000000 0.000000 -1.000000 0.000000 1.000000
-23.823839 -14.330906 -69.918785 0.000000 0.000000 -1.000000 0.000000 1.000000
-23.403460 -14.060080 -69.813271 0.000000 0.000000 1.000000 0.000000 1.000000
-23.275768 -13.576595 -69.918800 0.000000 0.000000 -0.999969 0.000000 1.000000
-23.155289 -13.630242 -69.813286 0.000000 0.000000 1.000000 0.000000 1.000000
-23.130928 -13.130782 -69.918800 0.000000 0.000000 -1.000000 0.000000 1.000000
-23.001917 -13.158209 -69.813286 0.000000 0.000000 1.000000 0.000000 1.000000
2.027386 -14.137601 -69.918777 0.000000 0.000000 -0.999969 0.000000 1.000000
2.451228 -13.185627 -69.918777 0.000000 0.000000 -1.000000 0.000000 1.000000
2.289346 -13.683887 -69.918777 0.000000 0.000000 -0.999969 0.000000 1.000000
2.506006 -12.664592 -69.918777 0.000000 0.000000 -1.000000 0.000000 1.000000
1.676830 -14.526937 -69.918777 0.000000 0.000000 -1.000000 0.000000 1.000000
1.252989 -14.834883 -69.918777 0.000000 0.000000 -1.000000 0.000000 1.000000
2.451228 -12.143559 -69.918777 0.000000 0.000000 -0.999969 0.000000 1.000000
2.193205 -12.198404 -69.918777 0.000000 0.000000 -1.000000 0.000000 1.000000
2.289346 -11.645297 -69.918777 0.000000 0.000000 -0.999969 0.000000 1.000000
0.774369 -15.047973 -69.918777 0.000000 0.000000 -1.000000 0.000000 1.000000
2.048346 -11.752589 -69.918777 -0.098514 0.000000 -0.995117 0.000000 1.000000
2.027387 -11.191583 -69.918777 0.000000 0.000000 -1.000000 0.000000 1.000000
0.261910 -15.156899 -69.918777 0.000000 0.000000 -1.000000 0.000000 1.000000
1.813982 -11.346637 -69.918777 0.000000 0.000000 -1.000000 0.000000 1.000000
1.676830 -10.802245 -69.918777 0.000000 0.000000 -1.000000 0.000000 1.000000
-0.261988 -15.156899 -69.918777 0.000000 0.000000 -1.000000 0.000000 1.000000
1.500315 -10.998282 -69.918777 0.000000 0.000000 -1.000000 0.000000 1.000000
1.252989 -10.494304 -69.918777 0.000000 0.000000 -1.000000 0.000000 1.000000
-0.774447 -15.047973 -69.918777 0.000000 0.000000 -1.000000 0.000000 1.000000
1.121092 -10.722752 -69.918777 -0.643269 0.000000 -0.765618 0.000000 1.000000
0.774369 -10.281211 -69.918777 0.000000 0.000000 -1.000000 0.000000 1.000000
-1.253046 -14.834883 -69.918777 0.000000 0.000000 -0.999969 0.000000 1.000000
-1.676908 -14.526937 -69.918777 0.000000 0.000000 -1.000000 0.000000 1.000000
-0.234413 -10.434633 -69.918777 0.000000 0.000000 -1.000000 0.000000 1.000000
-0.261988 -10.172285 -69.918777 0.000000 0.000000 -1.000000 0.000000 1.000000
-2.027465 -14.137601 -69.918777 0.000000 0.000000 -0.999969 0.000000 1.000000
-0.692939 -10.532096 -69.918777 0.000000 0.000000 -1.000000 0.000000 1.000000
-0.774447 -10.281211 -69.918777 0.000000 0.000000 -1.000000 0.000000 1.000000
-2.289424 -13.683887 -69.918777 0.000000 0.000000 -1.000000 0.000000 1.000000
-1.121150 -10.722754 -69.918777 0.000000 0.000000 -1.000000 0.000000 1.000000
-1.253046 -10.494304 -69.918777 0.000000 0.000000 -0.999969 0.000000 1.000000
-2.451306 -13.185627 -69.918777 0.000000 0.000000 -1.000000 0.000000 1.000000
-1.500394 -10.998282 -69.918777 0.000214 0.000000 -0.999969 0.000000 1.000000
-2.242270 -12.664592 -69.918777 -0.000183 0.000000 -1.000000 0.000000 1.000000
-2.193283 -12.198404 -69.918777 0.000061 0.000000 -1.000000 0.000000 1.000000
-1.814060 -11.346636 -69.918777 0.000000 0.000000 -1.000000 0.000000 1.000000
-2.506064 -12.664592 -69.918777 0.000000 0.000000 -1.000000 0.000000 1.000000
-2.048424 -11.752591 -69.918777 0.000000 0.000000 -1.000000 0.000000 1.000000
-1.676908 -10.802245 -69.918777 0.000000 0.000000 -0.999969 0.000000 1.000000
-2.451306 -12.143559 -69.918777 0.000000 0.000000 -1.000000 0.000000 1.000000
-2.027465 -11.191583 -69.918777 0.000000 0.000000 -1.000000 0.000000 1.000000
-2.289424 -11.645297 -69.918777 0.000000 0.000000 -1.000000 0.000000 1.000000
27.613489 -13.683887 -69.918785 0.000000 0.000000 -1.000000 0.000000 1.000000
27.351530 -14.137601 -69.918785 0.000000 0.000000 -1.000000 0.000000 1.000000
27.775370 -13.185626 -69.918785 0.000000 0.000000 -1.000000 0.000000 1.000000
27.000975 -14.526937 -69.918785 0.000000 0.000000 -1.000000 0.000000 1.000000
27.830149 -12.664592 -69.918785 0.000000 0.000000 -1.000000 0.000000 1.000000
27.372488 -13.576595 -69.918785 -0.000061 0.000000 -1.000000 0.000000 1.000000
27.138126 -13.982547 -69.918785 0.000000 0.000000 -1.000000 0.000000 1.000000
27.517349 -13.130779 -69.918785 0.000000 0.000000 -0.999969 0.000000 1.000000
27.566355 -12.664592 -69.918785 0.000000 0.000000 -1.000000 0.000000 1.000000
26.824457 -14.330901 -69.918785 0.000122 0.000000 -1.000000 0.000000 1.000000
26.577131 -14.834883 -69.918785 0.000000 0.000000 -1.000000 0.000000 1.000000
27.775370 -12.143559 -69.918785 0.000000 0.000000 -1.000000 0.000000 1.000000
26.445236 -14.606429 -69.918785 0.000000 0.000000 -1.000000 0.000000 1.000000
27.517349 -12.198404 -69.918785 0.000000 0.000000 -1.000000 0.000000 1.000000
27.613489 -11.645296 -69.918785 0.000000 0.000000 -0.999969 0.000000 1.000000
26.098511 -15.047973 -69.918785 0.000000 0.000000 -1.000000 0.000000 1.000000
26.017004 -14.797088 -69.918785 0.000000 0.000000 -1.000000 0.000000 1.000000
27.372488 -11.752588 -69.918785 0.000000 0.000000 -1.000000 0.000000 1.000000
27.351530 -11.191583 -69.918785 0.000000 0.000000 -1.000000 0.000000 1.000000
25.586052 -15.156898 -69.918785 0.000000 0.000000 -1.000000 0.000000 1.000000
27.138126 -11.346636 -69.918785 0.000000 0.000000 -1.000000 0.000000 1.000000
25.558477 -14.894549 -69.918785 0.000000 0.000000 -0.999969 0.000000 1.000000
27.000975 -10.802245 -69.918785 0.000000 0.000000 -1.000000 0.000000 1.000000
25.062155 -15.156898 -69.918785 0.000000 0.000000 -1.000000 0.000000 1.000000
26.824457 -10.998281 -69.918785 0.000000 0.000000 -0.999969 0.000000 1.000000
25.089729 -14.894549 -69.918785 0.000000 0.000000 -1.000000 0.000000 1.000000
26.577131 -10.494303 -69.918785 0.000000 0.000000 -1.000000 0.000000 1.000000
24.549696 -15.047973 -69.918785 0.000000 0.000000 -1.000000 0.000000 1.000000
26.445236 -10.722752 -69.918785 0.000183 0.000000 -1.000000 0.000000 1.000000
24.631203 -14.797088 -69.918785 -0.000214 0.000000 -1.000000 0.000000 1.000000
26.098511 -10.281211 -69.918785 0.000000 0.000000 -1.000000 0.000000 1.000000
24.071096 -14.834883 -69.918785 0.000000 0.000000 -1.000000 0.000000 1.000000
24.202993 -14.606431 -69.918785 0.806116 0.000000 -0.591754 0.000000 1.000000
23.823750 -14.330901 -69.918785 0.000000 0.000000 -1.000000 0.000000 1.000000
23.647234 -14.526937 -69.918785 0.000000 0.000000 -1.000000 0.000000 1.000000
25.089729 -10.434632 -69.918785 0.000000 0.000000 -1.000000 0.000000 1.000000
23.510084 -13.982547 -69.918785 0.000000 0.000000 -1.000000 0.000000 1.000000
25.062155 -10.172285 -69.918785 0.000000 0.000000 -1.000000 0.000000 1.000000
23.296679 -14.137601 -69.918785 0.000000 0.000000 -1.000000 0.000000 1.000000
24.631205 -10.532094 -69.918785 0.000000 0.000000 -1.000000 0.000000 1.000000
23.275719 -13.576594 -69.918785 0.000000 0.000000 -1.000000 0.000000 1.000000
24.549696 -10.281211 -69.918785 0.000000 0.000000 -1.000000 0.000000 1.000000
23.034719 -13.683887 -69.918785 0.000000 0.000000 -1.000000 0.000000 1.000000
24.202993 -10.722754 -69.918785 0.000000 0.000000 -1.000000 0.000000 1.000000
23.130859 -13.130779 -69.918785 0.000000 0.000000 -1.000000 0.000000 1.000000
24.071096 -10.494303 -69.918785 0.000000 0.000000 -0.999969 0.000000 1.000000
22.872837 -13.185626 -69.918785 0.000000 0.000000 -1.000000 0.000000 1.000000
23.823750 -10.998281 -69.918785 0.000000 0.000000 -1.000000 0.000000 1.000000
23.081873 -12.664592 -69.918785 0.000000 0.000000 -1.000000 0.000000 1.000000
23.130859 -12.198404 -69.918785 0.000031 0.000000 -1.000000 0.000000 1.000000
23.510084 -11.346635 -69.918785 0.000000 0.000000 -1.000000 0.000000 1.000000
22.818079 -12.664592 -69.918785 0.000000 0.000000 -1.000000 0.000000 1.000000
23.275719 -11.752591 -69.918785 0.000000 0.000000 -0.999969 0.000000 1.000000
23.647236 -10.802245 -69.918785 0.000000 0.000000 -1.000000 0.000000 1.000000
22.872837 -12.143559 -69.918785 0.000000 0.000000 -1.000000 0.000000 1.000000
23.296679 -11.191582 -69.918785 0.000000 0.000000 -1.000000 0.000000 1.000000
23.034719 -11.645296 -69.918785 0.000000 0.000000 -1.000000 0.000000 1.000000
-27.775461 -13.185629 -69.918785 0.000000 0.000000 -1.000000 0.000000 1.000000
-27.351618 -14.137605 -69.918785 0.000000 0.000000 -1.000000 0.000000 1.000000
-27.613556 -13.683890 -69.918785 0.000183 0.000000 -1.000000 0.000000 1.000000
-27.001022 -14.526942 -69.918785 0.000000 0.000000 -0.999969 0.000000 1.000000
-27.830198 -12.664596 -69.918785 0.000000 0.000000 -1.000000 0.000000 1.000000
-27.372559 -13.576595 -69.918785 -0.000031 0.000000 -0.999969 0.000000 1.000000
-27.138193 -13.982553 -69.918785 0.000000 0.000000 -0.999969 0.000000 1.000000
-27.517395 -13.130782 -69.918785 0.000000 0.000000 -1.000000 0.000000 1.000000
-27.566404 -12.664596 -69.918785 0.000000 0.000000 -1.000000 0.000000 1.000000
-26.824528 -14.330906 -69.918785 0.000061 0.000000 -1.000000 0.000000 1.000000
-26.577179 -14.834884 -69.918785 0.000000 0.000000 -1.000000 0.000000 1.000000
-27.775461 -12.143560 -69.918785 0.000000 0.000000 -1.000000 0.000000 1.000000
-26.445282 -14.606433 -69.918785 0.000000 0.000000 -1.000000 0.000000 1.000000
-26.098602 -15.047976 -69.918785 0.000000 0.000000 -1.000000 0.000000 1.000000
-27.613556 -11.645301 -69.918785 0.000000 0.000000 -1.000000 0.000000 1.000000
-26.017073 -14.797092 -69.918785 -0.166570 0.000000 -0.986023 0.000000 1.000000
-25.586142 -15.156902 -69.918785 0.000000 0.000000 -0.999969 0.000000 1.000000
-27.351618 -11.191587 -69.918785 0.000000 0.000000 -1.000000 0.000000 1.000000
-25.558569 -14.894555 -69.918785 0.000000 0.000000 -1.000000 0.000000 1.000000
-25.062223 -15.156902 -69.918785 0.000000 0.000000 -1.000000 0.000000 1.000000
-27.001022 -10.802250 -69.918785 0.000000 0.000000 -1.000000 0.000000 1.000000
-25.089798 -14.894555 -69.918785 0.000000 0.000000 -1.000000 0.000000 1.000000
-24.549765 -15.047976 -69.918785 0.000000 0.000000 -1.000000 0.000000 1.000000
-26.577179 -10.494308 -69.918785 0.000000 0.000000 -1.000000 0.000000 1.000000
-24.631292 -14.797092 -69.918785 0.000000 0.000000 -1.000000 0.000000 1.000000
-24.203041 -14.606436 -69.918785 0.000000 0.000000 -1.000000 0.000000 1.000000
-24.071144 -14.834888 -69.918785 0.000000 0.000000 -1.000000 0.000000 1.000000
-26.098560 -10.281214 -69.918785 0.000000 0.000000 -1.000000 0.000000 1.000000
-23.647305 -14.526942 -69.918785 0.000000 0.000000 -1.000000 0.000000 1.000000
-23.296747 -14.137605 -69.918785 0.000000 0.000000 -1.000000 0.000000 1.000000
-25.062223 -10.172287 -69.918785 0.000000 0.000000 -1.000000 0.000000 1.000000
-23.034809 -13.683890 -69.918800 0.000000 0.000000 -0.999969 0.000000 1.000000
-24.549765 -10.281214 -69.918785 0.000000 0.000000 -1.000000 0.000000 1.000000
-22.872906 -13.185632 -69.918800 0.000000 0.000000 -1.000000 0.000000 1.000000
-24.071144 -10.494307 -69.918785 0.000000 0.000000 -1.000000 0.000000 1.000000
-22.818129 -12.664596 -69.918785 0.000000 0.000000 -1.000000 0.000000 1.000000
-23.647305 -10.802250 -69.918785 0.000000 0.000000 -0.999969 0.000000 1.000000
-22.872906 -12.143563 -69.918785 0.000031 0.000000 -1.000000 0.000000 1.000000
-23.296747 -11.191586 -69.918785 -0.000061 0.000000 -1.000000 0.000000 1.000000
-23.034809 -11.645300 -69.918785 0.000000 0.000000 -1.000000 0.000000 1.000000
-2.374167 -12.664592 -69.918777 -1.000000 0.000000 0.000000 0.000000 1.000000
-2.322295 -12.170981 -69.918777 -0.978149 0.207862 0.000000 0.000000 1.000000
-2.168924 -11.698944 -69.918777 -0.913511 0.406720 0.000000 0.000000 1.000000
-1.920752 -11.269108 -69.918777 -0.808985 0.587786 0.000000 0.000000 1.000000
-1.588641 -10.900264 -69.918777 -0.669118 0.743126 0.000000 0.000000 1.000000
-1.187098 -10.608527 -69.918777 -0.499985 0.865993 0.000000 0.000000 1.000000
-0.733683 -10.406651 -69.918777 -0.309030 0.951048 0.000000 0.000000 1.000000
-0.248200 -10.303460 -69.918777 -0.104526 0.994507 0.000000 0.000000 1.000000
1.187040 -10.608527 -69.918777 0.499985 0.865993 0.000000 0.000000 1.000000
1.588562 -10.900264 -69.918777 0.669118 0.743126 0.000000 0.000000 1.000000
1.920674 -11.269108 -69.918777 0.809015 0.587756 0.000000 0.000000 1.000000
2.168847 -11.698941 -69.918777 0.913541 0.406720 0.000000 0.000000 1.000000
2.322217 -12.170981 -69.918777 0.978118 0.207892 0.000000 0.000000 1.000000
2.374110 -12.664592 -69.918777 1.000000 0.000000 0.000000 0.000000 1.000000
2.322217 -13.158202 -69.918777 0.978118 -0.207892 0.000000 0.000000 1.000000
2.168846 -13.630239 -69.918777 0.913541 -0.406720 0.000000 0.000000 1.000000
1.920674 -14.060077 -69.918777 0.808985 -0.587786 0.000000 0.000000 1.000000
1.588562 -14.428921 -69.918777 0.669118 -0.743126 0.000000 0.000000 1.000000
1.187040 -14.720656 -69.918777 0.499985 -0.865993 0.000000 0.000000 1.000000
0.733605 -14.922532 -69.918777 0.309000 -0.951048 0.000000 0.000000 1.000000
0.248122 -15.025723 -69.918777 0.104526 -0.994507 0.000000 0.000000 1.000000
-0.248200 -15.025723 -69.918777 -0.104495 -0.994507 0.000000 0.000000 1.000000
-0.733683 -14.922532 -69.918777 -0.309000 -0.951048 0.000000 0.000000 1.000000
-1.187098 -14.720656 -69.918777 -0.499985 -0.866024 0.000000 0.000000 1.000000
-1.588641 -14.428920 -69.918777 -0.669149 -0.743126 0.000000 0.000000 1.000000
-1.920752 -14.060077 -69.918777 -0.808985 -0.587786 0.000000 0.000000 1.000000
-2.168924 -13.630239 -69.918777 -0.913541 -0.406720 0.000000 0.000000 1.000000
-2.322295 -13.158204 -69.918777 -0.978149 -0.207892 0.000000 0.000000 1.000000
3 0 1 2
3 3 0 2
3 4 3 2
3 5 4 2
3 6 5 2
3 7 6 2
3 8 7 2
3 9 8 2
3 10 11 12
3 10 13 11
3 14 9 2
3 15 16 9
3 14 15 9
3 17 14 2
3 18 17 2
3 19 18 2
3 20 19 2
3 21 20 2
3 22 21 2
3 23 13 24
3 25 22 2
3 26 13 23
3 27 25 2
3 28 13 26
3 29 27 2
3 30 13 28
3 31 29 2
3 32 13 30
3 33 31 2
3 34 13 32
3 35 33 2
3 36 13 34
3 37 35 2
3 38 13 36
3 39 37 2
3 40 13 38
3 41 39 2
3 42 13 40
3 43 41 2
3 44 13 42
3 45 43 2
3 46 13 44
3 47 45 2
3 48 13 46
3 49 47 2
3 50 13 48
3 51 49 2
3 1 51 2
3 52 53 54
3 55 52 54
3 56 55 54
3 57 56 54
3 58 57 54
3 59 58 54
3 60 59 54
3 61 60 54
3 62 63 64
3 62 65 63
3 66 61 54
3 67 66 54
3 68 67 54
3 69 68 54
3 70 69 54
3 71 70 54
3 72 71 54
3 73 72 54
3 74 73 54
3 75 74 54
3 76 75 54
3 77 76 54
3 78 77 54
3 79 78 54
3 80 79 54
3 81 80 54
3 82 81 54
3 83 82 54
3 84 83 54
3 85 84 54
3 86 85 54
3 53 86 54
3 87 88 89
3 90 91 92
3 87 93 88
3 91 94 92
3 87 95 93
3 94 96 92
3 87 97 95
3 96 98 92
3 87 99 97
3 98 100 92
3 87 101 99
3 100 102 92
3 87 103 101
3 102 104 92
3 87 105 103
3 104 106 92
3 105 107 108
3 87 107 105
3 106 109 92
3 87 110 107
3 109 111 92
3 87 112 110
3 111 113 92
3 87 114 112
3 113 115 92
3 87 116 114
3 115 117 92
3 87 118 116
3 117 119 92
3 119 120 92
3 120 121 92
3 121 122 92
3 122 123 92
3 123 124 92
3 124 125 92
3 125 126 92
3 126 127 92
3 127 128 92
3 128 129 92
3 129 130 92
3 130 131 92
3 87 132 133
3 131 134 92
3 87 135 132
3 134 136 92
3 87 137 135
3 136 138 92
3 87 89 137
3 138 90 92
3 139 140 141
3 140 139 142
3 143 142 139
3 142 143 26
3 26 143 28
3 23 142 26
3 144 28 143
3 144 30 28
3 142 23 145
3 23 24 145
3 146 145 24
3 30 144 32
3 145 146 147
3 148 32 144
3 32 148 34
3 147 149 150
3 151 34 148
3 152 150 149
3 34 151 36
3 150 152 153
3 154 36 151
3 36 154 38
3 153 155 156
3 157 38 154
3 38 157 40
3 13 146 24
3 13 147 146
3 13 149 147
3 13 152 149
3 13 153 152
3 13 155 153
3 13 156 155
3 13 158 156
3 10 158 13
3 156 158 159
3 158 10 159
3 160 40 157
3 160 42 40
3 42 160 44
3 12 159 10
3 161 44 160
3 44 161 46
3 12 162 163
3 164 46 161
3 46 164 48
3 163 165 166
3 167 48 164
3 48 167 50
3 50 12 13
3 50 162 12
3 50 163 162
3 50 165 163
3 50 166 165
3 50 168 166
3 166 168 169
3 168 50 169
3 170 50 167
3 170 169 50
3 169 170 171
3 170 172 171
3 173 171 172
3 171 173 174
3 175 172 170
3 175 173 172
3 175 174 173
3 175 176 174
3 169 171 177
3 171 174 177
3 174 176 177
3 176 175 177
3 178 177 175
3 177 178 179
3 180 179 178
3 181 182 183
3 184 183 182
3 184 185 183
3 185 184 186
3 187 186 184
3 185 186 188
3 186 187 188
3 189 188 190
3 191 187 184
3 191 188 187
3 191 190 188
3 185 188 192
3 188 189 192
3 189 190 192
3 190 191 192
3 193 192 191
3 193 194 192
3 192 194 195
3 194 193 195
3 196 193 191
3 196 195 193
3 197 195 196
3 198 195 197
3 195 198 199
3 200 197 196
3 200 198 197
3 200 199 198
3 199 200 201
3 202 201 200
3 199 201 203
3 201 202 203
3 204 202 200
3 204 203 202
3 203 204 205
3 206 205 204
3 203 205 207
3 205 206 207
3 208 206 204
3 208 207 206
3 207 208 209
3 210 209 208
3 65 209 210
3 62 209 65
3 207 209 211
3 209 62 211
3 212 210 208
3 212 65 210
3 212 213 65
3 64 211 62
3 65 213 64
3 213 212 64
3 212 214 64
3 215 214 212
3 215 64 214
3 64 215 216
3 217 216 215
3 64 216 218
3 216 217 218
3 219 217 215
3 219 218 217
3 218 219 220
3 221 220 219
3 218 220 222
3 220 221 222
3 223 221 219
3 223 222 221
3 222 223 224
3 225 224 223
3 222 224 226
3 224 225 226
3 227 225 223
3 227 226 225
3 226 227 228
3 227 229 228
3 230 228 229
3 228 230 231
3 232 229 227
3 232 230 229
3 232 231 230
3 232 233 231
3 226 228 234
3 228 231 234
3 231 233 234
3 233 232 234
3 235 234 232
3 234 235 236
3 237 236 235
3 238 239 240
3 239 238 241
3 242 241 238
3 243 241 242
3 241 243 244
3 245 243 242
3 245 244 243
3 246 247 245
3 241 244 248
3 244 245 248
3 245 247 248
3 247 246 248
3 249 245 242
3 249 246 245
3 249 248 246
3 248 249 250
3 118 250 249
3 248 250 251
3 250 118 251
3 252 118 249
3 118 252 116
3 251 253 254
3 255 116 252
3 256 254 253
3 116 255 114
3 254 256 257
3 258 114 255
3 259 257 256
3 114 258 112
3 257 259 260
3 261 112 258
3 260 259 262
3 112 261 110
3 87 251 118
3 87 253 251
3 87 256 253
3 87 259 256
3 87 262 259
3 263 262 87
3 260 262 264
3 262 263 264
3 265 110 261
3 265 107 110
3 133 263 87
3 133 264 263
3 264 133 266
3 108 107 265
3 132 266 133
3 105 108 103
3 266 132 267
3 268 103 108
3 135 267 132
3 103 268 101
3 267 135 269
3 270 101 268
3 137 269 135
3 101 270 99
3 269 137 271
3 272 99 270
3 89 271 137
3 99 272 97
3 271 89 273
3 89 88 273
3 88 93 273
3 274 97 272
3 274 95 97
3 274 93 95
3 274 273 93
3 273 274 275
3 276 275 274
3 277 275 276
3 278 1 0
3 0 279 278
3 279 0 3
3 3 280 279
3 280 3 4
3 4 281 280
3 281 4 5
3 5 282 281
3 282 5 6
3 6 283 282
3 283 6 7
3 7 284 283
3 284 7 8
3 8 285 284
3 285 8 9
3 9 16 285
3 15 14 17
3 17 286 15
3 286 17 18
3 18 287 286
3 287 18 19
3 19 288 287
3 288 19 20
3 20 289 288
3 289 20 21
3 21 290 289
3 290 21 22
3 22 291 290
3 291 22 25
3 25 292 291
3 292 25 27
3 27 293 292
3 293 27 29
3 29 294 293
3 294 29 31
3 31 295 294
3 295 31 33
3 33 296 295
3 296 33 35
3 35 297 296
3 297 35 37
3 37 298 297
3 298 37 39
3 39 299 298
3 299 39 41
3 41 300 299
3 300 41 43
3 43 301 300
3 301 43 45
3 45 302 301
3 302 45 47
3 47 303 302
3 303 47 49
3 49 304 303
3 304 49 51
3 51 305 304
3 305 51 1
3 1 278 305
