ply
format ascii 1.0
comment Created by Blender 2.93.5 - www.blender.org
element vertex 12
property float x
property float y
property float z
property float nx
property float ny
property float nz
property float s
property float t
element face 6
property list uchar uint vertex_indices
end_header
16.514864 0.615190 -25.043600 0.717063 -0.000458 0.696982 2.568844 0.381894
0.000010 3.638240 -22.704990 0.136937 -0.018036 0.990387 0.500003 0.759775
0.000010 -7.346453 -22.905306 0.141850 -0.028535 0.989471 0.500003 -0.613311
16.890192 -7.122579 -25.540071 0.766015 -0.004059 0.642781 2.615862 -0.585327
16.890192 -4.004166 -70.858025 0.777429 0.078341 -0.624043 1.024649 -0.195525
16.514864 0.615190 -25.043600 0.717063 -0.000458 0.696982 -4.702153 0.381894
16.890192 -7.122579 -25.540071 0.766015 -0.004059 0.642781 -4.640094 -0.585327
16.514843 3.731197 -70.361534 0.732383 0.078921 -0.676290 0.962588 0.771396
0.000010 6.998204 -73.292473 0.189184 0.073794 -0.979156 0.500003 1.179772
16.514843 3.731197 -70.361534 0.732383 0.078921 -0.676290 2.568841 0.771396
16.890192 -4.004166 -70.858025 0.777429 0.078341 -0.624043 2.615862 -0.195525
0.000010 -3.944488 -74.125122 0.189611 0.074496 -0.979003 0.500003 -0.188065
3 0 1 2
3 2 3 0
3 4 5 6
3 7 5 4
3 8 9 10
3 11 8 10
