ply
format ascii 1.0
comment Created by Blender 2.93.5 - www.blender.org
element vertex 96
property float x
property float y
property float z
property float nx
property float ny
property float nz
property float s
property float t
element face 48
property list uchar uint vertex_indices
end_header
0.000000 0.100000 0.100000 -0.000000 1.000000 0.000000 0.875000 0.500000
-10.000000 0.100000 -0.100000 -0.000000 1.000000 0.000000 0.625000 0.750000
-10.000000 0.100000 0.100000 -0.000000 1.000000 0.000000 0.625000 0.500000
-10.000000 0.100000 -0.100000 0.000000 0.000000 -1.000000 0.625000 0.750000
0.000000 -0.100000 -0.100000 0.000000 0.000000 -1.000000 0.375000 1.000000
-10.000000 -0.100000 -0.100000 0.000000 0.000000 -1.000000 0.375000 0.750000
0.000000 0.100000 -0.100000 1.000000 -0.000000 0.000000 0.625000 0.000000
0.000000 -0.100000 0.100000 1.000000 -0.000000 0.000000 0.375000 0.250000
0.000000 -0.100000 -0.100000 1.000000 -0.000000 0.000000 0.375000 0.000000
-10.000000 -0.100000 0.100000 -0.000000 -1.000000 -0.000000 0.375000 0.500000
0.000000 -0.100000 -0.100000 -0.000000 -1.000000 -0.000000 0.125000 0.750000
0.000000 -0.100000 0.100000 -0.000000 -1.000000 -0.000000 0.125000 0.500000
-10.000000 0.100000 0.100000 -1.000000 0.000000 0.000000 0.625000 0.500000
-10.000000 -0.100000 -0.100000 -1.000000 0.000000 0.000000 0.375000 0.750000
-10.000000 -0.100000 0.100000 -1.000000 0.000000 0.000000 0.375000 0.500000
0.000000 0.100000 0.100000 0.000000 -0.000000 1.000000 0.625000 0.250000
-10.000000 -0.100000 0.100000 0.000000 -0.000000 1.000000 0.375000 0.500000
0.000000 -0.100000 0.100000 0.000000 -0.000000 1.000000 0.375000 0.250000
0.000000 0.100000 -0.100000 0.000000 1.000000 0.000000 0.875000 0.750000
0.000000 0.100000 -0.100000 0.000000 0.000000 -1.000000 0.625000 1.000000
0.000000 0.100000 0.100000 1.000000 -0.000000 0.000000 0.625000 0.250000
-10.000000 -0.100000 -0.100000 0.000000 -1.000000 0.000000 0.375000 0.750000
-10.000000 0.100000 -0.100000 -1.000000 0.000000 0.000000 0.625000 0.750000
-10.000000 0.100000 0.100000 0.000000 0.000000 1.000000 0.625000 0.500000
0.000000 0.100000 10.100000 -0.000000 1.000000 0.000000 0.875000 0.500000
-10.000000 0.100000 9.900000 -0.000000 1.000000 0.000000 0.625000 0.750000
-10.000000 0.100000 10.100000 -0.000000 1.000000 0.000000 0.625000 0.500000
-10.000000 0.100000 9.900000 0.000000 0.000000 -1.000000 0.625000 0.750000
0.000000 -0.100000 9.900000 0.000000 0.000000 -1.000000 0.375000 1.000000
-10.000000 -0.100000 9.900000 0.000000 0.000000 -1.000000 0.375000 0.750000
0.000000 0.100000 9.900000 1.000000 -0.000000 0.000000 0.625000 0.000000
0.000000 -0.100000 10.100000 1.000000 -0.000000 0.000000 0.375000 0.250000
0.000000 -0.100000 9.900000 1.000000 -0.000000 0.000000 0.375000 0.000000
-10.000000 -0.100000 10.100000 -0.000000 -1.000000 -0.000000 0.375000 0.500000
0.000000 -0.100000 9.900000 -0.000000 -1.000000 -0.000000 0.125000 0.750000
0.000000 -0.100000 10.100000 -0.000000 -1.000000 -0.000000 0.125000 0.500000
-10.000000 0.100000 10.100000 -1.000000 0.000000 0.000000 0.625000 0.500000
-10.000000 -0.100000 9.900000 -1.000000 0.000000 0.000000 0.375000 0.750000
-10.000000 -0.100000 10.100000 -1.000000 0.000000 0.000000 0.375000 0.500000
0.000000 0.100000 10.100000 0.000000 -0.000000 1.000000 0.625000 0.250000
-10.000000 -0.100000 10.100000 0.000000 -0.000000 1.000000 0.375000 0.500000
0.000000 -0.100000 10.100000 0.000000 -0.000000 1.000000 0.375000 0.250000
0.000000 0.100000 9.900000 0.000000 1.000000 0.000000 0.875000 0.750000
0.000000 0.100000 9.900000 0.000000 0.000000 -1.000000 0.625000 1.000000
0.000000 0.100000 10.100000 1.000000 -0.000000 0.000000 0.625000 0.250000
-10.000000 -0.100000 9.900000 0.000000 -1.000000 0.000000 0.375000 0.750000
-10.000000 0.100000 9.900000 -1.000000 0.000000 0.000000 0.625000 0.750000
-10.000000 0.100000 10.100000 0.000000 0.000000 1.000000 0.625000 0.500000
0.000000 10.100000 0.100000 -0.000000 1.000000 0.000000 0.875000 0.500000
-10.000000 10.100000 -0.100000 -0.000000 1.000000 0.000000 0.625000 0.750000
-10.000000 10.100000 0.100000 -0.000000 1.000000 0.000000 0.625000 0.500000
-10.000000 10.100000 -0.100000 0.000000 0.000000 -1.000000 0.625000 0.750000
0.000000 9.900000 -0.100000 0.000000 0.000000 -1.000000 0.375000 1.000000
-10.000000 9.900000 -0.100000 0.000000 0.000000 -1.000000 0.375000 0.750000
0.000000 10.100000 -0.100000 1.000000 -0.000000 0.000000 0.625000 0.000000
0.000000 9.900000 0.100000 1.000000 -0.000000 0.000000 0.375000 0.250000
0.000000 9.900000 -0.100000 1.000000 -0.000000 0.000000 0.375000 0.000000
-10.000000 9.900000 0.100000 -0.000000 -1.000000 -0.000000 0.375000 0.500000
0.000000 9.900000 -0.100000 -0.000000 -1.000000 -0.000000 0.125000 0.750000
0.000000 9.900000 0.100000 -0.000000 -1.000000 -0.000000 0.125000 0.500000
-10.000000 10.100000 0.100000 -1.000000 0.000000 0.000000 0.625000 0.500000
-10.000000 9.900000 -0.100000 -1.000000 0.000000 0.000000 0.375000 0.750000
-10.000000 9.900000 0.100000 -1.000000 0.000000 0.000000 0.375000 0.500000
0.000000 10.100000 0.100000 0.000000 -0.000000 1.000000 0.625000 0.250000
-10.000000 9.900000 0.100000 0.000000 -0.000000 1.000000 0.375000 0.500000
0.000000 9.900000 0.100000 0.000000 -0.000000 1.000000 0.375000 0.250000
0.000000 10.100000 -0.100000 0.000000 1.000000 0.000000 0.875000 0.750000
0.000000 10.100000 -0.100000 0.000000 0.000000 -1.000000 0.625000 1.000000
0.000000 10.100000 0.100000 1.000000 -0.000000 0.000000 0.625000 0.250000
-10.000000 9.900000 -0.100000 0.000000 -1.000000 0.000000 0.375000 0.750000
-10.000000 10.100000 -0.100000 -1.000000 0.000000 0.000000 0.625000 0.750000
-10.000000 10.100000 0.100000 0.000000 0.000000 1.000000 0.625000 0.500000
0.000000 10.100000 10.100000 -0.000000 1.000000 0.000000 0.875000 0.500000
-10.000000 10.100000 9.900000 -0.000000 1.000000 0.000000 0.625000 0.750000
-10.000000 10.100000 10.100000 -0.000000 1.000000 0.000000 0.625000 0.500000
-10.000000 10.100000 9.900000 0.000000 0.000000 -1.000000 0.625000 0.750000
0.000000 9.900000 9.900000 0.000000 0.000000 -1.000000 0.375000 1.000000
-10.000000 9.900000 9.900000 0.000000 0.000000 -1.000000 0.375000 0.750000
0.000000 10.100000 9.900000 1.000000 -0.000000 0.000000 0.625000 0.000000
0.000000 9.900000 10.100000 1.000000 -0.000000 0.000000 0.375000 0.250000
0.000000 9.900000 9.900000 1.000000 -0.000000 0.000000 0.375000 0.000000
-10.000000 9.900000 10.100000 -0.000000 -1.000000 -0.000000 0.375000 0.500000
0.000000 9.900000 9.900000 -0.000000 -1.000000 -0.000000 0.125000 0.750000
0.000000 9.900000 10.100000 -0.000000 -1.000000 -0.000000 0.125000 0.500000
-10.000000 10.100000 10.100000 -1.000000 0.000000 0.000000 0.625000 0.500000
-10.000000 9.900000 9.900000 -1.000000 0.000000 0.000000 0.375000 0.750000
-10.000000 9.900000 10.100000 -1.000000 0.000000 0.000000 0.375000 0.500000
0.000000 10.100000 10.100000 0.000000 -0.000000 1.000000 0.625000 0.250000
-10.000000 9.900000 10.100000 0.000000 -0.000000 1.000000 0.375000 0.500000
0.000000 9.900000 10.100000 0.000000 -0.000000 1.000000 0.375000 0.250000
0.000000 10.100000 9.900000 0.000000 1.000000 0.000000 0.875000 0.750000
0.000000 10.100000 9.900000 0.000000 0.000000 -1.000000 0.625000 1.000000
0.000000 10.100000 10.100000 1.000000 -0.000000 0.000000 0.625000 0.250000
-10.000000 9.900000 9.900000 0.000000 -1.000000 0.000000 0.375000 0.750000
-10.000000 10.100000 9.900000 -1.000000 0.000000 0.000000 0.625000 0.750000
-10.000000 10.100000 10.100000 0.000000 0.000000 1.000000 0.625000 0.500000
3 0 1 2
3 3 4 5
3 6 7 8
3 9 10 11
3 12 13 14
3 15 16 17
3 0 18 1
3 3 19 4
3 6 20 7
3 9 21 10
3 12 22 13
3 15 23 16
3 24 25 26
3 27 28 29
3 30 31 32
3 33 34 35
3 36 37 38
3 39 40 41
3 24 42 25
3 27 43 28
3 30 44 31
3 33 45 34
3 36 46 37
3 39 47 40
3 48 49 50
3 51 52 53
3 54 55 56
3 57 58 59
3 60 61 62
3 63 64 65
3 48 66 49
3 51 67 52
3 54 68 55
3 57 69 58
3 60 70 61
3 63 71 64
3 72 73 74
3 75 76 77
3 78 79 80
3 81 82 83
3 84 85 86
3 87 88 89
3 72 90 73
3 75 91 76
3 78 92 79
3 81 93 82
3 84 94 85
3 87 95 88
