ply
format ascii 1.0
comment VCGLIB generated
element vertex 64
property float x
property float y
property float z
property float nx
property float ny
property float nz
property uchar red
property uchar green
property uchar blue
property uchar alpha
property float texture_u
property float texture_v
element face 124
property list uchar int vertex_indices
end_header
0 0.9999999 1 0.003251166 0.9950793 0.09902882 255 255 0 255 0 0.9999999
0 -1 0.9999999 -0.03111559 -0.3174501 0.9477644 255 255 0 255 0 -1
0.1950903 -1 0.9807852 0.01613087 -0.9950793 0.09776019 255 255 0 255 0.1950903 -1
0.1950903 0.9999999 0.9807853 0.2154173 0.31745 0.923483 255 255 0 255 0.1950903 0.9999999
0.3826834 -1 0.9238794 0.3339466 -0.3174501 0.8875275 255 255 0 255 0.3826834 -1
0.3826834 0.9999999 0.9238796 0.3430098 0.5563473 0.7568501 255 255 0 255 0.3826834 0.9999999
0.5555702 -1 0.8314695 0.4387317 -0.5563474 0.7056856 255 255 0 255 0.5555702 -1
0.5555702 0.9999999 0.8314697 0.4840731 0.5563473 0.6753895 255 255 0 255 0.5555702 0.9999999
0.7071067 -1 0.7071067 0.567974 -0.5563474 0.6065338 255 255 0 255 0.7071067 -1
0.7071067 0.9999999 0.7071068 0.6065337 0.5563473 0.5679741 255 255 0 255 0.7071067 0.9999999
0.8314695 -1 0.5555702 0.6753895 -0.5563473 0.4840731 255 255 0 255 0.8314695 -1
0.8314695 1 0.5555703 0.7056856 0.5563473 0.4387318 255 255 0 255 0.8314695 1
0.9238794 -1 0.3826834 0.7568501 -0.5563473 0.3430098 255 255 0 255 0.9238794 -1
0.9238794 1 0.3826835 0.7777184 0.5563473 0.2926292 255 255 0 255 0.9238794 1
0.9807852 -1 0.1950903 0.8092253 -0.5563473 0.1887649 255 255 0 255 0.9807852 -1
0.9807852 1 0.1950904 0.8198639 0.5563473 0.1352812 255 255 0 255 0.9807852 1
0.9999999 -1 -4.371139e-08 0.8305025 -0.5563473 0.0272658 255 255 0 255 0.9999999 -1
0.9999999 1 4.371139e-08 0.8305025 0.5563473 -0.0272658 255 255 0 255 0.9999999 1
0.9807852 -1 -0.1950904 0.8198639 -0.5563473 -0.1352812 255 255 0 255 0.9807852 -1
0.9807852 1 -0.1950903 0.8092253 0.5563473 -0.1887649 255 255 0 255 0.9807852 1
0.9238794 -1 -0.3826835 0.7777184 -0.5563473 -0.2926292 255 255 0 255 0.9238794 -1
0.9238794 1 -0.3826834 0.7568501 0.5563473 -0.3430098 255 255 0 255 0.9238794 1
0.8314695 -1 -0.5555703 0.7056856 -0.5563473 -0.4387318 255 255 0 255 0.8314695 -1
0.8314695 1 -0.5555702 0.6753895 0.5563473 -0.4840731 255 255 0 255 0.8314695 1
0.7071067 -0.9999999 -0.7071068 0.6065336 -0.5563474 -0.5679742 255 255 0 255 0.7071067 -0.9999999
0.7071067 1 -0.7071067 0.567974 0.5563473 -0.6065338 255 255 0 255 0.7071067 1
0.5555702 -0.9999999 -0.8314697 0.4840731 -0.5563473 -0.6753895 255 255 0 255 0.5555702 -0.9999999
0.5555702 1 -0.8314695 0.4387317 0.5563474 -0.7056856 255 255 0 255 0.5555702 1
0.3826834 -0.9999999 -0.9238796 0.3430098 -0.5563473 -0.7568501 255 255 0 255 0.3826834 -0.9999999
0.3826834 1 -0.9238794 0.2926292 0.5563473 -0.7777184 255 255 0 255 0.3826834 1
0.1950903 -0.9999999 -0.9807853 0.1887649 -0.5563472 -0.8092253 255 255 0 255 0.1950903 -0.9999999
0.1950903 1 -0.9807852 0.1352812 0.5563473 -0.8198639 255 255 0 255 0.1950903 1
0 -0.9999999 -1 0.02726582 -0.5563472 -0.8305025 255 255 0 255 0 -0.9999999
0 1 -0.9999999 -0.02726582 0.5563473 -0.8305025 255 255 0 255 0 1
-0.1950903 -0.9999999 -0.9807853 -0.1352812 -0.5563473 -0.8198639 255 255 0 255 -0.1950903 -0.9999999
-0.1950903 1 -0.9807852 -0.1887649 0.5563473 -0.8092253 255 255 0 255 -0.1950903 1
-0.3826834 -0.9999999 -0.9238796 -0.2926292 -0.5563472 -0.7777184 255 255 0 255 -0.3826834 -0.9999999
-0.3826834 1 -0.9238794 -0.3430098 0.5563473 -0.7568501 255 255 0 255 -0.3826834 1
-0.5555702 -0.9999999 -0.8314697 -0.4387318 -0.5563473 -0.7056856 255 255 0 255 -0.5555702 -0.9999999
-0.5555702 1 -0.8314695 -0.4840731 0.5563473 -0.6753895 255 255 0 255 -0.5555702 1
-0.7071067 -0.9999999 -0.7071068 -0.567974 -0.5563474 -0.6065338 255 255 0 255 -0.7071067 -0.9999999
-0.7071067 1 -0.7071067 -0.6065337 0.5563473 -0.5679741 255 255 0 255 -0.7071067 1
-0.8314695 -1 -0.5555703 -0.6753895 -0.5563473 -0.4840731 255 255 0 255 -0.8314695 -1
-0.8314695 1 -0.5555702 -0.7056856 0.5563473 -0.4387318 255 255 0 255 -0.8314695 1
-0.9238794 -1 -0.3826835 -0.7568501 -0.5563473 -0.3430099 255 255 0 255 -0.9238794 -1
-0.9238794 1 -0.3826834 -0.7777184 0.5563473 -0.2926292 255 255 0 255 -0.9238794 1
-0.9807852 -1 -0.1950904 -0.8092253 -0.5563473 -0.1887649 255 255 0 255 -0.9807852 -1
-0.9807852 1 -0.1950903 -0.8198639 0.5563473 -0.1352812 255 255 0 255 -0.9807852 1
-0.9999999 -1 -4.371139e-08 -0.8305025 -0.5563473 -0.02726585 255 255 0 255 -0.9999999 -1
-0.9999999 1 4.371139e-08 -0.8305025 0.5563473 0.02726585 255 255 0 255 -0.9999999 1
-0.9807852 -1 0.1950903 -0.8198639 -0.5563473 0.1352812 255 255 0 255 -0.9807852 -1
-0.9807852 1 0.1950904 -0.8092253 0.5563473 0.1887649 255 255 0 255 -0.9807852 1
-0.9238794 -1 0.3826834 -0.7777184 -0.5563473 0.2926292 255 255 0 255 -0.9238794 -1
-0.9238794 1 0.3826835 -0.7568501 0.5563473 0.3430099 255 255 0 255 -0.9238794 1
-0.8314695 -1 0.5555702 -0.7056856 -0.5563473 0.4387318 255 255 0 255 -0.8314695 -1
-0.8314695 1 0.5555703 -0.6753894 0.5563473 0.4840732 255 255 0 255 -0.8314695 1
-0.7071067 -1 0.7071067 -0.6065336 -0.5563474 0.5679742 255 255 0 255 -0.7071067 -1
-0.7071067 0.9999999 0.7071068 -0.567974 0.5563473 0.6065338 255 255 0 255 -0.7071067 0.9999999
-0.5555702 -1 0.8314695 -0.4840731 -0.5563473 0.6753895 255 255 0 255 -0.5555702 -1
-0.5555702 0.9999999 0.8314697 -0.4387318 0.5563473 0.7056856 255 255 0 255 -0.5555702 0.9999999
-0.3826834 -1 0.9238794 -0.3430098 -0.5563473 0.7568501 255 255 0 255 -0.3826834 -1
-0.3826834 0.9999999 0.9238796 -0.2926292 0.5563472 0.7777184 255 255 0 255 -0.3826834 0.9999999
-0.1950903 -1 0.9807852 -0.1887649 -0.5563473 0.8092253 255 255 0 255 -0.1950903 -1
-0.1950903 0.9999999 0.9807853 -0.1543821 0.31745 0.9356237 255 255 0 255 -0.1950903 0.9999999
3 0 1 2 
3 0 2 3 
3 3 2 4 
3 3 4 5 
3 5 4 6 
3 5 6 7 
3 7 6 8 
3 7 8 9 
3 9 8 10 
3 9 10 11 
3 11 10 12 
3 11 12 13 
3 13 12 14 
3 13 14 15 
3 15 14 16 
3 15 16 17 
3 17 16 18 
3 17 18 19 
3 19 18 20 
3 19 20 21 
3 21 20 22 
3 21 22 23 
3 23 22 24 
3 23 24 25 
3 25 24 26 
3 25 26 27 
3 27 26 28 
3 27 28 29 
3 29 28 30 
3 29 30 31 
3 31 30 32 
3 31 32 33 
3 33 32 34 
3 33 34 35 
3 35 34 36 
3 35 36 37 
3 37 36 38 
3 37 38 39 
3 39 38 40 
3 39 40 41 
3 41 40 42 
3 41 42 43 
3 43 42 44 
3 43 44 45 
3 45 44 46 
3 45 46 47 
3 47 46 48 
3 47 48 49 
3 49 48 50 
3 49 50 51 
3 51 50 52 
3 51 52 53 
3 53 52 54 
3 53 54 55 
3 55 54 56 
3 55 56 57 
3 57 56 58 
3 57 58 59 
3 59 58 60 
3 59 60 61 
3 2 1 62 
3 2 62 60 
3 2 60 58 
3 2 58 56 
3 2 56 54 
3 2 54 52 
3 2 52 50 
3 2 50 48 
3 2 48 46 
3 2 46 44 
3 2 44 42 
3 2 42 40 
3 2 40 38 
3 2 38 36 
3 2 36 34 
3 2 34 32 
3 2 32 30 
3 2 30 28 
3 2 28 26 
3 2 26 24 
3 2 24 22 
3 2 22 20 
3 2 20 18 
3 2 18 16 
3 2 16 14 
3 2 14 12 
3 2 12 10 
3 2 10 8 
3 2 8 6 
3 2 6 4 
3 61 60 62 
3 61 62 63 
3 63 62 1 
3 63 1 0 
3 0 3 5 
3 0 5 7 
3 0 7 9 
3 0 9 11 
3 0 11 13 
3 0 13 15 
3 0 15 17 
3 0 17 19 
3 0 19 21 
3 0 21 23 
3 0 23 25 
3 0 25 27 
3 0 27 29 
3 0 29 31 
3 0 31 33 
3 0 33 35 
3 0 35 37 
3 0 37 39 
3 0 39 41 
3 0 41 43 
3 0 43 45 
3 0 45 47 
3 0 47 49 
3 0 49 51 
3 0 51 53 
3 0 53 55 
3 0 55 57 
3 0 57 59 
3 0 59 61 
3 0 61 63 
