ply
format ascii 1.0
comment VCGLIB generated
element vertex 104
property float x
property float y
property float z
property float nx
property float ny
property float nz
property uchar red
property uchar green
property uchar blue
property uchar alpha
property float texture_u
property float texture_v
element face 104
property list uchar int vertex_indices
end_header
0.9999994 6 2.00217 0.5767819 -0.5772364 0.5780318 255 255 0 255 0.46578 0.391188
0.9999992 6 -1.99784 0.5779179 -0.5774642 -0.5766681 255 255 0 255 0.607623 0.391188
0.9999985 12 -1.99784 0.5779179 0.5774642 -0.5766681 255 255 0 255 0.607623 0.60395
0.9999987 12 2.00217 0.5767819 0.5772365 0.5780317 255 255 0 255 0.465781 0.60395
-1.000001 12 -2.00217 -0.576782 0.5772364 -0.5780317 255 255 0 255 0.607776 0.674871
-1.000001 12 1.99784 -0.5779179 0.5774642 0.5766681 255 255 0 255 0.465934 0.674871
-1.000001 12 1.99784 -0.5779179 0.5774642 0.5766681 255 255 0 255 0.820385 0.60395
-1.000001 12 -2.00217 -0.576782 0.5772364 -0.5780317 255 255 0 255 0.678543 0.60395
-1.000001 6 -2.00217 -0.5767818 -0.5772365 -0.5780318 255 255 0 255 0.678543 0.391188
-1.000001 6 1.99784 -0.5779178 -0.5774642 0.5766681 255 255 0 255 0.820385 0.391188
-1.000001 6 1.99784 -0.5779178 -0.5774642 0.5766681 255 255 0 255 0.465934 0.320267
-1.000001 6 -2.00217 -0.5767818 -0.5772365 -0.5780318 255 255 0 255 0.607776 0.320268
-1.000001 6 1.99784 -0.5779178 -0.5774642 0.5766681 255 255 0 255 0.39486 0.391188
-1.000001 12 1.99784 -0.5779179 0.5774642 0.5766681 255 255 0 255 0.39486 0.60395
1.999999 12 2 0.5773504 -0.5773503 0.5773501 255 255 0 255 0.214239 0.703683
1.999999 12 -2 0.5773503 -0.5773503 -0.5773503 255 255 0 255 0.355532 0.703684
1.999998 16 -2 0.5773503 0.5773503 -0.5773504 255 255 0 255 0.355533 0.844979
1.999998 16 2 0.5773504 0.5773503 0.5773503 255 255 0 255 0.214239 0.844978
-2.000002 16 -2 -0.5773504 0.5773503 -0.5773501 255 255 0 255 0.355532 0.986273
-2.000002 16 2 -0.5773503 0.5773503 0.5773503 255 255 0 255 0.214239 0.986273
-2.000002 16 2 -0.5773503 0.5773503 0.5773503 255 255 0 255 0.638122 0.844978
-2.000002 16 -2 -0.5773504 0.5773503 -0.5773502 255 255 0 255 0.496827 0.844978
-2.000001 12 -2 -0.5773504 -0.5773503 -0.5773503 255 255 0 255 0.496827 0.703683
-2.000001 12 2 -0.5773503 -0.5773503 0.5773504 255 255 0 255 0.638122 0.703684
-2.000001 12 2 -0.5773503 -0.5773503 0.5773504 255 255 0 255 0.214239 0.56239
-2.000001 12 -2 -0.5773504 -0.5773503 -0.5773503 255 255 0 255 0.355533 0.562389
-2.000001 12 2 -0.5773503 -0.5773503 0.5773504 255 255 0 255 0.0729437 0.703683
-2.000002 16 2 -0.5773503 0.5773503 0.5773503 255 255 0 255 0.0729436 0.844979
0.9999988 8.999999 -2 0.7071068 8.007995e-08 0.7071068 255 255 0 255 0.83343 0.804498
0.9999987 8.999999 -4 0.7071068 8.007995e-08 -0.7071068 255 255 0 255 0.902824 0.804498
0.9999985 12 -4 0.5773503 0.5773503 -0.5773504 255 255 0 255 0.902825 0.90859
0.9999985 12 -2 0.5773504 0.5773503 0.5773503 255 255 0 255 0.83343 0.90859
0.9999992 6 -2 1 1.065186e-07 -8.165688e-08 255 255 0 255 0.83343 0.700405
0.9999991 6 -4 0.5773503 -0.5773503 -0.5773504 255 255 0 255 0.902825 0.700405
-1.000001 12 -4 -0.5773504 0.5773503 -0.5773503 255 255 0 255 0.902825 0.977986
-1.000001 12 -2 -0.5773503 0.5773503 0.5773504 255 255 0 255 0.833429 0.977986
-1.000001 12 -2 -0.5773503 0.5773503 0.5773504 255 255 0 255 0.764034 0.90859
-1.000001 12 -4 -0.5773504 0.5773503 -0.5773503 255 255 0 255 0.694639 0.90859
-1.000001 8.999999 -4 -0.7071068 -8.710441e-08 -0.7071068 255 255 0 255 0.694639 0.804498
-1.000001 8.999999 -2 -0.7071068 -8.710443e-08 0.7071068 255 255 0 255 0.764034 0.804498
-1.000001 6 -4 -0.5773504 -0.5773503 -0.5773503 255 255 0 255 0.694639 0.700405
-1.000001 6 -2 -1 -1.196024e-07 6.268414e-08 255 255 0 255 0.764034 0.700405
-1.000001 8.999999 -4 -0.7071068 -8.710441e-08 -0.7071068 255 255 0 255 0.97222 0.804498
-1.000001 12 -4 -0.5773504 0.5773503 -0.5773503 255 255 0 255 0.97222 0.90859
-1.000001 6 -4 -0.5773504 -0.5773503 -0.5773503 255 255 0 255 0.97222 0.700405
-1.000001 6 -2 -1 -1.196024e-07 6.268414e-08 255 255 0 255 0.833429 0.63101
-1.000001 6 -4 -0.5773504 -0.5773503 -0.5773503 255 255 0 255 0.902825 0.63101
0.9999991 8.999999 4 0.7071068 8.007995e-08 0.7071068 255 255 0 255 0.110906 0.425123
0.999999 8.999999 2 0.7071068 8.007994e-08 -0.7071068 255 255 0 255 0.180302 0.425123
0.9999987 12 2 0.5773503 0.5773503 -0.5773504 255 255 0 255 0.180302 0.529216
0.9999988 12 4 0.5773504 0.5773503 0.5773503 255 255 0 255 0.110906 0.529216
0.9999995 6 4 0.5773504 -0.5773503 0.5773503 255 255 0 255 0.110906 0.32103
0.9999994 6 2 0.5773503 -0.5773503 -0.5773504 255 255 0 255 0.180302 0.32103
-1.000001 12 2 -0.5773504 0.5773503 -0.5773503 255 255 0 255 0.180302 0.598611
-1.000001 12 4 -0.5773503 0.5773503 0.5773504 255 255 0 255 0.110906 0.598611
-1.000001 12 4 -0.5773503 0.5773503 0.5773504 255 255 0 255 0.319092 0.529216
-1.000001 12 2 -0.5773504 0.5773503 -0.5773503 255 255 0 255 0.249697 0.529216
-1.000001 8.999999 2 -0.7071068 -8.710441e-08 -0.7071068 255 255 0 255 0.249697 0.425123
-1.000001 8.999999 4 -0.7071068 -8.710443e-08 0.7071068 255 255 0 255 0.319092 0.425123
-1.000001 6 2 -0.5773504 -0.5773503 -0.5773503 255 255 0 255 0.249697 0.32103
-1.000001 6 4 -0.5773503 -0.5773503 0.5773504 255 255 0 255 0.319092 0.32103
-1.000001 8.999999 4 -0.7071068 -8.710443e-08 0.7071068 255 255 0 255 0.0415113 0.425123
-1.000001 12 4 -0.5773503 0.5773503 0.5773504 255 255 0 255 0.0415113 0.529216
-1.000001 6 4 -0.5773503 -0.5773503 0.5773504 255 255 0 255 0.0415113 0.32103
-1.000001 6 2 -0.5773504 -0.5773503 -0.5773503 255 255 0 255 0.180302 0.251635
-1.000001 6 4 -0.5773503 -0.5773503 0.5773504 255 255 0 255 0.110906 0.251635
0.9999996 3 -4.371137e-08 0.7071068 8.710443e-08 0.7071068 255 255 0 255 0.839335 0.203811
0.9999995 3 -2 0.7071068 8.710441e-08 -0.7071068 255 255 0 255 0.90873 0.203811
0.9999992 6 -2 1 1.065186e-07 -8.165688e-08 255 255 0 255 0.90873 0.307904
0.9999993 6 -4.371136e-08 0.5773504 0.5773503 0.5773503 255 255 0 255 0.839335 0.307904
1 1.192093e-07 -4.371139e-08 0.5773504 -0.5773503 0.5773503 255 255 0 255 0.839335 0.099718
0.9999999 1.192093e-07 -2 0.5773503 -0.5773503 -0.5773504 255 255 0 255 0.908731 0.099718
-1.000001 6 -2 -1 -1.196024e-07 6.268414e-08 255 255 0 255 0.90873 0.377299
-1.000001 6 4.371143e-08 -0.5773503 0.5773503 0.5773504 255 255 0 255 0.839335 0.377299
-1.000001 6 4.371143e-08 -0.5773503 0.5773503 0.5773504 255 255 0 255 0.76994 0.307904
-1.000001 6 -2 -1 -1.196024e-07 6.268414e-08 255 255 0 255 0.700545 0.307904
-1 3 -2 -0.7071068 -8.710441e-08 -0.7071068 255 255 0 255 0.700545 0.203811
-1 3 4.371139e-08 -0.7071068 -8.710443e-08 0.7071068 255 255 0 255 0.76994 0.203811
-1 -1.192093e-07 -2 -0.5773504 -0.5773503 -0.5773503 255 255 0 255 0.700545 0.0997181
-1 -1.192093e-07 4.371139e-08 -0.5773503 -0.5773503 0.5773504 255 255 0 255 0.76994 0.099718
-1 3 -2 -0.7071068 -8.710441e-08 -0.7071068 255 255 0 255 0.978126 0.203811
-1.000001 6 -2 -1 -1.196024e-07 6.268414e-08 255 255 0 255 0.978126 0.307904
-1 -1.192093e-07 -2 -0.5773504 -0.5773503 -0.5773503 255 255 0 255 0.978126 0.099718
-1 -1.192093e-07 4.371139e-08 -0.5773503 -0.5773503 0.5773504 255 255 0 255 0.839335 0.0303229
-1 -1.192093e-07 -2 -0.5773504 -0.5773503 -0.5773503 255 255 0 255 0.90873 0.0303229
0.9999997 3 2 0.7071068 8.710443e-08 0.7071068 255 255 0 255 0.348146 0.184777
0.9999996 3 -4.371137e-08 0.7071068 8.710441e-08 -0.7071068 255 255 0 255 0.417542 0.184777
0.9999993 6 -4.371136e-08 0.5773503 0.5773503 -0.5773504 255 255 0 255 0.417542 0.28887
0.9999994 6 2 0.5773504 0.5773503 0.5773503 255 255 0 255 0.348146 0.28887
1 1.192093e-07 2 0.5773504 -0.5773503 0.5773503 255 255 0 255 0.348146 0.0806842
1 1.192093e-07 -4.371139e-08 0.5773503 -0.5773501 -0.5773504 255 255 0 255 0.417542 0.0806842
-1.000001 6 4.371143e-08 -0.5773504 0.5773503 -0.5773503 255 255 0 255 0.417542 0.358265
-1.000001 6 2 -0.5773503 0.5773503 0.5773504 255 255 0 255 0.348146 0.358265
-1.000001 6 2 -0.5773503 0.5773503 0.5773504 255 255 0 255 0.556332 0.28887
-1.000001 6 4.371143e-08 -0.5773504 0.5773503 -0.5773503 255 255 0 255 0.486937 0.28887
-1 3 4.371139e-08 -0.7071068 -8.710441e-08 -0.7071068 255 255 0 255 0.486937 0.184777
-0.9999999 3 2 -0.7071068 -8.71044e-08 0.7071067 255 255 0 255 0.556332 0.184777
-1 -2.384183e-07 4.371139e-08 -0.5773503 -0.5773503 -0.5773502 255 255 0 255 0.486937 0.0806842
-0.9999999 -2.384183e-07 2 -0.5773501 -0.5773503 0.5773504 255 255 0 255 0.556332 0.0806842
-0.9999999 3 2 -0.7071068 -8.71044e-08 0.7071067 255 255 0 255 0.278751 0.184777
-1.000001 6 2 -0.5773503 0.5773503 0.5773504 255 255 0 255 0.278751 0.28887
-0.9999999 -2.384183e-07 2 -0.5773501 -0.5773503 0.5773504 255 255 0 255 0.278751 0.0806842
-0.9999999 -2.384183e-07 2 -0.5773501 -0.5773503 0.5773504 255 255 0 255 0.348146 0.0112893
-1 -2.384183e-07 4.371139e-08 -0.5773503 -0.5773503 -0.5773502 255 255 0 255 0.417542 0.0112891
3 0 1 2 
3 0 2 3 
3 3 2 4 
3 3 4 5 
3 6 7 8 
3 6 8 9 
3 10 11 1 
3 10 1 0 
3 1 8 7 
3 1 7 2 
3 12 0 3 
3 12 3 13 
3 14 15 16 
3 14 16 17 
3 17 16 18 
3 17 18 19 
3 20 21 22 
3 20 22 23 
3 24 25 15 
3 24 15 14 
3 15 22 21 
3 15 21 16 
3 26 14 17 
3 26 17 27 
3 28 29 30 
3 28 30 31 
3 32 29 28 
3 32 33 29 
3 31 30 34 
3 31 34 35 
3 36 37 38 
3 36 38 39 
3 39 38 40 
3 39 40 41 
3 29 42 43 
3 29 43 30 
3 33 42 29 
3 33 44 42 
3 39 28 31 
3 39 31 36 
3 41 28 39 
3 41 32 28 
3 33 32 45 
3 33 45 46 
3 47 48 49 
3 47 49 50 
3 51 48 47 
3 51 52 48 
3 50 49 53 
3 50 53 54 
3 55 56 57 
3 55 57 58 
3 58 57 59 
3 58 59 60 
3 48 57 56 
3 48 56 49 
3 52 57 48 
3 52 59 57 
3 61 47 50 
3 61 50 62 
3 63 47 61 
3 63 51 47 
3 64 52 51 
3 64 51 65 
3 66 67 68 
3 66 68 69 
3 70 67 66 
3 70 71 67 
3 69 68 72 
3 69 72 73 
3 74 75 76 
3 74 76 77 
3 77 76 78 
3 77 78 79 
3 67 80 81 
3 67 81 68 
3 71 80 67 
3 71 82 80 
3 77 66 69 
3 77 69 74 
3 79 66 77 
3 79 70 66 
3 71 70 83 
3 71 83 84 
3 85 86 87 
3 85 87 88 
3 89 86 85 
3 89 90 86 
3 88 87 91 
3 88 91 92 
3 93 94 95 
3 93 95 96 
3 96 95 97 
3 96 97 98 
3 86 95 94 
3 86 94 87 
3 90 95 86 
3 90 97 95 
3 99 85 88 
3 99 88 100 
3 101 85 99 
3 101 89 85 
3 90 89 102 
3 90 102 103 
