ply
format ascii 1.0
comment Created by Blender 2.93.5 - www.blender.org
element vertex 242
property float x
property float y
property float z
property float nx
property float ny
property float nz
property float s
property float t
element face 138
property list uchar uint vertex_indices
end_header
2.206762 -17.747772 30.784386 0.707083 -0.707083 0.000000 1.382718 2.124825
2.206762 -17.747772 30.793711 0.577319 -0.577319 0.577349 1.382718 2.121095
1.397267 -17.747772 30.793711 -0.705741 -0.705741 0.061892 1.058920 2.121095
1.397267 -17.747772 30.793711 -0.705741 -0.705741 0.061892 1.058920 1.179124
2.206762 -17.747772 30.793711 0.577319 -0.577319 0.577349 1.382718 1.179124
2.206762 -17.635509 30.793709 0.738762 0.000000 0.673940 1.382718 1.224029
0.673444 -17.790148 30.784397 0.707297 -0.706900 0.000000 0.769391 2.124820
0.673444 -17.790148 30.802248 0.577288 -0.577136 0.577563 0.769391 2.117681
-0.007122 -17.790148 30.802248 -0.577258 -0.577105 0.577624 0.497164 2.117681
-0.007122 -17.790148 30.802248 -0.577258 -0.577105 0.577624 0.497164 1.162173
0.673444 -17.790148 30.802248 0.577288 -0.577136 0.577563 0.769391 1.162173
0.673444 -17.777576 30.802238 0.577380 0.577532 0.577105 0.769391 1.167202
0.673444 -17.773386 30.784386 0.000000 -1.000000 0.000000 0.769391 2.124825
0.673444 -17.773386 30.802240 0.000000 -0.707083 0.707083 0.769391 2.117683
-0.007122 -17.773386 30.802240 0.000000 -0.707083 0.707083 0.497164 2.117683
-0.007122 -17.773386 30.802240 0.000000 -0.707083 0.707083 0.497164 1.168878
0.673444 -17.773386 30.802240 0.000000 -0.707083 0.707083 0.769391 1.168878
0.673444 -17.760351 30.802240 0.000000 0.707083 0.707083 0.769391 1.174092
0.673444 -17.756159 30.784386 0.000000 -1.000000 0.000000 0.769391 2.124825
0.673444 -17.756159 30.802240 0.000000 -0.707083 0.707083 0.769391 2.117683
-0.007122 -17.756159 30.802240 0.000000 -0.707083 0.707083 0.497164 2.117683
-0.007122 -17.756159 30.802240 0.000000 -0.707083 0.707083 0.497164 1.175768
0.673444 -17.756159 30.802240 0.000000 -0.707083 0.707083 0.769391 1.175769
0.673444 -17.743589 30.802240 0.000000 0.707022 0.707144 0.769391 1.180797
1.397267 -17.747772 30.784386 -0.707114 -0.707083 0.000000 1.058920 2.124825
-0.007122 -17.790150 30.784397 -0.707266 -0.706900 0.000214 0.497164 2.124820
-0.007122 -17.777576 30.802240 -0.577380 0.577502 0.577136 0.497164 1.167202
-0.007122 -17.773386 30.784386 0.000000 -1.000000 0.000000 0.497164 2.124825
-0.007122 -17.760351 30.802240 0.000000 0.707083 0.707083 0.497164 1.174092
-0.007122 -17.756159 30.784386 0.000000 -1.000000 0.000000 0.497164 2.124825
-0.007122 -17.743589 30.802240 0.000000 0.707083 0.707083 0.497164 1.180797
-1.397353 -17.747774 30.793715 0.705741 -0.705741 0.061892 -0.058928 2.121094
-2.206848 -17.747774 30.793715 -0.577288 -0.577197 0.577532 -0.382726 2.121094
-2.206848 -17.747776 30.784395 -0.707053 -0.707144 0.000336 -0.382726 2.124822
-2.206848 -17.635513 30.793709 -0.738762 0.000031 0.673940 -0.382726 1.224027
-2.206848 -17.747774 30.793715 -0.577288 -0.577197 0.577532 -0.382726 1.179123
-1.397353 -17.747774 30.793715 0.705741 -0.705741 0.061892 -0.058928 1.179123
0.007036 -17.790152 30.802248 0.577288 -0.577166 0.577532 0.502827 2.117681
-0.673529 -17.790152 30.802248 -0.577288 -0.577166 0.577532 0.230601 2.117681
-0.673529 -17.790152 30.784397 -0.707083 -0.707083 0.000000 0.230601 2.124820
-0.673529 -17.777580 30.802240 -0.577380 0.577502 0.577136 0.230601 1.167200
-0.673529 -17.790152 30.802248 -0.577288 -0.577166 0.577532 0.230601 1.162172
0.007036 -17.790152 30.802248 0.577288 -0.577166 0.577532 0.502827 1.162172
0.007036 -17.773390 30.802240 0.000000 -0.707083 0.707083 0.502827 2.117683
-0.673529 -17.773390 30.802240 0.000000 -0.707083 0.707083 0.230601 2.117683
-0.673529 -17.773390 30.784386 0.000000 -1.000000 0.000000 0.230601 2.124825
-0.673529 -17.760353 30.802240 0.000000 0.707083 0.707083 0.230601 1.174091
-0.673529 -17.773390 30.802240 0.000000 -0.707083 0.707083 0.230601 1.168877
0.007036 -17.773390 30.802240 0.000000 -0.707083 0.707083 0.502827 1.168877
0.007036 -17.756163 30.802240 0.000000 -0.707083 0.707083 0.502827 2.117683
-0.673529 -17.756163 30.802240 0.000000 -0.707083 0.707083 0.230601 2.117683
-0.673529 -17.756163 30.784388 0.000000 -1.000000 0.000000 0.230601 2.124824
-0.673529 -17.743591 30.802240 0.000000 0.707083 0.707083 0.230601 1.180796
-0.673529 -17.756163 30.802240 0.000000 -0.707083 0.707083 0.230601 1.175768
0.007036 -17.756163 30.802240 0.000000 -0.707083 0.707083 0.502827 1.175768
-1.397353 -17.747774 30.784386 0.707114 -0.707083 0.000000 -0.058928 2.124825
0.007036 -17.790152 30.784397 0.707297 -0.706900 0.000000 0.502827 2.124820
0.007036 -17.777580 30.802240 0.577380 0.577502 0.577136 0.502827 1.167200
0.007036 -17.773390 30.784386 0.000000 -1.000000 0.000000 0.502827 2.124825
0.007036 -17.760353 30.802240 0.000000 0.707083 0.707083 0.502827 1.174091
0.007036 -17.756163 30.784388 0.000000 -1.000000 0.000000 0.502827 2.124824
0.007036 -17.743591 30.802240 0.000000 0.707083 0.707083 0.502827 1.180796
2.933595 -17.412987 30.784386 -0.429792 0.000000 0.902890 1.124824 1.313037
2.933595 -17.174128 33.949902 -0.672994 0.000000 -0.739616 -0.141381 1.408581
2.933595 -15.566411 30.784384 -0.707083 0.000000 0.707083 1.124825 2.051669
2.933595 -15.566410 33.949905 -0.707083 0.000000 -0.707083 -0.141383 2.051668
0.005449 -15.566411 30.784384 0.000000 0.000000 1.000000 0.502193 2.051668
0.005449 -17.913193 30.784386 0.000000 0.000000 1.000000 0.502193 1.112955
2.933595 -15.566411 30.784384 -0.707083 0.000000 0.707083 1.673451 2.051669
0.156264 -17.913193 30.784386 0.000000 0.000000 1.000000 0.562519 1.112955
0.185900 -17.913193 30.784386 0.000000 0.000000 0.999969 0.574373 1.112955
0.598387 -17.913456 30.784376 0.000000 0.000000 1.000000 0.739368 1.112850
0.717897 -17.889879 30.784382 0.000000 0.000031 1.000000 0.787172 1.122281
2.060336 -17.625074 30.784382 0.000000 0.000031 1.000000 1.324148 1.228203
2.933595 -17.412987 30.784386 -0.429792 0.000000 0.902890 1.673451 1.313037
-2.933659 -15.566411 30.784384 0.707083 0.000000 0.707083 1.124825 2.051668
-2.933660 -17.174129 33.949902 0.672994 0.000000 -0.739616 -0.141381 1.408581
-2.933660 -17.412989 30.784386 0.429792 0.000000 0.902890 1.124824 1.313037
-2.933659 -15.566413 33.949905 0.707083 0.000000 -0.707083 -0.141383 2.051667
-2.933659 -15.566411 30.784384 0.707083 0.000000 0.707083 -0.673451 2.051668
-0.005535 -17.913193 30.784386 0.000000 0.000000 0.999969 0.497799 1.112955
-0.005535 -15.566411 30.784384 0.000000 0.000000 1.000000 0.497799 2.051668
-0.156351 -17.913193 30.784386 0.000000 0.000000 1.000000 0.437473 1.112955
-0.185966 -17.913193 30.784386 0.000000 0.000000 0.999969 0.425627 1.112955
-0.598472 -17.913456 30.784376 0.000000 0.000031 1.000000 0.260624 1.112850
-0.717983 -17.889881 30.784382 0.000000 0.000031 1.000000 0.212820 1.122280
-2.060422 -17.625074 30.784382 0.000000 0.000000 1.000000 -0.324156 1.228203
-2.933660 -17.412989 30.784386 0.429792 0.000000 0.902890 -0.673451 1.313037
2.954450 -17.556145 33.960804 -0.148503 -0.950621 -0.272500 -0.145742 1.255774
2.954450 -17.030186 33.919403 -0.742363 -0.052553 -0.667898 -0.129182 1.466158
2.954450 -17.806995 30.773481 -0.159276 -0.893979 0.418775 1.129187 1.155434
2.954450 -17.281036 30.732086 -0.750359 0.051851 0.658986 1.145745 1.365818
-0.000032 -18.065540 33.960800 -0.526841 -0.670888 -0.521805 0.500000 1.052017
-0.000033 -17.539579 33.919403 -0.664296 -0.058626 -0.745140 0.500000 1.262401
2.954450 -17.556145 33.960804 -0.148503 -0.950621 -0.272500 1.681793 1.255774
2.954450 -17.030186 33.919403 -0.742363 -0.052553 -0.667898 1.681793 1.466158
-0.000032 -18.057177 34.067043 -0.533036 -0.583514 0.612629 -0.188237 1.055362
-0.000033 -17.531218 34.025650 -0.675375 0.057833 0.735160 -0.171680 1.265746
-0.000032 -18.065540 33.960800 -0.526841 -0.670888 -0.521805 -0.145741 1.052017
-0.000033 -17.539579 33.919403 -0.664296 -0.058626 -0.745140 -0.129181 1.262401
3.059969 -17.529591 34.067047 0.615192 -0.473373 0.630390 1.724001 1.266396
3.059967 -17.003630 34.025650 0.742363 0.052553 0.667898 1.724000 1.476780
-0.000032 -18.057177 34.067043 -0.533036 -0.583514 0.612629 0.500000 1.055362
-0.000033 -17.531218 34.025650 -0.675375 0.057833 0.735160 0.500000 1.265746
3.059967 -17.797165 30.667246 0.623035 -0.566301 -0.539506 1.171681 1.159366
3.059967 -17.271204 30.625847 0.750359 -0.051851 -0.658986 1.188240 1.369750
3.059969 -17.529591 34.067047 0.615192 -0.473373 0.630390 -0.188239 1.266396
3.059967 -17.003630 34.025650 0.742363 0.052553 0.667898 -0.171681 1.476780
-0.000033 -18.324753 30.667246 -0.526841 -0.670888 -0.521805 0.500000 0.948332
-0.000033 -17.798790 30.625853 -0.664296 -0.058626 -0.745109 0.500000 1.158716
3.059967 -17.797165 30.667246 0.623035 -0.566301 -0.539506 1.724000 1.159366
3.059967 -17.271204 30.625847 0.750359 -0.051851 -0.658986 1.724000 1.369750
-0.000033 -18.316391 30.773481 -0.533036 -0.583544 0.612629 1.129187 0.951676
-0.000033 -17.790428 30.732094 -0.675375 0.057833 0.735160 1.145742 1.162061
-0.000033 -18.324753 30.667246 -0.526841 -0.670888 -0.521805 1.171681 0.948332
-0.000033 -17.798790 30.625853 -0.664296 -0.058626 -0.745109 1.188239 1.158716
-0.000033 -18.316391 30.773481 -0.533036 -0.583544 0.612629 0.500000 2.129187
-0.000033 -18.324753 30.667246 -0.526841 -0.670888 -0.521805 0.500000 2.171681
3.059967 -17.797165 30.667246 0.623035 -0.566301 -0.539506 1.724000 2.171681
2.954450 -17.806995 30.773481 -0.159276 -0.893979 0.418775 1.681793 2.129187
3.059969 -17.529591 34.067047 0.615192 -0.473373 0.630390 1.724001 0.811761
2.954450 -17.556145 33.960804 -0.148503 -0.950621 -0.272500 1.681793 0.854258
-0.000032 -18.057177 34.067043 -0.533036 -0.583514 0.612629 0.500000 0.811763
-0.000032 -18.065540 33.960800 -0.526841 -0.670888 -0.521805 0.500000 0.854259
-2.954516 -17.030182 33.919411 0.742363 -0.052553 -0.667898 -0.129185 1.466159
-2.954516 -17.556145 33.960804 0.148503 -0.950621 -0.272469 -0.145742 1.255775
-2.954517 -17.806995 30.773487 0.159276 -0.893979 0.418806 1.129184 1.155435
-2.954517 -17.281034 30.732092 0.750359 0.051851 0.658986 1.145742 1.365819
-0.000033 -17.539576 33.919407 0.664296 -0.058626 -0.745140 0.500000 1.262402
-0.000033 -18.065536 33.960800 0.526841 -0.670888 -0.521836 0.500000 1.052017
-2.954516 -17.556145 33.960804 0.148503 -0.950621 -0.272469 -0.681793 1.255775
-2.954516 -17.030182 33.919411 0.742363 -0.052553 -0.667898 -0.681793 1.466159
-0.000033 -17.531214 34.025654 0.675375 0.057833 0.735160 -0.171682 1.265746
-0.000033 -18.057175 34.067047 0.533036 -0.583544 0.612629 -0.188240 1.055362
-0.000033 -18.065536 33.960800 0.526841 -0.670888 -0.521836 -0.145741 1.052017
-0.000033 -17.539576 33.919407 0.664296 -0.058626 -0.745140 -0.129183 1.262402
-3.060033 -17.003628 34.025658 -0.742363 0.052553 0.667898 -0.724000 1.476781
-3.060033 -17.529589 34.067051 -0.615192 -0.473373 0.630421 -0.724000 1.266397
-0.000033 -18.057175 34.067047 0.533036 -0.583544 0.612629 0.500000 1.055362
-0.000033 -17.531214 34.025654 0.675375 0.057833 0.735160 0.500000 1.265746
-3.060034 -17.271204 30.625856 -0.750359 -0.051851 -0.658986 1.188236 1.369751
-3.060034 -17.797165 30.667253 -0.623035 -0.566301 -0.539506 1.171679 1.159367
-3.060033 -17.529589 34.067051 -0.615192 -0.473373 0.630421 -0.188241 1.266397
-3.060033 -17.003628 34.025658 -0.742363 0.052553 0.667898 -0.171683 1.476781
-0.000033 -17.798790 30.625862 0.664296 -0.058626 -0.745109 0.500000 1.158717
-0.000033 -18.324751 30.667255 0.526872 -0.670888 -0.521805 0.500000 0.948333
-3.060034 -17.797165 30.667253 -0.623035 -0.566301 -0.539506 -0.724001 1.159367
-3.060034 -17.271204 30.625856 -0.750359 -0.051851 -0.658986 -0.724001 1.369751
-0.000033 -17.790428 30.732100 0.675375 0.057863 0.735160 1.145740 1.162061
-0.000033 -18.316389 30.773500 0.533036 -0.583514 0.612629 1.129180 0.951677
-0.000033 -18.324751 30.667255 0.526872 -0.670888 -0.521805 1.171677 0.948333
-0.000033 -17.798790 30.625862 0.664296 -0.058626 -0.745109 1.188235 1.158717
-0.000033 -18.324751 30.667255 0.526872 -0.670888 -0.521805 0.500000 2.171677
-0.000033 -18.316389 30.773500 0.533036 -0.583514 0.612629 0.500000 2.129180
-3.060034 -17.797165 30.667253 -0.623035 -0.566301 -0.539506 -0.724001 2.171679
-2.954517 -17.806995 30.773487 0.159276 -0.893979 0.418806 -0.681794 2.129184
-3.060033 -17.529589 34.067051 -0.615192 -0.473373 0.630421 -0.724000 0.811759
-2.954516 -17.556145 33.960804 0.148503 -0.950621 -0.272469 -0.681793 0.854258
-0.000033 -18.057175 34.067047 0.533036 -0.583544 0.612629 0.500000 0.811760
-0.000033 -18.065536 33.960800 0.526841 -0.670888 -0.521836 0.500000 0.854259
2.933595 -17.624023 30.784386 0.000000 0.000000 0.999969 1.673451 1.228623
0.598386 -18.124489 30.784386 0.000000 0.000031 1.000000 0.739367 1.028437
0.005449 -18.124226 30.784388 0.000000 0.000000 1.000000 0.502193 1.028542
2.933595 -15.566410 33.949905 -0.707083 0.000000 -0.707083 1.673451 2.051668
0.005449 -17.672377 33.949905 0.000000 0.000000 -1.000000 0.502193 1.209282
0.005449 -15.566410 33.949905 0.000000 0.000000 -1.000000 0.502193 2.051669
0.598593 -17.672647 33.949905 0.000000 0.000000 -0.999969 0.739450 1.209173
2.102111 -17.376066 33.949905 0.000000 0.000000 -1.000000 1.340858 1.327806
2.933595 -17.174128 33.949902 -0.672994 0.000000 -0.739616 1.673451 1.408581
-0.005535 -18.124226 30.784388 0.000000 0.000000 1.000000 0.497799 1.028542
-0.598472 -18.124489 30.784386 0.000000 0.000000 1.000000 0.260624 1.028437
-2.933660 -17.624023 30.784386 0.000000 0.000000 0.999969 -0.673451 1.228623
-0.005535 -15.566410 33.949905 0.000000 0.000000 -1.000000 0.497799 2.051669
-0.005535 -17.672377 33.949905 0.000000 0.000000 -1.000000 0.497799 1.209282
-2.933659 -15.566413 33.949905 0.707083 0.000000 -0.707083 -0.673451 2.051667
-0.598678 -17.672647 33.949905 0.000000 0.000000 -1.000000 0.260542 1.209174
-2.102196 -17.376068 33.949905 0.000000 0.000000 -0.999969 -0.340865 1.327805
-2.933660 -17.174129 33.949902 0.672994 0.000000 -0.739616 -0.673451 1.408581
1.397267 -17.747772 30.793711 -0.705741 -0.705741 0.061892 1.121095 1.179124
1.397267 -17.635511 30.793709 -1.000000 0.000000 0.000000 1.121096 1.224028
1.397267 -17.635511 30.784382 -1.000000 0.000000 0.000000 1.124827 1.224028
1.397267 -17.747772 30.784386 -0.707114 -0.707083 0.000000 1.124825 1.179124
2.206762 -17.635509 30.793709 0.738762 0.000000 0.673940 1.121096 1.224029
2.206762 -17.747772 30.793711 0.577319 -0.577319 0.577349 1.121095 1.179124
2.206762 -17.747772 30.784386 0.707083 -0.707083 0.000000 1.124825 1.179124
2.206762 -17.635509 30.784382 1.000000 0.000000 0.000000 1.124827 1.224029
-0.007122 -17.790148 30.802248 -0.577258 -0.577105 0.577624 1.117681 1.162173
-0.007122 -17.777576 30.802240 -0.577380 0.577502 0.577136 1.117683 1.167202
-0.007122 -17.777576 30.784386 -0.706900 0.707297 0.000000 1.124825 1.167202
-0.007122 -17.790150 30.784397 -0.707266 -0.706900 0.000214 1.124820 1.162173
-0.007122 -17.777576 30.802240 -0.577380 0.577502 0.577136 0.497164 2.117683
0.673444 -17.777576 30.802238 0.577380 0.577532 0.577105 0.769391 2.117684
0.673444 -17.777576 30.784386 0.706900 0.707297 0.000000 0.769391 2.124825
-0.007122 -17.777576 30.784386 -0.706900 0.707297 0.000000 0.497164 2.124825
0.673444 -17.777576 30.802238 0.577380 0.577532 0.577105 1.117684 1.167202
0.673444 -17.790148 30.802248 0.577288 -0.577136 0.577563 1.117681 1.162173
0.673444 -17.790148 30.784397 0.707297 -0.706900 0.000000 1.124820 1.162173
0.673444 -17.777576 30.784386 0.706900 0.707297 0.000000 1.124825 1.167202
-0.007122 -17.760351 30.802240 0.000000 0.707083 0.707083 0.497164 2.117683
0.673444 -17.760351 30.802240 0.000000 0.707083 0.707083 0.769391 2.117683
0.673444 -17.760351 30.784386 0.000000 1.000000 0.000000 0.769391 2.124825
-0.007122 -17.760351 30.784386 0.000000 1.000000 0.000000 0.497164 2.124825
-0.007122 -17.743589 30.802240 0.000000 0.707083 0.707083 0.497164 2.117683
0.673444 -17.743589 30.802240 0.000000 0.707022 0.707144 0.769391 2.117683
0.673444 -17.743587 30.784388 0.000000 1.000000 0.000153 0.769391 2.124824
-0.007122 -17.743589 30.784388 0.000000 1.000000 0.000000 0.497164 2.124824
-1.397353 -17.747774 30.793715 0.705741 -0.705741 0.061892 1.121094 1.179123
-1.397353 -17.747774 30.784386 0.707114 -0.707083 0.000000 1.124825 1.179123
-1.397353 -17.635513 30.784382 1.000000 0.000000 0.000000 1.124827 1.224027
-1.397353 -17.635513 30.793709 1.000000 0.000000 0.000000 1.121096 1.224027
-2.206848 -17.635513 30.793709 -0.738762 0.000031 0.673940 1.121096 1.224027
-2.206848 -17.635513 30.784397 -1.000000 0.000000 0.000000 1.124820 1.224027
-2.206848 -17.747776 30.784395 -0.707053 -0.707144 0.000336 1.124822 1.179122
-2.206848 -17.747774 30.793715 -0.577288 -0.577197 0.577532 1.121094 1.179123
0.007036 -17.790152 30.802248 0.577288 -0.577166 0.577532 1.117681 1.162172
0.007036 -17.790152 30.784397 0.707297 -0.706900 0.000000 1.124820 1.162172
0.007036 -17.777580 30.784386 0.706900 0.707297 0.000000 1.124825 1.167200
0.007036 -17.777580 30.802240 0.577380 0.577502 0.577136 1.117683 1.167200
0.007036 -17.777580 30.802240 0.577380 0.577502 0.577136 0.502827 2.117683
0.007036 -17.777580 30.784386 0.706900 0.707297 0.000000 0.502827 2.124825
-0.673529 -17.777580 30.784397 -0.707083 0.707083 0.000000 0.230601 2.124820
-0.673529 -17.777580 30.802240 -0.577380 0.577502 0.577136 0.230601 2.117683
-0.673529 -17.777580 30.802240 -0.577380 0.577502 0.577136 1.117683 1.167200
-0.673529 -17.777580 30.784397 -0.707083 0.707083 0.000000 1.124820 1.167200
-0.673529 -17.790152 30.784397 -0.707083 -0.707083 0.000000 1.124820 1.162172
-0.673529 -17.790152 30.802248 -0.577288 -0.577166 0.577532 1.117681 1.162172
0.007036 -17.760353 30.802240 0.000000 0.707083 0.707083 0.502827 2.117683
0.007036 -17.760353 30.784386 0.000000 1.000000 0.000000 0.502827 2.124825
-0.673529 -17.760353 30.784386 0.000000 1.000000 0.000000 0.230601 2.124825
-0.673529 -17.760353 30.802240 0.000000 0.707083 0.707083 0.230601 2.117683
0.007036 -17.743591 30.802240 0.000000 0.707083 0.707083 0.502827 2.117683
0.007036 -17.743591 30.784388 0.000000 1.000000 0.000000 0.502827 2.124824
-0.673529 -17.743591 30.784388 0.000000 1.000000 0.000000 0.230601 2.124824
-0.673529 -17.743591 30.802240 0.000000 0.707083 0.707083 0.230601 2.117683
2.954450 -17.806995 30.773481 -0.159276 -0.893979 0.418775 1.681793 1.155434
2.954450 -17.281036 30.732086 -0.750359 0.051851 0.658986 1.681793 1.365818
-0.000033 -17.790428 30.732094 -0.675375 0.057833 0.735160 0.500000 1.162061
-0.000033 -18.316391 30.773481 -0.533036 -0.583544 0.612629 0.500000 0.951676
-2.954517 -17.806995 30.773487 0.159276 -0.893979 0.418806 -0.681794 1.155435
-0.000033 -18.316389 30.773500 0.533036 -0.583514 0.612629 0.500000 0.951677
-0.000033 -17.790428 30.732100 0.675375 0.057863 0.735160 0.500000 1.162061
-2.954517 -17.281034 30.732092 0.750359 0.051851 0.658986 -0.681794 1.365819
3 0 1 2
3 3 4 5
3 6 7 8
3 9 10 11
3 12 13 14
3 15 16 17
3 18 19 20
3 21 22 23
3 0 2 24
3 6 8 25
3 9 11 26
3 12 14 27
3 15 17 28
3 18 20 29
3 21 23 30
3 31 32 33
3 34 35 36
3 37 38 39
3 40 41 42
3 43 44 45
3 46 47 48
3 49 50 51
3 52 53 54
3 55 31 33
3 56 37 39
3 57 40 42
3 58 43 45
3 59 46 48
3 60 49 51
3 61 52 54
3 62 63 64
3 64 63 65
3 66 67 68
3 69 68 67
3 70 68 69
3 71 68 70
3 68 71 72
3 68 72 73
3 68 73 74
3 75 76 77
3 78 76 75
3 79 80 81
3 80 79 82
3 82 79 83
3 83 79 84
3 85 84 79
3 86 85 79
3 87 86 79
3 88 89 90
3 89 91 90
3 92 93 94
3 93 95 94
3 96 97 98
3 97 99 98
3 100 101 102
3 101 103 102
3 104 105 106
3 105 107 106
3 108 109 110
3 109 111 110
3 112 113 114
3 113 115 114
3 116 117 118
3 119 116 118
3 119 118 120
3 121 119 120
3 121 120 122
3 123 121 122
3 124 125 126
3 127 124 126
3 128 129 130
3 131 128 130
3 132 133 134
3 135 132 134
3 136 137 138
3 139 136 138
3 140 141 142
3 143 140 142
3 144 145 146
3 147 144 146
3 148 149 150
3 151 148 150
3 152 153 154
3 153 155 154
3 154 155 156
3 155 157 156
3 156 157 158
3 157 159 158
3 160 74 161
3 74 73 161
3 71 161 73
3 161 71 162
3 67 162 71
3 163 164 165
3 163 166 164
3 163 167 166
3 168 167 163
3 80 84 169
3 170 169 171
3 169 84 171
3 84 86 171
3 171 86 87
3 172 173 174
3 173 175 174
3 175 176 174
3 177 174 176
3 178 179 180
3 180 181 178
3 182 183 184
3 184 185 182
3 186 187 188
3 188 189 186
3 190 191 192
3 192 193 190
3 194 195 196
3 196 197 194
3 198 199 200
3 200 201 198
3 202 203 204
3 204 205 202
3 206 207 208
3 208 209 206
3 210 211 212
3 212 213 210
3 214 215 216
3 216 217 214
3 218 219 220
3 220 221 218
3 222 223 224
3 224 225 222
3 226 227 228
3 228 229 226
3 230 231 232
3 232 233 230
3 234 235 236
3 236 237 234
3 238 239 240
3 240 241 238
