ply
format ascii 1.0
comment Created by Blender 2.93.5 - www.blender.org
element vertex 64
property float x
property float y
property float z
property float nx
property float ny
property float nz
property float s
property float t
element face 64
property list uchar uint vertex_indices
end_header
6.861804 -16.723761 4.457886 -0.707083 -0.707083 0.000000 46.245373 -65.327354
6.809026 -16.671000 6.333557 -0.297098 -0.717277 -0.630238 45.893520 -77.831825
6.809045 -16.671001 4.457886 -0.382672 -0.923856 0.000000 45.893646 -65.327354
6.861784 -16.723759 6.333557 -0.632435 -0.632435 -0.447218 46.245243 -77.831825
5.226267 -16.671000 6.333557 0.297098 -0.717277 -0.630238 35.341793 -77.831825
5.173508 -16.723759 6.333557 0.632435 -0.632435 -0.447188 34.990070 -77.831825
5.173528 -16.723761 4.457886 0.707083 -0.707083 0.000000 34.990200 -65.327354
5.226286 -16.671003 4.457886 0.382672 -0.923856 0.000000 35.341923 -65.327354
3.274217 -16.723763 4.457886 -0.707083 -0.707083 0.000000 22.328127 -65.327354
3.221439 -16.671001 6.333557 -0.297098 -0.717277 -0.630238 21.976274 -77.831825
3.221458 -16.671003 4.457886 -0.382672 -0.923856 0.000000 21.976404 -65.327354
3.274197 -16.723761 6.333557 -0.632435 -0.632435 -0.447218 22.327997 -77.831825
1.638680 -16.671001 6.333557 0.297098 -0.717277 -0.630238 11.424549 -77.831825
1.585921 -16.723759 6.333557 0.632435 -0.632466 -0.447188 11.072825 -77.831825
1.585941 -16.723761 4.457886 0.707083 -0.707114 0.000000 11.072954 -65.327354
1.638700 -16.671003 4.457886 0.382672 -0.923856 0.000000 11.424679 -65.327354
3.274192 -16.723763 -17.465981 -0.632435 -0.632435 0.447218 22.327963 80.831749
3.221434 -16.671003 -17.465981 -0.297098 -0.717277 0.630238 21.976240 80.831749
1.585916 -16.723763 -17.465981 0.632435 -0.632435 0.447188 11.072789 80.831749
1.638675 -16.671003 -17.465981 0.297098 -0.717277 0.630238 11.424514 80.831749
6.809042 -16.671003 -15.590308 -0.382672 -0.923856 0.000000 45.893627 68.327271
6.809022 -16.671003 -17.465981 -0.297098 -0.717277 0.630238 45.893494 80.831749
6.861801 -16.723763 -15.590308 -0.707083 -0.707083 0.000000 46.245350 68.327271
6.861780 -16.723763 -17.465981 -0.632435 -0.632435 0.447218 46.245213 80.831749
5.173524 -16.723763 -15.590308 0.707083 -0.707083 0.000000 34.990177 68.327271
5.173504 -16.723763 -17.465981 0.632435 -0.632435 0.447188 34.990040 80.831749
5.226263 -16.671003 -17.465981 0.297098 -0.717277 0.630238 35.341766 80.831749
5.226284 -16.671003 -15.590308 0.382672 -0.923856 0.000000 35.341904 68.327271
-6.861808 -16.723761 4.457880 0.707083 -0.707083 0.000000 -45.245373 -65.327309
-6.809049 -16.671003 4.457880 0.382672 -0.923856 0.000000 -44.893646 -65.327309
-6.809030 -16.671001 6.333551 0.297098 -0.717277 -0.630238 -44.893513 -77.831787
-6.861787 -16.723761 6.333551 0.632435 -0.632435 -0.447218 -45.245235 -77.831787
-5.226270 -16.671001 6.333551 -0.297098 -0.717277 -0.630238 -34.341785 -77.831787
-5.173532 -16.723763 4.457880 -0.707083 -0.707083 0.000000 -33.990196 -65.327309
-5.173512 -16.723761 6.333551 -0.632435 -0.632435 -0.447188 -33.990063 -77.831787
-5.226291 -16.671003 4.457880 -0.382672 -0.923856 0.000000 -34.341923 -65.327309
-3.274221 -16.723763 4.457880 0.707114 -0.707083 0.000000 -21.328125 -65.327309
-3.221463 -16.671003 4.457880 0.382672 -0.923856 0.000000 -20.976402 -65.327309
-3.221442 -16.671001 6.333551 0.297098 -0.717277 -0.630238 -20.976263 -77.831787
-3.274200 -16.723761 6.333551 0.632435 -0.632435 -0.447218 -21.327988 -77.831787
-1.638683 -16.671001 6.333551 -0.297098 -0.717277 -0.630238 -10.424538 -77.831787
-1.585945 -16.723763 4.457880 -0.707083 -0.707083 0.000000 -10.072951 -65.327309
-1.585925 -16.723761 6.333551 -0.632435 -0.632435 -0.447188 -10.072815 -77.831787
-1.638704 -16.671003 4.457880 -0.382672 -0.923856 0.000000 -10.424676 -65.327309
-3.274202 -16.723763 -17.465986 0.632435 -0.632435 0.447218 -21.327997 80.831787
-1.585926 -16.723763 -17.465986 -0.632435 -0.632435 0.447188 -10.072824 80.831787
-3.221443 -16.671003 -17.465986 0.297098 -0.717277 0.630238 -20.976273 80.831787
-1.638685 -16.671005 -17.465986 -0.297098 -0.717277 0.630238 -10.424549 80.831787
-6.809049 -16.671005 -15.590296 0.382672 -0.923856 0.000000 -44.893646 68.327187
-6.861808 -16.723763 -15.590296 0.707083 -0.707114 0.000000 -45.245373 68.327187
-6.809029 -16.671003 -17.465986 0.297098 -0.717277 0.630238 -44.893509 80.831787
-6.861787 -16.723763 -17.465986 0.632466 -0.632435 0.447218 -45.245235 80.831787
-5.173532 -16.723764 -15.590296 -0.707083 -0.707083 0.000000 -33.990196 68.327187
-5.226270 -16.671003 -17.465986 -0.297098 -0.717277 0.630238 -34.341785 80.831787
-5.173512 -16.723763 -17.465986 -0.632435 -0.632435 0.447188 -33.990063 80.831787
-5.226291 -16.671005 -15.590314 -0.382702 -0.923856 0.000000 -34.341923 68.327309
1.638675 -16.671003 -15.461115 0.195318 -0.980712 0.000000 11.424512 67.465981
1.585936 -16.723763 -15.590308 0.707236 -0.706961 0.000000 11.072926 68.327271
3.221454 -16.671003 -15.590308 -0.467269 -0.884091 0.000000 21.976374 68.327271
3.274192 -16.723763 -15.461115 -0.707236 -0.706961 0.000000 22.327963 67.465981
-1.585947 -16.723764 -15.590290 -0.707236 -0.706931 0.000000 -10.072961 68.327148
-1.638685 -16.671005 -15.461115 -0.195318 -0.980712 0.000000 -10.424549 67.465981
-3.221464 -16.671005 -15.590296 0.467269 -0.884091 0.000000 -20.976412 68.327187
-3.274202 -16.723763 -15.461115 0.707205 -0.706961 0.000000 -21.328001 67.465981
3 0 1 2
3 1 0 3
3 4 5 6
3 7 4 6
3 5 1 3
3 1 5 4
3 8 9 10
3 9 8 11
3 12 13 14
3 15 12 14
3 10 9 15
3 9 12 15
3 13 9 11
3 9 13 12
3 16 17 18
3 19 18 17
3 20 21 22
3 23 22 21
3 24 25 26
3 24 26 27
3 23 21 25
3 26 25 21
3 28 29 30
3 30 31 28
3 32 33 34
3 35 33 32
3 34 31 30
3 30 32 34
3 36 37 38
3 38 39 36
3 40 41 42
3 43 41 40
3 37 43 38
3 38 43 40
3 42 39 38
3 38 40 42
3 44 45 46
3 47 46 45
3 48 49 50
3 51 50 49
3 52 53 54
3 52 55 53
3 51 54 50
3 53 50 54
3 2 1 4
3 4 7 2
3 56 57 18
3 18 19 56
3 58 56 19
3 19 17 58
3 16 59 58
3 58 17 16
3 20 27 26
3 26 21 20
3 29 35 32
3 32 30 29
3 45 60 61
3 61 47 45
3 62 46 47
3 47 61 62
3 62 63 44
3 44 46 62
3 48 50 53
3 53 55 48
