ply
format ascii 1.0
comment Created by Blender 2.93.5 - www.blender.org
element vertex 8
property float x
property float y
property float z
property float nx
property float ny
property float nz
property float s
property float t
element face 4
property list uchar uint vertex_indices
end_header
9.664918 -2.215967 -12.601901 0.614032 0.029786 0.788690 1.710741 0.027999
-0.000010 0.167094 -10.240848 0.237159 -0.000549 0.971465 0.500001 0.325882
-0.000010 -7.658598 -10.245388 0.241279 -0.008332 0.970397 0.500001 -0.652330
10.227931 -7.568433 -12.887148 0.697897 0.035279 0.715293 1.781270 -0.641059
15.013489 -7.382018 -26.587862 0.940794 0.087252 0.327525 -4.509120 -0.617757
9.664918 -2.215967 -12.601901 0.614032 0.029786 0.788690 -6.257365 0.027999
10.227931 -7.568433 -12.887148 0.697897 0.035279 0.715293 -6.221709 -0.641059
14.450477 -3.034382 -26.152500 0.940825 0.089084 0.326884 -4.563540 -0.074303
3 0 1 2
3 2 3 0
3 4 5 6
3 7 5 4
