ply
format ascii 1.0
comment Created by Blender 2.93.5 - www.blender.org
element vertex 122
property float x
property float y
property float z
property float nx
property float ny
property float nz
property float s
property float t
element face 196
property list uchar uint vertex_indices
end_header
-8.789631 -16.700212 -1.405090 -0.714591 -0.162542 0.680380 0.000000 1.000000
-8.789631 -15.553058 -1.450984 -0.577349 0.577319 -0.577349 0.000000 1.000000
-8.789631 -16.924782 -1.450983 -0.537675 -0.838862 -0.084811 0.000000 1.000000
-8.789631 -16.484871 -1.346088 -0.723289 -0.228919 0.651448 0.000000 1.000000
-8.789631 -16.287987 -1.260870 -0.733360 -0.338633 0.589435 0.000000 1.000000
-8.789631 -16.118790 -1.136353 -0.741661 -0.472518 0.476058 0.000000 1.000000
-8.789631 -15.986508 -0.959381 -0.742393 -0.590594 0.316233 0.000000 1.000000
-8.789631 -15.900373 -0.716919 -0.735771 -0.661122 0.146733 0.000000 1.000000
-8.789631 -15.553058 0.659363 -0.577319 0.577349 0.577349 0.000000 1.000000
-8.789631 -15.869609 -0.395813 -0.730216 -0.683187 -0.002899 0.000000 1.000000
-8.789631 -15.900373 -0.101105 -0.737083 -0.657582 -0.155644 0.000000 1.000000
-8.789631 -15.986508 0.127154 -0.741386 -0.586657 -0.325816 0.000000 1.000000
-8.789631 -16.118790 0.300043 -0.738395 -0.476058 -0.477584 0.000000 1.000000
-8.789631 -16.287987 0.428644 -0.730125 -0.357402 -0.582324 0.000000 1.000000
-8.789631 -16.484871 0.523999 -0.721213 -0.262947 -0.640828 0.000000 1.000000
-8.789631 -16.700212 0.597223 -0.713645 -0.206244 -0.669424 0.000000 1.000000
-8.789631 -16.924782 0.659363 -0.538163 -0.835139 0.113407 0.000000 1.000000
-8.736873 -15.553058 -1.450984 0.577349 0.577349 -0.577349 0.000000 1.000000
-8.736873 -15.553058 0.659363 0.577349 0.577349 0.577349 0.000000 1.000000
-8.736873 -15.869609 -0.395813 0.730216 -0.683187 -0.002899 0.000000 1.000000
-8.736873 -15.900373 -0.101105 0.737083 -0.657582 -0.155644 0.000000 1.000000
-8.736873 -15.900373 -0.716919 0.735740 -0.661122 0.146733 0.000000 1.000000
-8.736873 -15.986508 -0.959381 0.742393 -0.590594 0.316233 0.000000 1.000000
-8.736873 -15.986508 0.127154 0.741386 -0.586657 -0.325816 0.000000 1.000000
-8.736873 -16.118790 0.300043 0.738395 -0.476058 -0.477584 0.000000 1.000000
-8.736873 -16.118790 -1.136353 0.741661 -0.472518 0.476058 0.000000 1.000000
-8.736873 -16.287987 -1.260870 0.733360 -0.338633 0.589435 0.000000 1.000000
-8.736873 -16.287987 0.428644 0.730125 -0.357402 -0.582324 0.000000 1.000000
-8.736873 -16.484871 0.523999 0.721213 -0.262947 -0.640828 0.000000 1.000000
-8.736873 -16.484871 -1.346088 0.723289 -0.228919 0.651448 0.000000 1.000000
-8.736873 -16.700212 -1.405090 0.714591 -0.162542 0.680380 0.000000 1.000000
-8.736873 -16.700212 0.597223 0.713645 -0.206244 -0.669424 0.000000 1.000000
-8.736873 -16.924782 0.659363 0.538163 -0.835139 0.113407 0.000000 1.000000
-8.736873 -16.924782 -1.450983 0.537675 -0.838862 -0.084811 0.000000 1.000000
-8.789631 -15.553057 3.798499 -0.577349 0.577349 -0.577349 0.000000 1.000000
-8.789631 -18.170338 3.798499 -0.577349 -0.577349 -0.577349 0.000000 1.000000
-8.789631 -18.170338 3.851257 -0.577349 -0.577349 0.577349 0.000000 1.000000
-8.789631 -15.553057 3.851257 -0.577349 0.577349 0.577319 0.000000 1.000000
-8.770630 -18.170338 3.851257 0.556505 -0.594043 0.580828 0.000000 1.000000
-8.770630 -18.170338 3.798499 0.556505 -0.594043 -0.580828 0.000000 1.000000
-8.599700 -15.553057 3.798499 0.597583 0.559832 -0.573992 0.000000 1.000000
-8.599700 -15.553057 3.851257 0.597583 0.559832 0.573992 0.000000 1.000000
-8.789647 -15.553061 -5.698054 -0.577349 0.577349 -0.577349 0.000000 1.000000
-8.789647 -18.890486 -5.698053 -0.577349 -0.577349 -0.577349 0.000000 1.000000
-8.789647 -18.890486 -5.645295 -0.577349 -0.577349 0.577349 0.000000 1.000000
-8.789647 -15.553061 -5.645296 -0.577349 0.577349 0.577319 0.000000 1.000000
-8.770646 -18.890486 -5.645295 0.561052 -0.590503 0.580065 0.000000 1.000000
-8.770646 -18.890486 -5.698053 0.561022 -0.590503 -0.580065 0.000000 1.000000
-8.599716 -15.553061 -5.698054 0.593280 0.563646 -0.574694 0.000000 1.000000
-8.599716 -15.553061 -5.645296 0.593280 0.563646 0.574694 0.000000 1.000000
-8.789647 -15.553057 -14.139435 -0.577349 0.577349 -0.577349 0.000000 1.000000
-8.789647 -19.525536 -14.139435 -0.577349 -0.577349 -0.577349 0.000000 1.000000
-8.789647 -19.525536 -14.086677 -0.577349 -0.577349 0.577349 0.000000 1.000000
-8.789647 -15.553057 -14.086677 -0.577349 0.577349 0.577349 0.000000 1.000000
-8.770646 -19.525536 -14.086677 0.563677 -0.588427 0.579638 0.000000 1.000000
-8.770646 -19.525536 -14.139435 0.563677 -0.588427 -0.579638 0.000000 1.000000
-8.599716 -15.553057 -14.139435 0.590747 0.565874 -0.575121 0.000000 1.000000
-8.599716 -15.553057 -14.086677 0.590747 0.565874 0.575121 0.000000 1.000000
-8.789647 -15.553059 -12.029090 -0.577349 0.577349 -0.577349 0.000000 1.000000
-8.789647 -19.368229 -12.029090 -0.577349 -0.577349 -0.577349 0.000000 1.000000
-8.789647 -19.368229 -11.976331 -0.577349 -0.577349 0.577349 0.000000 1.000000
-8.789647 -15.553059 -11.976331 -0.577349 0.577349 0.577349 0.000000 1.000000
-8.770646 -19.368229 -11.976331 0.563097 -0.588885 0.579730 0.000000 1.000000
-8.770646 -19.368229 -12.029090 0.563097 -0.588885 -0.579730 0.000000 1.000000
-8.599716 -15.553059 -12.029090 0.591296 0.565386 -0.575030 0.000000 1.000000
-8.599716 -15.553059 -11.976331 0.591296 0.565386 0.575030 0.000000 1.000000
-8.789647 -15.553060 -9.918738 -0.577349 0.577349 -0.577349 0.000000 1.000000
-8.789647 -19.217148 -9.918738 -0.577349 -0.577349 -0.577349 0.000000 1.000000
-8.789647 -19.217148 -9.865979 -0.577349 -0.577349 0.577349 0.000000 1.000000
-8.789647 -15.553060 -9.865979 -0.577319 0.577319 0.577349 0.000000 1.000000
-8.770646 -19.217148 -9.865979 0.562517 -0.589343 0.579821 0.000000 1.000000
-8.770646 -19.217148 -9.918738 0.562517 -0.589343 -0.579821 0.000000 1.000000
-8.599716 -15.553060 -9.918738 0.591876 0.564898 -0.574938 0.000000 1.000000
-8.599716 -15.553060 -9.865979 0.591876 0.564898 0.574938 0.000000 1.000000
-8.789647 -15.553059 -7.808400 -0.577349 0.577349 -0.577349 0.000000 1.000000
-8.789647 -19.072050 -7.808399 -0.577349 -0.577349 -0.577349 0.000000 1.000000
-8.789647 -19.072050 -7.755640 -0.577349 -0.577349 0.577349 0.000000 1.000000
-8.789647 -15.553059 -7.755641 -0.577349 0.577349 0.577349 0.000000 1.000000
-8.770646 -19.072050 -7.755640 0.561876 -0.589831 0.579943 0.000000 1.000000
-8.770646 -19.072050 -7.808399 0.561876 -0.589831 -0.579943 0.000000 1.000000
-8.599716 -15.553059 -7.808400 0.592456 0.564379 -0.574816 0.000000 1.000000
-8.599716 -15.553059 -7.755641 0.592456 0.564379 0.574816 0.000000 1.000000
-8.789647 -15.553061 -16.249783 -0.577349 0.577349 -0.577349 0.000000 1.000000
-8.789647 -19.689337 -16.249781 -0.577349 -0.577349 -0.577349 0.000000 1.000000
-8.789647 -19.689337 -16.197021 -0.577349 -0.577349 0.577349 0.000000 1.000000
-8.789647 -15.553061 -16.197023 -0.577319 0.577319 0.577349 0.000000 1.000000
-8.770646 -19.689337 -16.197021 0.564196 -0.588000 0.579547 0.000000 1.000000
-8.770646 -19.689337 -16.249781 0.564196 -0.588000 -0.579547 0.000000 1.000000
-8.599716 -15.553061 -16.249783 0.590228 0.566332 -0.575213 0.000000 1.000000
-8.599716 -15.553061 -16.197023 0.590228 0.566332 0.575182 0.000000 1.000000
-8.789647 -15.553061 -3.587708 -0.577349 0.577349 -0.577349 0.000000 1.000000
-8.789647 -18.735554 -3.587708 -0.577349 -0.577349 -0.577349 0.000000 1.000000
-8.789647 -18.735554 -3.534949 -0.577349 -0.577349 0.577349 0.000000 1.000000
-8.789647 -15.553061 -3.534949 -0.577349 0.577349 0.577349 0.000000 1.000000
-8.770646 -18.735554 -3.534949 0.560228 -0.591144 0.580218 0.000000 1.000000
-8.770646 -18.735554 -3.587708 0.560228 -0.591144 -0.580218 0.000000 1.000000
-8.599716 -15.553061 -3.587708 0.594043 0.562975 -0.574572 0.000000 1.000000
-8.599716 -15.553061 -3.534949 0.594043 0.562975 0.574572 0.000000 1.000000
-8.789647 -15.553058 -1.477363 -0.577349 0.577349 -0.577349 0.000000 1.000000
-8.789647 -18.570084 -1.477362 -0.577349 -0.577349 -0.577349 0.000000 1.000000
-8.789647 -18.570084 -1.424603 -0.577349 -0.577349 0.577349 0.000000 1.000000
-8.789647 -15.553058 -1.424603 -0.577349 0.577349 0.577349 0.000000 1.000000
-8.770646 -18.570084 -1.424603 0.559282 -0.591876 0.580370 0.000000 1.000000
-8.770646 -18.570084 -1.477362 0.559282 -0.591876 -0.580370 0.000000 1.000000
-8.599716 -15.553058 -1.477363 0.594928 0.562181 -0.574419 0.000000 1.000000
-8.599716 -15.553058 -1.424603 0.594928 0.562181 0.574419 0.000000 1.000000
-8.789647 -15.553061 0.632983 -0.577349 0.577349 -0.577349 0.000000 1.000000
-8.789647 -18.420263 0.632983 -0.577349 -0.577349 -0.577349 0.000000 1.000000
-8.789647 -18.420263 0.685742 -0.577349 -0.577349 0.577349 0.000000 1.000000
-8.789647 -15.553061 0.685742 -0.577319 0.577319 0.577349 0.000000 1.000000
-8.770646 -18.420263 0.685742 0.558336 -0.592608 0.580523 0.000000 1.000000
-8.770646 -18.420263 0.632983 0.558336 -0.592608 -0.580523 0.000000 1.000000
-8.599716 -15.553061 0.632983 0.595843 0.561357 -0.574267 0.000000 1.000000
-8.599716 -15.553061 0.685742 0.595843 0.561388 0.574267 0.000000 1.000000
-8.789647 -15.553058 2.743329 -0.577349 0.577349 -0.577349 0.000000 1.000000
-8.789647 -18.248945 2.743329 -0.577349 -0.577349 -0.577349 0.000000 1.000000
-8.789647 -18.248945 2.796088 -0.577349 -0.577349 0.577349 0.000000 1.000000
-8.789647 -15.553058 2.796088 -0.577349 0.577349 0.577349 0.000000 1.000000
-8.770646 -18.248945 2.796088 0.557115 -0.593554 0.580737 0.000000 1.000000
-8.770646 -18.248945 2.743329 0.557115 -0.593554 -0.580737 0.000000 1.000000
-8.599716 -15.553058 2.743329 0.597003 0.560350 -0.574084 0.000000 1.000000
-8.599716 -15.553058 2.796088 0.597003 0.560350 0.574084 0.000000 1.000000
3 0 1 2
3 3 1 0
3 4 1 3
3 5 1 4
3 6 1 5
3 7 1 6
3 1 7 8
3 7 9 8
3 9 10 8
3 10 11 8
3 11 12 8
3 12 13 8
3 13 14 8
3 14 15 8
3 15 16 8
3 17 18 19
3 19 18 20
3 21 17 19
3 22 17 21
3 20 18 23
3 23 18 24
3 25 17 22
3 26 17 25
3 24 18 27
3 27 18 28
3 29 17 26
3 30 17 29
3 28 18 31
3 32 31 18
3 17 30 33
3 34 35 36
3 36 37 34
3 38 39 40
3 40 41 38
3 36 35 39
3 39 38 36
3 37 36 38
3 38 41 37
3 34 37 41
3 41 40 34
3 35 34 40
3 40 39 35
3 42 43 44
3 44 45 42
3 46 47 48
3 48 49 46
3 44 43 47
3 47 46 44
3 45 44 46
3 46 49 45
3 42 45 49
3 49 48 42
3 43 42 48
3 48 47 43
3 50 51 52
3 52 53 50
3 54 55 56
3 56 57 54
3 52 51 55
3 55 54 52
3 53 52 54
3 54 57 53
3 50 53 57
3 57 56 50
3 51 50 56
3 56 55 51
3 58 59 60
3 60 61 58
3 62 63 64
3 64 65 62
3 60 59 63
3 63 62 60
3 61 60 62
3 62 65 61
3 58 61 65
3 65 64 58
3 59 58 64
3 64 63 59
3 66 67 68
3 68 69 66
3 70 71 72
3 72 73 70
3 68 67 71
3 71 70 68
3 69 68 70
3 70 73 69
3 66 69 73
3 73 72 66
3 67 66 72
3 72 71 67
3 74 75 76
3 76 77 74
3 78 79 80
3 80 81 78
3 76 75 79
3 79 78 76
3 77 76 78
3 78 81 77
3 74 77 81
3 81 80 74
3 75 74 80
3 80 79 75
3 82 83 84
3 84 85 82
3 86 87 88
3 88 89 86
3 84 83 87
3 87 86 84
3 85 84 86
3 86 89 85
3 82 85 89
3 89 88 82
3 83 82 88
3 88 87 83
3 90 91 92
3 92 93 90
3 94 95 96
3 96 97 94
3 92 91 95
3 95 94 92
3 93 92 94
3 94 97 93
3 90 93 97
3 97 96 90
3 91 90 96
3 96 95 91
3 98 99 100
3 100 101 98
3 102 103 104
3 104 105 102
3 100 99 103
3 103 102 100
3 101 100 102
3 102 105 101
3 98 101 105
3 105 104 98
3 99 98 104
3 104 103 99
3 106 107 108
3 108 109 106
3 110 111 112
3 112 113 110
3 108 107 111
3 111 110 108
3 109 108 110
3 110 113 109
3 106 109 113
3 113 112 106
3 107 106 112
3 112 111 107
3 114 115 116
3 116 117 114
3 118 119 120
3 120 121 118
3 116 115 119
3 119 118 116
3 117 116 118
3 118 121 117
3 114 117 121
3 121 120 114
3 115 114 120
3 120 119 115
3 0 2 33
3 33 30 0
3 3 0 30
3 30 29 3
3 4 3 29
3 29 26 4
3 5 4 26
3 26 25 5
3 6 5 25
3 25 22 6
3 7 6 22
3 22 21 7
3 9 7 21
3 21 19 9
3 10 9 19
3 19 20 10
3 11 10 20
3 20 23 11
3 12 11 23
3 23 24 12
3 13 12 24
3 24 27 13
3 14 13 27
3 27 28 14
3 15 14 28
3 28 31 15
3 16 15 31
3 31 32 16
3 8 16 32
3 32 18 8
3 1 8 18
3 18 17 1
3 2 1 17
3 17 33 2
