ply
format ascii 1.0
comment VCGLIB generated
element vertex 369
property float x
property float y
property float z
property float nx
property float ny
property float nz
property uchar red
property uchar green
property uchar blue
property uchar alpha
property float texture_u
property float texture_v
element face 526
property list uchar int vertex_indices
end_header
1.564667 0.6417083 3.641117 0.6694734 0.5515596 -0.4975815 255 255 0 255 0.103592 0.279633
1.564667 0.05654133 4.41618 1 2.137634e-06 5.048907e-06 255 255 0 255 0.103592 0.279633
1.564667 -0.3221007 3.52187 0.6694519 -0.1551407 -0.7264747 255 255 0 255 0.103592 0.279633
1.564667 1.020393 4.535427 0.6694841 0.7066873 0.2288758 255 255 0 255 0.103592 0.279633
1.564651 0.4351974 5.310524 0.6694682 0.1551268 0.7264626 255 255 0 255 0.103592 0.279633
1.564667 -0.5286396 5.191265 0.6694449 -0.5515835 0.4975934 255 255 0 255 0.103592 0.279633
1.564667 -0.9072677 4.296955 0.6694496 -0.7067143 -0.2288932 255 255 0 255 0.103592 0.279633
1.052246 1.158594 4.552528 0.2578915 0.9640033 -0.06472702 255 255 0 255 0.103592 0.279633
1.052246 0.4895394 5.438759 0.2578688 0.5380569 0.8024951 255 255 0 255 0.103592 0.279633
1.052261 -0.6125136 5.302402 0.2578288 -0.4259688 0.8672225 255 255 0 255 0.103592 0.279633
1.052261 -1.045484 4.279827 0.2578295 -0.9640204 0.06472003 255 255 0 255 0.103592 0.279633
1.052246 -0.3763857 3.393654 0.2578535 -0.5380537 -0.8025023 255 255 0 255 0.103592 0.279633
1.052246 0.7256672 3.529949 0.2578715 0.4259412 -0.8672234 255 255 0 255 0.103592 0.279633
-1.230103 0.6417513 3.641098 -0.6694664 0.5515696 -0.49758 255 255 0 255 0.103592 0.279633
-1.230087 -0.3221007 3.52187 -0.6694502 -0.1551403 -0.7264764 255 255 0 255 0.103592 0.279633
-1.230103 0.05654133 4.41618 -1 -5.441129e-06 -6.732175e-07 255 255 0 255 0.103592 0.279633
-1.230103 1.020393 4.535439 -0.6694635 0.7067015 0.2288922 255 255 0 255 0.103592 0.279633
-1.230103 0.4351974 5.310524 -0.6694561 0.1551266 0.7264739 255 255 0 255 0.103592 0.279633
-1.230087 -0.5286546 5.191288 -0.66945 -0.5515763 0.4975946 255 255 0 255 0.103592 0.279633
-1.230103 -0.9072967 4.296944 -0.6694646 -0.706702 -0.2288876 255 255 0 255 0.103592 0.279633
-0.717667 0.4894974 5.438755 -0.2578271 0.5380551 0.8025097 255 255 0 255 0.103592 0.279633
-0.717682 1.158595 4.552528 -0.2578425 0.9640177 -0.06470775 255 255 0 255 0.103592 0.279633
-0.717682 -0.6125286 5.30241 -0.257816 -0.4259593 0.8672311 255 255 0 255 0.103592 0.279633
-0.717667 -1.045513 4.279854 -0.2578333 -0.9640189 0.06472646 255 255 0 255 0.103592 0.279633
-0.717667 -0.3764147 3.393635 -0.2578479 -0.5380521 -0.8025051 255 255 0 255 0.103592 0.279633
-0.717682 0.7256672 3.529968 -0.2578381 0.425952 -0.867228 255 255 0 255 0.103592 0.279633
1.564667 0.2161317 -3.757622 0.6545677 0.4809218 -0.5833141 255 255 0 255 0.103592 0.279633
1.564667 -0.2383262 -2.924488 1 1.088307e-05 -2.639333e-07 255 255 0 255 0.103592 0.279633
1.564667 -0.7326073 -3.734612 0.6545505 -0.2647132 -0.70816 255 255 0 255 0.103592 0.279633
1.564651 0.7104698 -2.947487 0.6545706 0.7456252 0.1248215 255 255 0 255 0.103592 0.279633
1.564667 0.2559978 -2.114326 0.6545756 0.2647006 0.7081415 255 255 0 255 0.103592 0.279633
1.564667 -0.6927692 -2.091335 0.6545474 -0.4809346 0.5833264 255 255 0 255 0.103592 0.279633
1.564682 -1.187051 -2.901474 0.6545479 -0.7456416 -0.1248425 255 255 0 255 0.103592 0.279633
1.052261 0.8464808 -2.950783 0.2523603 0.945484 -0.2058504 255 255 0 255 0.103592 0.279633
1.052246 0.3269089 -1.998154 0.2523552 0.6510167 0.715887 255 255 0 255 0.103592 0.279633
1.052246 -0.7579121 -1.97187 0.2523386 -0.2944905 0.9217378 255 255 0 255 0.103592 0.279633
1.052246 -1.323104 -2.898193 0.2523304 -0.9454933 0.2058438 255 255 0 255 0.103592 0.279633
1.052261 -0.8034753 -3.850773 0.2523526 -0.6510102 -0.7158938 255 255 0 255 0.103592 0.279633
1.052246 0.2813307 -3.877113 0.2523659 0.2944627 -0.9217393 255 255 0 255 0.103592 0.279633
-1.230103 0.2161747 -3.757637 -0.6545544 0.4809331 -0.5833199 255 255 0 255 0.103592 0.279633
-1.230087 -0.7326073 -3.734612 -0.6545494 -0.2647173 -0.7081595 255 255 0 255 0.103592 0.279633
-1.230103 -0.2383262 -2.924488 -1 -5.608777e-06 1.35826e-07 255 255 0 255 0.103592 0.279633
-1.230103 0.7104698 -2.947479 -0.6545481 0.7456409 0.1248454 255 255 0 255 0.103592 0.279633
-1.230087 0.2559978 -2.114326 -0.6545551 0.2647104 0.7081568 255 255 0 255 0.103592 0.279633
-1.230103 -0.6927702 -2.091309 -0.654548 -0.4809252 0.5833334 255 255 0 255 0.103592 0.279633
-1.230087 -1.187107 -2.901474 -0.6545503 -0.7456387 -0.1248473 255 255 0 255 0.103592 0.279633
-0.717682 0.3268659 -1.998154 -0.2523149 0.6510182 0.7158999 255 255 0 255 0.103592 0.279633
-0.717667 0.8464808 -2.950783 -0.2523034 0.9455026 -0.2058346 255 255 0 255 0.103592 0.279633
-0.717682 -0.7579121 -1.971863 -0.2523181 -0.2944745 0.9217486 255 255 0 255 0.103592 0.279633
-0.717682 -1.323118 -2.89817 -0.2523065 -0.945497 0.2058564 255 255 0 255 0.103592 0.279633
-0.717682 -0.8034893 -3.850784 -0.2523294 -0.6510051 -0.7159066 255 255 0 255 0.103592 0.279633
-0.717682 0.2813307 -3.877094 -0.2523322 0.2944757 -0.9217443 255 255 0 255 0.103592 0.279633
-0.512268 -4.499347 7.57269 -0.2665317 -0.5321458 0.8036054 255 255 0 255 0.103367 0.282777
-0.512268 -4.905767 6.607049 -0.5409195 -0.7609341 -0.3583092 255 255 0 255 0.103367 0.282777
0.846832 -4.905797 6.607049 0.3267996 -0.9450145 -0.0122393 255 255 0 255 0.103367 0.282777
0.846817 -4.499362 7.572685 0.6641132 -0.5238596 0.5334086 255 255 0 255 0.103367 0.282777
-0.836121 3.341639 7.471516 -0.4723669 0.1515603 0.8682736 255 255 0 255 0.103367 0.282777
-0.836121 3.341639 6.053677 -0.6488346 0.3665972 -0.6667985 255 255 0 255 0.103367 0.282777
-1.947525 1.200073 6.053677 -0.6624447 0.219908 -0.7161058 255 255 0 255 0.103367 0.282777
-1.947525 1.200073 7.471516 -0.6892753 0.1099539 0.7161074 255 255 0 255 0.103367 0.282777
1.1707 3.341639 6.053677 0.4037482 0.3140524 -0.859278 255 255 0 255 0.103367 0.282777
1.1707 3.341639 7.471516 0.5550166 0.1891965 0.8100379 255 255 0 255 0.103367 0.282777
2.28212 1.200073 7.471516 0.662442 0.2199104 0.7161076 255 255 0 255 0.103367 0.282777
2.28212 1.200073 6.053677 0.6892765 0.1099551 -0.716106 255 255 0 255 0.103367 0.282777
-1.947525 -0.8026835 6.05368 -0.7026383 -0.1216077 -0.7010785 255 255 0 255 0.103367 0.282777
-1.947525 -0.8026835 7.471516 -0.6854821 -0.2487149 0.6842918 255 255 0 255 0.103367 0.282777
2.28212 -0.8026835 7.471516 0.6060457 -0.1048901 0.7884839 255 255 0 255 0.103367 0.282777
2.28212 -0.8026835 6.05368 0.791898 -0.2873255 -0.5388337 255 255 0 255 0.103367 0.282777
-1.197266 -2.114754 6.053677 -0.7082199 -0.3099464 -0.6343167 255 255 0 255 0.103367 0.282777
-1.197266 -2.114754 7.471516 -0.5353969 -0.168189 0.8276851 255 255 0 255 0.103367 0.282777
1.531845 -2.114783 7.471516 0.5141125 -0.2249981 0.8276861 255 255 0 255 0.103367 0.282777
1.531845 -2.114783 6.053677 0.73753 -0.2316885 -0.6343263 255 255 0 255 0.103367 0.282777
-0.836121 -3.919765 6.053678 -0.5733623 -0.2460924 -0.7814692 255 255 0 255 0.103367 0.282777
-0.836121 -3.919765 7.471517 -0.6553787 -0.1713823 0.7355998 255 255 0 255 0.103367 0.282777
1.1707 -3.919764 6.053678 0.5601868 -0.3732657 -0.7395021 255 255 0 255 0.103367 0.282777
0.829391 -2.493185 6.053673 3.14804e-06 -2.725355e-06 -1 255 255 0 255 0.103367 0.282777
1.1707 -3.919764 7.471517 0.4910565 -0.06928258 0.8683683 255 255 0 255 0.103367 0.282777
-0.421158 -2.994972 7.471516 9.041032e-08 3.018521e-07 1 255 255 0 255 0.103367 0.282777
0.755737 -2.994957 7.471516 -1.152295e-07 2.431661e-07 1 255 255 0 255 0.103367 0.282777
-0.494812 1.928856 6.053673 -1.935179e-06 2.26322e-06 -1 255 255 0 255 0.103367 0.282777
0.829391 1.928856 6.053673 1.935166e-06 2.263236e-06 -1 255 255 0 255 0.103367 0.282777
-0.766006 1.40148 6.053673 -4.631589e-06 2.365822e-07 -1 255 255 0 255 0.103367 0.282777
1.100601 1.40148 6.053673 4.250937e-06 1.031457e-06 -1 255 255 0 255 0.103367 0.282777
-0.766022 -1.720322 6.053673 -6.554364e-06 -1.610828e-06 -1 255 255 0 255 0.103367 0.282777
1.100586 -1.720322 6.053673 6.087221e-06 -1.292047e-06 -1 255 255 0 255 0.103367 0.282777
-0.494812 -2.493185 6.053673 -4.372283e-06 -2.485383e-06 -1 255 255 0 255 0.103367 0.282777
-0.711456 1.247177 7.471516 -1.345014e-07 1.437715e-07 1 255 255 0 255 0.103367 0.282777
-0.421158 2.628023 7.471516 -6.725269e-08 5.173563e-07 1 255 255 0 255 0.103367 0.282777
0.755737 2.628037 7.471516 1.345013e-07 3.665077e-07 1 255 255 0 255 0.103367 0.282777
1.046051 1.247177 7.471516 6.725114e-08 7.188622e-08 1 255 255 0 255 0.103367 0.282777
-0.711456 -0.6565505 7.471516 0 0 1 255 255 0 255 0.103367 0.282777
1.046051 -0.6565505 7.471516 0 0 1 255 255 0 255 0.103367 0.282777
1.242432 -0.9228336 -7.864397 0.6685576 -0.2156986 -0.7116916 255 255 0 255 0.103306 0.282777
-0.907852 -0.9228196 -7.864397 -0.7654294 -0.2168921 -0.6058677 255 255 0 255 0.103306 0.282777
-0.902771 0.6679454 -7.866154 -0.6699134 0.2648641 -0.6935871 255 255 0 255 0.103306 0.282777
1.23735 0.6679454 -7.866154 0.7609164 0.3038875 -0.5732876 255 255 0 255 0.103306 0.282777
-0.589325 1.556858 -7.47962 -0.2474719 0.8390461 -0.4845199 255 255 0 255 0.103306 0.282777
0.92392 1.556858 -7.47962 0.4248981 0.8029048 -0.4180976 255 255 0 255 0.103306 0.282777
0.952682 -1.726882 -7.714718 0.6461593 -0.3933881 -0.6540061 255 255 0 255 0.103306 0.282777
-0.618103 -1.726897 -7.714718 -0.4994566 -0.4392516 -0.7467269 255 255 0 255 0.103306 0.282777
-0.589096 1.537689 -5.444607 -0.7139834 0.6594124 0.2353786 255 255 0 255 0.103306 0.282777
0.923676 1.537689 -5.444607 0.4746933 0.8572491 0.1994748 255 255 0 255 0.103306 0.282777
-0.960419 0.6554916 -5.444607 -0.9803117 0.03776971 0.1938105 255 255 0 255 0.103306 0.282777
-0.960434 -0.9218295 -6.458332 -0.9369417 -0.2676031 0.2247863 255 255 0 255 0.103306 0.282777
-0.589096 -1.76949 -6.359192 -0.738334 -0.5838437 0.3376233 255 255 0 255 0.103306 0.282777
0.574814 -2.936715 -7.180912 0.2583058 -0.83755 -0.4814438 255 255 0 255 0.103306 0.282777
0.573013 -2.92409 -6.51086 0.6907423 -0.6198683 0.372342 255 255 0 255 0.103306 0.282777
-0.238434 -2.924077 -6.51086 -0.2812496 -0.7510137 0.597392 255 255 0 255 0.103306 0.282777
-0.240219 -2.936701 -7.180912 -0.6605119 -0.6871911 -0.3024772 255 255 0 255 0.103306 0.282777
1.294998 -0.9218295 -6.458332 0.9614694 -0.204791 0.1834053 255 255 0 255 0.103306 0.282777
0.923676 -1.76949 -6.359192 0.7292095 -0.469054 0.4982387 255 255 0 255 0.103306 0.282777
1.294998 0.6554916 -5.444607 0.9558023 0.162501 0.2450213 255 255 0 255 0.103306 0.282777
0.755737 2.628037 7.471516 0.8141679 0.5638571 0.1385491 255 255 0 255 0.102696 0.282777
-0.421158 2.628023 7.471516 -0.9071416 0.3974538 0.1382916 255 255 0 255 0.102696 0.282777
-0.124268 2.447652 10.06107 -0.4948432 0.6346047 0.593639 255 255 0 255 0.102696 0.282777
0.458847 2.447652 10.06107 0.7139226 0.5161147 0.4732231 255 255 0 255 0.102696 0.282777
0.689133 1.074835 10.14697 0.9843967 0.1605214 0.07208371 255 255 0 255 0.102696 0.282777
1.046051 1.247177 7.471516 0.9839168 0.1415575 0.1089454 255 255 0 255 0.102696 0.282777
0.57399 1.67674 10.14697 0.7907131 0.3882511 0.4733222 255 255 0 255 0.102696 0.282777
1.046051 -0.6565505 7.471516 0.9983745 0.01224185 0.05566452 255 255 0 255 0.102696 0.282777
1.046051 -0.6565503 9.521935 0.9664438 -0.06745275 0.247864 255 255 0 255 0.102696 0.282777
0.755737 -2.994957 7.471516 0.8432781 -0.5327219 0.07134024 255 255 0 255 0.102696 0.282777
0.755737 -2.688103 9.521935 0.597911 -0.6818027 0.4214827 255 255 0 255 0.102696 0.282777
-0.421158 -2.994972 7.471516 -0.6588628 -0.7449093 0.1049288 255 255 0 255 0.102696 0.282777
-0.421158 -2.688117 9.521935 -0.6587916 -0.6388369 0.3973426 255 255 0 255 0.102696 0.282777
-0.711456 -0.6565503 9.521935 -0.9574944 -0.05483571 0.2831917 255 255 0 255 0.102696 0.282777
-0.711456 -0.6565505 7.471516 -0.9987332 -0.0239487 0.04425621 255 255 0 255 0.102696 0.282777
-0.711456 1.247177 7.471516 -0.9875575 0.1224354 0.09869034 255 255 0 255 0.102696 0.282777
-0.354553 1.074835 10.14697 -0.9840983 0.1630947 0.07036225 255 255 0 255 0.102696 0.282777
-0.23941 1.67674 10.14697 -0.7831265 0.5615477 0.2671649 255 255 0 255 0.102696 0.282777
-0.645035 -2.067735 -4.351479 -0.5605041 -0.8176879 -0.1312315 255 255 0 255 0.036032 0.230524
0.979614 -2.067735 -4.351479 0.5687672 -0.8103274 -0.1409726 255 255 0 255 0.036032 0.230524
0.966034 -2.287295 1.769913 0.5825308 -0.8120044 0.0361485 255 255 0 255 0.036032 0.230524
-0.63147 -2.287295 1.769913 -0.579227 -0.8135634 0.05109619 255 255 0 255 0.036032 0.230524
1.312347 -1.212667 -4.351479 0.9816548 -0.1726201 -0.08097114 255 255 0 255 0.036032 0.230524
1.293213 -1.30679 1.769913 0.9850309 -0.1703838 0.02614528 255 255 0 255 0.036032 0.230524
1.312347 0.6694307 -3.886898 0.9779598 0.1880018 -0.09082925 255 255 0 255 0.036032 0.230524
1.293213 1.277556 2.190918 0.983299 0.1797822 0.02831055 255 255 0 255 0.036032 0.230524
0.966049 2.134223 2.190918 0.5718934 0.819544 0.0358572 255 255 0 255 0.036032 0.230524
0.979614 1.645497 -3.886894 0.5722716 0.803381 -0.164573 255 255 0 255 0.036032 0.230524
-0.645035 1.645483 -3.886894 -0.5737956 0.803368 -0.1592433 255 255 0 255 0.036032 0.230524
-0.631454 2.134223 2.190918 -0.5674906 0.8232428 0.01502521 255 255 0 255 0.036032 0.230524
-0.977753 0.6694307 -3.886898 -0.9803181 0.1732522 -0.09465788 255 255 0 255 0.036032 0.230524
-0.958633 1.277556 2.190918 -0.9846452 0.1735357 0.01894961 255 255 0 255 0.036032 0.230524
-0.977768 -1.212653 -4.351479 -0.9844352 -0.1570417 -0.07890029 255 255 0 255 0.036032 0.230524
-0.958633 -1.30679 1.769913 -0.9859098 -0.1642666 0.03159922 255 255 0 255 0.036032 0.230524
-0.494827 1.380105 -5.04361 -0.3273674 0.837235 0.4380275 255 255 0 255 0.103306 0.282777
0.829407 1.380119 -5.04361 0.654731 0.6034414 0.4551767 255 255 0 255 0.103306 0.282777
-0.766006 0.5552756 -5.04361 -0.8993438 0.1374071 0.4150903 255 255 0 255 0.103306 0.282777
-0.766006 -0.9978015 -6.057327 -0.8826898 -0.2786747 0.3784166 255 255 0 255 0.103306 0.282777
-0.494827 -1.646457 -6.057327 -0.6575466 -0.6172653 0.4319909 255 255 0 255 0.103306 0.282777
1.100586 -0.9978015 -6.057327 0.8719199 -0.3117373 0.3775917 255 255 0 255 0.103306 0.282777
0.829407 -1.646443 -6.057327 0.3287797 -0.8395972 0.4324126 255 255 0 255 0.103306 0.282777
1.100586 0.5552756 -5.04361 0.912828 -0.05861099 0.4041161 255 255 0 255 0.103306 0.282777
0.689133 -0.09038223 10.14697 0.9175595 -0.1503022 0.3680949 255 255 0 255 0.102696 0.282777
-0.354553 -0.09036823 10.14697 -0.9450094 -0.1579458 0.2863746 255 255 0 255 0.102696 0.282777
0.020081 -1.961892 10.14697 -0.8584485 -0.1708502 0.4836077 255 255 0 255 0.102696 0.282777
0.167297 -2.576789 10.14697 -0.1007228 -0.7527479 0.6505579 255 255 0 255 0.102696 0.282777
0.268845 -2.152669 10.14697 0.8974594 -0.1826697 0.4014953 255 255 0 255 0.102696 0.282777
0.689133 1.074837 35.24516 0.9948145 0.09715894 0.03007052 255 255 0 255 0.102696 0.282777
0.458847 3.139244 35.44535 0.9561894 0.2907382 0.03425227 255 255 0 255 0.102696 0.282777
0.281265 3.146991 41.82906 0.9858298 0.1640558 0.03500501 255 255 0 255 0.102696 0.282777
-0.124268 3.139244 35.44535 -0.9518846 0.3027888 0.04727353 255 255 0 255 0.102696 0.282777
0.053055 3.147132 41.82436 -0.9734058 0.226497 0.03435334 255 255 0 255 0.102696 0.282777
-0.354553 1.074837 35.24516 -0.9948079 0.09757022 0.02893688 255 255 0 255 0.102696 0.282777
-0.354553 -0.09036634 35.24516 -0.9874479 -0.1421457 0.0688573 255 255 0 255 0.102696 0.282777
0.017044 -2.3042 35.28936 -0.9849203 -0.162553 0.05923295 255 255 0 255 0.102696 0.282777
0.043045 -0.8847311 38.83316 -0.9857702 -0.1508596 0.0741528 255 255 0 255 0.102696 0.282777
0.275314 -0.9147291 38.92085 0.9852984 -0.1535751 0.0748454 255 255 0 255 0.102696 0.282777
0.302734 -2.358712 35.29558 0.9844849 -0.1647396 0.06041874 255 255 0 255 0.102696 0.282777
0.689133 -0.09038034 35.24516 0.9869673 -0.1450282 0.06973077 255 255 0 255 0.102696 0.282777
0.689133 -0.09038223 10.14697 0.894737 0.4017437 0.1950582 255 255 0 255 0.102325 0.230789
0.689133 1.074835 10.14697 0.8788603 -0.4587014 0.13114 255 255 0 255 0.102325 0.230789
0.402145 0.8045098 10.90659 0.9667847 -0.1711094 0.1898657 255 255 0 255 0.102325 0.230789
0.402145 0.1799568 10.90659 0.9759314 0.1961772 0.09524974 255 255 0 255 0.102325 0.230789
0.689133 1.074837 35.24516 0.9177967 -0.3519726 -0.1837514 255 255 0 255 0.102325 0.230789
0.689133 -0.09038034 35.24516 0.8947361 0.4017445 -0.1950609 255 255 0 255 0.102325 0.230789
0.402145 0.1799586 34.48554 0.934324 0.3206298 -0.1556768 255 255 0 255 0.102325 0.230789
0.402145 0.8045116 34.48555 0.9808695 -0.1725656 -0.0900899 255 255 0 255 0.102325 0.230789
-0.354553 1.074835 10.14697 -0.8947296 -0.4017555 0.1950679 255 255 0 255 0.102325 0.230789
-0.354553 -0.09036823 10.14697 -0.8933799 0.4293881 0.1322807 255 255 0 255 0.102325 0.230789
-0.067551 0.1799568 10.90659 -0.9686986 0.1603546 0.1894979 255 255 0 255 0.102325 0.230789
-0.067551 0.8044958 10.90659 -0.9759298 -0.1961827 0.09525429 255 255 0 255 0.102325 0.230789
-0.354553 -0.09036634 35.24516 -0.8947309 0.4017558 -0.1950613 255 255 0 255 0.102325 0.230789
-0.354553 1.074837 35.24516 -0.9206359 -0.3367924 -0.1974855 255 255 0 255 0.102325 0.230789
-0.067566 0.8044976 34.48555 -0.9501032 -0.2690871 -0.1577851 255 255 0 255 0.102325 0.230789
-0.067566 0.1799586 34.48554 -0.9759301 0.1961829 -0.09525111 255 255 0 255 0.102325 0.230789
-0.546829 -2.003526 4.245098 -0.5908669 -0.8037788 -0.06939675 255 255 0 255 0.036032 0.230524
0.881393 -2.003512 4.245098 0.5885228 -0.8082495 -0.01933458 255 255 0 255 0.036032 0.230524
0.829391 -2.493185 6.053673 0.3770025 -0.8961217 -0.2341689 255 255 0 255 0.036032 0.230524
-0.494812 -2.493185 6.053673 -0.7539952 -0.6381217 -0.1558591 255 255 0 255 0.036032 0.230524
-0.766022 -1.720322 6.053673 -0.9938056 -0.1106752 0.01007057 255 255 0 255 0.036032 0.230524
-0.839325 -1.099148 4.245094 -0.9863327 -0.1641907 0.01376174 255 255 0 255 0.036032 0.230524
-0.839325 1.101665 4.802422 -0.9804938 0.1914768 0.04436984 255 255 0 255 0.036032 0.230524
-0.766006 1.40148 6.053673 -0.9601039 0.2796423 0.0008407108 255 255 0 255 0.036032 0.230524
-0.546829 1.816539 4.802422 -0.5496959 0.8346058 0.0356054 255 255 0 255 0.036032 0.230524
-0.494812 1.928856 6.053673 -0.3529412 0.9323876 -0.07801296 255 255 0 255 0.036032 0.230524
0.881393 1.816553 4.802422 0.5565016 0.8307555 0.01229911 255 255 0 255 0.036032 0.230524
0.829391 1.928856 6.053673 0.7058684 0.706427 -0.05206458 255 255 0 255 0.036032 0.230524
1.100601 1.40148 6.053673 0.9902255 0.1372911 0.0245894 255 255 0 255 0.036032 0.230524
1.173889 1.10168 4.802422 0.9795574 0.1991378 0.02848841 255 255 0 255 0.036032 0.230524
1.173889 -1.099148 4.245094 0.9860719 -0.1622431 0.03659855 255 255 0 255 0.036032 0.230524
1.100586 -1.720322 6.053673 0.975924 -0.2163302 -0.02781617 255 255 0 255 0.036032 0.230524
0.458847 3.110658 21.75329 0.9215244 0.3249831 -0.2125531 255 255 0 255 0.102696 0.282777
-0.124268 3.110658 21.75329 -0.9667472 0.2282308 -0.1153715 255 255 0 255 0.102696 0.282777
-0.124252 3.775119 31.64282 -0.9485933 0.3164907 -0.002135969 255 255 0 255 0.102696 0.282777
0.458847 3.775119 31.64282 0.9436099 0.3307471 0.01438182 255 255 0 255 0.102696 0.282777
-0.23941 2.139752 21.64284 -0.9646223 0.2052678 -0.1654356 255 255 0 255 0.102696 0.282777
-0.067566 0.8044974 31.47167 -0.9490378 -0.3151619 0.0003998167 255 255 0 255 0.102325 0.230789
-0.354553 1.226793 31.59589 -0.7901818 -0.6128352 -0.006773912 255 255 0 255 0.102325 0.230789
-0.354553 1.074836 22.38955 -0.7920439 -0.610454 0.003519016 255 255 0 255 0.102325 0.230789
-0.067551 0.6960097 22.34585 -0.9411112 -0.3380964 -0.0006703534 255 255 0 255 0.102325 0.230789
-0.067551 0.1799577 22.38955 -0.9279865 0.3726095 -0.001798012 255 255 0 255 0.102325 0.230789
-0.067566 0.1799584 31.47166 -0.9180568 0.3964487 -7.322957e-07 255 255 0 255 0.102325 0.230789
-0.354553 -0.09036731 22.38955 -0.7557786 0.6547932 -0.006679628 255 255 0 255 0.102325 0.230789
-0.354553 -0.09036662 31.47167 -0.6856537 0.727928 -4.341224e-07 255 255 0 255 0.102325 0.230789
-0.354553 -0.09036731 22.38955 -0.9820017 -0.1888233 -0.004295659 255 255 0 255 0.102696 0.282777
0.02478 -1.965086 22.6019 -0.9784627 -0.2064069 -0.002636075 255 255 0 255 0.102696 0.282777
0.03447 -2.64128 31.35971 -0.9860055 -0.1666957 -0.002413296 255 255 0 255 0.102696 0.282777
-0.354553 -0.09036662 31.47167 -0.9867571 -0.1622014 0.001126918 255 255 0 255 0.102696 0.282777
0.402145 0.1799584 31.47166 0.9376992 0.3474399 -0.002413092 255 255 0 255 0.102325 0.230789
0.689133 -0.09038062 31.47167 0.7227272 0.6911297 -0.002265458 255 255 0 255 0.102325 0.230789
0.689133 -0.2887363 22.64557 0.7899787 0.6131332 -0.001183671 255 255 0 255 0.102325 0.230789
0.402145 0.1799577 22.38955 0.9457905 0.3247691 0.002331647 255 255 0 255 0.102325 0.230789
0.402145 0.8045107 22.38955 0.9397451 -0.3418618 -0.00313856 255 255 0 255 0.102325 0.230789
0.402145 0.6551264 31.3383 0.9388757 -0.3442325 0.004042578 255 255 0 255 0.102325 0.230789
0.689133 1.074836 22.38955 0.7631643 -0.6461717 -0.006504756 255 255 0 255 0.102325 0.230789
0.689133 1.074836 31.47167 0.7661501 -0.6426607 0.001148901 255 255 0 255 0.102325 0.230789
0.689133 1.074836 22.38955 0.9924062 0.1229921 -0.001738213 255 255 0 255 0.102696 0.282777
0.57399 2.139752 21.64284 0.9533345 0.2848065 -0.1001939 255 255 0 255 0.102696 0.282777
0.689133 1.074836 31.47167 0.9955522 0.09409166 0.004749863 255 255 0 255 0.102696 0.282777
0.275162 -2.774548 31.3597 0.984974 -0.1726984 -0.001235896 255 255 0 255 0.102696 0.282777
0.274918 -2.146575 22.6019 0.9780635 -0.2081805 -0.007271309 255 255 0 255 0.102696 0.282777
0.689133 -0.2887363 22.64557 0.9810382 -0.193727 -0.005832523 255 255 0 255 0.102696 0.282777
0.689133 -0.09038062 31.47167 0.9860982 -0.1661529 0.001921217 255 255 0 255 0.102696 0.282777
-0.354553 1.226793 31.59589 -0.9953049 0.09671423 0.003803183 255 255 0 255 0.102696 0.282777
0.689133 1.206845 16.29946 0.9835011 0.1808802 -0.002803223 255 255 0 255 0.102696 0.282777
0.57399 1.794218 16.41575 0.8163325 0.5765624 -0.03431081 255 255 0 255 0.102696 0.282777
0.57399 1.843584 17.16248 0.6343381 0.7713721 -0.0509939 255 255 0 255 0.102696 0.282777
0.57399 1.892935 17.90921 0.9526079 0.3040146 -0.01064549 255 255 0 255 0.102696 0.282777
-0.354553 1.074835 16.41575 -0.7287894 -0.6847261 -0.004026854 255 255 0 255 0.102325 0.230789
-0.067551 0.8044962 16.41576 -0.9240723 -0.3822162 -0.001088994 255 255 0 255 0.102325 0.230789
-0.067551 0.1799572 16.41575 -0.929573 0.3686381 6.847519e-05 255 255 0 255 0.102325 0.230789
-0.354553 -0.2864748 16.28103 -0.791406 0.6112909 0.0001135484 255 255 0 255 0.102325 0.230789
-0.354553 -0.2864748 16.28103 -0.9747113 -0.2234679 -0.0002347164 255 255 0 255 0.102696 0.282777
0.009506 -1.64934 16.51676 -0.9748143 -0.2230178 0.0005067422 255 255 0 255 0.102696 0.282777
0.296173 -1.77004 16.51675 0.9764576 -0.2157098 -2.725725e-05 255 255 0 255 0.102696 0.282777
0.689133 -0.09038176 16.41575 0.9756812 -0.2191508 -0.004367855 255 255 0 255 0.102696 0.282777
0.689133 -0.09038176 16.41575 0.7558841 0.6546714 0.006686894 255 255 0 255 0.102325 0.230789
0.402145 0.1799572 16.41575 0.9280054 0.3725625 0.001799447 255 255 0 255 0.102325 0.230789
0.402145 0.8045102 16.41576 0.9195006 -0.3930885 5.317218e-05 255 255 0 255 0.102325 0.230789
0.689133 1.206845 16.29946 0.7627367 -0.6467091 8.747887e-05 255 255 0 255 0.102325 0.230789
0.57399 1.691428 10.93056 0.6372123 0.7705531 -0.01444341 255 255 0 255 0.102696 0.282777
0.57399 1.706117 11.71416 0.8190789 0.5735804 -0.01074318 255 255 0 255 0.102696 0.282777
0.57399 1.720791 12.49776 0.8631145 0.5049136 -0.009782974 255 255 0 255 0.102696 0.282777
0.829407 1.380119 -5.04361 0.367707 0.8943912 -0.2546683 255 255 0 255 0.036032 0.230524
-0.494827 1.380105 -5.04361 -0.7354306 0.6321538 -0.2439743 255 255 0 255 0.036032 0.230524
-0.766006 0.5552756 -5.04361 -0.9757593 0.1463276 -0.1627333 255 255 0 255 0.036032 0.230524
-0.766006 -0.9978015 -6.057327 -0.9598129 -0.229267 -0.1618518 255 255 0 255 0.036032 0.230524
-0.494827 -1.646457 -6.057327 -0.3565933 -0.899803 -0.251388 255 255 0 255 0.036032 0.230524
0.829407 -1.646443 -6.057327 0.71319 -0.6647208 -0.2225002 255 255 0 255 0.036032 0.230524
1.100586 -0.9978015 -6.057327 0.9845059 -0.08298722 -0.154471 255 255 0 255 0.036032 0.230524
1.100586 0.5552756 -5.04361 0.9562645 0.2302306 -0.1804223 255 255 0 255 0.036032 0.230524
-0.23941 1.720791 12.49776 -0.9416578 0.3365478 -0.004028129 255 255 0 255 0.102696 0.282777
-0.23941 1.706117 11.71416 -0.6372131 0.7705525 -0.01443117 255 255 0 255 0.102696 0.282777
-0.23941 1.691428 10.93056 -0.8190789 0.5735801 -0.01075063 255 255 0 255 0.102696 0.282777
-0.23941 2.090386 20.8961 -0.4275662 0.9020151 -0.05963119 255 255 0 255 0.102696 0.282777
-0.23941 2.041019 20.14937 -0.97272 0.2317671 -0.009991813 255 255 0 255 0.102696 0.282777
-0.354553 1.074836 22.38955 -0.9937975 0.1111963 -0.001414971 255 255 0 255 0.102696 0.282777
-0.084015 2.484775 11.13717 -0.7138894 0.595101 -0.3690755 255 255 0 255 0.102286 0.302867
-0.23941 1.691428 10.93056 -0.4298084 0.3050475 -0.8498298 255 255 0 255 0.102286 0.302867
-0.23941 1.706117 11.71416 -0.8626847 0.2799712 0.4211785 255 255 0 255 0.102286 0.302867
-0.083969 2.498658 11.50752 -0.2872421 0.7889752 0.5431483 255 255 0 255 0.102286 0.302867
0.418549 2.484761 11.13721 0.2799786 0.7688383 -0.574891 255 255 0 255 0.102286 0.302867
0.418579 2.498658 11.50756 0.722608 0.6024533 0.338951 255 255 0 255 0.102286 0.302867
0.57399 1.706117 11.71416 0.4313277 0.3063352 0.848596 255 255 0 255 0.102286 0.302867
0.57399 1.691428 10.93056 0.8596441 0.2788924 -0.4280552 255 255 0 255 0.102286 0.302867
-0.083984 2.5435 12.70438 -0.7175162 0.589412 -0.3711659 255 255 0 255 0.102286 0.302867
-0.23941 1.720791 12.49776 -0.4309447 0.2951159 -0.8527563 255 255 0 255 0.102286 0.302867
-0.23941 1.735479 13.28136 -0.8648497 0.2707614 0.4227568 255 255 0 255 0.102286 0.302867
-0.083984 2.557396 13.07473 -0.2889415 0.785708 0.5469697 255 255 0 255 0.102286 0.302867
0.418564 2.5435 12.70438 0.2815451 0.7654687 -0.5786105 255 255 0 255 0.102286 0.302867
0.418564 2.557396 13.07473 0.72631 0.5967172 0.341178 255 255 0 255 0.102286 0.302867
0.57399 1.735479 13.28136 0.4324248 0.2963239 0.8515873 255 255 0 255 0.102286 0.302867
0.57399 1.720791 12.49776 0.8618894 0.2697378 -0.4294046 255 255 0 255 0.102286 0.302867
-0.084 2.602238 14.27155 -0.7208939 0.5840679 -0.373064 255 255 0 255 0.102286 0.302867
-0.23941 1.750167 14.06495 -0.4319404 0.2857968 -0.8554226 255 255 0 255 0.102286 0.302867
-0.23941 1.764855 14.84855 -0.8667963 0.2620936 0.4242302 255 255 0 255 0.102286 0.302867
-0.083969 2.616135 14.64191 -0.2905408 0.7825992 0.5505675 255 255 0 255 0.102286 0.302867
0.418549 2.602239 14.2716 0.2830636 0.7622805 -0.5820684 255 255 0 255 0.102286 0.302867
0.418579 2.616121 14.64195 0.7297569 0.5913104 0.3432301 255 255 0 255 0.102286 0.302867
0.57399 1.764841 14.84855 0.4333873 0.2869234 0.8543128 255 255 0 255 0.102286 0.302867
0.57399 1.750167 14.06495 0.8639169 0.2611353 -0.4306461 255 255 0 255 0.102286 0.302867
-0.083984 2.660977 15.83878 -0.724053 0.5789936 -0.3748515 255 255 0 255 0.102286 0.302867
-0.23941 1.779529 15.63216 -0.4328839 0.2770096 -0.8578328 255 255 0 255 0.102286 0.302867
-0.23941 1.794218 16.41575 -0.8685724 0.2539583 0.4255435 255 255 0 255 0.102286 0.302867
-0.083984 2.67486 16.20913 -0.2920349 0.7796708 0.5539215 255 255 0 255 0.102286 0.302867
0.418564 2.660977 15.83878 0.4946055 0.703775 -0.5099667 255 255 0 255 0.102286 0.302867
0.418564 2.67486 16.20913 0.505044 0.7187275 0.4778717 255 255 0 255 0.102286 0.302867
0.57399 1.794218 16.41575 0.6843089 0.279445 0.673522 255 255 0 255 0.102286 0.302867
0.57399 1.779529 15.63216 0.681569 0.2781918 -0.6768109 255 255 0 255 0.102286 0.302867
-0.083984 2.759879 17.35938 -0.7223645 0.5661671 -0.3970446 255 255 0 255 0.102286 0.302867
-0.23941 1.843584 17.16248 -0.4326378 0.2586651 -0.8636649 255 255 0 255 0.102286 0.302867
-0.23941 1.892935 17.90921 -0.8729604 0.2448184 0.4219054 255 255 0 255 0.102286 0.302867
-0.083984 2.78879 17.71231 -0.2992 0.786823 0.5398046 255 255 0 255 0.102286 0.302867
0.418564 2.759879 17.35938 0.2823811 0.7399696 -0.6104965 255 255 0 255 0.102286 0.302867
0.418564 2.78879 17.71231 0.7426375 0.5837816 0.3281595 255 255 0 255 0.102286 0.302867
0.57399 1.892935 17.90921 0.4364802 0.2650183 0.8597967 255 255 0 255 0.102286 0.302867
0.57399 1.843584 17.16248 0.8652755 0.2406531 -0.4397551 255 255 0 255 0.102286 0.302867
-0.083984 2.882191 18.85283 -0.7245758 0.5625772 -0.3981165 255 255 0 255 0.102286 0.302867
-0.23941 1.942301 18.65593 -0.4332817 0.2525985 -0.8651364 255 255 0 255 0.102286 0.302867
-0.23941 1.991653 19.40266 -0.8740975 0.2389339 0.4229234 255 255 0 255 0.102286 0.302867
-0.083984 2.911073 19.20576 -0.3003125 0.78471 0.542257 255 255 0 255 0.102286 0.302867
0.418564 2.882191 18.85283 0.2833395 0.7378531 -0.6126105 255 255 0 255 0.102286 0.302867
0.418564 2.911073 19.20576 0.7449279 0.5800267 0.329623 255 255 0 255 0.102286 0.302867
0.57399 1.991653 19.40266 0.4370488 0.2586616 0.8614422 255 255 0 255 0.102286 0.302867
0.57399 1.942301 18.65593 0.8665634 0.2349577 -0.4402986 255 255 0 255 0.102286 0.302867
-0.083984 3.004489 20.34628 -0.7266609 0.5591265 -0.399176 255 255 0 255 0.102286 0.302867
-0.23941 2.041019 20.14937 -0.433869 0.2468014 -0.8665142 255 255 0 255 0.102286 0.302867
-0.23941 2.090386 20.8961 -0.8751555 0.2333183 0.4238697 255 255 0 255 0.102286 0.302867
-0.083984 3.033386 20.6992 -0.3013865 0.7827139 0.5445413 255 255 0 255 0.102286 0.302867
0.418564 3.004489 20.34628 0.2842517 0.7357885 -0.6146676 255 255 0 255 0.102286 0.302867
0.418564 3.033386 20.6992 0.7471161 0.576436 0.3309669 255 255 0 255 0.102286 0.302867
0.57399 2.090386 20.8961 0.4375778 0.2525939 0.8629728 255 255 0 255 0.102286 0.302867
0.57399 2.041019 20.14939 0.8677641 0.2295155 -0.4408039 255 255 0 255 0.102286 0.302867
-0.23941 1.991653 19.40266 -0.4433082 0.8944169 -0.05912942 255 255 0 255 0.102696 0.282777
0.57399 2.041019 20.14939 0.6406882 0.7661288 -0.05064889 255 255 0 255 0.102696 0.282777
0.57399 1.991653 19.40266 0.8175029 0.5746702 -0.03799073 255 255 0 255 0.102696 0.282777
-0.23941 1.735479 13.28136 -0.4592932 0.8881288 -0.01664754 255 255 0 255 0.102696 0.282777
-0.23941 1.750167 14.06495 -0.6906705 0.7230426 -0.01355307 255 255 0 255 0.102696 0.282777
0.57399 1.750167 14.06495 0.3876985 0.9216244 -0.01727472 255 255 0 255 0.102696 0.282777
0.57399 1.735479 13.28136 0.6135145 0.7895448 -0.01479963 255 255 0 255 0.102696 0.282777
-0.23941 1.794218 16.41575 -0.7674948 0.6399027 -0.03842368 255 255 0 255 0.102696 0.282777
-0.23941 1.843584 17.16248 -0.8319995 0.5535682 -0.03659537 255 255 0 255 0.102696 0.282777
-0.23941 1.764855 14.84855 -0.7257462 0.6878419 -0.01288725 255 255 0 255 0.102696 0.282777
-0.23941 1.779529 15.63216 -0.6488129 0.7608144 -0.01425419 255 255 0 255 0.102696 0.282777
0.57399 1.779529 15.63216 0.6351837 0.7722256 -0.01446911 255 255 0 255 0.102696 0.282777
0.57399 1.764841 14.84855 0.7464871 0.6652831 -0.01246485 255 255 0 255 0.102696 0.282777
-0.23941 1.892935 17.90921 -0.6486977 0.7593886 -0.05020231 255 255 0 255 0.102696 0.282777
-0.23941 1.942301 18.65593 -0.7746619 0.6309984 -0.04171369 255 255 0 255 0.102696 0.282777
0.57399 1.942301 18.65593 0.6081174 0.792118 -0.05236633 255 255 0 255 0.102696 0.282777
0.57399 2.090386 20.8961 0.8551324 0.5172806 -0.03419693 255 255 0 255 0.102696 0.282777
-0.354553 1.074835 16.41575 -0.9888966 0.1485745 -0.003034445 255 255 0 255 0.102696 0.282777
-0.541962 4.021904 7.606277 -0.5532069 0.7190841 0.4205714 255 255 0 255 0.103367 0.282777
0.876541 4.021904 7.606277 0.3679878 0.3642642 0.8555096 255 255 0 255 0.103367 0.282777
0.876556 4.245551 6.479506 0.5188456 0.8455751 -0.1257068 255 255 0 255 0.103367 0.282777
-0.541977 4.245578 6.479506 -0.3301585 0.7625084 -0.5563959 255 255 0 255 0.103367 0.282777
0.009506 -1.64934 16.51676 -0.9743328 -0.2250943 0.002848325 255 255 0 255 0.103106 0.324596
0.020081 -1.961892 10.14697 -0.9724705 -0.2328197 0.00980902 255 255 0 255 0.103106 0.324596
0.167297 -2.576789 10.14697 -8.952151e-06 -0.9991133 0.04210328 255 255 0 255 0.103106 0.324596
0.167282 -2.308372 16.51676 -0.0002995022 -0.999803 -0.01984548 255 255 0 255 0.103106 0.324596
0.02478 -1.965086 22.6019 -0.9793493 -0.2018262 -0.01188351 255 255 0 255 0.103106 0.324596
0.167282 -2.706988 22.6019 -0.0001377841 -0.9978317 -0.06581727 255 255 0 255 0.103106 0.324596
0.03447 -2.64128 31.35971 -0.9804461 -0.1967765 -0.002114258 255 255 0 255 0.103106 0.324596
0.167282 -3.351135 31.3597 -0.0007112019 -0.9989255 0.04634029 255 255 0 255 0.103106 0.324596
0.017044 -2.3042 35.28936 -0.9729941 -0.2257857 0.04799199 255 255 0 255 0.103106 0.324596
0.167282 -2.857814 35.3525 -0.0003785853 -0.9517936 0.3067391 255 255 0 255 0.103106 0.324596
0.043045 -0.8847311 38.83316 -0.9738426 -0.1957679 0.1153493 255 255 0 255 0.103106 0.324596
0.167282 -1.114865 39.50595 -2.405427e-05 -0.7596645 0.6503153 255 255 0 255 0.103106 0.324596
0.053055 3.147132 41.82436 -0.9847956 -0.1026349 0.1401565 255 255 0 255 0.103106 0.324596
0.167282 3.13079 42.64662 3.603414e-05 -0.5910465 0.8066376 255 255 0 255 0.103106 0.324596
0.167282 3.13079 42.64662 0.0002100836 0.9998032 0.01984135 255 255 0 255 0.102696 0.282777
0.275314 -0.9147291 38.92085 0.9738167 -0.1959359 0.1152831 255 255 0 255 0.103106 0.324596
0.281265 3.146991 41.82906 0.984808 -0.1026736 0.1400407 255 255 0 255 0.103106 0.324596
0.302734 -2.358712 35.29558 0.972645 -0.2271295 0.04872153 255 255 0 255 0.103106 0.324596
0.275162 -2.774548 31.3597 0.9803299 -0.1973584 -0.001767179 255 255 0 255 0.103106 0.324596
0.274918 -2.146575 22.6019 0.9792307 -0.2023753 -0.01231073 255 255 0 255 0.103106 0.324596
0.296173 -1.77004 16.51675 0.9742641 -0.2253941 0.002644378 255 255 0 255 0.103106 0.324596
0.268845 -2.152669 10.14697 0.9724663 -0.2328366 0.009814034 255 255 0 255 0.103106 0.324596
3 0 1 2 
3 3 1 0 
3 4 1 3 
3 5 1 4 
3 6 1 5 
3 2 1 6 
3 3 7 8 
3 3 8 4 
3 4 8 9 
3 4 9 5 
3 5 9 10 
3 5 10 6 
3 6 10 11 
3 6 11 2 
3 2 11 12 
3 2 12 0 
3 0 12 7 
3 0 7 3 
3 13 14 15 
3 16 13 15 
3 17 16 15 
3 18 17 15 
3 19 18 15 
3 14 19 15 
3 16 17 20 
3 16 20 21 
3 17 18 22 
3 17 22 20 
3 18 19 23 
3 18 23 22 
3 19 14 24 
3 19 24 23 
3 14 13 25 
3 14 25 24 
3 13 16 21 
3 13 21 25 
3 26 27 28 
3 29 27 26 
3 30 27 29 
3 31 27 30 
3 32 27 31 
3 28 27 32 
3 29 33 34 
3 29 34 30 
3 30 34 35 
3 30 35 31 
3 31 35 36 
3 31 36 32 
3 32 36 37 
3 32 37 28 
3 28 37 38 
3 28 38 26 
3 26 38 33 
3 26 33 29 
3 39 40 41 
3 42 39 41 
3 43 42 41 
3 44 43 41 
3 45 44 41 
3 40 45 41 
3 42 43 46 
3 42 46 47 
3 43 44 48 
3 43 48 46 
3 44 45 49 
3 44 49 48 
3 45 40 50 
3 45 50 49 
3 40 39 51 
3 40 51 50 
3 39 42 47 
3 39 47 51 
3 52 53 54 
3 52 54 55 
3 56 57 58 
3 56 58 59 
3 60 61 62 
3 60 62 63 
3 59 58 64 
3 59 64 65 
3 63 62 66 
3 63 66 67 
3 65 64 68 
3 65 68 69 
3 67 66 70 
3 67 70 71 
3 69 68 72 
3 69 72 73 
3 71 74 75 
3 71 70 76 
3 71 76 74 
3 77 73 76 
3 77 76 78 
3 73 72 53 
3 73 53 52 
3 53 72 74 
3 53 74 54 
3 74 76 55 
3 74 55 54 
3 52 55 76 
3 52 76 73 
3 79 57 60 
3 79 60 80 
3 58 57 79 
3 58 79 81 
3 60 63 82 
3 60 82 80 
3 64 58 81 
3 64 81 83 
3 63 67 84 
3 63 84 82 
3 68 83 85 
3 67 71 84 
3 56 59 86 
3 56 86 87 
3 87 88 61 
3 87 61 56 
3 62 61 88 
3 62 88 89 
3 59 65 90 
3 59 90 86 
3 66 62 89 
3 66 89 91 
3 65 69 90 
3 70 91 78 
3 92 93 94 
3 92 94 95 
3 95 94 96 
3 95 96 97 
3 93 92 98 
3 93 98 99 
3 96 100 101 
3 96 101 97 
3 94 102 100 
3 94 100 96 
3 93 103 102 
3 93 102 94 
3 104 103 93 
3 104 93 99 
3 105 106 107 
3 105 107 108 
3 92 109 110 
3 92 110 98 
3 95 111 109 
3 95 109 92 
3 101 111 95 
3 101 95 97 
3 98 110 106 
3 98 106 105 
3 110 104 107 
3 110 107 106 
3 104 99 108 
3 104 108 107 
3 99 98 105 
3 99 105 108 
3 112 113 114 
3 112 114 115 
3 116 117 112 
3 116 112 118 
3 119 117 116 
3 119 116 120 
3 121 119 120 
3 121 120 122 
3 123 121 122 
3 123 122 124 
3 125 126 123 
3 125 123 124 
3 127 126 125 
3 127 125 128 
3 113 129 114 
3 130 131 132 
3 130 132 133 
3 131 134 135 
3 131 135 132 
3 134 136 137 
3 134 137 135 
3 138 137 136 
3 138 136 139 
3 139 140 141 
3 139 141 138 
3 140 142 143 
3 140 143 141 
3 142 144 145 
3 142 145 143 
3 133 145 144 
3 133 144 130 
3 146 147 101 
3 146 101 100 
3 148 146 100 
3 148 100 102 
3 149 148 102 
3 149 102 103 
3 150 149 103 
3 150 103 104 
3 151 152 110 
3 151 110 109 
3 153 151 109 
3 153 109 111 
3 147 153 111 
3 147 111 101 
3 152 150 104 
3 152 104 110 
3 120 116 154 
3 128 125 155 
3 125 124 156 
3 125 156 155 
3 124 122 157 
3 122 120 154 
3 122 154 158 
3 159 160 161 
3 160 162 163 
3 160 163 161 
3 162 164 163 
3 165 166 167 
3 168 169 170 
3 170 159 161 
3 170 161 168 
3 163 164 165 
3 163 165 167 
3 171 172 173 
3 171 173 174 
3 175 176 177 
3 175 177 178 
3 179 180 181 
3 179 181 182 
3 183 184 185 
3 183 185 186 
3 187 188 189 
3 187 189 190 
3 190 191 192 
3 190 192 187 
3 193 192 191 
3 193 191 194 
3 195 193 194 
3 195 194 196 
3 197 195 196 
3 197 196 198 
3 198 199 200 
3 198 200 197 
3 201 200 199 
3 201 199 202 
3 188 201 202 
3 188 202 189 
3 203 204 205 
3 203 205 206 
3 204 207 205 
3 208 209 210 
3 208 210 211 
3 211 212 213 
3 211 213 208 
3 212 214 215 
3 212 215 213 
3 216 217 218 
3 216 218 219 
3 220 221 222 
3 220 222 223 
3 223 224 225 
3 223 225 220 
3 224 226 227 
3 224 227 225 
3 228 229 206 
3 228 206 230 
3 231 232 233 
3 231 233 234 
3 220 225 178 
3 220 178 177 
3 177 176 221 
3 177 221 220 
3 169 231 234 
3 169 234 170 
3 219 218 166 
3 219 166 165 
3 213 215 183 
3 213 183 186 
3 208 213 186 
3 208 186 185 
3 185 184 209 
3 185 209 208 
3 205 235 164 
3 205 164 162 
3 206 205 162 
3 206 162 160 
3 230 206 160 
3 230 160 159 
3 225 227 175 
3 225 175 178 
3 236 237 238 
3 236 238 239 
3 211 210 240 
3 211 240 241 
3 241 242 212 
3 241 212 211 
3 242 243 214 
3 242 214 212 
3 244 245 217 
3 244 217 216 
3 232 246 247 
3 232 247 233 
3 223 222 248 
3 223 248 249 
3 249 250 224 
3 249 224 223 
3 250 251 226 
3 250 226 224 
3 241 240 179 
3 241 179 182 
3 182 181 242 
3 182 242 241 
3 180 243 242 
3 180 242 181 
3 155 156 245 
3 155 245 244 
3 246 158 154 
3 246 154 247 
3 249 248 171 
3 249 171 174 
3 174 173 250 
3 174 250 249 
3 172 251 250 
3 172 250 173 
3 116 118 252 
3 116 252 253 
3 116 253 254 
3 69 73 77 
3 78 76 70 
3 85 72 68 
3 75 74 72 
3 75 72 85 
3 68 64 83 
3 84 71 75 
3 70 66 91 
3 90 69 77 
3 138 141 195 
3 138 195 197 
3 141 143 193 
3 141 193 195 
3 143 145 192 
3 143 192 193 
3 187 192 145 
3 187 145 133 
3 133 132 188 
3 133 188 187 
3 132 135 201 
3 132 201 188 
3 135 137 200 
3 135 200 201 
3 197 200 137 
3 197 137 138 
3 255 256 140 
3 255 140 139 
3 256 257 142 
3 256 142 140 
3 257 258 144 
3 257 144 142 
3 130 144 258 
3 130 258 259 
3 259 260 131 
3 259 131 130 
3 260 261 134 
3 260 134 131 
3 261 262 136 
3 261 136 134 
3 139 136 262 
3 139 262 255 
3 113 127 128 
3 113 128 129 
3 128 263 264 
3 128 264 265 
3 128 265 129 
3 207 266 267 
3 207 267 268 
3 205 207 268 
3 205 268 235 
3 118 112 115 
3 206 229 203 
3 269 270 271 
3 269 271 272 
3 273 269 272 
3 273 272 274 
3 274 275 276 
3 274 276 273 
3 277 278 279 
3 277 279 280 
3 281 277 280 
3 281 280 282 
3 282 283 284 
3 282 284 281 
3 285 286 287 
3 285 287 288 
3 289 285 288 
3 289 288 290 
3 290 291 292 
3 290 292 289 
3 293 294 295 
3 293 295 296 
3 297 293 296 
3 297 296 298 
3 299 300 297 
3 299 297 298 
3 301 302 303 
3 301 303 304 
3 305 301 304 
3 305 304 306 
3 306 307 308 
3 306 308 305 
3 309 310 311 
3 309 311 312 
3 313 309 312 
3 313 312 314 
3 314 315 316 
3 314 316 313 
3 317 318 319 
3 317 319 320 
3 321 317 320 
3 321 320 322 
3 322 323 324 
3 322 324 321 
3 312 311 315 
3 312 315 314 
3 325 267 326 
3 325 326 327 
3 318 317 321 
3 318 321 324 
3 114 129 118 
3 114 118 115 
3 129 265 252 
3 129 252 118 
3 270 269 273 
3 270 273 276 
3 280 279 283 
3 280 283 282 
3 328 329 330 
3 328 330 331 
3 286 285 289 
3 286 289 292 
3 296 295 299 
3 296 299 298 
3 332 333 238 
3 332 238 237 
3 302 301 305 
3 302 305 308 
3 272 271 275 
3 272 275 274 
3 264 263 254 
3 264 254 253 
3 278 277 281 
3 278 281 284 
3 288 287 291 
3 288 291 290 
3 334 335 336 
3 334 336 337 
3 294 293 297 
3 294 297 300 
3 304 303 307 
3 304 307 306 
3 338 339 340 
3 338 340 239 
3 310 309 313 
3 310 313 316 
3 320 319 323 
3 320 323 322 
3 266 207 229 
3 266 229 341 
3 207 204 203 
3 207 203 229 
3 332 335 334 
3 332 334 342 
3 128 342 263 
3 263 342 328 
3 328 342 329 
3 342 334 329 
3 236 337 336 
3 236 336 237 
3 116 254 236 
3 254 331 236 
3 331 330 236 
3 330 337 236 
3 342 339 338 
3 342 338 333 
3 342 333 332 
3 268 267 342 
3 267 325 342 
3 325 339 342 
3 236 239 228 
3 239 340 228 
3 340 327 228 
3 327 326 228 
3 228 326 341 
3 228 341 229 
3 343 344 345 
3 343 345 346 
3 56 61 344 
3 56 344 343 
3 61 60 345 
3 61 345 344 
3 60 57 346 
3 60 346 345 
3 57 56 343 
3 57 343 346 
3 156 124 157 
3 347 348 349 
3 347 349 350 
3 351 347 350 
3 351 350 352 
3 353 351 352 
3 353 352 354 
3 355 353 354 
3 355 354 356 
3 357 355 356 
3 357 356 358 
3 359 357 358 
3 359 358 360 
3 161 163 361 
3 358 362 363 
3 358 363 360 
3 356 364 362 
3 356 362 358 
3 354 365 364 
3 354 364 356 
3 352 366 365 
3 352 365 354 
3 350 367 366 
3 350 366 352 
3 349 368 367 
3 349 367 350 
3 122 158 157 
