ply
format ascii 1.0
comment VCGLIB generated
element vertex 32
property float x
property float y
property float z
property float nx
property float ny
property float nz
property uchar red
property uchar green
property uchar blue
property uchar alpha
property float texture_u
property float texture_v
element face 60
property list uchar int vertex_indices
end_header
2.798584 -25.65139 -4.84726 -0.396203 0.6099942 0.6862436 255 255 255 255 2.798584 -25.65139
-2.798584 -25.65139 -4.84726 0.396203 0.6099942 0.6862437 255 255 255 255 -2.798584 -25.65139
-2.798584 16.46027 -4.84726 0.3451454 0.6677127 0.6595715 255 255 255 255 -2.798584 16.46027
2.798584 16.46027 -4.84726 -0.3289424 0.6994771 0.6344516 255 255 255 255 2.798584 16.46027
-5.597168 -25.65139 3.051758e-05 0.7924058 0.6099943 -4.339975e-09 255 255 255 255 -5.597168 -25.65139
-5.597168 16.46027 3.051758e-05 0.7139228 0.6994766 -0.03235319 255 255 255 255 -5.597168 16.46027
-2.798584 -25.65139 4.847321 0.396203 0.6099942 -0.6862436 255 255 255 255 -2.798584 -25.65139
-2.798584 16.46027 4.847321 0.3780935 0.6543571 -0.6548756 255 255 255 255 -2.798584 16.46027
2.798584 -25.65139 4.847321 -0.396203 0.6099942 -0.6862437 255 255 255 255 2.798584 -25.65139
2.798584 16.46027 4.847321 -0.345145 0.6677132 -0.6595712 255 255 255 255 2.798584 16.46027
5.597168 -25.65139 3.051758e-05 -0.7924058 0.6099943 4.339975e-09 255 255 255 255 5.597168 -25.65139
5.597168 16.46027 3.051758e-05 -0.7006875 0.7134683 -4.058393e-07 255 255 255 255 5.597168 16.46027
0 -25.65139 3.051758e-05 -0 1 -0 255 255 255 255 0 -25.65139
-13.74512 25.62539 -23.80743 0.4731867 0.2039015 0.8570406 255 255 255 255 -13.74512 25.62539
13.74536 22.80277 -23.80742 -0.4527278 0.3267608 0.8296174 255 255 255 255 13.74536 22.80277
-27.49048 22.80277 3.051758e-05 0.9400723 0.340621 -0.01553785 255 255 255 255 -27.49048 22.80277
-13.74512 25.62539 23.8075 0.4928884 0.217536 -0.8424602 255 255 255 255 -13.74512 25.62539
13.74536 25.62539 23.8075 -0.4821202 0.2299542 -0.8453882 255 255 255 255 13.74536 25.62539
27.49048 22.80277 3.051758e-05 -0.9476984 0.3188874 -0.01336404 255 255 255 255 27.49048 22.80277
-8.147705 41.45755 -14.11223 0.4712604 -0.0679844 0.8793701 255 255 255 255 -8.147705 41.45755
8.147705 43.38378 -14.11223 -0.4885127 0.0674071 0.8699492 255 255 255 255 8.147705 43.38378
-16.29565 43.38378 3.051758e-05 0.9980702 0.05840209 -0.0210946 255 255 255 255 -16.29565 43.38378
-8.147705 41.45755 14.11227 0.5259226 -0.06797749 -0.8478116 255 255 255 255 -8.147705 41.45755
8.147705 43.38378 14.1123 -0.5121249 0.03039716 -0.858373 255 255 255 255 8.147705 43.38378
16.29565 41.45755 3.051758e-05 -0.9991711 -0.04050773 -0.004036276 255 255 255 255 16.29565 41.45755
-10.0564 47.64473 -17.41817 0.4991047 0.05432384 0.8648373 255 255 255 255 -10.0564 47.64473
10.0564 49.63488 -17.41817 -0.4968239 -0.004313651 0.8678407 255 255 255 255 10.0564 49.63488
-20.11255 49.63488 3.051758e-05 0.9998991 -0.01414587 -0.001314595 255 255 255 255 -20.11255 49.63488
-10.0564 47.64473 17.41824 0.5019683 0.0543218 -0.8631784 255 255 255 255 -10.0564 47.64473
10.0564 49.63488 17.41824 -0.4990904 -0.004311041 -0.8665392 255 255 255 255 10.0564 49.63488
20.11255 47.64473 3.051758e-05 -0.9979975 0.06323249 -0.001647057 255 255 255 255 20.11255 47.64473
0.6894531 86.09017 3.051758e-05 -0.01485353 -0.9998897 6.164026e-08 255 255 255 255 0.6894531 86.09017
3 0 1 2 
3 0 2 3 
3 1 4 5 
3 1 5 2 
3 4 6 7 
3 4 7 5 
3 6 8 9 
3 6 9 7 
3 8 10 11 
3 8 11 9 
3 10 0 3 
3 10 3 11 
3 1 0 12 
3 4 1 12 
3 6 4 12 
3 8 6 12 
3 10 8 12 
3 0 10 12 
3 3 2 13 
3 3 13 14 
3 2 5 15 
3 2 15 13 
3 5 7 16 
3 5 16 15 
3 7 9 17 
3 7 17 16 
3 9 11 18 
3 9 18 17 
3 11 3 14 
3 11 14 18 
3 14 13 19 
3 14 19 20 
3 13 15 21 
3 13 21 19 
3 15 16 22 
3 15 22 21 
3 16 17 23 
3 16 23 22 
3 17 18 24 
3 17 24 23 
3 18 14 20 
3 18 20 24 
3 20 19 25 
3 20 25 26 
3 19 21 27 
3 19 27 25 
3 21 22 28 
3 21 28 27 
3 22 23 29 
3 22 29 28 
3 23 24 30 
3 23 30 29 
3 24 20 26 
3 24 26 30 
3 26 25 31 
3 25 27 31 
3 27 28 31 
3 28 29 31 
3 29 30 31 
3 30 26 31 
