ply
format ascii 1.0
comment VCGLIB generated
comment TextureFile dummy.png
element vertex 4
property float x
property float y
property float z
property float nx
property float ny
property float nz
property uchar red
property uchar green
property uchar blue
property uchar alpha
property float texture_u
property float texture_v
element face 2
property list uchar int vertex_indices
end_header
-2.95361 1.55859 -3.28214 -0.7071069 0 0.7071066 192 192 192 255 0 1
-4.72218 1.55859 -5.05071 -0.7071069 0 0.7071066 192 192 192 255 0 0
-4.72218 2.17435 -5.05071 -0.7071069 0 0.7071066 255 255 255 255 1 0
-2.95361 2.17435 -3.28214 -0.7071069 0 0.7071066 255 255 255 255 1 1
3 1 0 2 
3 2 0 3 
